G04 #@! TF.FileFunction,Legend,Bot*
%FSLAX46Y46*%
G04 Gerber Fmt 4.6, Leading zero omitted, Abs format (unit mm)*
G04 Created by KiCad (PCBNEW 4.0.7) date 02/05/18 11:03:03*
%MOMM*%
%LPD*%
G01*
G04 APERTURE LIST*
%ADD10C,0.100000*%
%ADD11C,0.200000*%
%ADD12C,0.150000*%
%ADD13C,0.152400*%
%ADD14C,0.120000*%
G04 APERTURE END LIST*
D10*
D11*
X84432000Y-56266000D02*
G75*
G03X84432000Y-56266000I-254000J0D01*
G01*
X85702000Y-76840000D02*
G75*
G03X85702000Y-76840000I-254000J0D01*
G01*
D12*
X86508000Y-56931000D02*
X86508000Y-56276000D01*
X92008000Y-56931000D02*
X92008000Y-56181000D01*
X92008000Y-50521000D02*
X92008000Y-51271000D01*
X86508000Y-50521000D02*
X86508000Y-51271000D01*
X86508000Y-56931000D02*
X92008000Y-56931000D01*
X86508000Y-50521000D02*
X92008000Y-50521000D01*
X86508000Y-56276000D02*
X84758000Y-56276000D01*
D13*
X19246000Y-52044000D02*
X19246000Y-51344000D01*
X18046000Y-51344000D02*
X18046000Y-52044000D01*
X21024000Y-52044000D02*
X21024000Y-51344000D01*
X19824000Y-51344000D02*
X19824000Y-52044000D01*
X24834000Y-52044000D02*
X24834000Y-51344000D01*
X23634000Y-51344000D02*
X23634000Y-52044000D01*
X23056000Y-52044000D02*
X23056000Y-51344000D01*
X21856000Y-51344000D02*
X21856000Y-52044000D01*
X26108000Y-46268000D02*
X25408000Y-46268000D01*
X25408000Y-47468000D02*
X26108000Y-47468000D01*
X26108000Y-44490000D02*
X25408000Y-44490000D01*
X25408000Y-45690000D02*
X26108000Y-45690000D01*
X25408000Y-49246000D02*
X26108000Y-49246000D01*
X26108000Y-48046000D02*
X25408000Y-48046000D01*
D14*
X91360000Y-35158000D02*
X93760000Y-35158000D01*
X93760000Y-38258000D02*
X90810000Y-38258000D01*
X84502000Y-35158000D02*
X86902000Y-35158000D01*
X86902000Y-38258000D02*
X83952000Y-38258000D01*
X80026000Y-93088000D02*
X80026000Y-92088000D01*
X81726000Y-92088000D02*
X81726000Y-93088000D01*
X76312000Y-25190000D02*
X77312000Y-25190000D01*
X77312000Y-26890000D02*
X76312000Y-26890000D01*
X77232000Y-90040000D02*
X77232000Y-89040000D01*
X78932000Y-89040000D02*
X78932000Y-90040000D01*
X77232000Y-79118000D02*
X77232000Y-78118000D01*
X78932000Y-78118000D02*
X78932000Y-79118000D01*
X77232000Y-68196000D02*
X77232000Y-67196000D01*
X78932000Y-67196000D02*
X78932000Y-68196000D01*
X77232000Y-57274000D02*
X77232000Y-56274000D01*
X78932000Y-56274000D02*
X78932000Y-57274000D01*
X77232000Y-46352000D02*
X77232000Y-45352000D01*
X78932000Y-45352000D02*
X78932000Y-46352000D01*
X60802000Y-38066000D02*
X59802000Y-38066000D01*
X59802000Y-36366000D02*
X60802000Y-36366000D01*
X60802000Y-48988000D02*
X59802000Y-48988000D01*
X59802000Y-47288000D02*
X60802000Y-47288000D01*
X60802000Y-59910000D02*
X59802000Y-59910000D01*
X59802000Y-58210000D02*
X60802000Y-58210000D01*
X60802000Y-70832000D02*
X59802000Y-70832000D01*
X59802000Y-69132000D02*
X60802000Y-69132000D01*
X60802000Y-81754000D02*
X59802000Y-81754000D01*
X59802000Y-80054000D02*
X60802000Y-80054000D01*
X60802000Y-92422000D02*
X59802000Y-92422000D01*
X59802000Y-90722000D02*
X60802000Y-90722000D01*
X65374000Y-30954000D02*
X64374000Y-30954000D01*
X64374000Y-29254000D02*
X65374000Y-29254000D01*
X77232000Y-35430000D02*
X77232000Y-34430000D01*
X78932000Y-34430000D02*
X78932000Y-35430000D01*
X77328000Y-17570000D02*
X78328000Y-17570000D01*
X78328000Y-19270000D02*
X77328000Y-19270000D01*
X53610000Y-38986000D02*
X53610000Y-37986000D01*
X55310000Y-37986000D02*
X55310000Y-38986000D01*
X53610000Y-49908000D02*
X53610000Y-48908000D01*
X55310000Y-48908000D02*
X55310000Y-49908000D01*
X53610000Y-60830000D02*
X53610000Y-59830000D01*
X55310000Y-59830000D02*
X55310000Y-60830000D01*
X53610000Y-71752000D02*
X53610000Y-70752000D01*
X55310000Y-70752000D02*
X55310000Y-71752000D01*
X53610000Y-82674000D02*
X53610000Y-81674000D01*
X55310000Y-81674000D02*
X55310000Y-82674000D01*
X53610000Y-93596000D02*
X53610000Y-92596000D01*
X55310000Y-92596000D02*
X55310000Y-93596000D01*
X56230000Y-28668000D02*
X55230000Y-28668000D01*
X55230000Y-26968000D02*
X56230000Y-26968000D01*
X57596000Y-34430000D02*
X57596000Y-35430000D01*
X55896000Y-35430000D02*
X55896000Y-34430000D01*
X57596000Y-45352000D02*
X57596000Y-46352000D01*
X55896000Y-46352000D02*
X55896000Y-45352000D01*
X57596000Y-56274000D02*
X57596000Y-57274000D01*
X55896000Y-57274000D02*
X55896000Y-56274000D01*
X57596000Y-67196000D02*
X57596000Y-68196000D01*
X55896000Y-68196000D02*
X55896000Y-67196000D01*
X57596000Y-78118000D02*
X57596000Y-79118000D01*
X55896000Y-79118000D02*
X55896000Y-78118000D01*
X57596000Y-89040000D02*
X57596000Y-90040000D01*
X55896000Y-90040000D02*
X55896000Y-89040000D01*
X53864000Y-24508000D02*
X53864000Y-23508000D01*
X55564000Y-23508000D02*
X55564000Y-24508000D01*
X87488000Y-60750000D02*
X88488000Y-60750000D01*
X88488000Y-62450000D02*
X87488000Y-62450000D01*
D12*
X87669000Y-76811000D02*
X87669000Y-76561000D01*
X95419000Y-76811000D02*
X95419000Y-76476000D01*
X95419000Y-63661000D02*
X95419000Y-63996000D01*
X87669000Y-63661000D02*
X87669000Y-63996000D01*
X87669000Y-76811000D02*
X95419000Y-76811000D01*
X87669000Y-63661000D02*
X95419000Y-63661000D01*
X87669000Y-76561000D02*
X85869000Y-76561000D01*
D14*
X93949000Y-40860000D02*
X92949000Y-40860000D01*
X92949000Y-39160000D02*
X93949000Y-39160000D01*
X87345000Y-40860000D02*
X86345000Y-40860000D01*
X86345000Y-39160000D02*
X87345000Y-39160000D01*
X91706000Y-47748000D02*
X92906000Y-47748000D01*
X92906000Y-45988000D02*
X91706000Y-45988000D01*
X91706000Y-50034000D02*
X92906000Y-50034000D01*
X92906000Y-48274000D02*
X91706000Y-48274000D01*
X91382000Y-29478000D02*
X90182000Y-29478000D01*
X90182000Y-31238000D02*
X91382000Y-31238000D01*
X85794000Y-29478000D02*
X84594000Y-29478000D01*
X84594000Y-31238000D02*
X85794000Y-31238000D01*
X87572000Y-23890000D02*
X86372000Y-23890000D01*
X86372000Y-25650000D02*
X87572000Y-25650000D01*
X88588000Y-31764000D02*
X87388000Y-31764000D01*
X87388000Y-33524000D02*
X88588000Y-33524000D01*
X94176000Y-31764000D02*
X92976000Y-31764000D01*
X92976000Y-33524000D02*
X94176000Y-33524000D01*
X93460000Y-43630000D02*
X92260000Y-43630000D01*
X92260000Y-45390000D02*
X93460000Y-45390000D01*
X95446000Y-41416000D02*
X94246000Y-41416000D01*
X94246000Y-43176000D02*
X95446000Y-43176000D01*
X87642000Y-43176000D02*
X88842000Y-43176000D01*
X88842000Y-41416000D02*
X87642000Y-41416000D01*
X87318000Y-43702000D02*
X86118000Y-43702000D01*
X86118000Y-45462000D02*
X87318000Y-45462000D01*
D12*
X3943160Y-64790240D02*
X3894900Y-64790240D01*
D13*
X1144180Y-64089200D02*
X1144180Y-64790240D01*
X1144180Y-64790240D02*
X1393100Y-64790240D01*
X3943160Y-64790240D02*
X4143820Y-64790240D01*
X4143820Y-64790240D02*
X4143820Y-64089200D01*
D12*
X10801160Y-64790240D02*
X10752900Y-64790240D01*
D13*
X8002180Y-64089200D02*
X8002180Y-64790240D01*
X8002180Y-64790240D02*
X8251100Y-64790240D01*
X10801160Y-64790240D02*
X11001820Y-64790240D01*
X11001820Y-64790240D02*
X11001820Y-64089200D01*
D14*
X58786000Y-38398000D02*
X59786000Y-38398000D01*
X59786000Y-40098000D02*
X58786000Y-40098000D01*
X51246000Y-35700000D02*
X51246000Y-36700000D01*
X49546000Y-36700000D02*
X49546000Y-35700000D01*
X58786000Y-49320000D02*
X59786000Y-49320000D01*
X59786000Y-51020000D02*
X58786000Y-51020000D01*
X51246000Y-46622000D02*
X51246000Y-47622000D01*
X49546000Y-47622000D02*
X49546000Y-46622000D01*
X58786000Y-60242000D02*
X59786000Y-60242000D01*
X59786000Y-61942000D02*
X58786000Y-61942000D01*
X51246000Y-57544000D02*
X51246000Y-58544000D01*
X49546000Y-58544000D02*
X49546000Y-57544000D01*
X58786000Y-71164000D02*
X59786000Y-71164000D01*
X59786000Y-72864000D02*
X58786000Y-72864000D01*
X51246000Y-68466000D02*
X51246000Y-69466000D01*
X49546000Y-69466000D02*
X49546000Y-68466000D01*
X58786000Y-82086000D02*
X59786000Y-82086000D01*
X59786000Y-83786000D02*
X58786000Y-83786000D01*
X51246000Y-79388000D02*
X51246000Y-80388000D01*
X49546000Y-80388000D02*
X49546000Y-79388000D01*
X58786000Y-92754000D02*
X59786000Y-92754000D01*
X59786000Y-94454000D02*
X58786000Y-94454000D01*
X51246000Y-90310000D02*
X51246000Y-91310000D01*
X49546000Y-91310000D02*
X49546000Y-90310000D01*
X94330000Y-61260000D02*
X95530000Y-61260000D01*
X95530000Y-59500000D02*
X94330000Y-59500000D01*
D12*
X88749905Y-57496381D02*
X88749905Y-58305905D01*
X88702286Y-58401143D01*
X88654667Y-58448762D01*
X88559429Y-58496381D01*
X88368952Y-58496381D01*
X88273714Y-58448762D01*
X88226095Y-58401143D01*
X88178476Y-58305905D01*
X88178476Y-57496381D01*
X87749905Y-57591619D02*
X87702286Y-57544000D01*
X87607048Y-57496381D01*
X87368952Y-57496381D01*
X87273714Y-57544000D01*
X87226095Y-57591619D01*
X87178476Y-57686857D01*
X87178476Y-57782095D01*
X87226095Y-57924952D01*
X87797524Y-58496381D01*
X87178476Y-58496381D01*
D13*
X19003143Y-54861143D02*
X19050762Y-54813524D01*
X19098381Y-54670667D01*
X19098381Y-54575429D01*
X19050762Y-54432571D01*
X18955524Y-54337333D01*
X18860286Y-54289714D01*
X18669810Y-54242095D01*
X18526952Y-54242095D01*
X18336476Y-54289714D01*
X18241238Y-54337333D01*
X18146000Y-54432571D01*
X18098381Y-54575429D01*
X18098381Y-54670667D01*
X18146000Y-54813524D01*
X18193619Y-54861143D01*
X18098381Y-55194476D02*
X18098381Y-55861143D01*
X19098381Y-55432571D01*
X18431714Y-56670667D02*
X19098381Y-56670667D01*
X18050762Y-56432571D02*
X18765048Y-56194476D01*
X18765048Y-56813524D01*
X20781143Y-54861143D02*
X20828762Y-54813524D01*
X20876381Y-54670667D01*
X20876381Y-54575429D01*
X20828762Y-54432571D01*
X20733524Y-54337333D01*
X20638286Y-54289714D01*
X20447810Y-54242095D01*
X20304952Y-54242095D01*
X20114476Y-54289714D01*
X20019238Y-54337333D01*
X19924000Y-54432571D01*
X19876381Y-54575429D01*
X19876381Y-54670667D01*
X19924000Y-54813524D01*
X19971619Y-54861143D01*
X19876381Y-55194476D02*
X19876381Y-55861143D01*
X20876381Y-55432571D01*
X19876381Y-56146857D02*
X19876381Y-56813524D01*
X20876381Y-56384952D01*
X24845143Y-54861143D02*
X24892762Y-54813524D01*
X24940381Y-54670667D01*
X24940381Y-54575429D01*
X24892762Y-54432571D01*
X24797524Y-54337333D01*
X24702286Y-54289714D01*
X24511810Y-54242095D01*
X24368952Y-54242095D01*
X24178476Y-54289714D01*
X24083238Y-54337333D01*
X23988000Y-54432571D01*
X23940381Y-54575429D01*
X23940381Y-54670667D01*
X23988000Y-54813524D01*
X24035619Y-54861143D01*
X24940381Y-55337333D02*
X24940381Y-55527809D01*
X24892762Y-55623048D01*
X24845143Y-55670667D01*
X24702286Y-55765905D01*
X24511810Y-55813524D01*
X24130857Y-55813524D01*
X24035619Y-55765905D01*
X23988000Y-55718286D01*
X23940381Y-55623048D01*
X23940381Y-55432571D01*
X23988000Y-55337333D01*
X24035619Y-55289714D01*
X24130857Y-55242095D01*
X24368952Y-55242095D01*
X24464190Y-55289714D01*
X24511810Y-55337333D01*
X24559429Y-55432571D01*
X24559429Y-55623048D01*
X24511810Y-55718286D01*
X24464190Y-55765905D01*
X24368952Y-55813524D01*
X23940381Y-56146857D02*
X23940381Y-56765905D01*
X24321333Y-56432571D01*
X24321333Y-56575429D01*
X24368952Y-56670667D01*
X24416571Y-56718286D01*
X24511810Y-56765905D01*
X24749905Y-56765905D01*
X24845143Y-56718286D01*
X24892762Y-56670667D01*
X24940381Y-56575429D01*
X24940381Y-56289714D01*
X24892762Y-56194476D01*
X24845143Y-56146857D01*
X23067143Y-54861143D02*
X23114762Y-54813524D01*
X23162381Y-54670667D01*
X23162381Y-54575429D01*
X23114762Y-54432571D01*
X23019524Y-54337333D01*
X22924286Y-54289714D01*
X22733810Y-54242095D01*
X22590952Y-54242095D01*
X22400476Y-54289714D01*
X22305238Y-54337333D01*
X22210000Y-54432571D01*
X22162381Y-54575429D01*
X22162381Y-54670667D01*
X22210000Y-54813524D01*
X22257619Y-54861143D01*
X23162381Y-55337333D02*
X23162381Y-55527809D01*
X23114762Y-55623048D01*
X23067143Y-55670667D01*
X22924286Y-55765905D01*
X22733810Y-55813524D01*
X22352857Y-55813524D01*
X22257619Y-55765905D01*
X22210000Y-55718286D01*
X22162381Y-55623048D01*
X22162381Y-55432571D01*
X22210000Y-55337333D01*
X22257619Y-55289714D01*
X22352857Y-55242095D01*
X22590952Y-55242095D01*
X22686190Y-55289714D01*
X22733810Y-55337333D01*
X22781429Y-55432571D01*
X22781429Y-55623048D01*
X22733810Y-55718286D01*
X22686190Y-55765905D01*
X22590952Y-55813524D01*
X22495714Y-56670667D02*
X23162381Y-56670667D01*
X22114762Y-56432571D02*
X22829048Y-56194476D01*
X22829048Y-56813524D01*
X30210857Y-47225143D02*
X30258476Y-47272762D01*
X30401333Y-47320381D01*
X30496571Y-47320381D01*
X30639429Y-47272762D01*
X30734667Y-47177524D01*
X30782286Y-47082286D01*
X30829905Y-46891810D01*
X30829905Y-46748952D01*
X30782286Y-46558476D01*
X30734667Y-46463238D01*
X30639429Y-46368000D01*
X30496571Y-46320381D01*
X30401333Y-46320381D01*
X30258476Y-46368000D01*
X30210857Y-46415619D01*
X29734667Y-47320381D02*
X29544191Y-47320381D01*
X29448952Y-47272762D01*
X29401333Y-47225143D01*
X29306095Y-47082286D01*
X29258476Y-46891810D01*
X29258476Y-46510857D01*
X29306095Y-46415619D01*
X29353714Y-46368000D01*
X29448952Y-46320381D01*
X29639429Y-46320381D01*
X29734667Y-46368000D01*
X29782286Y-46415619D01*
X29829905Y-46510857D01*
X29829905Y-46748952D01*
X29782286Y-46844190D01*
X29734667Y-46891810D01*
X29639429Y-46939429D01*
X29448952Y-46939429D01*
X29353714Y-46891810D01*
X29306095Y-46844190D01*
X29258476Y-46748952D01*
X28401333Y-46320381D02*
X28591810Y-46320381D01*
X28687048Y-46368000D01*
X28734667Y-46415619D01*
X28829905Y-46558476D01*
X28877524Y-46748952D01*
X28877524Y-47129905D01*
X28829905Y-47225143D01*
X28782286Y-47272762D01*
X28687048Y-47320381D01*
X28496571Y-47320381D01*
X28401333Y-47272762D01*
X28353714Y-47225143D01*
X28306095Y-47129905D01*
X28306095Y-46891810D01*
X28353714Y-46796571D01*
X28401333Y-46748952D01*
X28496571Y-46701333D01*
X28687048Y-46701333D01*
X28782286Y-46748952D01*
X28829905Y-46796571D01*
X28877524Y-46891810D01*
X30210857Y-45701143D02*
X30258476Y-45748762D01*
X30401333Y-45796381D01*
X30496571Y-45796381D01*
X30639429Y-45748762D01*
X30734667Y-45653524D01*
X30782286Y-45558286D01*
X30829905Y-45367810D01*
X30829905Y-45224952D01*
X30782286Y-45034476D01*
X30734667Y-44939238D01*
X30639429Y-44844000D01*
X30496571Y-44796381D01*
X30401333Y-44796381D01*
X30258476Y-44844000D01*
X30210857Y-44891619D01*
X29734667Y-45796381D02*
X29544191Y-45796381D01*
X29448952Y-45748762D01*
X29401333Y-45701143D01*
X29306095Y-45558286D01*
X29258476Y-45367810D01*
X29258476Y-44986857D01*
X29306095Y-44891619D01*
X29353714Y-44844000D01*
X29448952Y-44796381D01*
X29639429Y-44796381D01*
X29734667Y-44844000D01*
X29782286Y-44891619D01*
X29829905Y-44986857D01*
X29829905Y-45224952D01*
X29782286Y-45320190D01*
X29734667Y-45367810D01*
X29639429Y-45415429D01*
X29448952Y-45415429D01*
X29353714Y-45367810D01*
X29306095Y-45320190D01*
X29258476Y-45224952D01*
X28687048Y-45224952D02*
X28782286Y-45177333D01*
X28829905Y-45129714D01*
X28877524Y-45034476D01*
X28877524Y-44986857D01*
X28829905Y-44891619D01*
X28782286Y-44844000D01*
X28687048Y-44796381D01*
X28496571Y-44796381D01*
X28401333Y-44844000D01*
X28353714Y-44891619D01*
X28306095Y-44986857D01*
X28306095Y-45034476D01*
X28353714Y-45129714D01*
X28401333Y-45177333D01*
X28496571Y-45224952D01*
X28687048Y-45224952D01*
X28782286Y-45272571D01*
X28829905Y-45320190D01*
X28877524Y-45415429D01*
X28877524Y-45605905D01*
X28829905Y-45701143D01*
X28782286Y-45748762D01*
X28687048Y-45796381D01*
X28496571Y-45796381D01*
X28401333Y-45748762D01*
X28353714Y-45701143D01*
X28306095Y-45605905D01*
X28306095Y-45415429D01*
X28353714Y-45320190D01*
X28401333Y-45272571D01*
X28496571Y-45224952D01*
X30210857Y-49003143D02*
X30258476Y-49050762D01*
X30401333Y-49098381D01*
X30496571Y-49098381D01*
X30639429Y-49050762D01*
X30734667Y-48955524D01*
X30782286Y-48860286D01*
X30829905Y-48669810D01*
X30829905Y-48526952D01*
X30782286Y-48336476D01*
X30734667Y-48241238D01*
X30639429Y-48146000D01*
X30496571Y-48098381D01*
X30401333Y-48098381D01*
X30258476Y-48146000D01*
X30210857Y-48193619D01*
X29734667Y-49098381D02*
X29544191Y-49098381D01*
X29448952Y-49050762D01*
X29401333Y-49003143D01*
X29306095Y-48860286D01*
X29258476Y-48669810D01*
X29258476Y-48288857D01*
X29306095Y-48193619D01*
X29353714Y-48146000D01*
X29448952Y-48098381D01*
X29639429Y-48098381D01*
X29734667Y-48146000D01*
X29782286Y-48193619D01*
X29829905Y-48288857D01*
X29829905Y-48526952D01*
X29782286Y-48622190D01*
X29734667Y-48669810D01*
X29639429Y-48717429D01*
X29448952Y-48717429D01*
X29353714Y-48669810D01*
X29306095Y-48622190D01*
X29258476Y-48526952D01*
X28782286Y-49098381D02*
X28591810Y-49098381D01*
X28496571Y-49050762D01*
X28448952Y-49003143D01*
X28353714Y-48860286D01*
X28306095Y-48669810D01*
X28306095Y-48288857D01*
X28353714Y-48193619D01*
X28401333Y-48146000D01*
X28496571Y-48098381D01*
X28687048Y-48098381D01*
X28782286Y-48146000D01*
X28829905Y-48193619D01*
X28877524Y-48288857D01*
X28877524Y-48526952D01*
X28829905Y-48622190D01*
X28782286Y-48669810D01*
X28687048Y-48717429D01*
X28496571Y-48717429D01*
X28401333Y-48669810D01*
X28353714Y-48622190D01*
X28306095Y-48526952D01*
D12*
X89742095Y-36144381D02*
X89742095Y-35144381D01*
X89504000Y-35144381D01*
X89361142Y-35192000D01*
X89265904Y-35287238D01*
X89218285Y-35382476D01*
X89170666Y-35572952D01*
X89170666Y-35715810D01*
X89218285Y-35906286D01*
X89265904Y-36001524D01*
X89361142Y-36096762D01*
X89504000Y-36144381D01*
X89742095Y-36144381D01*
X88789714Y-35239619D02*
X88742095Y-35192000D01*
X88646857Y-35144381D01*
X88408761Y-35144381D01*
X88313523Y-35192000D01*
X88265904Y-35239619D01*
X88218285Y-35334857D01*
X88218285Y-35430095D01*
X88265904Y-35572952D01*
X88837333Y-36144381D01*
X88218285Y-36144381D01*
X83138095Y-36144381D02*
X83138095Y-35144381D01*
X82900000Y-35144381D01*
X82757142Y-35192000D01*
X82661904Y-35287238D01*
X82614285Y-35382476D01*
X82566666Y-35572952D01*
X82566666Y-35715810D01*
X82614285Y-35906286D01*
X82661904Y-36001524D01*
X82757142Y-36096762D01*
X82900000Y-36144381D01*
X83138095Y-36144381D01*
X82233333Y-35144381D02*
X81614285Y-35144381D01*
X81947619Y-35525333D01*
X81804761Y-35525333D01*
X81709523Y-35572952D01*
X81661904Y-35620571D01*
X81614285Y-35715810D01*
X81614285Y-35953905D01*
X81661904Y-36049143D01*
X81709523Y-36096762D01*
X81804761Y-36144381D01*
X82090476Y-36144381D01*
X82185714Y-36096762D01*
X82233333Y-36049143D01*
X83265143Y-92421334D02*
X83312762Y-92373715D01*
X83360381Y-92230858D01*
X83360381Y-92135620D01*
X83312762Y-91992762D01*
X83217524Y-91897524D01*
X83122286Y-91849905D01*
X82931810Y-91802286D01*
X82788952Y-91802286D01*
X82598476Y-91849905D01*
X82503238Y-91897524D01*
X82408000Y-91992762D01*
X82360381Y-92135620D01*
X82360381Y-92230858D01*
X82408000Y-92373715D01*
X82455619Y-92421334D01*
X82360381Y-93278477D02*
X82360381Y-93088000D01*
X82408000Y-92992762D01*
X82455619Y-92945143D01*
X82598476Y-92849905D01*
X82788952Y-92802286D01*
X83169905Y-92802286D01*
X83265143Y-92849905D01*
X83312762Y-92897524D01*
X83360381Y-92992762D01*
X83360381Y-93183239D01*
X83312762Y-93278477D01*
X83265143Y-93326096D01*
X83169905Y-93373715D01*
X82931810Y-93373715D01*
X82836571Y-93326096D01*
X82788952Y-93278477D01*
X82741333Y-93183239D01*
X82741333Y-92992762D01*
X82788952Y-92897524D01*
X82836571Y-92849905D01*
X82931810Y-92802286D01*
X76978666Y-24365143D02*
X77026285Y-24412762D01*
X77169142Y-24460381D01*
X77264380Y-24460381D01*
X77407238Y-24412762D01*
X77502476Y-24317524D01*
X77550095Y-24222286D01*
X77597714Y-24031810D01*
X77597714Y-23888952D01*
X77550095Y-23698476D01*
X77502476Y-23603238D01*
X77407238Y-23508000D01*
X77264380Y-23460381D01*
X77169142Y-23460381D01*
X77026285Y-23508000D01*
X76978666Y-23555619D01*
X76645333Y-23460381D02*
X75978666Y-23460381D01*
X76407238Y-24460381D01*
X76661143Y-89373334D02*
X76708762Y-89325715D01*
X76756381Y-89182858D01*
X76756381Y-89087620D01*
X76708762Y-88944762D01*
X76613524Y-88849524D01*
X76518286Y-88801905D01*
X76327810Y-88754286D01*
X76184952Y-88754286D01*
X75994476Y-88801905D01*
X75899238Y-88849524D01*
X75804000Y-88944762D01*
X75756381Y-89087620D01*
X75756381Y-89182858D01*
X75804000Y-89325715D01*
X75851619Y-89373334D01*
X76184952Y-89944762D02*
X76137333Y-89849524D01*
X76089714Y-89801905D01*
X75994476Y-89754286D01*
X75946857Y-89754286D01*
X75851619Y-89801905D01*
X75804000Y-89849524D01*
X75756381Y-89944762D01*
X75756381Y-90135239D01*
X75804000Y-90230477D01*
X75851619Y-90278096D01*
X75946857Y-90325715D01*
X75994476Y-90325715D01*
X76089714Y-90278096D01*
X76137333Y-90230477D01*
X76184952Y-90135239D01*
X76184952Y-89944762D01*
X76232571Y-89849524D01*
X76280190Y-89801905D01*
X76375429Y-89754286D01*
X76565905Y-89754286D01*
X76661143Y-89801905D01*
X76708762Y-89849524D01*
X76756381Y-89944762D01*
X76756381Y-90135239D01*
X76708762Y-90230477D01*
X76661143Y-90278096D01*
X76565905Y-90325715D01*
X76375429Y-90325715D01*
X76280190Y-90278096D01*
X76232571Y-90230477D01*
X76184952Y-90135239D01*
X76661143Y-78197334D02*
X76708762Y-78149715D01*
X76756381Y-78006858D01*
X76756381Y-77911620D01*
X76708762Y-77768762D01*
X76613524Y-77673524D01*
X76518286Y-77625905D01*
X76327810Y-77578286D01*
X76184952Y-77578286D01*
X75994476Y-77625905D01*
X75899238Y-77673524D01*
X75804000Y-77768762D01*
X75756381Y-77911620D01*
X75756381Y-78006858D01*
X75804000Y-78149715D01*
X75851619Y-78197334D01*
X76756381Y-78673524D02*
X76756381Y-78864000D01*
X76708762Y-78959239D01*
X76661143Y-79006858D01*
X76518286Y-79102096D01*
X76327810Y-79149715D01*
X75946857Y-79149715D01*
X75851619Y-79102096D01*
X75804000Y-79054477D01*
X75756381Y-78959239D01*
X75756381Y-78768762D01*
X75804000Y-78673524D01*
X75851619Y-78625905D01*
X75946857Y-78578286D01*
X76184952Y-78578286D01*
X76280190Y-78625905D01*
X76327810Y-78673524D01*
X76375429Y-78768762D01*
X76375429Y-78959239D01*
X76327810Y-79054477D01*
X76280190Y-79102096D01*
X76184952Y-79149715D01*
X76661143Y-67053143D02*
X76708762Y-67005524D01*
X76756381Y-66862667D01*
X76756381Y-66767429D01*
X76708762Y-66624571D01*
X76613524Y-66529333D01*
X76518286Y-66481714D01*
X76327810Y-66434095D01*
X76184952Y-66434095D01*
X75994476Y-66481714D01*
X75899238Y-66529333D01*
X75804000Y-66624571D01*
X75756381Y-66767429D01*
X75756381Y-66862667D01*
X75804000Y-67005524D01*
X75851619Y-67053143D01*
X76756381Y-68005524D02*
X76756381Y-67434095D01*
X76756381Y-67719809D02*
X75756381Y-67719809D01*
X75899238Y-67624571D01*
X75994476Y-67529333D01*
X76042095Y-67434095D01*
X75851619Y-68386476D02*
X75804000Y-68434095D01*
X75756381Y-68529333D01*
X75756381Y-68767429D01*
X75804000Y-68862667D01*
X75851619Y-68910286D01*
X75946857Y-68957905D01*
X76042095Y-68957905D01*
X76184952Y-68910286D01*
X76756381Y-68338857D01*
X76756381Y-68957905D01*
X76661143Y-55877143D02*
X76708762Y-55829524D01*
X76756381Y-55686667D01*
X76756381Y-55591429D01*
X76708762Y-55448571D01*
X76613524Y-55353333D01*
X76518286Y-55305714D01*
X76327810Y-55258095D01*
X76184952Y-55258095D01*
X75994476Y-55305714D01*
X75899238Y-55353333D01*
X75804000Y-55448571D01*
X75756381Y-55591429D01*
X75756381Y-55686667D01*
X75804000Y-55829524D01*
X75851619Y-55877143D01*
X76756381Y-56829524D02*
X76756381Y-56258095D01*
X76756381Y-56543809D02*
X75756381Y-56543809D01*
X75899238Y-56448571D01*
X75994476Y-56353333D01*
X76042095Y-56258095D01*
X75756381Y-57162857D02*
X75756381Y-57781905D01*
X76137333Y-57448571D01*
X76137333Y-57591429D01*
X76184952Y-57686667D01*
X76232571Y-57734286D01*
X76327810Y-57781905D01*
X76565905Y-57781905D01*
X76661143Y-57734286D01*
X76708762Y-57686667D01*
X76756381Y-57591429D01*
X76756381Y-57305714D01*
X76708762Y-57210476D01*
X76661143Y-57162857D01*
X76661143Y-45209143D02*
X76708762Y-45161524D01*
X76756381Y-45018667D01*
X76756381Y-44923429D01*
X76708762Y-44780571D01*
X76613524Y-44685333D01*
X76518286Y-44637714D01*
X76327810Y-44590095D01*
X76184952Y-44590095D01*
X75994476Y-44637714D01*
X75899238Y-44685333D01*
X75804000Y-44780571D01*
X75756381Y-44923429D01*
X75756381Y-45018667D01*
X75804000Y-45161524D01*
X75851619Y-45209143D01*
X76756381Y-46161524D02*
X76756381Y-45590095D01*
X76756381Y-45875809D02*
X75756381Y-45875809D01*
X75899238Y-45780571D01*
X75994476Y-45685333D01*
X76042095Y-45590095D01*
X76089714Y-47018667D02*
X76756381Y-47018667D01*
X75708762Y-46780571D02*
X76423048Y-46542476D01*
X76423048Y-47161524D01*
X61706857Y-36049143D02*
X61754476Y-36096762D01*
X61897333Y-36144381D01*
X61992571Y-36144381D01*
X62135429Y-36096762D01*
X62230667Y-36001524D01*
X62278286Y-35906286D01*
X62325905Y-35715810D01*
X62325905Y-35572952D01*
X62278286Y-35382476D01*
X62230667Y-35287238D01*
X62135429Y-35192000D01*
X61992571Y-35144381D01*
X61897333Y-35144381D01*
X61754476Y-35192000D01*
X61706857Y-35239619D01*
X60754476Y-36144381D02*
X61325905Y-36144381D01*
X61040191Y-36144381D02*
X61040191Y-35144381D01*
X61135429Y-35287238D01*
X61230667Y-35382476D01*
X61325905Y-35430095D01*
X59849714Y-35144381D02*
X60325905Y-35144381D01*
X60373524Y-35620571D01*
X60325905Y-35572952D01*
X60230667Y-35525333D01*
X59992571Y-35525333D01*
X59897333Y-35572952D01*
X59849714Y-35620571D01*
X59802095Y-35715810D01*
X59802095Y-35953905D01*
X59849714Y-36049143D01*
X59897333Y-36096762D01*
X59992571Y-36144381D01*
X60230667Y-36144381D01*
X60325905Y-36096762D01*
X60373524Y-36049143D01*
X61706857Y-46971143D02*
X61754476Y-47018762D01*
X61897333Y-47066381D01*
X61992571Y-47066381D01*
X62135429Y-47018762D01*
X62230667Y-46923524D01*
X62278286Y-46828286D01*
X62325905Y-46637810D01*
X62325905Y-46494952D01*
X62278286Y-46304476D01*
X62230667Y-46209238D01*
X62135429Y-46114000D01*
X61992571Y-46066381D01*
X61897333Y-46066381D01*
X61754476Y-46114000D01*
X61706857Y-46161619D01*
X60754476Y-47066381D02*
X61325905Y-47066381D01*
X61040191Y-47066381D02*
X61040191Y-46066381D01*
X61135429Y-46209238D01*
X61230667Y-46304476D01*
X61325905Y-46352095D01*
X59897333Y-46066381D02*
X60087810Y-46066381D01*
X60183048Y-46114000D01*
X60230667Y-46161619D01*
X60325905Y-46304476D01*
X60373524Y-46494952D01*
X60373524Y-46875905D01*
X60325905Y-46971143D01*
X60278286Y-47018762D01*
X60183048Y-47066381D01*
X59992571Y-47066381D01*
X59897333Y-47018762D01*
X59849714Y-46971143D01*
X59802095Y-46875905D01*
X59802095Y-46637810D01*
X59849714Y-46542571D01*
X59897333Y-46494952D01*
X59992571Y-46447333D01*
X60183048Y-46447333D01*
X60278286Y-46494952D01*
X60325905Y-46542571D01*
X60373524Y-46637810D01*
X61706857Y-57893143D02*
X61754476Y-57940762D01*
X61897333Y-57988381D01*
X61992571Y-57988381D01*
X62135429Y-57940762D01*
X62230667Y-57845524D01*
X62278286Y-57750286D01*
X62325905Y-57559810D01*
X62325905Y-57416952D01*
X62278286Y-57226476D01*
X62230667Y-57131238D01*
X62135429Y-57036000D01*
X61992571Y-56988381D01*
X61897333Y-56988381D01*
X61754476Y-57036000D01*
X61706857Y-57083619D01*
X60754476Y-57988381D02*
X61325905Y-57988381D01*
X61040191Y-57988381D02*
X61040191Y-56988381D01*
X61135429Y-57131238D01*
X61230667Y-57226476D01*
X61325905Y-57274095D01*
X60421143Y-56988381D02*
X59754476Y-56988381D01*
X60183048Y-57988381D01*
X61452857Y-68561143D02*
X61500476Y-68608762D01*
X61643333Y-68656381D01*
X61738571Y-68656381D01*
X61881429Y-68608762D01*
X61976667Y-68513524D01*
X62024286Y-68418286D01*
X62071905Y-68227810D01*
X62071905Y-68084952D01*
X62024286Y-67894476D01*
X61976667Y-67799238D01*
X61881429Y-67704000D01*
X61738571Y-67656381D01*
X61643333Y-67656381D01*
X61500476Y-67704000D01*
X61452857Y-67751619D01*
X60500476Y-68656381D02*
X61071905Y-68656381D01*
X60786191Y-68656381D02*
X60786191Y-67656381D01*
X60881429Y-67799238D01*
X60976667Y-67894476D01*
X61071905Y-67942095D01*
X59929048Y-68084952D02*
X60024286Y-68037333D01*
X60071905Y-67989714D01*
X60119524Y-67894476D01*
X60119524Y-67846857D01*
X60071905Y-67751619D01*
X60024286Y-67704000D01*
X59929048Y-67656381D01*
X59738571Y-67656381D01*
X59643333Y-67704000D01*
X59595714Y-67751619D01*
X59548095Y-67846857D01*
X59548095Y-67894476D01*
X59595714Y-67989714D01*
X59643333Y-68037333D01*
X59738571Y-68084952D01*
X59929048Y-68084952D01*
X60024286Y-68132571D01*
X60071905Y-68180190D01*
X60119524Y-68275429D01*
X60119524Y-68465905D01*
X60071905Y-68561143D01*
X60024286Y-68608762D01*
X59929048Y-68656381D01*
X59738571Y-68656381D01*
X59643333Y-68608762D01*
X59595714Y-68561143D01*
X59548095Y-68465905D01*
X59548095Y-68275429D01*
X59595714Y-68180190D01*
X59643333Y-68132571D01*
X59738571Y-68084952D01*
X61706857Y-79737143D02*
X61754476Y-79784762D01*
X61897333Y-79832381D01*
X61992571Y-79832381D01*
X62135429Y-79784762D01*
X62230667Y-79689524D01*
X62278286Y-79594286D01*
X62325905Y-79403810D01*
X62325905Y-79260952D01*
X62278286Y-79070476D01*
X62230667Y-78975238D01*
X62135429Y-78880000D01*
X61992571Y-78832381D01*
X61897333Y-78832381D01*
X61754476Y-78880000D01*
X61706857Y-78927619D01*
X60754476Y-79832381D02*
X61325905Y-79832381D01*
X61040191Y-79832381D02*
X61040191Y-78832381D01*
X61135429Y-78975238D01*
X61230667Y-79070476D01*
X61325905Y-79118095D01*
X60278286Y-79832381D02*
X60087810Y-79832381D01*
X59992571Y-79784762D01*
X59944952Y-79737143D01*
X59849714Y-79594286D01*
X59802095Y-79403810D01*
X59802095Y-79022857D01*
X59849714Y-78927619D01*
X59897333Y-78880000D01*
X59992571Y-78832381D01*
X60183048Y-78832381D01*
X60278286Y-78880000D01*
X60325905Y-78927619D01*
X60373524Y-79022857D01*
X60373524Y-79260952D01*
X60325905Y-79356190D01*
X60278286Y-79403810D01*
X60183048Y-79451429D01*
X59992571Y-79451429D01*
X59897333Y-79403810D01*
X59849714Y-79356190D01*
X59802095Y-79260952D01*
X61452857Y-90405143D02*
X61500476Y-90452762D01*
X61643333Y-90500381D01*
X61738571Y-90500381D01*
X61881429Y-90452762D01*
X61976667Y-90357524D01*
X62024286Y-90262286D01*
X62071905Y-90071810D01*
X62071905Y-89928952D01*
X62024286Y-89738476D01*
X61976667Y-89643238D01*
X61881429Y-89548000D01*
X61738571Y-89500381D01*
X61643333Y-89500381D01*
X61500476Y-89548000D01*
X61452857Y-89595619D01*
X61071905Y-89595619D02*
X61024286Y-89548000D01*
X60929048Y-89500381D01*
X60690952Y-89500381D01*
X60595714Y-89548000D01*
X60548095Y-89595619D01*
X60500476Y-89690857D01*
X60500476Y-89786095D01*
X60548095Y-89928952D01*
X61119524Y-90500381D01*
X60500476Y-90500381D01*
X59881429Y-89500381D02*
X59786190Y-89500381D01*
X59690952Y-89548000D01*
X59643333Y-89595619D01*
X59595714Y-89690857D01*
X59548095Y-89881333D01*
X59548095Y-90119429D01*
X59595714Y-90309905D01*
X59643333Y-90405143D01*
X59690952Y-90452762D01*
X59786190Y-90500381D01*
X59881429Y-90500381D01*
X59976667Y-90452762D01*
X60024286Y-90405143D01*
X60071905Y-90309905D01*
X60119524Y-90119429D01*
X60119524Y-89881333D01*
X60071905Y-89690857D01*
X60024286Y-89595619D01*
X59976667Y-89548000D01*
X59881429Y-89500381D01*
X65262857Y-32493143D02*
X65310476Y-32540762D01*
X65453333Y-32588381D01*
X65548571Y-32588381D01*
X65691429Y-32540762D01*
X65786667Y-32445524D01*
X65834286Y-32350286D01*
X65881905Y-32159810D01*
X65881905Y-32016952D01*
X65834286Y-31826476D01*
X65786667Y-31731238D01*
X65691429Y-31636000D01*
X65548571Y-31588381D01*
X65453333Y-31588381D01*
X65310476Y-31636000D01*
X65262857Y-31683619D01*
X64881905Y-31683619D02*
X64834286Y-31636000D01*
X64739048Y-31588381D01*
X64500952Y-31588381D01*
X64405714Y-31636000D01*
X64358095Y-31683619D01*
X64310476Y-31778857D01*
X64310476Y-31874095D01*
X64358095Y-32016952D01*
X64929524Y-32588381D01*
X64310476Y-32588381D01*
X63358095Y-32588381D02*
X63929524Y-32588381D01*
X63643810Y-32588381D02*
X63643810Y-31588381D01*
X63739048Y-31731238D01*
X63834286Y-31826476D01*
X63929524Y-31874095D01*
X76661143Y-34033143D02*
X76708762Y-33985524D01*
X76756381Y-33842667D01*
X76756381Y-33747429D01*
X76708762Y-33604571D01*
X76613524Y-33509333D01*
X76518286Y-33461714D01*
X76327810Y-33414095D01*
X76184952Y-33414095D01*
X75994476Y-33461714D01*
X75899238Y-33509333D01*
X75804000Y-33604571D01*
X75756381Y-33747429D01*
X75756381Y-33842667D01*
X75804000Y-33985524D01*
X75851619Y-34033143D01*
X75851619Y-34414095D02*
X75804000Y-34461714D01*
X75756381Y-34556952D01*
X75756381Y-34795048D01*
X75804000Y-34890286D01*
X75851619Y-34937905D01*
X75946857Y-34985524D01*
X76042095Y-34985524D01*
X76184952Y-34937905D01*
X76756381Y-34366476D01*
X76756381Y-34985524D01*
X75851619Y-35366476D02*
X75804000Y-35414095D01*
X75756381Y-35509333D01*
X75756381Y-35747429D01*
X75804000Y-35842667D01*
X75851619Y-35890286D01*
X75946857Y-35937905D01*
X76042095Y-35937905D01*
X76184952Y-35890286D01*
X76756381Y-35318857D01*
X76756381Y-35937905D01*
X78598857Y-16883143D02*
X78646476Y-16930762D01*
X78789333Y-16978381D01*
X78884571Y-16978381D01*
X79027429Y-16930762D01*
X79122667Y-16835524D01*
X79170286Y-16740286D01*
X79217905Y-16549810D01*
X79217905Y-16406952D01*
X79170286Y-16216476D01*
X79122667Y-16121238D01*
X79027429Y-16026000D01*
X78884571Y-15978381D01*
X78789333Y-15978381D01*
X78646476Y-16026000D01*
X78598857Y-16073619D01*
X78217905Y-16073619D02*
X78170286Y-16026000D01*
X78075048Y-15978381D01*
X77836952Y-15978381D01*
X77741714Y-16026000D01*
X77694095Y-16073619D01*
X77646476Y-16168857D01*
X77646476Y-16264095D01*
X77694095Y-16406952D01*
X78265524Y-16978381D01*
X77646476Y-16978381D01*
X77313143Y-15978381D02*
X76694095Y-15978381D01*
X77027429Y-16359333D01*
X76884571Y-16359333D01*
X76789333Y-16406952D01*
X76741714Y-16454571D01*
X76694095Y-16549810D01*
X76694095Y-16787905D01*
X76741714Y-16883143D01*
X76789333Y-16930762D01*
X76884571Y-16978381D01*
X77170286Y-16978381D01*
X77265524Y-16930762D01*
X77313143Y-16883143D01*
X53293143Y-40637143D02*
X53340762Y-40589524D01*
X53388381Y-40446667D01*
X53388381Y-40351429D01*
X53340762Y-40208571D01*
X53245524Y-40113333D01*
X53150286Y-40065714D01*
X52959810Y-40018095D01*
X52816952Y-40018095D01*
X52626476Y-40065714D01*
X52531238Y-40113333D01*
X52436000Y-40208571D01*
X52388381Y-40351429D01*
X52388381Y-40446667D01*
X52436000Y-40589524D01*
X52483619Y-40637143D01*
X52483619Y-41018095D02*
X52436000Y-41065714D01*
X52388381Y-41160952D01*
X52388381Y-41399048D01*
X52436000Y-41494286D01*
X52483619Y-41541905D01*
X52578857Y-41589524D01*
X52674095Y-41589524D01*
X52816952Y-41541905D01*
X53388381Y-40970476D01*
X53388381Y-41589524D01*
X52721714Y-42446667D02*
X53388381Y-42446667D01*
X52340762Y-42208571D02*
X53055048Y-41970476D01*
X53055048Y-42589524D01*
X53293143Y-51559143D02*
X53340762Y-51511524D01*
X53388381Y-51368667D01*
X53388381Y-51273429D01*
X53340762Y-51130571D01*
X53245524Y-51035333D01*
X53150286Y-50987714D01*
X52959810Y-50940095D01*
X52816952Y-50940095D01*
X52626476Y-50987714D01*
X52531238Y-51035333D01*
X52436000Y-51130571D01*
X52388381Y-51273429D01*
X52388381Y-51368667D01*
X52436000Y-51511524D01*
X52483619Y-51559143D01*
X52483619Y-51940095D02*
X52436000Y-51987714D01*
X52388381Y-52082952D01*
X52388381Y-52321048D01*
X52436000Y-52416286D01*
X52483619Y-52463905D01*
X52578857Y-52511524D01*
X52674095Y-52511524D01*
X52816952Y-52463905D01*
X53388381Y-51892476D01*
X53388381Y-52511524D01*
X52388381Y-53416286D02*
X52388381Y-52940095D01*
X52864571Y-52892476D01*
X52816952Y-52940095D01*
X52769333Y-53035333D01*
X52769333Y-53273429D01*
X52816952Y-53368667D01*
X52864571Y-53416286D01*
X52959810Y-53463905D01*
X53197905Y-53463905D01*
X53293143Y-53416286D01*
X53340762Y-53368667D01*
X53388381Y-53273429D01*
X53388381Y-53035333D01*
X53340762Y-52940095D01*
X53293143Y-52892476D01*
X53293143Y-62735143D02*
X53340762Y-62687524D01*
X53388381Y-62544667D01*
X53388381Y-62449429D01*
X53340762Y-62306571D01*
X53245524Y-62211333D01*
X53150286Y-62163714D01*
X52959810Y-62116095D01*
X52816952Y-62116095D01*
X52626476Y-62163714D01*
X52531238Y-62211333D01*
X52436000Y-62306571D01*
X52388381Y-62449429D01*
X52388381Y-62544667D01*
X52436000Y-62687524D01*
X52483619Y-62735143D01*
X52483619Y-63116095D02*
X52436000Y-63163714D01*
X52388381Y-63258952D01*
X52388381Y-63497048D01*
X52436000Y-63592286D01*
X52483619Y-63639905D01*
X52578857Y-63687524D01*
X52674095Y-63687524D01*
X52816952Y-63639905D01*
X53388381Y-63068476D01*
X53388381Y-63687524D01*
X52388381Y-64544667D02*
X52388381Y-64354190D01*
X52436000Y-64258952D01*
X52483619Y-64211333D01*
X52626476Y-64116095D01*
X52816952Y-64068476D01*
X53197905Y-64068476D01*
X53293143Y-64116095D01*
X53340762Y-64163714D01*
X53388381Y-64258952D01*
X53388381Y-64449429D01*
X53340762Y-64544667D01*
X53293143Y-64592286D01*
X53197905Y-64639905D01*
X52959810Y-64639905D01*
X52864571Y-64592286D01*
X52816952Y-64544667D01*
X52769333Y-64449429D01*
X52769333Y-64258952D01*
X52816952Y-64163714D01*
X52864571Y-64116095D01*
X52959810Y-64068476D01*
X53293143Y-73657143D02*
X53340762Y-73609524D01*
X53388381Y-73466667D01*
X53388381Y-73371429D01*
X53340762Y-73228571D01*
X53245524Y-73133333D01*
X53150286Y-73085714D01*
X52959810Y-73038095D01*
X52816952Y-73038095D01*
X52626476Y-73085714D01*
X52531238Y-73133333D01*
X52436000Y-73228571D01*
X52388381Y-73371429D01*
X52388381Y-73466667D01*
X52436000Y-73609524D01*
X52483619Y-73657143D01*
X52483619Y-74038095D02*
X52436000Y-74085714D01*
X52388381Y-74180952D01*
X52388381Y-74419048D01*
X52436000Y-74514286D01*
X52483619Y-74561905D01*
X52578857Y-74609524D01*
X52674095Y-74609524D01*
X52816952Y-74561905D01*
X53388381Y-73990476D01*
X53388381Y-74609524D01*
X52388381Y-74942857D02*
X52388381Y-75609524D01*
X53388381Y-75180952D01*
X53547143Y-84325143D02*
X53594762Y-84277524D01*
X53642381Y-84134667D01*
X53642381Y-84039429D01*
X53594762Y-83896571D01*
X53499524Y-83801333D01*
X53404286Y-83753714D01*
X53213810Y-83706095D01*
X53070952Y-83706095D01*
X52880476Y-83753714D01*
X52785238Y-83801333D01*
X52690000Y-83896571D01*
X52642381Y-84039429D01*
X52642381Y-84134667D01*
X52690000Y-84277524D01*
X52737619Y-84325143D01*
X52737619Y-84706095D02*
X52690000Y-84753714D01*
X52642381Y-84848952D01*
X52642381Y-85087048D01*
X52690000Y-85182286D01*
X52737619Y-85229905D01*
X52832857Y-85277524D01*
X52928095Y-85277524D01*
X53070952Y-85229905D01*
X53642381Y-84658476D01*
X53642381Y-85277524D01*
X53070952Y-85848952D02*
X53023333Y-85753714D01*
X52975714Y-85706095D01*
X52880476Y-85658476D01*
X52832857Y-85658476D01*
X52737619Y-85706095D01*
X52690000Y-85753714D01*
X52642381Y-85848952D01*
X52642381Y-86039429D01*
X52690000Y-86134667D01*
X52737619Y-86182286D01*
X52832857Y-86229905D01*
X52880476Y-86229905D01*
X52975714Y-86182286D01*
X53023333Y-86134667D01*
X53070952Y-86039429D01*
X53070952Y-85848952D01*
X53118571Y-85753714D01*
X53166190Y-85706095D01*
X53261429Y-85658476D01*
X53451905Y-85658476D01*
X53547143Y-85706095D01*
X53594762Y-85753714D01*
X53642381Y-85848952D01*
X53642381Y-86039429D01*
X53594762Y-86134667D01*
X53547143Y-86182286D01*
X53451905Y-86229905D01*
X53261429Y-86229905D01*
X53166190Y-86182286D01*
X53118571Y-86134667D01*
X53070952Y-86039429D01*
X53293143Y-95501143D02*
X53340762Y-95453524D01*
X53388381Y-95310667D01*
X53388381Y-95215429D01*
X53340762Y-95072571D01*
X53245524Y-94977333D01*
X53150286Y-94929714D01*
X52959810Y-94882095D01*
X52816952Y-94882095D01*
X52626476Y-94929714D01*
X52531238Y-94977333D01*
X52436000Y-95072571D01*
X52388381Y-95215429D01*
X52388381Y-95310667D01*
X52436000Y-95453524D01*
X52483619Y-95501143D01*
X52483619Y-95882095D02*
X52436000Y-95929714D01*
X52388381Y-96024952D01*
X52388381Y-96263048D01*
X52436000Y-96358286D01*
X52483619Y-96405905D01*
X52578857Y-96453524D01*
X52674095Y-96453524D01*
X52816952Y-96405905D01*
X53388381Y-95834476D01*
X53388381Y-96453524D01*
X53388381Y-96929714D02*
X53388381Y-97120190D01*
X53340762Y-97215429D01*
X53293143Y-97263048D01*
X53150286Y-97358286D01*
X52959810Y-97405905D01*
X52578857Y-97405905D01*
X52483619Y-97358286D01*
X52436000Y-97310667D01*
X52388381Y-97215429D01*
X52388381Y-97024952D01*
X52436000Y-96929714D01*
X52483619Y-96882095D01*
X52578857Y-96834476D01*
X52816952Y-96834476D01*
X52912190Y-96882095D01*
X52959810Y-96929714D01*
X53007429Y-97024952D01*
X53007429Y-97215429D01*
X52959810Y-97310667D01*
X52912190Y-97358286D01*
X52816952Y-97405905D01*
X56118857Y-30207143D02*
X56166476Y-30254762D01*
X56309333Y-30302381D01*
X56404571Y-30302381D01*
X56547429Y-30254762D01*
X56642667Y-30159524D01*
X56690286Y-30064286D01*
X56737905Y-29873810D01*
X56737905Y-29730952D01*
X56690286Y-29540476D01*
X56642667Y-29445238D01*
X56547429Y-29350000D01*
X56404571Y-29302381D01*
X56309333Y-29302381D01*
X56166476Y-29350000D01*
X56118857Y-29397619D01*
X55785524Y-29302381D02*
X55166476Y-29302381D01*
X55499810Y-29683333D01*
X55356952Y-29683333D01*
X55261714Y-29730952D01*
X55214095Y-29778571D01*
X55166476Y-29873810D01*
X55166476Y-30111905D01*
X55214095Y-30207143D01*
X55261714Y-30254762D01*
X55356952Y-30302381D01*
X55642667Y-30302381D01*
X55737905Y-30254762D01*
X55785524Y-30207143D01*
X54547429Y-29302381D02*
X54452190Y-29302381D01*
X54356952Y-29350000D01*
X54309333Y-29397619D01*
X54261714Y-29492857D01*
X54214095Y-29683333D01*
X54214095Y-29921429D01*
X54261714Y-30111905D01*
X54309333Y-30207143D01*
X54356952Y-30254762D01*
X54452190Y-30302381D01*
X54547429Y-30302381D01*
X54642667Y-30254762D01*
X54690286Y-30207143D01*
X54737905Y-30111905D01*
X54785524Y-29921429D01*
X54785524Y-29683333D01*
X54737905Y-29492857D01*
X54690286Y-29397619D01*
X54642667Y-29350000D01*
X54547429Y-29302381D01*
X55579143Y-33525143D02*
X55626762Y-33477524D01*
X55674381Y-33334667D01*
X55674381Y-33239429D01*
X55626762Y-33096571D01*
X55531524Y-33001333D01*
X55436286Y-32953714D01*
X55245810Y-32906095D01*
X55102952Y-32906095D01*
X54912476Y-32953714D01*
X54817238Y-33001333D01*
X54722000Y-33096571D01*
X54674381Y-33239429D01*
X54674381Y-33334667D01*
X54722000Y-33477524D01*
X54769619Y-33525143D01*
X54674381Y-33858476D02*
X54674381Y-34477524D01*
X55055333Y-34144190D01*
X55055333Y-34287048D01*
X55102952Y-34382286D01*
X55150571Y-34429905D01*
X55245810Y-34477524D01*
X55483905Y-34477524D01*
X55579143Y-34429905D01*
X55626762Y-34382286D01*
X55674381Y-34287048D01*
X55674381Y-34001333D01*
X55626762Y-33906095D01*
X55579143Y-33858476D01*
X55674381Y-35429905D02*
X55674381Y-34858476D01*
X55674381Y-35144190D02*
X54674381Y-35144190D01*
X54817238Y-35048952D01*
X54912476Y-34953714D01*
X54960095Y-34858476D01*
X55579143Y-44193143D02*
X55626762Y-44145524D01*
X55674381Y-44002667D01*
X55674381Y-43907429D01*
X55626762Y-43764571D01*
X55531524Y-43669333D01*
X55436286Y-43621714D01*
X55245810Y-43574095D01*
X55102952Y-43574095D01*
X54912476Y-43621714D01*
X54817238Y-43669333D01*
X54722000Y-43764571D01*
X54674381Y-43907429D01*
X54674381Y-44002667D01*
X54722000Y-44145524D01*
X54769619Y-44193143D01*
X54674381Y-44526476D02*
X54674381Y-45145524D01*
X55055333Y-44812190D01*
X55055333Y-44955048D01*
X55102952Y-45050286D01*
X55150571Y-45097905D01*
X55245810Y-45145524D01*
X55483905Y-45145524D01*
X55579143Y-45097905D01*
X55626762Y-45050286D01*
X55674381Y-44955048D01*
X55674381Y-44669333D01*
X55626762Y-44574095D01*
X55579143Y-44526476D01*
X54769619Y-45526476D02*
X54722000Y-45574095D01*
X54674381Y-45669333D01*
X54674381Y-45907429D01*
X54722000Y-46002667D01*
X54769619Y-46050286D01*
X54864857Y-46097905D01*
X54960095Y-46097905D01*
X55102952Y-46050286D01*
X55674381Y-45478857D01*
X55674381Y-46097905D01*
X55579143Y-55115143D02*
X55626762Y-55067524D01*
X55674381Y-54924667D01*
X55674381Y-54829429D01*
X55626762Y-54686571D01*
X55531524Y-54591333D01*
X55436286Y-54543714D01*
X55245810Y-54496095D01*
X55102952Y-54496095D01*
X54912476Y-54543714D01*
X54817238Y-54591333D01*
X54722000Y-54686571D01*
X54674381Y-54829429D01*
X54674381Y-54924667D01*
X54722000Y-55067524D01*
X54769619Y-55115143D01*
X54674381Y-55448476D02*
X54674381Y-56067524D01*
X55055333Y-55734190D01*
X55055333Y-55877048D01*
X55102952Y-55972286D01*
X55150571Y-56019905D01*
X55245810Y-56067524D01*
X55483905Y-56067524D01*
X55579143Y-56019905D01*
X55626762Y-55972286D01*
X55674381Y-55877048D01*
X55674381Y-55591333D01*
X55626762Y-55496095D01*
X55579143Y-55448476D01*
X54674381Y-56400857D02*
X54674381Y-57019905D01*
X55055333Y-56686571D01*
X55055333Y-56829429D01*
X55102952Y-56924667D01*
X55150571Y-56972286D01*
X55245810Y-57019905D01*
X55483905Y-57019905D01*
X55579143Y-56972286D01*
X55626762Y-56924667D01*
X55674381Y-56829429D01*
X55674381Y-56543714D01*
X55626762Y-56448476D01*
X55579143Y-56400857D01*
X55579143Y-66545143D02*
X55626762Y-66497524D01*
X55674381Y-66354667D01*
X55674381Y-66259429D01*
X55626762Y-66116571D01*
X55531524Y-66021333D01*
X55436286Y-65973714D01*
X55245810Y-65926095D01*
X55102952Y-65926095D01*
X54912476Y-65973714D01*
X54817238Y-66021333D01*
X54722000Y-66116571D01*
X54674381Y-66259429D01*
X54674381Y-66354667D01*
X54722000Y-66497524D01*
X54769619Y-66545143D01*
X54674381Y-66878476D02*
X54674381Y-67497524D01*
X55055333Y-67164190D01*
X55055333Y-67307048D01*
X55102952Y-67402286D01*
X55150571Y-67449905D01*
X55245810Y-67497524D01*
X55483905Y-67497524D01*
X55579143Y-67449905D01*
X55626762Y-67402286D01*
X55674381Y-67307048D01*
X55674381Y-67021333D01*
X55626762Y-66926095D01*
X55579143Y-66878476D01*
X55007714Y-68354667D02*
X55674381Y-68354667D01*
X54626762Y-68116571D02*
X55341048Y-67878476D01*
X55341048Y-68497524D01*
X55579143Y-77213143D02*
X55626762Y-77165524D01*
X55674381Y-77022667D01*
X55674381Y-76927429D01*
X55626762Y-76784571D01*
X55531524Y-76689333D01*
X55436286Y-76641714D01*
X55245810Y-76594095D01*
X55102952Y-76594095D01*
X54912476Y-76641714D01*
X54817238Y-76689333D01*
X54722000Y-76784571D01*
X54674381Y-76927429D01*
X54674381Y-77022667D01*
X54722000Y-77165524D01*
X54769619Y-77213143D01*
X54674381Y-77546476D02*
X54674381Y-78165524D01*
X55055333Y-77832190D01*
X55055333Y-77975048D01*
X55102952Y-78070286D01*
X55150571Y-78117905D01*
X55245810Y-78165524D01*
X55483905Y-78165524D01*
X55579143Y-78117905D01*
X55626762Y-78070286D01*
X55674381Y-77975048D01*
X55674381Y-77689333D01*
X55626762Y-77594095D01*
X55579143Y-77546476D01*
X54674381Y-79070286D02*
X54674381Y-78594095D01*
X55150571Y-78546476D01*
X55102952Y-78594095D01*
X55055333Y-78689333D01*
X55055333Y-78927429D01*
X55102952Y-79022667D01*
X55150571Y-79070286D01*
X55245810Y-79117905D01*
X55483905Y-79117905D01*
X55579143Y-79070286D01*
X55626762Y-79022667D01*
X55674381Y-78927429D01*
X55674381Y-78689333D01*
X55626762Y-78594095D01*
X55579143Y-78546476D01*
X55579143Y-87881143D02*
X55626762Y-87833524D01*
X55674381Y-87690667D01*
X55674381Y-87595429D01*
X55626762Y-87452571D01*
X55531524Y-87357333D01*
X55436286Y-87309714D01*
X55245810Y-87262095D01*
X55102952Y-87262095D01*
X54912476Y-87309714D01*
X54817238Y-87357333D01*
X54722000Y-87452571D01*
X54674381Y-87595429D01*
X54674381Y-87690667D01*
X54722000Y-87833524D01*
X54769619Y-87881143D01*
X54674381Y-88214476D02*
X54674381Y-88833524D01*
X55055333Y-88500190D01*
X55055333Y-88643048D01*
X55102952Y-88738286D01*
X55150571Y-88785905D01*
X55245810Y-88833524D01*
X55483905Y-88833524D01*
X55579143Y-88785905D01*
X55626762Y-88738286D01*
X55674381Y-88643048D01*
X55674381Y-88357333D01*
X55626762Y-88262095D01*
X55579143Y-88214476D01*
X54674381Y-89690667D02*
X54674381Y-89500190D01*
X54722000Y-89404952D01*
X54769619Y-89357333D01*
X54912476Y-89262095D01*
X55102952Y-89214476D01*
X55483905Y-89214476D01*
X55579143Y-89262095D01*
X55626762Y-89309714D01*
X55674381Y-89404952D01*
X55674381Y-89595429D01*
X55626762Y-89690667D01*
X55579143Y-89738286D01*
X55483905Y-89785905D01*
X55245810Y-89785905D01*
X55150571Y-89738286D01*
X55102952Y-89690667D01*
X55055333Y-89595429D01*
X55055333Y-89404952D01*
X55102952Y-89309714D01*
X55150571Y-89262095D01*
X55245810Y-89214476D01*
X57103143Y-23365143D02*
X57150762Y-23317524D01*
X57198381Y-23174667D01*
X57198381Y-23079429D01*
X57150762Y-22936571D01*
X57055524Y-22841333D01*
X56960286Y-22793714D01*
X56769810Y-22746095D01*
X56626952Y-22746095D01*
X56436476Y-22793714D01*
X56341238Y-22841333D01*
X56246000Y-22936571D01*
X56198381Y-23079429D01*
X56198381Y-23174667D01*
X56246000Y-23317524D01*
X56293619Y-23365143D01*
X56198381Y-23698476D02*
X56198381Y-24317524D01*
X56579333Y-23984190D01*
X56579333Y-24127048D01*
X56626952Y-24222286D01*
X56674571Y-24269905D01*
X56769810Y-24317524D01*
X57007905Y-24317524D01*
X57103143Y-24269905D01*
X57150762Y-24222286D01*
X57198381Y-24127048D01*
X57198381Y-23841333D01*
X57150762Y-23746095D01*
X57103143Y-23698476D01*
X56198381Y-24650857D02*
X56198381Y-25317524D01*
X57198381Y-24888952D01*
X88630857Y-59925143D02*
X88678476Y-59972762D01*
X88821333Y-60020381D01*
X88916571Y-60020381D01*
X89059429Y-59972762D01*
X89154667Y-59877524D01*
X89202286Y-59782286D01*
X89249905Y-59591810D01*
X89249905Y-59448952D01*
X89202286Y-59258476D01*
X89154667Y-59163238D01*
X89059429Y-59068000D01*
X88916571Y-59020381D01*
X88821333Y-59020381D01*
X88678476Y-59068000D01*
X88630857Y-59115619D01*
X87773714Y-59353714D02*
X87773714Y-60020381D01*
X88011810Y-58972762D02*
X88249905Y-59687048D01*
X87630857Y-59687048D01*
X87059429Y-59020381D02*
X86964190Y-59020381D01*
X86868952Y-59068000D01*
X86821333Y-59115619D01*
X86773714Y-59210857D01*
X86726095Y-59401333D01*
X86726095Y-59639429D01*
X86773714Y-59829905D01*
X86821333Y-59925143D01*
X86868952Y-59972762D01*
X86964190Y-60020381D01*
X87059429Y-60020381D01*
X87154667Y-59972762D01*
X87202286Y-59925143D01*
X87249905Y-59829905D01*
X87297524Y-59639429D01*
X87297524Y-59401333D01*
X87249905Y-59210857D01*
X87202286Y-59115619D01*
X87154667Y-59068000D01*
X87059429Y-59020381D01*
X87371905Y-77312381D02*
X87371905Y-78121905D01*
X87324286Y-78217143D01*
X87276667Y-78264762D01*
X87181429Y-78312381D01*
X86990952Y-78312381D01*
X86895714Y-78264762D01*
X86848095Y-78217143D01*
X86800476Y-78121905D01*
X86800476Y-77312381D01*
X85800476Y-78312381D02*
X86371905Y-78312381D01*
X86086191Y-78312381D02*
X86086191Y-77312381D01*
X86181429Y-77455238D01*
X86276667Y-77550476D01*
X86371905Y-77598095D01*
X90377143Y-39113143D02*
X90424762Y-39065524D01*
X90472381Y-38922667D01*
X90472381Y-38827429D01*
X90424762Y-38684571D01*
X90329524Y-38589333D01*
X90234286Y-38541714D01*
X90043810Y-38494095D01*
X89900952Y-38494095D01*
X89710476Y-38541714D01*
X89615238Y-38589333D01*
X89520000Y-38684571D01*
X89472381Y-38827429D01*
X89472381Y-38922667D01*
X89520000Y-39065524D01*
X89567619Y-39113143D01*
X89805714Y-39970286D02*
X90472381Y-39970286D01*
X89424762Y-39732190D02*
X90139048Y-39494095D01*
X90139048Y-40113143D01*
X90472381Y-41017905D02*
X90472381Y-40446476D01*
X90472381Y-40732190D02*
X89472381Y-40732190D01*
X89615238Y-40636952D01*
X89710476Y-40541714D01*
X89758095Y-40446476D01*
X83804857Y-40621143D02*
X83852476Y-40668762D01*
X83995333Y-40716381D01*
X84090571Y-40716381D01*
X84233429Y-40668762D01*
X84328667Y-40573524D01*
X84376286Y-40478286D01*
X84423905Y-40287810D01*
X84423905Y-40144952D01*
X84376286Y-39954476D01*
X84328667Y-39859238D01*
X84233429Y-39764000D01*
X84090571Y-39716381D01*
X83995333Y-39716381D01*
X83852476Y-39764000D01*
X83804857Y-39811619D01*
X82947714Y-40049714D02*
X82947714Y-40716381D01*
X83185810Y-39668762D02*
X83423905Y-40383048D01*
X82804857Y-40383048D01*
X82471524Y-39811619D02*
X82423905Y-39764000D01*
X82328667Y-39716381D01*
X82090571Y-39716381D01*
X81995333Y-39764000D01*
X81947714Y-39811619D01*
X81900095Y-39906857D01*
X81900095Y-40002095D01*
X81947714Y-40144952D01*
X82519143Y-40716381D01*
X81900095Y-40716381D01*
X88916666Y-47320381D02*
X89250000Y-46844190D01*
X89488095Y-47320381D02*
X89488095Y-46320381D01*
X89107142Y-46320381D01*
X89011904Y-46368000D01*
X88964285Y-46415619D01*
X88916666Y-46510857D01*
X88916666Y-46653714D01*
X88964285Y-46748952D01*
X89011904Y-46796571D01*
X89107142Y-46844190D01*
X89488095Y-46844190D01*
X88059523Y-46320381D02*
X88250000Y-46320381D01*
X88345238Y-46368000D01*
X88392857Y-46415619D01*
X88488095Y-46558476D01*
X88535714Y-46748952D01*
X88535714Y-47129905D01*
X88488095Y-47225143D01*
X88440476Y-47272762D01*
X88345238Y-47320381D01*
X88154761Y-47320381D01*
X88059523Y-47272762D01*
X88011904Y-47225143D01*
X87964285Y-47129905D01*
X87964285Y-46891810D01*
X88011904Y-46796571D01*
X88059523Y-46748952D01*
X88154761Y-46701333D01*
X88345238Y-46701333D01*
X88440476Y-46748952D01*
X88488095Y-46796571D01*
X88535714Y-46891810D01*
X88916666Y-49606381D02*
X89250000Y-49130190D01*
X89488095Y-49606381D02*
X89488095Y-48606381D01*
X89107142Y-48606381D01*
X89011904Y-48654000D01*
X88964285Y-48701619D01*
X88916666Y-48796857D01*
X88916666Y-48939714D01*
X88964285Y-49034952D01*
X89011904Y-49082571D01*
X89107142Y-49130190D01*
X89488095Y-49130190D01*
X88440476Y-49606381D02*
X88250000Y-49606381D01*
X88154761Y-49558762D01*
X88107142Y-49511143D01*
X88011904Y-49368286D01*
X87964285Y-49177810D01*
X87964285Y-48796857D01*
X88011904Y-48701619D01*
X88059523Y-48654000D01*
X88154761Y-48606381D01*
X88345238Y-48606381D01*
X88440476Y-48654000D01*
X88488095Y-48701619D01*
X88535714Y-48796857D01*
X88535714Y-49034952D01*
X88488095Y-49130190D01*
X88440476Y-49177810D01*
X88345238Y-49225429D01*
X88154761Y-49225429D01*
X88059523Y-49177810D01*
X88011904Y-49130190D01*
X87964285Y-49034952D01*
X95234857Y-30810381D02*
X95568191Y-30334190D01*
X95806286Y-30810381D02*
X95806286Y-29810381D01*
X95425333Y-29810381D01*
X95330095Y-29858000D01*
X95282476Y-29905619D01*
X95234857Y-30000857D01*
X95234857Y-30143714D01*
X95282476Y-30238952D01*
X95330095Y-30286571D01*
X95425333Y-30334190D01*
X95806286Y-30334190D01*
X94282476Y-30810381D02*
X94853905Y-30810381D01*
X94568191Y-30810381D02*
X94568191Y-29810381D01*
X94663429Y-29953238D01*
X94758667Y-30048476D01*
X94853905Y-30096095D01*
X93663429Y-29810381D02*
X93568190Y-29810381D01*
X93472952Y-29858000D01*
X93425333Y-29905619D01*
X93377714Y-30000857D01*
X93330095Y-30191333D01*
X93330095Y-30429429D01*
X93377714Y-30619905D01*
X93425333Y-30715143D01*
X93472952Y-30762762D01*
X93568190Y-30810381D01*
X93663429Y-30810381D01*
X93758667Y-30762762D01*
X93806286Y-30715143D01*
X93853905Y-30619905D01*
X93901524Y-30429429D01*
X93901524Y-30191333D01*
X93853905Y-30000857D01*
X93806286Y-29905619D01*
X93758667Y-29858000D01*
X93663429Y-29810381D01*
X82026857Y-30810381D02*
X82360191Y-30334190D01*
X82598286Y-30810381D02*
X82598286Y-29810381D01*
X82217333Y-29810381D01*
X82122095Y-29858000D01*
X82074476Y-29905619D01*
X82026857Y-30000857D01*
X82026857Y-30143714D01*
X82074476Y-30238952D01*
X82122095Y-30286571D01*
X82217333Y-30334190D01*
X82598286Y-30334190D01*
X81074476Y-30810381D02*
X81645905Y-30810381D01*
X81360191Y-30810381D02*
X81360191Y-29810381D01*
X81455429Y-29953238D01*
X81550667Y-30048476D01*
X81645905Y-30096095D01*
X80122095Y-30810381D02*
X80693524Y-30810381D01*
X80407810Y-30810381D02*
X80407810Y-29810381D01*
X80503048Y-29953238D01*
X80598286Y-30048476D01*
X80693524Y-30096095D01*
X86090857Y-23444381D02*
X86424191Y-22968190D01*
X86662286Y-23444381D02*
X86662286Y-22444381D01*
X86281333Y-22444381D01*
X86186095Y-22492000D01*
X86138476Y-22539619D01*
X86090857Y-22634857D01*
X86090857Y-22777714D01*
X86138476Y-22872952D01*
X86186095Y-22920571D01*
X86281333Y-22968190D01*
X86662286Y-22968190D01*
X85138476Y-23444381D02*
X85709905Y-23444381D01*
X85424191Y-23444381D02*
X85424191Y-22444381D01*
X85519429Y-22587238D01*
X85614667Y-22682476D01*
X85709905Y-22730095D01*
X84757524Y-22539619D02*
X84709905Y-22492000D01*
X84614667Y-22444381D01*
X84376571Y-22444381D01*
X84281333Y-22492000D01*
X84233714Y-22539619D01*
X84186095Y-22634857D01*
X84186095Y-22730095D01*
X84233714Y-22872952D01*
X84805143Y-23444381D01*
X84186095Y-23444381D01*
X84820857Y-33096381D02*
X85154191Y-32620190D01*
X85392286Y-33096381D02*
X85392286Y-32096381D01*
X85011333Y-32096381D01*
X84916095Y-32144000D01*
X84868476Y-32191619D01*
X84820857Y-32286857D01*
X84820857Y-32429714D01*
X84868476Y-32524952D01*
X84916095Y-32572571D01*
X85011333Y-32620190D01*
X85392286Y-32620190D01*
X83868476Y-33096381D02*
X84439905Y-33096381D01*
X84154191Y-33096381D02*
X84154191Y-32096381D01*
X84249429Y-32239238D01*
X84344667Y-32334476D01*
X84439905Y-32382095D01*
X83535143Y-32096381D02*
X82916095Y-32096381D01*
X83249429Y-32477333D01*
X83106571Y-32477333D01*
X83011333Y-32524952D01*
X82963714Y-32572571D01*
X82916095Y-32667810D01*
X82916095Y-32905905D01*
X82963714Y-33001143D01*
X83011333Y-33048762D01*
X83106571Y-33096381D01*
X83392286Y-33096381D01*
X83487524Y-33048762D01*
X83535143Y-33001143D01*
X94362857Y-34622381D02*
X94696191Y-34146190D01*
X94934286Y-34622381D02*
X94934286Y-33622381D01*
X94553333Y-33622381D01*
X94458095Y-33670000D01*
X94410476Y-33717619D01*
X94362857Y-33812857D01*
X94362857Y-33955714D01*
X94410476Y-34050952D01*
X94458095Y-34098571D01*
X94553333Y-34146190D01*
X94934286Y-34146190D01*
X93410476Y-34622381D02*
X93981905Y-34622381D01*
X93696191Y-34622381D02*
X93696191Y-33622381D01*
X93791429Y-33765238D01*
X93886667Y-33860476D01*
X93981905Y-33908095D01*
X92553333Y-33955714D02*
X92553333Y-34622381D01*
X92791429Y-33574762D02*
X93029524Y-34289048D01*
X92410476Y-34289048D01*
X96758857Y-47320381D02*
X97092191Y-46844190D01*
X97330286Y-47320381D02*
X97330286Y-46320381D01*
X96949333Y-46320381D01*
X96854095Y-46368000D01*
X96806476Y-46415619D01*
X96758857Y-46510857D01*
X96758857Y-46653714D01*
X96806476Y-46748952D01*
X96854095Y-46796571D01*
X96949333Y-46844190D01*
X97330286Y-46844190D01*
X95806476Y-47320381D02*
X96377905Y-47320381D01*
X96092191Y-47320381D02*
X96092191Y-46320381D01*
X96187429Y-46463238D01*
X96282667Y-46558476D01*
X96377905Y-46606095D01*
X94901714Y-46320381D02*
X95377905Y-46320381D01*
X95425524Y-46796571D01*
X95377905Y-46748952D01*
X95282667Y-46701333D01*
X95044571Y-46701333D01*
X94949333Y-46748952D01*
X94901714Y-46796571D01*
X94854095Y-46891810D01*
X94854095Y-47129905D01*
X94901714Y-47225143D01*
X94949333Y-47272762D01*
X95044571Y-47320381D01*
X95282667Y-47320381D01*
X95377905Y-47272762D01*
X95425524Y-47225143D01*
X91996381Y-41653143D02*
X91520190Y-41319809D01*
X91996381Y-41081714D02*
X90996381Y-41081714D01*
X90996381Y-41462667D01*
X91044000Y-41557905D01*
X91091619Y-41605524D01*
X91186857Y-41653143D01*
X91329714Y-41653143D01*
X91424952Y-41605524D01*
X91472571Y-41557905D01*
X91520190Y-41462667D01*
X91520190Y-41081714D01*
X91996381Y-42605524D02*
X91996381Y-42034095D01*
X91996381Y-42319809D02*
X90996381Y-42319809D01*
X91139238Y-42224571D01*
X91234476Y-42129333D01*
X91282095Y-42034095D01*
X90996381Y-43462667D02*
X90996381Y-43272190D01*
X91044000Y-43176952D01*
X91091619Y-43129333D01*
X91234476Y-43034095D01*
X91424952Y-42986476D01*
X91805905Y-42986476D01*
X91901143Y-43034095D01*
X91948762Y-43081714D01*
X91996381Y-43176952D01*
X91996381Y-43367429D01*
X91948762Y-43462667D01*
X91901143Y-43510286D01*
X91805905Y-43557905D01*
X91567810Y-43557905D01*
X91472571Y-43510286D01*
X91424952Y-43462667D01*
X91377333Y-43367429D01*
X91377333Y-43176952D01*
X91424952Y-43081714D01*
X91472571Y-43034095D01*
X91567810Y-42986476D01*
X84566857Y-42748381D02*
X84900191Y-42272190D01*
X85138286Y-42748381D02*
X85138286Y-41748381D01*
X84757333Y-41748381D01*
X84662095Y-41796000D01*
X84614476Y-41843619D01*
X84566857Y-41938857D01*
X84566857Y-42081714D01*
X84614476Y-42176952D01*
X84662095Y-42224571D01*
X84757333Y-42272190D01*
X85138286Y-42272190D01*
X83614476Y-42748381D02*
X84185905Y-42748381D01*
X83900191Y-42748381D02*
X83900191Y-41748381D01*
X83995429Y-41891238D01*
X84090667Y-41986476D01*
X84185905Y-42034095D01*
X83281143Y-41748381D02*
X82614476Y-41748381D01*
X83043048Y-42748381D01*
X83042857Y-45288381D02*
X83376191Y-44812190D01*
X83614286Y-45288381D02*
X83614286Y-44288381D01*
X83233333Y-44288381D01*
X83138095Y-44336000D01*
X83090476Y-44383619D01*
X83042857Y-44478857D01*
X83042857Y-44621714D01*
X83090476Y-44716952D01*
X83138095Y-44764571D01*
X83233333Y-44812190D01*
X83614286Y-44812190D01*
X82090476Y-45288381D02*
X82661905Y-45288381D01*
X82376191Y-45288381D02*
X82376191Y-44288381D01*
X82471429Y-44431238D01*
X82566667Y-44526476D01*
X82661905Y-44574095D01*
X81614286Y-45288381D02*
X81423810Y-45288381D01*
X81328571Y-45240762D01*
X81280952Y-45193143D01*
X81185714Y-45050286D01*
X81138095Y-44859810D01*
X81138095Y-44478857D01*
X81185714Y-44383619D01*
X81233333Y-44336000D01*
X81328571Y-44288381D01*
X81519048Y-44288381D01*
X81614286Y-44336000D01*
X81661905Y-44383619D01*
X81709524Y-44478857D01*
X81709524Y-44716952D01*
X81661905Y-44812190D01*
X81614286Y-44859810D01*
X81519048Y-44907429D01*
X81328571Y-44907429D01*
X81233333Y-44859810D01*
X81185714Y-44812190D01*
X81138095Y-44716952D01*
D13*
X4739428Y-67735619D02*
X4834666Y-67688000D01*
X4929904Y-67592762D01*
X5072761Y-67449905D01*
X5168000Y-67402286D01*
X5263238Y-67402286D01*
X5215619Y-67640381D02*
X5310857Y-67592762D01*
X5406095Y-67497524D01*
X5453714Y-67307048D01*
X5453714Y-66973714D01*
X5406095Y-66783238D01*
X5310857Y-66688000D01*
X5215619Y-66640381D01*
X5025142Y-66640381D01*
X4929904Y-66688000D01*
X4834666Y-66783238D01*
X4787047Y-66973714D01*
X4787047Y-67307048D01*
X4834666Y-67497524D01*
X4929904Y-67592762D01*
X5025142Y-67640381D01*
X5215619Y-67640381D01*
X3882285Y-66640381D02*
X4358476Y-66640381D01*
X4406095Y-67116571D01*
X4358476Y-67068952D01*
X4263238Y-67021333D01*
X4025142Y-67021333D01*
X3929904Y-67068952D01*
X3882285Y-67116571D01*
X3834666Y-67211810D01*
X3834666Y-67449905D01*
X3882285Y-67545143D01*
X3929904Y-67592762D01*
X4025142Y-67640381D01*
X4263238Y-67640381D01*
X4358476Y-67592762D01*
X4406095Y-67545143D01*
X3215619Y-66640381D02*
X3120380Y-66640381D01*
X3025142Y-66688000D01*
X2977523Y-66735619D01*
X2929904Y-66830857D01*
X2882285Y-67021333D01*
X2882285Y-67259429D01*
X2929904Y-67449905D01*
X2977523Y-67545143D01*
X3025142Y-67592762D01*
X3120380Y-67640381D01*
X3215619Y-67640381D01*
X3310857Y-67592762D01*
X3358476Y-67545143D01*
X3406095Y-67449905D01*
X3453714Y-67259429D01*
X3453714Y-67021333D01*
X3406095Y-66830857D01*
X3358476Y-66735619D01*
X3310857Y-66688000D01*
X3215619Y-66640381D01*
X11851428Y-67481619D02*
X11946666Y-67434000D01*
X12041904Y-67338762D01*
X12184761Y-67195905D01*
X12280000Y-67148286D01*
X12375238Y-67148286D01*
X12327619Y-67386381D02*
X12422857Y-67338762D01*
X12518095Y-67243524D01*
X12565714Y-67053048D01*
X12565714Y-66719714D01*
X12518095Y-66529238D01*
X12422857Y-66434000D01*
X12327619Y-66386381D01*
X12137142Y-66386381D01*
X12041904Y-66434000D01*
X11946666Y-66529238D01*
X11899047Y-66719714D01*
X11899047Y-67053048D01*
X11946666Y-67243524D01*
X12041904Y-67338762D01*
X12137142Y-67386381D01*
X12327619Y-67386381D01*
X10994285Y-66386381D02*
X11470476Y-66386381D01*
X11518095Y-66862571D01*
X11470476Y-66814952D01*
X11375238Y-66767333D01*
X11137142Y-66767333D01*
X11041904Y-66814952D01*
X10994285Y-66862571D01*
X10946666Y-66957810D01*
X10946666Y-67195905D01*
X10994285Y-67291143D01*
X11041904Y-67338762D01*
X11137142Y-67386381D01*
X11375238Y-67386381D01*
X11470476Y-67338762D01*
X11518095Y-67291143D01*
X9994285Y-67386381D02*
X10565714Y-67386381D01*
X10280000Y-67386381D02*
X10280000Y-66386381D01*
X10375238Y-66529238D01*
X10470476Y-66624476D01*
X10565714Y-66672095D01*
D12*
X59928857Y-41129143D02*
X59976476Y-41176762D01*
X60119333Y-41224381D01*
X60214571Y-41224381D01*
X60357429Y-41176762D01*
X60452667Y-41081524D01*
X60500286Y-40986286D01*
X60547905Y-40795810D01*
X60547905Y-40652952D01*
X60500286Y-40462476D01*
X60452667Y-40367238D01*
X60357429Y-40272000D01*
X60214571Y-40224381D01*
X60119333Y-40224381D01*
X59976476Y-40272000D01*
X59928857Y-40319619D01*
X59071714Y-40557714D02*
X59071714Y-41224381D01*
X59309810Y-40176762D02*
X59547905Y-40891048D01*
X58928857Y-40891048D01*
X58643143Y-40224381D02*
X58024095Y-40224381D01*
X58357429Y-40605333D01*
X58214571Y-40605333D01*
X58119333Y-40652952D01*
X58071714Y-40700571D01*
X58024095Y-40795810D01*
X58024095Y-41033905D01*
X58071714Y-41129143D01*
X58119333Y-41176762D01*
X58214571Y-41224381D01*
X58500286Y-41224381D01*
X58595524Y-41176762D01*
X58643143Y-41129143D01*
X52503143Y-35557143D02*
X52550762Y-35509524D01*
X52598381Y-35366667D01*
X52598381Y-35271429D01*
X52550762Y-35128571D01*
X52455524Y-35033333D01*
X52360286Y-34985714D01*
X52169810Y-34938095D01*
X52026952Y-34938095D01*
X51836476Y-34985714D01*
X51741238Y-35033333D01*
X51646000Y-35128571D01*
X51598381Y-35271429D01*
X51598381Y-35366667D01*
X51646000Y-35509524D01*
X51693619Y-35557143D01*
X51931714Y-36414286D02*
X52598381Y-36414286D01*
X51550762Y-36176190D02*
X52265048Y-35938095D01*
X52265048Y-36557143D01*
X51931714Y-37366667D02*
X52598381Y-37366667D01*
X51550762Y-37128571D02*
X52265048Y-36890476D01*
X52265048Y-37509524D01*
X59928857Y-52305143D02*
X59976476Y-52352762D01*
X60119333Y-52400381D01*
X60214571Y-52400381D01*
X60357429Y-52352762D01*
X60452667Y-52257524D01*
X60500286Y-52162286D01*
X60547905Y-51971810D01*
X60547905Y-51828952D01*
X60500286Y-51638476D01*
X60452667Y-51543238D01*
X60357429Y-51448000D01*
X60214571Y-51400381D01*
X60119333Y-51400381D01*
X59976476Y-51448000D01*
X59928857Y-51495619D01*
X59071714Y-51733714D02*
X59071714Y-52400381D01*
X59309810Y-51352762D02*
X59547905Y-52067048D01*
X58928857Y-52067048D01*
X58071714Y-51400381D02*
X58547905Y-51400381D01*
X58595524Y-51876571D01*
X58547905Y-51828952D01*
X58452667Y-51781333D01*
X58214571Y-51781333D01*
X58119333Y-51828952D01*
X58071714Y-51876571D01*
X58024095Y-51971810D01*
X58024095Y-52209905D01*
X58071714Y-52305143D01*
X58119333Y-52352762D01*
X58214571Y-52400381D01*
X58452667Y-52400381D01*
X58547905Y-52352762D01*
X58595524Y-52305143D01*
X52503143Y-46479143D02*
X52550762Y-46431524D01*
X52598381Y-46288667D01*
X52598381Y-46193429D01*
X52550762Y-46050571D01*
X52455524Y-45955333D01*
X52360286Y-45907714D01*
X52169810Y-45860095D01*
X52026952Y-45860095D01*
X51836476Y-45907714D01*
X51741238Y-45955333D01*
X51646000Y-46050571D01*
X51598381Y-46193429D01*
X51598381Y-46288667D01*
X51646000Y-46431524D01*
X51693619Y-46479143D01*
X51931714Y-47336286D02*
X52598381Y-47336286D01*
X51550762Y-47098190D02*
X52265048Y-46860095D01*
X52265048Y-47479143D01*
X51598381Y-48288667D02*
X51598381Y-48098190D01*
X51646000Y-48002952D01*
X51693619Y-47955333D01*
X51836476Y-47860095D01*
X52026952Y-47812476D01*
X52407905Y-47812476D01*
X52503143Y-47860095D01*
X52550762Y-47907714D01*
X52598381Y-48002952D01*
X52598381Y-48193429D01*
X52550762Y-48288667D01*
X52503143Y-48336286D01*
X52407905Y-48383905D01*
X52169810Y-48383905D01*
X52074571Y-48336286D01*
X52026952Y-48288667D01*
X51979333Y-48193429D01*
X51979333Y-48002952D01*
X52026952Y-47907714D01*
X52074571Y-47860095D01*
X52169810Y-47812476D01*
X59928857Y-63227143D02*
X59976476Y-63274762D01*
X60119333Y-63322381D01*
X60214571Y-63322381D01*
X60357429Y-63274762D01*
X60452667Y-63179524D01*
X60500286Y-63084286D01*
X60547905Y-62893810D01*
X60547905Y-62750952D01*
X60500286Y-62560476D01*
X60452667Y-62465238D01*
X60357429Y-62370000D01*
X60214571Y-62322381D01*
X60119333Y-62322381D01*
X59976476Y-62370000D01*
X59928857Y-62417619D01*
X59071714Y-62655714D02*
X59071714Y-63322381D01*
X59309810Y-62274762D02*
X59547905Y-62989048D01*
X58928857Y-62989048D01*
X58643143Y-62322381D02*
X57976476Y-62322381D01*
X58405048Y-63322381D01*
X52503143Y-57401143D02*
X52550762Y-57353524D01*
X52598381Y-57210667D01*
X52598381Y-57115429D01*
X52550762Y-56972571D01*
X52455524Y-56877333D01*
X52360286Y-56829714D01*
X52169810Y-56782095D01*
X52026952Y-56782095D01*
X51836476Y-56829714D01*
X51741238Y-56877333D01*
X51646000Y-56972571D01*
X51598381Y-57115429D01*
X51598381Y-57210667D01*
X51646000Y-57353524D01*
X51693619Y-57401143D01*
X51931714Y-58258286D02*
X52598381Y-58258286D01*
X51550762Y-58020190D02*
X52265048Y-57782095D01*
X52265048Y-58401143D01*
X52026952Y-58924952D02*
X51979333Y-58829714D01*
X51931714Y-58782095D01*
X51836476Y-58734476D01*
X51788857Y-58734476D01*
X51693619Y-58782095D01*
X51646000Y-58829714D01*
X51598381Y-58924952D01*
X51598381Y-59115429D01*
X51646000Y-59210667D01*
X51693619Y-59258286D01*
X51788857Y-59305905D01*
X51836476Y-59305905D01*
X51931714Y-59258286D01*
X51979333Y-59210667D01*
X52026952Y-59115429D01*
X52026952Y-58924952D01*
X52074571Y-58829714D01*
X52122190Y-58782095D01*
X52217429Y-58734476D01*
X52407905Y-58734476D01*
X52503143Y-58782095D01*
X52550762Y-58829714D01*
X52598381Y-58924952D01*
X52598381Y-59115429D01*
X52550762Y-59210667D01*
X52503143Y-59258286D01*
X52407905Y-59305905D01*
X52217429Y-59305905D01*
X52122190Y-59258286D01*
X52074571Y-59210667D01*
X52026952Y-59115429D01*
X59928857Y-74403143D02*
X59976476Y-74450762D01*
X60119333Y-74498381D01*
X60214571Y-74498381D01*
X60357429Y-74450762D01*
X60452667Y-74355524D01*
X60500286Y-74260286D01*
X60547905Y-74069810D01*
X60547905Y-73926952D01*
X60500286Y-73736476D01*
X60452667Y-73641238D01*
X60357429Y-73546000D01*
X60214571Y-73498381D01*
X60119333Y-73498381D01*
X59976476Y-73546000D01*
X59928857Y-73593619D01*
X59071714Y-73831714D02*
X59071714Y-74498381D01*
X59309810Y-73450762D02*
X59547905Y-74165048D01*
X58928857Y-74165048D01*
X58500286Y-74498381D02*
X58309810Y-74498381D01*
X58214571Y-74450762D01*
X58166952Y-74403143D01*
X58071714Y-74260286D01*
X58024095Y-74069810D01*
X58024095Y-73688857D01*
X58071714Y-73593619D01*
X58119333Y-73546000D01*
X58214571Y-73498381D01*
X58405048Y-73498381D01*
X58500286Y-73546000D01*
X58547905Y-73593619D01*
X58595524Y-73688857D01*
X58595524Y-73926952D01*
X58547905Y-74022190D01*
X58500286Y-74069810D01*
X58405048Y-74117429D01*
X58214571Y-74117429D01*
X58119333Y-74069810D01*
X58071714Y-74022190D01*
X58024095Y-73926952D01*
X52503143Y-68323143D02*
X52550762Y-68275524D01*
X52598381Y-68132667D01*
X52598381Y-68037429D01*
X52550762Y-67894571D01*
X52455524Y-67799333D01*
X52360286Y-67751714D01*
X52169810Y-67704095D01*
X52026952Y-67704095D01*
X51836476Y-67751714D01*
X51741238Y-67799333D01*
X51646000Y-67894571D01*
X51598381Y-68037429D01*
X51598381Y-68132667D01*
X51646000Y-68275524D01*
X51693619Y-68323143D01*
X51598381Y-69227905D02*
X51598381Y-68751714D01*
X52074571Y-68704095D01*
X52026952Y-68751714D01*
X51979333Y-68846952D01*
X51979333Y-69085048D01*
X52026952Y-69180286D01*
X52074571Y-69227905D01*
X52169810Y-69275524D01*
X52407905Y-69275524D01*
X52503143Y-69227905D01*
X52550762Y-69180286D01*
X52598381Y-69085048D01*
X52598381Y-68846952D01*
X52550762Y-68751714D01*
X52503143Y-68704095D01*
X51598381Y-69894571D02*
X51598381Y-69989810D01*
X51646000Y-70085048D01*
X51693619Y-70132667D01*
X51788857Y-70180286D01*
X51979333Y-70227905D01*
X52217429Y-70227905D01*
X52407905Y-70180286D01*
X52503143Y-70132667D01*
X52550762Y-70085048D01*
X52598381Y-69989810D01*
X52598381Y-69894571D01*
X52550762Y-69799333D01*
X52503143Y-69751714D01*
X52407905Y-69704095D01*
X52217429Y-69656476D01*
X51979333Y-69656476D01*
X51788857Y-69704095D01*
X51693619Y-69751714D01*
X51646000Y-69799333D01*
X51598381Y-69894571D01*
X59928857Y-85071143D02*
X59976476Y-85118762D01*
X60119333Y-85166381D01*
X60214571Y-85166381D01*
X60357429Y-85118762D01*
X60452667Y-85023524D01*
X60500286Y-84928286D01*
X60547905Y-84737810D01*
X60547905Y-84594952D01*
X60500286Y-84404476D01*
X60452667Y-84309238D01*
X60357429Y-84214000D01*
X60214571Y-84166381D01*
X60119333Y-84166381D01*
X59976476Y-84214000D01*
X59928857Y-84261619D01*
X59024095Y-84166381D02*
X59500286Y-84166381D01*
X59547905Y-84642571D01*
X59500286Y-84594952D01*
X59405048Y-84547333D01*
X59166952Y-84547333D01*
X59071714Y-84594952D01*
X59024095Y-84642571D01*
X58976476Y-84737810D01*
X58976476Y-84975905D01*
X59024095Y-85071143D01*
X59071714Y-85118762D01*
X59166952Y-85166381D01*
X59405048Y-85166381D01*
X59500286Y-85118762D01*
X59547905Y-85071143D01*
X58024095Y-85166381D02*
X58595524Y-85166381D01*
X58309810Y-85166381D02*
X58309810Y-84166381D01*
X58405048Y-84309238D01*
X58500286Y-84404476D01*
X58595524Y-84452095D01*
X52503143Y-79245143D02*
X52550762Y-79197524D01*
X52598381Y-79054667D01*
X52598381Y-78959429D01*
X52550762Y-78816571D01*
X52455524Y-78721333D01*
X52360286Y-78673714D01*
X52169810Y-78626095D01*
X52026952Y-78626095D01*
X51836476Y-78673714D01*
X51741238Y-78721333D01*
X51646000Y-78816571D01*
X51598381Y-78959429D01*
X51598381Y-79054667D01*
X51646000Y-79197524D01*
X51693619Y-79245143D01*
X51598381Y-80149905D02*
X51598381Y-79673714D01*
X52074571Y-79626095D01*
X52026952Y-79673714D01*
X51979333Y-79768952D01*
X51979333Y-80007048D01*
X52026952Y-80102286D01*
X52074571Y-80149905D01*
X52169810Y-80197524D01*
X52407905Y-80197524D01*
X52503143Y-80149905D01*
X52550762Y-80102286D01*
X52598381Y-80007048D01*
X52598381Y-79768952D01*
X52550762Y-79673714D01*
X52503143Y-79626095D01*
X51693619Y-80578476D02*
X51646000Y-80626095D01*
X51598381Y-80721333D01*
X51598381Y-80959429D01*
X51646000Y-81054667D01*
X51693619Y-81102286D01*
X51788857Y-81149905D01*
X51884095Y-81149905D01*
X52026952Y-81102286D01*
X52598381Y-80530857D01*
X52598381Y-81149905D01*
X59928857Y-95739143D02*
X59976476Y-95786762D01*
X60119333Y-95834381D01*
X60214571Y-95834381D01*
X60357429Y-95786762D01*
X60452667Y-95691524D01*
X60500286Y-95596286D01*
X60547905Y-95405810D01*
X60547905Y-95262952D01*
X60500286Y-95072476D01*
X60452667Y-94977238D01*
X60357429Y-94882000D01*
X60214571Y-94834381D01*
X60119333Y-94834381D01*
X59976476Y-94882000D01*
X59928857Y-94929619D01*
X59024095Y-94834381D02*
X59500286Y-94834381D01*
X59547905Y-95310571D01*
X59500286Y-95262952D01*
X59405048Y-95215333D01*
X59166952Y-95215333D01*
X59071714Y-95262952D01*
X59024095Y-95310571D01*
X58976476Y-95405810D01*
X58976476Y-95643905D01*
X59024095Y-95739143D01*
X59071714Y-95786762D01*
X59166952Y-95834381D01*
X59405048Y-95834381D01*
X59500286Y-95786762D01*
X59547905Y-95739143D01*
X58643143Y-94834381D02*
X58024095Y-94834381D01*
X58357429Y-95215333D01*
X58214571Y-95215333D01*
X58119333Y-95262952D01*
X58071714Y-95310571D01*
X58024095Y-95405810D01*
X58024095Y-95643905D01*
X58071714Y-95739143D01*
X58119333Y-95786762D01*
X58214571Y-95834381D01*
X58500286Y-95834381D01*
X58595524Y-95786762D01*
X58643143Y-95739143D01*
X52503143Y-90167143D02*
X52550762Y-90119524D01*
X52598381Y-89976667D01*
X52598381Y-89881429D01*
X52550762Y-89738571D01*
X52455524Y-89643333D01*
X52360286Y-89595714D01*
X52169810Y-89548095D01*
X52026952Y-89548095D01*
X51836476Y-89595714D01*
X51741238Y-89643333D01*
X51646000Y-89738571D01*
X51598381Y-89881429D01*
X51598381Y-89976667D01*
X51646000Y-90119524D01*
X51693619Y-90167143D01*
X51598381Y-91071905D02*
X51598381Y-90595714D01*
X52074571Y-90548095D01*
X52026952Y-90595714D01*
X51979333Y-90690952D01*
X51979333Y-90929048D01*
X52026952Y-91024286D01*
X52074571Y-91071905D01*
X52169810Y-91119524D01*
X52407905Y-91119524D01*
X52503143Y-91071905D01*
X52550762Y-91024286D01*
X52598381Y-90929048D01*
X52598381Y-90690952D01*
X52550762Y-90595714D01*
X52503143Y-90548095D01*
X51931714Y-91976667D02*
X52598381Y-91976667D01*
X51550762Y-91738571D02*
X52265048Y-91500476D01*
X52265048Y-92119524D01*
X95572857Y-59132381D02*
X95906191Y-58656190D01*
X96144286Y-59132381D02*
X96144286Y-58132381D01*
X95763333Y-58132381D01*
X95668095Y-58180000D01*
X95620476Y-58227619D01*
X95572857Y-58322857D01*
X95572857Y-58465714D01*
X95620476Y-58560952D01*
X95668095Y-58608571D01*
X95763333Y-58656190D01*
X96144286Y-58656190D01*
X95191905Y-58227619D02*
X95144286Y-58180000D01*
X95049048Y-58132381D01*
X94810952Y-58132381D01*
X94715714Y-58180000D01*
X94668095Y-58227619D01*
X94620476Y-58322857D01*
X94620476Y-58418095D01*
X94668095Y-58560952D01*
X95239524Y-59132381D01*
X94620476Y-59132381D01*
X93668095Y-59132381D02*
X94239524Y-59132381D01*
X93953810Y-59132381D02*
X93953810Y-58132381D01*
X94049048Y-58275238D01*
X94144286Y-58370476D01*
X94239524Y-58418095D01*
M02*
