G04 #@! TF.FileFunction,Other,Fab,Bot*
%FSLAX46Y46*%
G04 Gerber Fmt 4.6, Leading zero omitted, Abs format (unit mm)*
G04 Created by KiCad (PCBNEW 4.0.7) date 02/05/18 11:03:03*
%MOMM*%
%LPD*%
G01*
G04 APERTURE LIST*
%ADD10C,0.100000*%
%ADD11C,0.150000*%
%ADD12C,0.075000*%
G04 APERTURE END LIST*
D10*
D11*
X87608000Y-56826000D02*
X91908000Y-56826000D01*
X91908000Y-56826000D02*
X91908000Y-50626000D01*
X91908000Y-50626000D02*
X86608000Y-50626000D01*
X86608000Y-50626000D02*
X86608000Y-55826000D01*
X86608000Y-55826000D02*
X87608000Y-56826000D01*
D10*
X91360000Y-37708000D02*
X91860000Y-38208000D01*
X91860000Y-38208000D02*
X93760000Y-38208000D01*
X91360000Y-35208000D02*
X91360000Y-37708000D01*
X93760000Y-35208000D02*
X91360000Y-35208000D01*
X93760000Y-38208000D02*
X93760000Y-35208000D01*
X84502000Y-37708000D02*
X85002000Y-38208000D01*
X85002000Y-38208000D02*
X86902000Y-38208000D01*
X84502000Y-35208000D02*
X84502000Y-37708000D01*
X86902000Y-35208000D02*
X84502000Y-35208000D01*
X86902000Y-38208000D02*
X86902000Y-35208000D01*
X81496000Y-91588000D02*
X80256000Y-91588000D01*
X81496000Y-93588000D02*
X81496000Y-91588000D01*
X80256000Y-93588000D02*
X81496000Y-93588000D01*
X80256000Y-91588000D02*
X80256000Y-93588000D01*
X77812000Y-26660000D02*
X77812000Y-25420000D01*
X75812000Y-26660000D02*
X77812000Y-26660000D01*
X75812000Y-25420000D02*
X75812000Y-26660000D01*
X77812000Y-25420000D02*
X75812000Y-25420000D01*
X78702000Y-88540000D02*
X77462000Y-88540000D01*
X78702000Y-90540000D02*
X78702000Y-88540000D01*
X77462000Y-90540000D02*
X78702000Y-90540000D01*
X77462000Y-88540000D02*
X77462000Y-90540000D01*
X78702000Y-77618000D02*
X77462000Y-77618000D01*
X78702000Y-79618000D02*
X78702000Y-77618000D01*
X77462000Y-79618000D02*
X78702000Y-79618000D01*
X77462000Y-77618000D02*
X77462000Y-79618000D01*
X78702000Y-66696000D02*
X77462000Y-66696000D01*
X78702000Y-68696000D02*
X78702000Y-66696000D01*
X77462000Y-68696000D02*
X78702000Y-68696000D01*
X77462000Y-66696000D02*
X77462000Y-68696000D01*
X78702000Y-55774000D02*
X77462000Y-55774000D01*
X78702000Y-57774000D02*
X78702000Y-55774000D01*
X77462000Y-57774000D02*
X78702000Y-57774000D01*
X77462000Y-55774000D02*
X77462000Y-57774000D01*
X78702000Y-44852000D02*
X77462000Y-44852000D01*
X78702000Y-46852000D02*
X78702000Y-44852000D01*
X77462000Y-46852000D02*
X78702000Y-46852000D01*
X77462000Y-44852000D02*
X77462000Y-46852000D01*
X59302000Y-36596000D02*
X59302000Y-37836000D01*
X61302000Y-36596000D02*
X59302000Y-36596000D01*
X61302000Y-37836000D02*
X61302000Y-36596000D01*
X59302000Y-37836000D02*
X61302000Y-37836000D01*
X59302000Y-47518000D02*
X59302000Y-48758000D01*
X61302000Y-47518000D02*
X59302000Y-47518000D01*
X61302000Y-48758000D02*
X61302000Y-47518000D01*
X59302000Y-48758000D02*
X61302000Y-48758000D01*
X59302000Y-58440000D02*
X59302000Y-59680000D01*
X61302000Y-58440000D02*
X59302000Y-58440000D01*
X61302000Y-59680000D02*
X61302000Y-58440000D01*
X59302000Y-59680000D02*
X61302000Y-59680000D01*
X59302000Y-69362000D02*
X59302000Y-70602000D01*
X61302000Y-69362000D02*
X59302000Y-69362000D01*
X61302000Y-70602000D02*
X61302000Y-69362000D01*
X59302000Y-70602000D02*
X61302000Y-70602000D01*
X59302000Y-80284000D02*
X59302000Y-81524000D01*
X61302000Y-80284000D02*
X59302000Y-80284000D01*
X61302000Y-81524000D02*
X61302000Y-80284000D01*
X59302000Y-81524000D02*
X61302000Y-81524000D01*
X59302000Y-90952000D02*
X59302000Y-92192000D01*
X61302000Y-90952000D02*
X59302000Y-90952000D01*
X61302000Y-92192000D02*
X61302000Y-90952000D01*
X59302000Y-92192000D02*
X61302000Y-92192000D01*
X63874000Y-29484000D02*
X63874000Y-30724000D01*
X65874000Y-29484000D02*
X63874000Y-29484000D01*
X65874000Y-30724000D02*
X65874000Y-29484000D01*
X63874000Y-30724000D02*
X65874000Y-30724000D01*
X78702000Y-33930000D02*
X77462000Y-33930000D01*
X78702000Y-35930000D02*
X78702000Y-33930000D01*
X77462000Y-35930000D02*
X78702000Y-35930000D01*
X77462000Y-33930000D02*
X77462000Y-35930000D01*
X78828000Y-19040000D02*
X78828000Y-17800000D01*
X76828000Y-19040000D02*
X78828000Y-19040000D01*
X76828000Y-17800000D02*
X76828000Y-19040000D01*
X78828000Y-17800000D02*
X76828000Y-17800000D01*
X55080000Y-37486000D02*
X53840000Y-37486000D01*
X55080000Y-39486000D02*
X55080000Y-37486000D01*
X53840000Y-39486000D02*
X55080000Y-39486000D01*
X53840000Y-37486000D02*
X53840000Y-39486000D01*
X55080000Y-48408000D02*
X53840000Y-48408000D01*
X55080000Y-50408000D02*
X55080000Y-48408000D01*
X53840000Y-50408000D02*
X55080000Y-50408000D01*
X53840000Y-48408000D02*
X53840000Y-50408000D01*
X55080000Y-59330000D02*
X53840000Y-59330000D01*
X55080000Y-61330000D02*
X55080000Y-59330000D01*
X53840000Y-61330000D02*
X55080000Y-61330000D01*
X53840000Y-59330000D02*
X53840000Y-61330000D01*
X55080000Y-70252000D02*
X53840000Y-70252000D01*
X55080000Y-72252000D02*
X55080000Y-70252000D01*
X53840000Y-72252000D02*
X55080000Y-72252000D01*
X53840000Y-70252000D02*
X53840000Y-72252000D01*
X55080000Y-81174000D02*
X53840000Y-81174000D01*
X55080000Y-83174000D02*
X55080000Y-81174000D01*
X53840000Y-83174000D02*
X55080000Y-83174000D01*
X53840000Y-81174000D02*
X53840000Y-83174000D01*
X55080000Y-92096000D02*
X53840000Y-92096000D01*
X55080000Y-94096000D02*
X55080000Y-92096000D01*
X53840000Y-94096000D02*
X55080000Y-94096000D01*
X53840000Y-92096000D02*
X53840000Y-94096000D01*
X54730000Y-27198000D02*
X54730000Y-28438000D01*
X56730000Y-27198000D02*
X54730000Y-27198000D01*
X56730000Y-28438000D02*
X56730000Y-27198000D01*
X54730000Y-28438000D02*
X56730000Y-28438000D01*
X56126000Y-35930000D02*
X57366000Y-35930000D01*
X56126000Y-33930000D02*
X56126000Y-35930000D01*
X57366000Y-33930000D02*
X56126000Y-33930000D01*
X57366000Y-35930000D02*
X57366000Y-33930000D01*
X56126000Y-46852000D02*
X57366000Y-46852000D01*
X56126000Y-44852000D02*
X56126000Y-46852000D01*
X57366000Y-44852000D02*
X56126000Y-44852000D01*
X57366000Y-46852000D02*
X57366000Y-44852000D01*
X56126000Y-57774000D02*
X57366000Y-57774000D01*
X56126000Y-55774000D02*
X56126000Y-57774000D01*
X57366000Y-55774000D02*
X56126000Y-55774000D01*
X57366000Y-57774000D02*
X57366000Y-55774000D01*
X56126000Y-68696000D02*
X57366000Y-68696000D01*
X56126000Y-66696000D02*
X56126000Y-68696000D01*
X57366000Y-66696000D02*
X56126000Y-66696000D01*
X57366000Y-68696000D02*
X57366000Y-66696000D01*
X56126000Y-79618000D02*
X57366000Y-79618000D01*
X56126000Y-77618000D02*
X56126000Y-79618000D01*
X57366000Y-77618000D02*
X56126000Y-77618000D01*
X57366000Y-79618000D02*
X57366000Y-77618000D01*
X56126000Y-90540000D02*
X57366000Y-90540000D01*
X56126000Y-88540000D02*
X56126000Y-90540000D01*
X57366000Y-88540000D02*
X56126000Y-88540000D01*
X57366000Y-90540000D02*
X57366000Y-88540000D01*
X55334000Y-23008000D02*
X54094000Y-23008000D01*
X55334000Y-25008000D02*
X55334000Y-23008000D01*
X54094000Y-25008000D02*
X55334000Y-25008000D01*
X54094000Y-23008000D02*
X54094000Y-25008000D01*
X88988000Y-62220000D02*
X88988000Y-60980000D01*
X86988000Y-62220000D02*
X88988000Y-62220000D01*
X86988000Y-60980000D02*
X86988000Y-62220000D01*
X88988000Y-60980000D02*
X86988000Y-60980000D01*
D11*
X88794000Y-76636000D02*
X95294000Y-76636000D01*
X95294000Y-76636000D02*
X95294000Y-63836000D01*
X95294000Y-63836000D02*
X87794000Y-63836000D01*
X87794000Y-63836000D02*
X87794000Y-75636000D01*
X87794000Y-75636000D02*
X88794000Y-76636000D01*
D10*
X92449000Y-39390000D02*
X92449000Y-40630000D01*
X94449000Y-39390000D02*
X92449000Y-39390000D01*
X94449000Y-40630000D02*
X94449000Y-39390000D01*
X92449000Y-40630000D02*
X94449000Y-40630000D01*
X85845000Y-39390000D02*
X85845000Y-40630000D01*
X87845000Y-39390000D02*
X85845000Y-39390000D01*
X87845000Y-40630000D02*
X87845000Y-39390000D01*
X85845000Y-40630000D02*
X87845000Y-40630000D01*
X93306000Y-47488000D02*
X93306000Y-46248000D01*
X91306000Y-47488000D02*
X93306000Y-47488000D01*
X91306000Y-46248000D02*
X91306000Y-47488000D01*
X93306000Y-46248000D02*
X91306000Y-46248000D01*
X93306000Y-49774000D02*
X93306000Y-48534000D01*
X91306000Y-49774000D02*
X93306000Y-49774000D01*
X91306000Y-48534000D02*
X91306000Y-49774000D01*
X93306000Y-48534000D02*
X91306000Y-48534000D01*
X89782000Y-29738000D02*
X89782000Y-30978000D01*
X91782000Y-29738000D02*
X89782000Y-29738000D01*
X91782000Y-30978000D02*
X91782000Y-29738000D01*
X89782000Y-30978000D02*
X91782000Y-30978000D01*
X84194000Y-29738000D02*
X84194000Y-30978000D01*
X86194000Y-29738000D02*
X84194000Y-29738000D01*
X86194000Y-30978000D02*
X86194000Y-29738000D01*
X84194000Y-30978000D02*
X86194000Y-30978000D01*
X85972000Y-24150000D02*
X85972000Y-25390000D01*
X87972000Y-24150000D02*
X85972000Y-24150000D01*
X87972000Y-25390000D02*
X87972000Y-24150000D01*
X85972000Y-25390000D02*
X87972000Y-25390000D01*
X86988000Y-32024000D02*
X86988000Y-33264000D01*
X88988000Y-32024000D02*
X86988000Y-32024000D01*
X88988000Y-33264000D02*
X88988000Y-32024000D01*
X86988000Y-33264000D02*
X88988000Y-33264000D01*
X92576000Y-32024000D02*
X92576000Y-33264000D01*
X94576000Y-32024000D02*
X92576000Y-32024000D01*
X94576000Y-33264000D02*
X94576000Y-32024000D01*
X92576000Y-33264000D02*
X94576000Y-33264000D01*
X91860000Y-43890000D02*
X91860000Y-45130000D01*
X93860000Y-43890000D02*
X91860000Y-43890000D01*
X93860000Y-45130000D02*
X93860000Y-43890000D01*
X91860000Y-45130000D02*
X93860000Y-45130000D01*
X93846000Y-41676000D02*
X93846000Y-42916000D01*
X95846000Y-41676000D02*
X93846000Y-41676000D01*
X95846000Y-42916000D02*
X95846000Y-41676000D01*
X93846000Y-42916000D02*
X95846000Y-42916000D01*
X89242000Y-42916000D02*
X89242000Y-41676000D01*
X87242000Y-42916000D02*
X89242000Y-42916000D01*
X87242000Y-41676000D02*
X87242000Y-42916000D01*
X89242000Y-41676000D02*
X87242000Y-41676000D01*
X85718000Y-43962000D02*
X85718000Y-45202000D01*
X87718000Y-43962000D02*
X85718000Y-43962000D01*
X87718000Y-45202000D02*
X87718000Y-43962000D01*
X85718000Y-45202000D02*
X87718000Y-45202000D01*
X60286000Y-39868000D02*
X60286000Y-38628000D01*
X58286000Y-39868000D02*
X60286000Y-39868000D01*
X58286000Y-38628000D02*
X58286000Y-39868000D01*
X60286000Y-38628000D02*
X58286000Y-38628000D01*
X49776000Y-37200000D02*
X51016000Y-37200000D01*
X49776000Y-35200000D02*
X49776000Y-37200000D01*
X51016000Y-35200000D02*
X49776000Y-35200000D01*
X51016000Y-37200000D02*
X51016000Y-35200000D01*
X60286000Y-50790000D02*
X60286000Y-49550000D01*
X58286000Y-50790000D02*
X60286000Y-50790000D01*
X58286000Y-49550000D02*
X58286000Y-50790000D01*
X60286000Y-49550000D02*
X58286000Y-49550000D01*
X49776000Y-48122000D02*
X51016000Y-48122000D01*
X49776000Y-46122000D02*
X49776000Y-48122000D01*
X51016000Y-46122000D02*
X49776000Y-46122000D01*
X51016000Y-48122000D02*
X51016000Y-46122000D01*
X60286000Y-61712000D02*
X60286000Y-60472000D01*
X58286000Y-61712000D02*
X60286000Y-61712000D01*
X58286000Y-60472000D02*
X58286000Y-61712000D01*
X60286000Y-60472000D02*
X58286000Y-60472000D01*
X49776000Y-59044000D02*
X51016000Y-59044000D01*
X49776000Y-57044000D02*
X49776000Y-59044000D01*
X51016000Y-57044000D02*
X49776000Y-57044000D01*
X51016000Y-59044000D02*
X51016000Y-57044000D01*
X60286000Y-72634000D02*
X60286000Y-71394000D01*
X58286000Y-72634000D02*
X60286000Y-72634000D01*
X58286000Y-71394000D02*
X58286000Y-72634000D01*
X60286000Y-71394000D02*
X58286000Y-71394000D01*
X49776000Y-69966000D02*
X51016000Y-69966000D01*
X49776000Y-67966000D02*
X49776000Y-69966000D01*
X51016000Y-67966000D02*
X49776000Y-67966000D01*
X51016000Y-69966000D02*
X51016000Y-67966000D01*
X60286000Y-83556000D02*
X60286000Y-82316000D01*
X58286000Y-83556000D02*
X60286000Y-83556000D01*
X58286000Y-82316000D02*
X58286000Y-83556000D01*
X60286000Y-82316000D02*
X58286000Y-82316000D01*
X49776000Y-80888000D02*
X51016000Y-80888000D01*
X49776000Y-78888000D02*
X49776000Y-80888000D01*
X51016000Y-78888000D02*
X49776000Y-78888000D01*
X51016000Y-80888000D02*
X51016000Y-78888000D01*
X60286000Y-94224000D02*
X60286000Y-92984000D01*
X58286000Y-94224000D02*
X60286000Y-94224000D01*
X58286000Y-92984000D02*
X58286000Y-94224000D01*
X60286000Y-92984000D02*
X58286000Y-92984000D01*
X49776000Y-91810000D02*
X51016000Y-91810000D01*
X49776000Y-89810000D02*
X49776000Y-91810000D01*
X51016000Y-89810000D02*
X49776000Y-89810000D01*
X51016000Y-91810000D02*
X51016000Y-89810000D01*
X95930000Y-61000000D02*
X95930000Y-59760000D01*
X93930000Y-61000000D02*
X95930000Y-61000000D01*
X93930000Y-59760000D02*
X93930000Y-61000000D01*
X95930000Y-59760000D02*
X93930000Y-59760000D01*
D11*
X90019905Y-53178381D02*
X90019905Y-53987905D01*
X89972286Y-54083143D01*
X89924667Y-54130762D01*
X89829429Y-54178381D01*
X89638952Y-54178381D01*
X89543714Y-54130762D01*
X89496095Y-54083143D01*
X89448476Y-53987905D01*
X89448476Y-53178381D01*
X89019905Y-53273619D02*
X88972286Y-53226000D01*
X88877048Y-53178381D01*
X88638952Y-53178381D01*
X88543714Y-53226000D01*
X88496095Y-53273619D01*
X88448476Y-53368857D01*
X88448476Y-53464095D01*
X88496095Y-53606952D01*
X89067524Y-54178381D01*
X88448476Y-54178381D01*
D12*
X92786190Y-36338953D02*
X92286190Y-36338953D01*
X92286190Y-36458000D01*
X92310000Y-36529429D01*
X92357619Y-36577048D01*
X92405238Y-36600857D01*
X92500476Y-36624667D01*
X92571905Y-36624667D01*
X92667143Y-36600857D01*
X92714762Y-36577048D01*
X92762381Y-36529429D01*
X92786190Y-36458000D01*
X92786190Y-36338953D01*
X92333810Y-36815143D02*
X92310000Y-36838953D01*
X92286190Y-36886572D01*
X92286190Y-37005619D01*
X92310000Y-37053238D01*
X92333810Y-37077048D01*
X92381429Y-37100857D01*
X92429048Y-37100857D01*
X92500476Y-37077048D01*
X92786190Y-36791334D01*
X92786190Y-37100857D01*
X85928190Y-36338953D02*
X85428190Y-36338953D01*
X85428190Y-36458000D01*
X85452000Y-36529429D01*
X85499619Y-36577048D01*
X85547238Y-36600857D01*
X85642476Y-36624667D01*
X85713905Y-36624667D01*
X85809143Y-36600857D01*
X85856762Y-36577048D01*
X85904381Y-36529429D01*
X85928190Y-36458000D01*
X85928190Y-36338953D01*
X85428190Y-36791334D02*
X85428190Y-37100857D01*
X85618667Y-36934191D01*
X85618667Y-37005619D01*
X85642476Y-37053238D01*
X85666286Y-37077048D01*
X85713905Y-37100857D01*
X85832952Y-37100857D01*
X85880571Y-37077048D01*
X85904381Y-37053238D01*
X85928190Y-37005619D01*
X85928190Y-36862762D01*
X85904381Y-36815143D01*
X85880571Y-36791334D01*
D11*
X79483143Y-92421334D02*
X79530762Y-92373715D01*
X79578381Y-92230858D01*
X79578381Y-92135620D01*
X79530762Y-91992762D01*
X79435524Y-91897524D01*
X79340286Y-91849905D01*
X79149810Y-91802286D01*
X79006952Y-91802286D01*
X78816476Y-91849905D01*
X78721238Y-91897524D01*
X78626000Y-91992762D01*
X78578381Y-92135620D01*
X78578381Y-92230858D01*
X78626000Y-92373715D01*
X78673619Y-92421334D01*
X78578381Y-93278477D02*
X78578381Y-93088000D01*
X78626000Y-92992762D01*
X78673619Y-92945143D01*
X78816476Y-92849905D01*
X79006952Y-92802286D01*
X79387905Y-92802286D01*
X79483143Y-92849905D01*
X79530762Y-92897524D01*
X79578381Y-92992762D01*
X79578381Y-93183239D01*
X79530762Y-93278477D01*
X79483143Y-93326096D01*
X79387905Y-93373715D01*
X79149810Y-93373715D01*
X79054571Y-93326096D01*
X79006952Y-93278477D01*
X78959333Y-93183239D01*
X78959333Y-92992762D01*
X79006952Y-92897524D01*
X79054571Y-92849905D01*
X79149810Y-92802286D01*
X76978666Y-24647143D02*
X77026285Y-24694762D01*
X77169142Y-24742381D01*
X77264380Y-24742381D01*
X77407238Y-24694762D01*
X77502476Y-24599524D01*
X77550095Y-24504286D01*
X77597714Y-24313810D01*
X77597714Y-24170952D01*
X77550095Y-23980476D01*
X77502476Y-23885238D01*
X77407238Y-23790000D01*
X77264380Y-23742381D01*
X77169142Y-23742381D01*
X77026285Y-23790000D01*
X76978666Y-23837619D01*
X76645333Y-23742381D02*
X75978666Y-23742381D01*
X76407238Y-24742381D01*
X76689143Y-89373334D02*
X76736762Y-89325715D01*
X76784381Y-89182858D01*
X76784381Y-89087620D01*
X76736762Y-88944762D01*
X76641524Y-88849524D01*
X76546286Y-88801905D01*
X76355810Y-88754286D01*
X76212952Y-88754286D01*
X76022476Y-88801905D01*
X75927238Y-88849524D01*
X75832000Y-88944762D01*
X75784381Y-89087620D01*
X75784381Y-89182858D01*
X75832000Y-89325715D01*
X75879619Y-89373334D01*
X76212952Y-89944762D02*
X76165333Y-89849524D01*
X76117714Y-89801905D01*
X76022476Y-89754286D01*
X75974857Y-89754286D01*
X75879619Y-89801905D01*
X75832000Y-89849524D01*
X75784381Y-89944762D01*
X75784381Y-90135239D01*
X75832000Y-90230477D01*
X75879619Y-90278096D01*
X75974857Y-90325715D01*
X76022476Y-90325715D01*
X76117714Y-90278096D01*
X76165333Y-90230477D01*
X76212952Y-90135239D01*
X76212952Y-89944762D01*
X76260571Y-89849524D01*
X76308190Y-89801905D01*
X76403429Y-89754286D01*
X76593905Y-89754286D01*
X76689143Y-89801905D01*
X76736762Y-89849524D01*
X76784381Y-89944762D01*
X76784381Y-90135239D01*
X76736762Y-90230477D01*
X76689143Y-90278096D01*
X76593905Y-90325715D01*
X76403429Y-90325715D01*
X76308190Y-90278096D01*
X76260571Y-90230477D01*
X76212952Y-90135239D01*
X76689143Y-78451334D02*
X76736762Y-78403715D01*
X76784381Y-78260858D01*
X76784381Y-78165620D01*
X76736762Y-78022762D01*
X76641524Y-77927524D01*
X76546286Y-77879905D01*
X76355810Y-77832286D01*
X76212952Y-77832286D01*
X76022476Y-77879905D01*
X75927238Y-77927524D01*
X75832000Y-78022762D01*
X75784381Y-78165620D01*
X75784381Y-78260858D01*
X75832000Y-78403715D01*
X75879619Y-78451334D01*
X76784381Y-78927524D02*
X76784381Y-79118000D01*
X76736762Y-79213239D01*
X76689143Y-79260858D01*
X76546286Y-79356096D01*
X76355810Y-79403715D01*
X75974857Y-79403715D01*
X75879619Y-79356096D01*
X75832000Y-79308477D01*
X75784381Y-79213239D01*
X75784381Y-79022762D01*
X75832000Y-78927524D01*
X75879619Y-78879905D01*
X75974857Y-78832286D01*
X76212952Y-78832286D01*
X76308190Y-78879905D01*
X76355810Y-78927524D01*
X76403429Y-79022762D01*
X76403429Y-79213239D01*
X76355810Y-79308477D01*
X76308190Y-79356096D01*
X76212952Y-79403715D01*
X76689143Y-67053143D02*
X76736762Y-67005524D01*
X76784381Y-66862667D01*
X76784381Y-66767429D01*
X76736762Y-66624571D01*
X76641524Y-66529333D01*
X76546286Y-66481714D01*
X76355810Y-66434095D01*
X76212952Y-66434095D01*
X76022476Y-66481714D01*
X75927238Y-66529333D01*
X75832000Y-66624571D01*
X75784381Y-66767429D01*
X75784381Y-66862667D01*
X75832000Y-67005524D01*
X75879619Y-67053143D01*
X76784381Y-68005524D02*
X76784381Y-67434095D01*
X76784381Y-67719809D02*
X75784381Y-67719809D01*
X75927238Y-67624571D01*
X76022476Y-67529333D01*
X76070095Y-67434095D01*
X75879619Y-68386476D02*
X75832000Y-68434095D01*
X75784381Y-68529333D01*
X75784381Y-68767429D01*
X75832000Y-68862667D01*
X75879619Y-68910286D01*
X75974857Y-68957905D01*
X76070095Y-68957905D01*
X76212952Y-68910286D01*
X76784381Y-68338857D01*
X76784381Y-68957905D01*
X76689143Y-56131143D02*
X76736762Y-56083524D01*
X76784381Y-55940667D01*
X76784381Y-55845429D01*
X76736762Y-55702571D01*
X76641524Y-55607333D01*
X76546286Y-55559714D01*
X76355810Y-55512095D01*
X76212952Y-55512095D01*
X76022476Y-55559714D01*
X75927238Y-55607333D01*
X75832000Y-55702571D01*
X75784381Y-55845429D01*
X75784381Y-55940667D01*
X75832000Y-56083524D01*
X75879619Y-56131143D01*
X76784381Y-57083524D02*
X76784381Y-56512095D01*
X76784381Y-56797809D02*
X75784381Y-56797809D01*
X75927238Y-56702571D01*
X76022476Y-56607333D01*
X76070095Y-56512095D01*
X75784381Y-57416857D02*
X75784381Y-58035905D01*
X76165333Y-57702571D01*
X76165333Y-57845429D01*
X76212952Y-57940667D01*
X76260571Y-57988286D01*
X76355810Y-58035905D01*
X76593905Y-58035905D01*
X76689143Y-57988286D01*
X76736762Y-57940667D01*
X76784381Y-57845429D01*
X76784381Y-57559714D01*
X76736762Y-57464476D01*
X76689143Y-57416857D01*
X76689143Y-45209143D02*
X76736762Y-45161524D01*
X76784381Y-45018667D01*
X76784381Y-44923429D01*
X76736762Y-44780571D01*
X76641524Y-44685333D01*
X76546286Y-44637714D01*
X76355810Y-44590095D01*
X76212952Y-44590095D01*
X76022476Y-44637714D01*
X75927238Y-44685333D01*
X75832000Y-44780571D01*
X75784381Y-44923429D01*
X75784381Y-45018667D01*
X75832000Y-45161524D01*
X75879619Y-45209143D01*
X76784381Y-46161524D02*
X76784381Y-45590095D01*
X76784381Y-45875809D02*
X75784381Y-45875809D01*
X75927238Y-45780571D01*
X76022476Y-45685333D01*
X76070095Y-45590095D01*
X76117714Y-47018667D02*
X76784381Y-47018667D01*
X75736762Y-46780571D02*
X76451048Y-46542476D01*
X76451048Y-47161524D01*
X60944857Y-39323143D02*
X60992476Y-39370762D01*
X61135333Y-39418381D01*
X61230571Y-39418381D01*
X61373429Y-39370762D01*
X61468667Y-39275524D01*
X61516286Y-39180286D01*
X61563905Y-38989810D01*
X61563905Y-38846952D01*
X61516286Y-38656476D01*
X61468667Y-38561238D01*
X61373429Y-38466000D01*
X61230571Y-38418381D01*
X61135333Y-38418381D01*
X60992476Y-38466000D01*
X60944857Y-38513619D01*
X59992476Y-39418381D02*
X60563905Y-39418381D01*
X60278191Y-39418381D02*
X60278191Y-38418381D01*
X60373429Y-38561238D01*
X60468667Y-38656476D01*
X60563905Y-38704095D01*
X59087714Y-38418381D02*
X59563905Y-38418381D01*
X59611524Y-38894571D01*
X59563905Y-38846952D01*
X59468667Y-38799333D01*
X59230571Y-38799333D01*
X59135333Y-38846952D01*
X59087714Y-38894571D01*
X59040095Y-38989810D01*
X59040095Y-39227905D01*
X59087714Y-39323143D01*
X59135333Y-39370762D01*
X59230571Y-39418381D01*
X59468667Y-39418381D01*
X59563905Y-39370762D01*
X59611524Y-39323143D01*
X60944857Y-50245143D02*
X60992476Y-50292762D01*
X61135333Y-50340381D01*
X61230571Y-50340381D01*
X61373429Y-50292762D01*
X61468667Y-50197524D01*
X61516286Y-50102286D01*
X61563905Y-49911810D01*
X61563905Y-49768952D01*
X61516286Y-49578476D01*
X61468667Y-49483238D01*
X61373429Y-49388000D01*
X61230571Y-49340381D01*
X61135333Y-49340381D01*
X60992476Y-49388000D01*
X60944857Y-49435619D01*
X59992476Y-50340381D02*
X60563905Y-50340381D01*
X60278191Y-50340381D02*
X60278191Y-49340381D01*
X60373429Y-49483238D01*
X60468667Y-49578476D01*
X60563905Y-49626095D01*
X59135333Y-49340381D02*
X59325810Y-49340381D01*
X59421048Y-49388000D01*
X59468667Y-49435619D01*
X59563905Y-49578476D01*
X59611524Y-49768952D01*
X59611524Y-50149905D01*
X59563905Y-50245143D01*
X59516286Y-50292762D01*
X59421048Y-50340381D01*
X59230571Y-50340381D01*
X59135333Y-50292762D01*
X59087714Y-50245143D01*
X59040095Y-50149905D01*
X59040095Y-49911810D01*
X59087714Y-49816571D01*
X59135333Y-49768952D01*
X59230571Y-49721333D01*
X59421048Y-49721333D01*
X59516286Y-49768952D01*
X59563905Y-49816571D01*
X59611524Y-49911810D01*
X60944857Y-61167143D02*
X60992476Y-61214762D01*
X61135333Y-61262381D01*
X61230571Y-61262381D01*
X61373429Y-61214762D01*
X61468667Y-61119524D01*
X61516286Y-61024286D01*
X61563905Y-60833810D01*
X61563905Y-60690952D01*
X61516286Y-60500476D01*
X61468667Y-60405238D01*
X61373429Y-60310000D01*
X61230571Y-60262381D01*
X61135333Y-60262381D01*
X60992476Y-60310000D01*
X60944857Y-60357619D01*
X59992476Y-61262381D02*
X60563905Y-61262381D01*
X60278191Y-61262381D02*
X60278191Y-60262381D01*
X60373429Y-60405238D01*
X60468667Y-60500476D01*
X60563905Y-60548095D01*
X59659143Y-60262381D02*
X58992476Y-60262381D01*
X59421048Y-61262381D01*
X60944857Y-72089143D02*
X60992476Y-72136762D01*
X61135333Y-72184381D01*
X61230571Y-72184381D01*
X61373429Y-72136762D01*
X61468667Y-72041524D01*
X61516286Y-71946286D01*
X61563905Y-71755810D01*
X61563905Y-71612952D01*
X61516286Y-71422476D01*
X61468667Y-71327238D01*
X61373429Y-71232000D01*
X61230571Y-71184381D01*
X61135333Y-71184381D01*
X60992476Y-71232000D01*
X60944857Y-71279619D01*
X59992476Y-72184381D02*
X60563905Y-72184381D01*
X60278191Y-72184381D02*
X60278191Y-71184381D01*
X60373429Y-71327238D01*
X60468667Y-71422476D01*
X60563905Y-71470095D01*
X59421048Y-71612952D02*
X59516286Y-71565333D01*
X59563905Y-71517714D01*
X59611524Y-71422476D01*
X59611524Y-71374857D01*
X59563905Y-71279619D01*
X59516286Y-71232000D01*
X59421048Y-71184381D01*
X59230571Y-71184381D01*
X59135333Y-71232000D01*
X59087714Y-71279619D01*
X59040095Y-71374857D01*
X59040095Y-71422476D01*
X59087714Y-71517714D01*
X59135333Y-71565333D01*
X59230571Y-71612952D01*
X59421048Y-71612952D01*
X59516286Y-71660571D01*
X59563905Y-71708190D01*
X59611524Y-71803429D01*
X59611524Y-71993905D01*
X59563905Y-72089143D01*
X59516286Y-72136762D01*
X59421048Y-72184381D01*
X59230571Y-72184381D01*
X59135333Y-72136762D01*
X59087714Y-72089143D01*
X59040095Y-71993905D01*
X59040095Y-71803429D01*
X59087714Y-71708190D01*
X59135333Y-71660571D01*
X59230571Y-71612952D01*
X60944857Y-83011143D02*
X60992476Y-83058762D01*
X61135333Y-83106381D01*
X61230571Y-83106381D01*
X61373429Y-83058762D01*
X61468667Y-82963524D01*
X61516286Y-82868286D01*
X61563905Y-82677810D01*
X61563905Y-82534952D01*
X61516286Y-82344476D01*
X61468667Y-82249238D01*
X61373429Y-82154000D01*
X61230571Y-82106381D01*
X61135333Y-82106381D01*
X60992476Y-82154000D01*
X60944857Y-82201619D01*
X59992476Y-83106381D02*
X60563905Y-83106381D01*
X60278191Y-83106381D02*
X60278191Y-82106381D01*
X60373429Y-82249238D01*
X60468667Y-82344476D01*
X60563905Y-82392095D01*
X59516286Y-83106381D02*
X59325810Y-83106381D01*
X59230571Y-83058762D01*
X59182952Y-83011143D01*
X59087714Y-82868286D01*
X59040095Y-82677810D01*
X59040095Y-82296857D01*
X59087714Y-82201619D01*
X59135333Y-82154000D01*
X59230571Y-82106381D01*
X59421048Y-82106381D01*
X59516286Y-82154000D01*
X59563905Y-82201619D01*
X59611524Y-82296857D01*
X59611524Y-82534952D01*
X59563905Y-82630190D01*
X59516286Y-82677810D01*
X59421048Y-82725429D01*
X59230571Y-82725429D01*
X59135333Y-82677810D01*
X59087714Y-82630190D01*
X59040095Y-82534952D01*
X60944857Y-93679143D02*
X60992476Y-93726762D01*
X61135333Y-93774381D01*
X61230571Y-93774381D01*
X61373429Y-93726762D01*
X61468667Y-93631524D01*
X61516286Y-93536286D01*
X61563905Y-93345810D01*
X61563905Y-93202952D01*
X61516286Y-93012476D01*
X61468667Y-92917238D01*
X61373429Y-92822000D01*
X61230571Y-92774381D01*
X61135333Y-92774381D01*
X60992476Y-92822000D01*
X60944857Y-92869619D01*
X60563905Y-92869619D02*
X60516286Y-92822000D01*
X60421048Y-92774381D01*
X60182952Y-92774381D01*
X60087714Y-92822000D01*
X60040095Y-92869619D01*
X59992476Y-92964857D01*
X59992476Y-93060095D01*
X60040095Y-93202952D01*
X60611524Y-93774381D01*
X59992476Y-93774381D01*
X59373429Y-92774381D02*
X59278190Y-92774381D01*
X59182952Y-92822000D01*
X59135333Y-92869619D01*
X59087714Y-92964857D01*
X59040095Y-93155333D01*
X59040095Y-93393429D01*
X59087714Y-93583905D01*
X59135333Y-93679143D01*
X59182952Y-93726762D01*
X59278190Y-93774381D01*
X59373429Y-93774381D01*
X59468667Y-93726762D01*
X59516286Y-93679143D01*
X59563905Y-93583905D01*
X59611524Y-93393429D01*
X59611524Y-93155333D01*
X59563905Y-92964857D01*
X59516286Y-92869619D01*
X59468667Y-92822000D01*
X59373429Y-92774381D01*
X65516857Y-32211143D02*
X65564476Y-32258762D01*
X65707333Y-32306381D01*
X65802571Y-32306381D01*
X65945429Y-32258762D01*
X66040667Y-32163524D01*
X66088286Y-32068286D01*
X66135905Y-31877810D01*
X66135905Y-31734952D01*
X66088286Y-31544476D01*
X66040667Y-31449238D01*
X65945429Y-31354000D01*
X65802571Y-31306381D01*
X65707333Y-31306381D01*
X65564476Y-31354000D01*
X65516857Y-31401619D01*
X65135905Y-31401619D02*
X65088286Y-31354000D01*
X64993048Y-31306381D01*
X64754952Y-31306381D01*
X64659714Y-31354000D01*
X64612095Y-31401619D01*
X64564476Y-31496857D01*
X64564476Y-31592095D01*
X64612095Y-31734952D01*
X65183524Y-32306381D01*
X64564476Y-32306381D01*
X63612095Y-32306381D02*
X64183524Y-32306381D01*
X63897810Y-32306381D02*
X63897810Y-31306381D01*
X63993048Y-31449238D01*
X64088286Y-31544476D01*
X64183524Y-31592095D01*
X76689143Y-34287143D02*
X76736762Y-34239524D01*
X76784381Y-34096667D01*
X76784381Y-34001429D01*
X76736762Y-33858571D01*
X76641524Y-33763333D01*
X76546286Y-33715714D01*
X76355810Y-33668095D01*
X76212952Y-33668095D01*
X76022476Y-33715714D01*
X75927238Y-33763333D01*
X75832000Y-33858571D01*
X75784381Y-34001429D01*
X75784381Y-34096667D01*
X75832000Y-34239524D01*
X75879619Y-34287143D01*
X75879619Y-34668095D02*
X75832000Y-34715714D01*
X75784381Y-34810952D01*
X75784381Y-35049048D01*
X75832000Y-35144286D01*
X75879619Y-35191905D01*
X75974857Y-35239524D01*
X76070095Y-35239524D01*
X76212952Y-35191905D01*
X76784381Y-34620476D01*
X76784381Y-35239524D01*
X75879619Y-35620476D02*
X75832000Y-35668095D01*
X75784381Y-35763333D01*
X75784381Y-36001429D01*
X75832000Y-36096667D01*
X75879619Y-36144286D01*
X75974857Y-36191905D01*
X76070095Y-36191905D01*
X76212952Y-36144286D01*
X76784381Y-35572857D01*
X76784381Y-36191905D01*
X78470857Y-17027143D02*
X78518476Y-17074762D01*
X78661333Y-17122381D01*
X78756571Y-17122381D01*
X78899429Y-17074762D01*
X78994667Y-16979524D01*
X79042286Y-16884286D01*
X79089905Y-16693810D01*
X79089905Y-16550952D01*
X79042286Y-16360476D01*
X78994667Y-16265238D01*
X78899429Y-16170000D01*
X78756571Y-16122381D01*
X78661333Y-16122381D01*
X78518476Y-16170000D01*
X78470857Y-16217619D01*
X78089905Y-16217619D02*
X78042286Y-16170000D01*
X77947048Y-16122381D01*
X77708952Y-16122381D01*
X77613714Y-16170000D01*
X77566095Y-16217619D01*
X77518476Y-16312857D01*
X77518476Y-16408095D01*
X77566095Y-16550952D01*
X78137524Y-17122381D01*
X77518476Y-17122381D01*
X77185143Y-16122381D02*
X76566095Y-16122381D01*
X76899429Y-16503333D01*
X76756571Y-16503333D01*
X76661333Y-16550952D01*
X76613714Y-16598571D01*
X76566095Y-16693810D01*
X76566095Y-16931905D01*
X76613714Y-17027143D01*
X76661333Y-17074762D01*
X76756571Y-17122381D01*
X77042286Y-17122381D01*
X77137524Y-17074762D01*
X77185143Y-17027143D01*
X53067143Y-37843143D02*
X53114762Y-37795524D01*
X53162381Y-37652667D01*
X53162381Y-37557429D01*
X53114762Y-37414571D01*
X53019524Y-37319333D01*
X52924286Y-37271714D01*
X52733810Y-37224095D01*
X52590952Y-37224095D01*
X52400476Y-37271714D01*
X52305238Y-37319333D01*
X52210000Y-37414571D01*
X52162381Y-37557429D01*
X52162381Y-37652667D01*
X52210000Y-37795524D01*
X52257619Y-37843143D01*
X52257619Y-38224095D02*
X52210000Y-38271714D01*
X52162381Y-38366952D01*
X52162381Y-38605048D01*
X52210000Y-38700286D01*
X52257619Y-38747905D01*
X52352857Y-38795524D01*
X52448095Y-38795524D01*
X52590952Y-38747905D01*
X53162381Y-38176476D01*
X53162381Y-38795524D01*
X52495714Y-39652667D02*
X53162381Y-39652667D01*
X52114762Y-39414571D02*
X52829048Y-39176476D01*
X52829048Y-39795524D01*
X53067143Y-48765143D02*
X53114762Y-48717524D01*
X53162381Y-48574667D01*
X53162381Y-48479429D01*
X53114762Y-48336571D01*
X53019524Y-48241333D01*
X52924286Y-48193714D01*
X52733810Y-48146095D01*
X52590952Y-48146095D01*
X52400476Y-48193714D01*
X52305238Y-48241333D01*
X52210000Y-48336571D01*
X52162381Y-48479429D01*
X52162381Y-48574667D01*
X52210000Y-48717524D01*
X52257619Y-48765143D01*
X52257619Y-49146095D02*
X52210000Y-49193714D01*
X52162381Y-49288952D01*
X52162381Y-49527048D01*
X52210000Y-49622286D01*
X52257619Y-49669905D01*
X52352857Y-49717524D01*
X52448095Y-49717524D01*
X52590952Y-49669905D01*
X53162381Y-49098476D01*
X53162381Y-49717524D01*
X52162381Y-50622286D02*
X52162381Y-50146095D01*
X52638571Y-50098476D01*
X52590952Y-50146095D01*
X52543333Y-50241333D01*
X52543333Y-50479429D01*
X52590952Y-50574667D01*
X52638571Y-50622286D01*
X52733810Y-50669905D01*
X52971905Y-50669905D01*
X53067143Y-50622286D01*
X53114762Y-50574667D01*
X53162381Y-50479429D01*
X53162381Y-50241333D01*
X53114762Y-50146095D01*
X53067143Y-50098476D01*
X53067143Y-59687143D02*
X53114762Y-59639524D01*
X53162381Y-59496667D01*
X53162381Y-59401429D01*
X53114762Y-59258571D01*
X53019524Y-59163333D01*
X52924286Y-59115714D01*
X52733810Y-59068095D01*
X52590952Y-59068095D01*
X52400476Y-59115714D01*
X52305238Y-59163333D01*
X52210000Y-59258571D01*
X52162381Y-59401429D01*
X52162381Y-59496667D01*
X52210000Y-59639524D01*
X52257619Y-59687143D01*
X52257619Y-60068095D02*
X52210000Y-60115714D01*
X52162381Y-60210952D01*
X52162381Y-60449048D01*
X52210000Y-60544286D01*
X52257619Y-60591905D01*
X52352857Y-60639524D01*
X52448095Y-60639524D01*
X52590952Y-60591905D01*
X53162381Y-60020476D01*
X53162381Y-60639524D01*
X52162381Y-61496667D02*
X52162381Y-61306190D01*
X52210000Y-61210952D01*
X52257619Y-61163333D01*
X52400476Y-61068095D01*
X52590952Y-61020476D01*
X52971905Y-61020476D01*
X53067143Y-61068095D01*
X53114762Y-61115714D01*
X53162381Y-61210952D01*
X53162381Y-61401429D01*
X53114762Y-61496667D01*
X53067143Y-61544286D01*
X52971905Y-61591905D01*
X52733810Y-61591905D01*
X52638571Y-61544286D01*
X52590952Y-61496667D01*
X52543333Y-61401429D01*
X52543333Y-61210952D01*
X52590952Y-61115714D01*
X52638571Y-61068095D01*
X52733810Y-61020476D01*
X53067143Y-70609143D02*
X53114762Y-70561524D01*
X53162381Y-70418667D01*
X53162381Y-70323429D01*
X53114762Y-70180571D01*
X53019524Y-70085333D01*
X52924286Y-70037714D01*
X52733810Y-69990095D01*
X52590952Y-69990095D01*
X52400476Y-70037714D01*
X52305238Y-70085333D01*
X52210000Y-70180571D01*
X52162381Y-70323429D01*
X52162381Y-70418667D01*
X52210000Y-70561524D01*
X52257619Y-70609143D01*
X52257619Y-70990095D02*
X52210000Y-71037714D01*
X52162381Y-71132952D01*
X52162381Y-71371048D01*
X52210000Y-71466286D01*
X52257619Y-71513905D01*
X52352857Y-71561524D01*
X52448095Y-71561524D01*
X52590952Y-71513905D01*
X53162381Y-70942476D01*
X53162381Y-71561524D01*
X52162381Y-71894857D02*
X52162381Y-72561524D01*
X53162381Y-72132952D01*
X53067143Y-81531143D02*
X53114762Y-81483524D01*
X53162381Y-81340667D01*
X53162381Y-81245429D01*
X53114762Y-81102571D01*
X53019524Y-81007333D01*
X52924286Y-80959714D01*
X52733810Y-80912095D01*
X52590952Y-80912095D01*
X52400476Y-80959714D01*
X52305238Y-81007333D01*
X52210000Y-81102571D01*
X52162381Y-81245429D01*
X52162381Y-81340667D01*
X52210000Y-81483524D01*
X52257619Y-81531143D01*
X52257619Y-81912095D02*
X52210000Y-81959714D01*
X52162381Y-82054952D01*
X52162381Y-82293048D01*
X52210000Y-82388286D01*
X52257619Y-82435905D01*
X52352857Y-82483524D01*
X52448095Y-82483524D01*
X52590952Y-82435905D01*
X53162381Y-81864476D01*
X53162381Y-82483524D01*
X52590952Y-83054952D02*
X52543333Y-82959714D01*
X52495714Y-82912095D01*
X52400476Y-82864476D01*
X52352857Y-82864476D01*
X52257619Y-82912095D01*
X52210000Y-82959714D01*
X52162381Y-83054952D01*
X52162381Y-83245429D01*
X52210000Y-83340667D01*
X52257619Y-83388286D01*
X52352857Y-83435905D01*
X52400476Y-83435905D01*
X52495714Y-83388286D01*
X52543333Y-83340667D01*
X52590952Y-83245429D01*
X52590952Y-83054952D01*
X52638571Y-82959714D01*
X52686190Y-82912095D01*
X52781429Y-82864476D01*
X52971905Y-82864476D01*
X53067143Y-82912095D01*
X53114762Y-82959714D01*
X53162381Y-83054952D01*
X53162381Y-83245429D01*
X53114762Y-83340667D01*
X53067143Y-83388286D01*
X52971905Y-83435905D01*
X52781429Y-83435905D01*
X52686190Y-83388286D01*
X52638571Y-83340667D01*
X52590952Y-83245429D01*
X53067143Y-92453143D02*
X53114762Y-92405524D01*
X53162381Y-92262667D01*
X53162381Y-92167429D01*
X53114762Y-92024571D01*
X53019524Y-91929333D01*
X52924286Y-91881714D01*
X52733810Y-91834095D01*
X52590952Y-91834095D01*
X52400476Y-91881714D01*
X52305238Y-91929333D01*
X52210000Y-92024571D01*
X52162381Y-92167429D01*
X52162381Y-92262667D01*
X52210000Y-92405524D01*
X52257619Y-92453143D01*
X52257619Y-92834095D02*
X52210000Y-92881714D01*
X52162381Y-92976952D01*
X52162381Y-93215048D01*
X52210000Y-93310286D01*
X52257619Y-93357905D01*
X52352857Y-93405524D01*
X52448095Y-93405524D01*
X52590952Y-93357905D01*
X53162381Y-92786476D01*
X53162381Y-93405524D01*
X53162381Y-93881714D02*
X53162381Y-94072190D01*
X53114762Y-94167429D01*
X53067143Y-94215048D01*
X52924286Y-94310286D01*
X52733810Y-94357905D01*
X52352857Y-94357905D01*
X52257619Y-94310286D01*
X52210000Y-94262667D01*
X52162381Y-94167429D01*
X52162381Y-93976952D01*
X52210000Y-93881714D01*
X52257619Y-93834095D01*
X52352857Y-93786476D01*
X52590952Y-93786476D01*
X52686190Y-93834095D01*
X52733810Y-93881714D01*
X52781429Y-93976952D01*
X52781429Y-94167429D01*
X52733810Y-94262667D01*
X52686190Y-94310286D01*
X52590952Y-94357905D01*
X56372857Y-29925143D02*
X56420476Y-29972762D01*
X56563333Y-30020381D01*
X56658571Y-30020381D01*
X56801429Y-29972762D01*
X56896667Y-29877524D01*
X56944286Y-29782286D01*
X56991905Y-29591810D01*
X56991905Y-29448952D01*
X56944286Y-29258476D01*
X56896667Y-29163238D01*
X56801429Y-29068000D01*
X56658571Y-29020381D01*
X56563333Y-29020381D01*
X56420476Y-29068000D01*
X56372857Y-29115619D01*
X56039524Y-29020381D02*
X55420476Y-29020381D01*
X55753810Y-29401333D01*
X55610952Y-29401333D01*
X55515714Y-29448952D01*
X55468095Y-29496571D01*
X55420476Y-29591810D01*
X55420476Y-29829905D01*
X55468095Y-29925143D01*
X55515714Y-29972762D01*
X55610952Y-30020381D01*
X55896667Y-30020381D01*
X55991905Y-29972762D01*
X56039524Y-29925143D01*
X54801429Y-29020381D02*
X54706190Y-29020381D01*
X54610952Y-29068000D01*
X54563333Y-29115619D01*
X54515714Y-29210857D01*
X54468095Y-29401333D01*
X54468095Y-29639429D01*
X54515714Y-29829905D01*
X54563333Y-29925143D01*
X54610952Y-29972762D01*
X54706190Y-30020381D01*
X54801429Y-30020381D01*
X54896667Y-29972762D01*
X54944286Y-29925143D01*
X54991905Y-29829905D01*
X55039524Y-29639429D01*
X55039524Y-29401333D01*
X54991905Y-29210857D01*
X54944286Y-29115619D01*
X54896667Y-29068000D01*
X54801429Y-29020381D01*
X58853143Y-34287143D02*
X58900762Y-34239524D01*
X58948381Y-34096667D01*
X58948381Y-34001429D01*
X58900762Y-33858571D01*
X58805524Y-33763333D01*
X58710286Y-33715714D01*
X58519810Y-33668095D01*
X58376952Y-33668095D01*
X58186476Y-33715714D01*
X58091238Y-33763333D01*
X57996000Y-33858571D01*
X57948381Y-34001429D01*
X57948381Y-34096667D01*
X57996000Y-34239524D01*
X58043619Y-34287143D01*
X57948381Y-34620476D02*
X57948381Y-35239524D01*
X58329333Y-34906190D01*
X58329333Y-35049048D01*
X58376952Y-35144286D01*
X58424571Y-35191905D01*
X58519810Y-35239524D01*
X58757905Y-35239524D01*
X58853143Y-35191905D01*
X58900762Y-35144286D01*
X58948381Y-35049048D01*
X58948381Y-34763333D01*
X58900762Y-34668095D01*
X58853143Y-34620476D01*
X58948381Y-36191905D02*
X58948381Y-35620476D01*
X58948381Y-35906190D02*
X57948381Y-35906190D01*
X58091238Y-35810952D01*
X58186476Y-35715714D01*
X58234095Y-35620476D01*
X58853143Y-45209143D02*
X58900762Y-45161524D01*
X58948381Y-45018667D01*
X58948381Y-44923429D01*
X58900762Y-44780571D01*
X58805524Y-44685333D01*
X58710286Y-44637714D01*
X58519810Y-44590095D01*
X58376952Y-44590095D01*
X58186476Y-44637714D01*
X58091238Y-44685333D01*
X57996000Y-44780571D01*
X57948381Y-44923429D01*
X57948381Y-45018667D01*
X57996000Y-45161524D01*
X58043619Y-45209143D01*
X57948381Y-45542476D02*
X57948381Y-46161524D01*
X58329333Y-45828190D01*
X58329333Y-45971048D01*
X58376952Y-46066286D01*
X58424571Y-46113905D01*
X58519810Y-46161524D01*
X58757905Y-46161524D01*
X58853143Y-46113905D01*
X58900762Y-46066286D01*
X58948381Y-45971048D01*
X58948381Y-45685333D01*
X58900762Y-45590095D01*
X58853143Y-45542476D01*
X58043619Y-46542476D02*
X57996000Y-46590095D01*
X57948381Y-46685333D01*
X57948381Y-46923429D01*
X57996000Y-47018667D01*
X58043619Y-47066286D01*
X58138857Y-47113905D01*
X58234095Y-47113905D01*
X58376952Y-47066286D01*
X58948381Y-46494857D01*
X58948381Y-47113905D01*
X58853143Y-56131143D02*
X58900762Y-56083524D01*
X58948381Y-55940667D01*
X58948381Y-55845429D01*
X58900762Y-55702571D01*
X58805524Y-55607333D01*
X58710286Y-55559714D01*
X58519810Y-55512095D01*
X58376952Y-55512095D01*
X58186476Y-55559714D01*
X58091238Y-55607333D01*
X57996000Y-55702571D01*
X57948381Y-55845429D01*
X57948381Y-55940667D01*
X57996000Y-56083524D01*
X58043619Y-56131143D01*
X57948381Y-56464476D02*
X57948381Y-57083524D01*
X58329333Y-56750190D01*
X58329333Y-56893048D01*
X58376952Y-56988286D01*
X58424571Y-57035905D01*
X58519810Y-57083524D01*
X58757905Y-57083524D01*
X58853143Y-57035905D01*
X58900762Y-56988286D01*
X58948381Y-56893048D01*
X58948381Y-56607333D01*
X58900762Y-56512095D01*
X58853143Y-56464476D01*
X57948381Y-57416857D02*
X57948381Y-58035905D01*
X58329333Y-57702571D01*
X58329333Y-57845429D01*
X58376952Y-57940667D01*
X58424571Y-57988286D01*
X58519810Y-58035905D01*
X58757905Y-58035905D01*
X58853143Y-57988286D01*
X58900762Y-57940667D01*
X58948381Y-57845429D01*
X58948381Y-57559714D01*
X58900762Y-57464476D01*
X58853143Y-57416857D01*
X58853143Y-67053143D02*
X58900762Y-67005524D01*
X58948381Y-66862667D01*
X58948381Y-66767429D01*
X58900762Y-66624571D01*
X58805524Y-66529333D01*
X58710286Y-66481714D01*
X58519810Y-66434095D01*
X58376952Y-66434095D01*
X58186476Y-66481714D01*
X58091238Y-66529333D01*
X57996000Y-66624571D01*
X57948381Y-66767429D01*
X57948381Y-66862667D01*
X57996000Y-67005524D01*
X58043619Y-67053143D01*
X57948381Y-67386476D02*
X57948381Y-68005524D01*
X58329333Y-67672190D01*
X58329333Y-67815048D01*
X58376952Y-67910286D01*
X58424571Y-67957905D01*
X58519810Y-68005524D01*
X58757905Y-68005524D01*
X58853143Y-67957905D01*
X58900762Y-67910286D01*
X58948381Y-67815048D01*
X58948381Y-67529333D01*
X58900762Y-67434095D01*
X58853143Y-67386476D01*
X58281714Y-68862667D02*
X58948381Y-68862667D01*
X57900762Y-68624571D02*
X58615048Y-68386476D01*
X58615048Y-69005524D01*
X58853143Y-77975143D02*
X58900762Y-77927524D01*
X58948381Y-77784667D01*
X58948381Y-77689429D01*
X58900762Y-77546571D01*
X58805524Y-77451333D01*
X58710286Y-77403714D01*
X58519810Y-77356095D01*
X58376952Y-77356095D01*
X58186476Y-77403714D01*
X58091238Y-77451333D01*
X57996000Y-77546571D01*
X57948381Y-77689429D01*
X57948381Y-77784667D01*
X57996000Y-77927524D01*
X58043619Y-77975143D01*
X57948381Y-78308476D02*
X57948381Y-78927524D01*
X58329333Y-78594190D01*
X58329333Y-78737048D01*
X58376952Y-78832286D01*
X58424571Y-78879905D01*
X58519810Y-78927524D01*
X58757905Y-78927524D01*
X58853143Y-78879905D01*
X58900762Y-78832286D01*
X58948381Y-78737048D01*
X58948381Y-78451333D01*
X58900762Y-78356095D01*
X58853143Y-78308476D01*
X57948381Y-79832286D02*
X57948381Y-79356095D01*
X58424571Y-79308476D01*
X58376952Y-79356095D01*
X58329333Y-79451333D01*
X58329333Y-79689429D01*
X58376952Y-79784667D01*
X58424571Y-79832286D01*
X58519810Y-79879905D01*
X58757905Y-79879905D01*
X58853143Y-79832286D01*
X58900762Y-79784667D01*
X58948381Y-79689429D01*
X58948381Y-79451333D01*
X58900762Y-79356095D01*
X58853143Y-79308476D01*
X58853143Y-88897143D02*
X58900762Y-88849524D01*
X58948381Y-88706667D01*
X58948381Y-88611429D01*
X58900762Y-88468571D01*
X58805524Y-88373333D01*
X58710286Y-88325714D01*
X58519810Y-88278095D01*
X58376952Y-88278095D01*
X58186476Y-88325714D01*
X58091238Y-88373333D01*
X57996000Y-88468571D01*
X57948381Y-88611429D01*
X57948381Y-88706667D01*
X57996000Y-88849524D01*
X58043619Y-88897143D01*
X57948381Y-89230476D02*
X57948381Y-89849524D01*
X58329333Y-89516190D01*
X58329333Y-89659048D01*
X58376952Y-89754286D01*
X58424571Y-89801905D01*
X58519810Y-89849524D01*
X58757905Y-89849524D01*
X58853143Y-89801905D01*
X58900762Y-89754286D01*
X58948381Y-89659048D01*
X58948381Y-89373333D01*
X58900762Y-89278095D01*
X58853143Y-89230476D01*
X57948381Y-90706667D02*
X57948381Y-90516190D01*
X57996000Y-90420952D01*
X58043619Y-90373333D01*
X58186476Y-90278095D01*
X58376952Y-90230476D01*
X58757905Y-90230476D01*
X58853143Y-90278095D01*
X58900762Y-90325714D01*
X58948381Y-90420952D01*
X58948381Y-90611429D01*
X58900762Y-90706667D01*
X58853143Y-90754286D01*
X58757905Y-90801905D01*
X58519810Y-90801905D01*
X58424571Y-90754286D01*
X58376952Y-90706667D01*
X58329333Y-90611429D01*
X58329333Y-90420952D01*
X58376952Y-90325714D01*
X58424571Y-90278095D01*
X58519810Y-90230476D01*
X53321143Y-23365143D02*
X53368762Y-23317524D01*
X53416381Y-23174667D01*
X53416381Y-23079429D01*
X53368762Y-22936571D01*
X53273524Y-22841333D01*
X53178286Y-22793714D01*
X52987810Y-22746095D01*
X52844952Y-22746095D01*
X52654476Y-22793714D01*
X52559238Y-22841333D01*
X52464000Y-22936571D01*
X52416381Y-23079429D01*
X52416381Y-23174667D01*
X52464000Y-23317524D01*
X52511619Y-23365143D01*
X52416381Y-23698476D02*
X52416381Y-24317524D01*
X52797333Y-23984190D01*
X52797333Y-24127048D01*
X52844952Y-24222286D01*
X52892571Y-24269905D01*
X52987810Y-24317524D01*
X53225905Y-24317524D01*
X53321143Y-24269905D01*
X53368762Y-24222286D01*
X53416381Y-24127048D01*
X53416381Y-23841333D01*
X53368762Y-23746095D01*
X53321143Y-23698476D01*
X52416381Y-24650857D02*
X52416381Y-25317524D01*
X53416381Y-24888952D01*
X88630857Y-60207143D02*
X88678476Y-60254762D01*
X88821333Y-60302381D01*
X88916571Y-60302381D01*
X89059429Y-60254762D01*
X89154667Y-60159524D01*
X89202286Y-60064286D01*
X89249905Y-59873810D01*
X89249905Y-59730952D01*
X89202286Y-59540476D01*
X89154667Y-59445238D01*
X89059429Y-59350000D01*
X88916571Y-59302381D01*
X88821333Y-59302381D01*
X88678476Y-59350000D01*
X88630857Y-59397619D01*
X87773714Y-59635714D02*
X87773714Y-60302381D01*
X88011810Y-59254762D02*
X88249905Y-59969048D01*
X87630857Y-59969048D01*
X87059429Y-59302381D02*
X86964190Y-59302381D01*
X86868952Y-59350000D01*
X86821333Y-59397619D01*
X86773714Y-59492857D01*
X86726095Y-59683333D01*
X86726095Y-59921429D01*
X86773714Y-60111905D01*
X86821333Y-60207143D01*
X86868952Y-60254762D01*
X86964190Y-60302381D01*
X87059429Y-60302381D01*
X87154667Y-60254762D01*
X87202286Y-60207143D01*
X87249905Y-60111905D01*
X87297524Y-59921429D01*
X87297524Y-59683333D01*
X87249905Y-59492857D01*
X87202286Y-59397619D01*
X87154667Y-59350000D01*
X87059429Y-59302381D01*
X92305905Y-69688381D02*
X92305905Y-70497905D01*
X92258286Y-70593143D01*
X92210667Y-70640762D01*
X92115429Y-70688381D01*
X91924952Y-70688381D01*
X91829714Y-70640762D01*
X91782095Y-70593143D01*
X91734476Y-70497905D01*
X91734476Y-69688381D01*
X90734476Y-70688381D02*
X91305905Y-70688381D01*
X91020191Y-70688381D02*
X91020191Y-69688381D01*
X91115429Y-69831238D01*
X91210667Y-69926476D01*
X91305905Y-69974095D01*
X94091857Y-42117143D02*
X94139476Y-42164762D01*
X94282333Y-42212381D01*
X94377571Y-42212381D01*
X94520429Y-42164762D01*
X94615667Y-42069524D01*
X94663286Y-41974286D01*
X94710905Y-41783810D01*
X94710905Y-41640952D01*
X94663286Y-41450476D01*
X94615667Y-41355238D01*
X94520429Y-41260000D01*
X94377571Y-41212381D01*
X94282333Y-41212381D01*
X94139476Y-41260000D01*
X94091857Y-41307619D01*
X93234714Y-41545714D02*
X93234714Y-42212381D01*
X93472810Y-41164762D02*
X93710905Y-41879048D01*
X93091857Y-41879048D01*
X92187095Y-42212381D02*
X92758524Y-42212381D01*
X92472810Y-42212381D02*
X92472810Y-41212381D01*
X92568048Y-41355238D01*
X92663286Y-41450476D01*
X92758524Y-41498095D01*
X87487857Y-42117143D02*
X87535476Y-42164762D01*
X87678333Y-42212381D01*
X87773571Y-42212381D01*
X87916429Y-42164762D01*
X88011667Y-42069524D01*
X88059286Y-41974286D01*
X88106905Y-41783810D01*
X88106905Y-41640952D01*
X88059286Y-41450476D01*
X88011667Y-41355238D01*
X87916429Y-41260000D01*
X87773571Y-41212381D01*
X87678333Y-41212381D01*
X87535476Y-41260000D01*
X87487857Y-41307619D01*
X86630714Y-41545714D02*
X86630714Y-42212381D01*
X86868810Y-41164762D02*
X87106905Y-41879048D01*
X86487857Y-41879048D01*
X86154524Y-41307619D02*
X86106905Y-41260000D01*
X86011667Y-41212381D01*
X85773571Y-41212381D01*
X85678333Y-41260000D01*
X85630714Y-41307619D01*
X85583095Y-41402857D01*
X85583095Y-41498095D01*
X85630714Y-41640952D01*
X86202143Y-42212381D01*
X85583095Y-42212381D01*
D12*
X92389333Y-47094190D02*
X92556000Y-46856095D01*
X92675047Y-47094190D02*
X92675047Y-46594190D01*
X92484571Y-46594190D01*
X92436952Y-46618000D01*
X92413143Y-46641810D01*
X92389333Y-46689429D01*
X92389333Y-46760857D01*
X92413143Y-46808476D01*
X92436952Y-46832286D01*
X92484571Y-46856095D01*
X92675047Y-46856095D01*
X91960762Y-46594190D02*
X92056000Y-46594190D01*
X92103619Y-46618000D01*
X92127428Y-46641810D01*
X92175047Y-46713238D01*
X92198857Y-46808476D01*
X92198857Y-46998952D01*
X92175047Y-47046571D01*
X92151238Y-47070381D01*
X92103619Y-47094190D01*
X92008381Y-47094190D01*
X91960762Y-47070381D01*
X91936952Y-47046571D01*
X91913143Y-46998952D01*
X91913143Y-46879905D01*
X91936952Y-46832286D01*
X91960762Y-46808476D01*
X92008381Y-46784667D01*
X92103619Y-46784667D01*
X92151238Y-46808476D01*
X92175047Y-46832286D01*
X92198857Y-46879905D01*
X92389333Y-49380190D02*
X92556000Y-49142095D01*
X92675047Y-49380190D02*
X92675047Y-48880190D01*
X92484571Y-48880190D01*
X92436952Y-48904000D01*
X92413143Y-48927810D01*
X92389333Y-48975429D01*
X92389333Y-49046857D01*
X92413143Y-49094476D01*
X92436952Y-49118286D01*
X92484571Y-49142095D01*
X92675047Y-49142095D01*
X92151238Y-49380190D02*
X92056000Y-49380190D01*
X92008381Y-49356381D01*
X91984571Y-49332571D01*
X91936952Y-49261143D01*
X91913143Y-49165905D01*
X91913143Y-48975429D01*
X91936952Y-48927810D01*
X91960762Y-48904000D01*
X92008381Y-48880190D01*
X92103619Y-48880190D01*
X92151238Y-48904000D01*
X92175047Y-48927810D01*
X92198857Y-48975429D01*
X92198857Y-49094476D01*
X92175047Y-49142095D01*
X92151238Y-49165905D01*
X92103619Y-49189714D01*
X92008381Y-49189714D01*
X91960762Y-49165905D01*
X91936952Y-49142095D01*
X91913143Y-49094476D01*
X91103428Y-30584190D02*
X91270095Y-30346095D01*
X91389142Y-30584190D02*
X91389142Y-30084190D01*
X91198666Y-30084190D01*
X91151047Y-30108000D01*
X91127238Y-30131810D01*
X91103428Y-30179429D01*
X91103428Y-30250857D01*
X91127238Y-30298476D01*
X91151047Y-30322286D01*
X91198666Y-30346095D01*
X91389142Y-30346095D01*
X90627238Y-30584190D02*
X90912952Y-30584190D01*
X90770095Y-30584190D02*
X90770095Y-30084190D01*
X90817714Y-30155619D01*
X90865333Y-30203238D01*
X90912952Y-30227048D01*
X90317714Y-30084190D02*
X90270095Y-30084190D01*
X90222476Y-30108000D01*
X90198667Y-30131810D01*
X90174857Y-30179429D01*
X90151048Y-30274667D01*
X90151048Y-30393714D01*
X90174857Y-30488952D01*
X90198667Y-30536571D01*
X90222476Y-30560381D01*
X90270095Y-30584190D01*
X90317714Y-30584190D01*
X90365333Y-30560381D01*
X90389143Y-30536571D01*
X90412952Y-30488952D01*
X90436762Y-30393714D01*
X90436762Y-30274667D01*
X90412952Y-30179429D01*
X90389143Y-30131810D01*
X90365333Y-30108000D01*
X90317714Y-30084190D01*
X85515428Y-30584190D02*
X85682095Y-30346095D01*
X85801142Y-30584190D02*
X85801142Y-30084190D01*
X85610666Y-30084190D01*
X85563047Y-30108000D01*
X85539238Y-30131810D01*
X85515428Y-30179429D01*
X85515428Y-30250857D01*
X85539238Y-30298476D01*
X85563047Y-30322286D01*
X85610666Y-30346095D01*
X85801142Y-30346095D01*
X85039238Y-30584190D02*
X85324952Y-30584190D01*
X85182095Y-30584190D02*
X85182095Y-30084190D01*
X85229714Y-30155619D01*
X85277333Y-30203238D01*
X85324952Y-30227048D01*
X84563048Y-30584190D02*
X84848762Y-30584190D01*
X84705905Y-30584190D02*
X84705905Y-30084190D01*
X84753524Y-30155619D01*
X84801143Y-30203238D01*
X84848762Y-30227048D01*
X87293428Y-24996190D02*
X87460095Y-24758095D01*
X87579142Y-24996190D02*
X87579142Y-24496190D01*
X87388666Y-24496190D01*
X87341047Y-24520000D01*
X87317238Y-24543810D01*
X87293428Y-24591429D01*
X87293428Y-24662857D01*
X87317238Y-24710476D01*
X87341047Y-24734286D01*
X87388666Y-24758095D01*
X87579142Y-24758095D01*
X86817238Y-24996190D02*
X87102952Y-24996190D01*
X86960095Y-24996190D02*
X86960095Y-24496190D01*
X87007714Y-24567619D01*
X87055333Y-24615238D01*
X87102952Y-24639048D01*
X86626762Y-24543810D02*
X86602952Y-24520000D01*
X86555333Y-24496190D01*
X86436286Y-24496190D01*
X86388667Y-24520000D01*
X86364857Y-24543810D01*
X86341048Y-24591429D01*
X86341048Y-24639048D01*
X86364857Y-24710476D01*
X86650571Y-24996190D01*
X86341048Y-24996190D01*
X88309428Y-32870190D02*
X88476095Y-32632095D01*
X88595142Y-32870190D02*
X88595142Y-32370190D01*
X88404666Y-32370190D01*
X88357047Y-32394000D01*
X88333238Y-32417810D01*
X88309428Y-32465429D01*
X88309428Y-32536857D01*
X88333238Y-32584476D01*
X88357047Y-32608286D01*
X88404666Y-32632095D01*
X88595142Y-32632095D01*
X87833238Y-32870190D02*
X88118952Y-32870190D01*
X87976095Y-32870190D02*
X87976095Y-32370190D01*
X88023714Y-32441619D01*
X88071333Y-32489238D01*
X88118952Y-32513048D01*
X87666571Y-32370190D02*
X87357048Y-32370190D01*
X87523714Y-32560667D01*
X87452286Y-32560667D01*
X87404667Y-32584476D01*
X87380857Y-32608286D01*
X87357048Y-32655905D01*
X87357048Y-32774952D01*
X87380857Y-32822571D01*
X87404667Y-32846381D01*
X87452286Y-32870190D01*
X87595143Y-32870190D01*
X87642762Y-32846381D01*
X87666571Y-32822571D01*
X93897428Y-32870190D02*
X94064095Y-32632095D01*
X94183142Y-32870190D02*
X94183142Y-32370190D01*
X93992666Y-32370190D01*
X93945047Y-32394000D01*
X93921238Y-32417810D01*
X93897428Y-32465429D01*
X93897428Y-32536857D01*
X93921238Y-32584476D01*
X93945047Y-32608286D01*
X93992666Y-32632095D01*
X94183142Y-32632095D01*
X93421238Y-32870190D02*
X93706952Y-32870190D01*
X93564095Y-32870190D02*
X93564095Y-32370190D01*
X93611714Y-32441619D01*
X93659333Y-32489238D01*
X93706952Y-32513048D01*
X92992667Y-32536857D02*
X92992667Y-32870190D01*
X93111714Y-32346381D02*
X93230762Y-32703524D01*
X92921238Y-32703524D01*
X93181428Y-44736190D02*
X93348095Y-44498095D01*
X93467142Y-44736190D02*
X93467142Y-44236190D01*
X93276666Y-44236190D01*
X93229047Y-44260000D01*
X93205238Y-44283810D01*
X93181428Y-44331429D01*
X93181428Y-44402857D01*
X93205238Y-44450476D01*
X93229047Y-44474286D01*
X93276666Y-44498095D01*
X93467142Y-44498095D01*
X92705238Y-44736190D02*
X92990952Y-44736190D01*
X92848095Y-44736190D02*
X92848095Y-44236190D01*
X92895714Y-44307619D01*
X92943333Y-44355238D01*
X92990952Y-44379048D01*
X92252857Y-44236190D02*
X92490952Y-44236190D01*
X92514762Y-44474286D01*
X92490952Y-44450476D01*
X92443333Y-44426667D01*
X92324286Y-44426667D01*
X92276667Y-44450476D01*
X92252857Y-44474286D01*
X92229048Y-44521905D01*
X92229048Y-44640952D01*
X92252857Y-44688571D01*
X92276667Y-44712381D01*
X92324286Y-44736190D01*
X92443333Y-44736190D01*
X92490952Y-44712381D01*
X92514762Y-44688571D01*
X95167428Y-42522190D02*
X95334095Y-42284095D01*
X95453142Y-42522190D02*
X95453142Y-42022190D01*
X95262666Y-42022190D01*
X95215047Y-42046000D01*
X95191238Y-42069810D01*
X95167428Y-42117429D01*
X95167428Y-42188857D01*
X95191238Y-42236476D01*
X95215047Y-42260286D01*
X95262666Y-42284095D01*
X95453142Y-42284095D01*
X94691238Y-42522190D02*
X94976952Y-42522190D01*
X94834095Y-42522190D02*
X94834095Y-42022190D01*
X94881714Y-42093619D01*
X94929333Y-42141238D01*
X94976952Y-42165048D01*
X94262667Y-42022190D02*
X94357905Y-42022190D01*
X94405524Y-42046000D01*
X94429333Y-42069810D01*
X94476952Y-42141238D01*
X94500762Y-42236476D01*
X94500762Y-42426952D01*
X94476952Y-42474571D01*
X94453143Y-42498381D01*
X94405524Y-42522190D01*
X94310286Y-42522190D01*
X94262667Y-42498381D01*
X94238857Y-42474571D01*
X94215048Y-42426952D01*
X94215048Y-42307905D01*
X94238857Y-42260286D01*
X94262667Y-42236476D01*
X94310286Y-42212667D01*
X94405524Y-42212667D01*
X94453143Y-42236476D01*
X94476952Y-42260286D01*
X94500762Y-42307905D01*
X88563428Y-42522190D02*
X88730095Y-42284095D01*
X88849142Y-42522190D02*
X88849142Y-42022190D01*
X88658666Y-42022190D01*
X88611047Y-42046000D01*
X88587238Y-42069810D01*
X88563428Y-42117429D01*
X88563428Y-42188857D01*
X88587238Y-42236476D01*
X88611047Y-42260286D01*
X88658666Y-42284095D01*
X88849142Y-42284095D01*
X88087238Y-42522190D02*
X88372952Y-42522190D01*
X88230095Y-42522190D02*
X88230095Y-42022190D01*
X88277714Y-42093619D01*
X88325333Y-42141238D01*
X88372952Y-42165048D01*
X87920571Y-42022190D02*
X87587238Y-42022190D01*
X87801524Y-42522190D01*
X87039428Y-44808190D02*
X87206095Y-44570095D01*
X87325142Y-44808190D02*
X87325142Y-44308190D01*
X87134666Y-44308190D01*
X87087047Y-44332000D01*
X87063238Y-44355810D01*
X87039428Y-44403429D01*
X87039428Y-44474857D01*
X87063238Y-44522476D01*
X87087047Y-44546286D01*
X87134666Y-44570095D01*
X87325142Y-44570095D01*
X86563238Y-44808190D02*
X86848952Y-44808190D01*
X86706095Y-44808190D02*
X86706095Y-44308190D01*
X86753714Y-44379619D01*
X86801333Y-44427238D01*
X86848952Y-44451048D01*
X86325143Y-44808190D02*
X86229905Y-44808190D01*
X86182286Y-44784381D01*
X86158476Y-44760571D01*
X86110857Y-44689143D01*
X86087048Y-44593905D01*
X86087048Y-44403429D01*
X86110857Y-44355810D01*
X86134667Y-44332000D01*
X86182286Y-44308190D01*
X86277524Y-44308190D01*
X86325143Y-44332000D01*
X86348952Y-44355810D01*
X86372762Y-44403429D01*
X86372762Y-44522476D01*
X86348952Y-44570095D01*
X86325143Y-44593905D01*
X86277524Y-44617714D01*
X86182286Y-44617714D01*
X86134667Y-44593905D01*
X86110857Y-44570095D01*
X86087048Y-44522476D01*
D11*
X59928857Y-37855143D02*
X59976476Y-37902762D01*
X60119333Y-37950381D01*
X60214571Y-37950381D01*
X60357429Y-37902762D01*
X60452667Y-37807524D01*
X60500286Y-37712286D01*
X60547905Y-37521810D01*
X60547905Y-37378952D01*
X60500286Y-37188476D01*
X60452667Y-37093238D01*
X60357429Y-36998000D01*
X60214571Y-36950381D01*
X60119333Y-36950381D01*
X59976476Y-36998000D01*
X59928857Y-37045619D01*
X59071714Y-37283714D02*
X59071714Y-37950381D01*
X59309810Y-36902762D02*
X59547905Y-37617048D01*
X58928857Y-37617048D01*
X58643143Y-36950381D02*
X58024095Y-36950381D01*
X58357429Y-37331333D01*
X58214571Y-37331333D01*
X58119333Y-37378952D01*
X58071714Y-37426571D01*
X58024095Y-37521810D01*
X58024095Y-37759905D01*
X58071714Y-37855143D01*
X58119333Y-37902762D01*
X58214571Y-37950381D01*
X58500286Y-37950381D01*
X58595524Y-37902762D01*
X58643143Y-37855143D01*
X52503143Y-35557143D02*
X52550762Y-35509524D01*
X52598381Y-35366667D01*
X52598381Y-35271429D01*
X52550762Y-35128571D01*
X52455524Y-35033333D01*
X52360286Y-34985714D01*
X52169810Y-34938095D01*
X52026952Y-34938095D01*
X51836476Y-34985714D01*
X51741238Y-35033333D01*
X51646000Y-35128571D01*
X51598381Y-35271429D01*
X51598381Y-35366667D01*
X51646000Y-35509524D01*
X51693619Y-35557143D01*
X51931714Y-36414286D02*
X52598381Y-36414286D01*
X51550762Y-36176190D02*
X52265048Y-35938095D01*
X52265048Y-36557143D01*
X51931714Y-37366667D02*
X52598381Y-37366667D01*
X51550762Y-37128571D02*
X52265048Y-36890476D01*
X52265048Y-37509524D01*
X59928857Y-48777143D02*
X59976476Y-48824762D01*
X60119333Y-48872381D01*
X60214571Y-48872381D01*
X60357429Y-48824762D01*
X60452667Y-48729524D01*
X60500286Y-48634286D01*
X60547905Y-48443810D01*
X60547905Y-48300952D01*
X60500286Y-48110476D01*
X60452667Y-48015238D01*
X60357429Y-47920000D01*
X60214571Y-47872381D01*
X60119333Y-47872381D01*
X59976476Y-47920000D01*
X59928857Y-47967619D01*
X59071714Y-48205714D02*
X59071714Y-48872381D01*
X59309810Y-47824762D02*
X59547905Y-48539048D01*
X58928857Y-48539048D01*
X58071714Y-47872381D02*
X58547905Y-47872381D01*
X58595524Y-48348571D01*
X58547905Y-48300952D01*
X58452667Y-48253333D01*
X58214571Y-48253333D01*
X58119333Y-48300952D01*
X58071714Y-48348571D01*
X58024095Y-48443810D01*
X58024095Y-48681905D01*
X58071714Y-48777143D01*
X58119333Y-48824762D01*
X58214571Y-48872381D01*
X58452667Y-48872381D01*
X58547905Y-48824762D01*
X58595524Y-48777143D01*
X52503143Y-46479143D02*
X52550762Y-46431524D01*
X52598381Y-46288667D01*
X52598381Y-46193429D01*
X52550762Y-46050571D01*
X52455524Y-45955333D01*
X52360286Y-45907714D01*
X52169810Y-45860095D01*
X52026952Y-45860095D01*
X51836476Y-45907714D01*
X51741238Y-45955333D01*
X51646000Y-46050571D01*
X51598381Y-46193429D01*
X51598381Y-46288667D01*
X51646000Y-46431524D01*
X51693619Y-46479143D01*
X51931714Y-47336286D02*
X52598381Y-47336286D01*
X51550762Y-47098190D02*
X52265048Y-46860095D01*
X52265048Y-47479143D01*
X51598381Y-48288667D02*
X51598381Y-48098190D01*
X51646000Y-48002952D01*
X51693619Y-47955333D01*
X51836476Y-47860095D01*
X52026952Y-47812476D01*
X52407905Y-47812476D01*
X52503143Y-47860095D01*
X52550762Y-47907714D01*
X52598381Y-48002952D01*
X52598381Y-48193429D01*
X52550762Y-48288667D01*
X52503143Y-48336286D01*
X52407905Y-48383905D01*
X52169810Y-48383905D01*
X52074571Y-48336286D01*
X52026952Y-48288667D01*
X51979333Y-48193429D01*
X51979333Y-48002952D01*
X52026952Y-47907714D01*
X52074571Y-47860095D01*
X52169810Y-47812476D01*
X59928857Y-59699143D02*
X59976476Y-59746762D01*
X60119333Y-59794381D01*
X60214571Y-59794381D01*
X60357429Y-59746762D01*
X60452667Y-59651524D01*
X60500286Y-59556286D01*
X60547905Y-59365810D01*
X60547905Y-59222952D01*
X60500286Y-59032476D01*
X60452667Y-58937238D01*
X60357429Y-58842000D01*
X60214571Y-58794381D01*
X60119333Y-58794381D01*
X59976476Y-58842000D01*
X59928857Y-58889619D01*
X59071714Y-59127714D02*
X59071714Y-59794381D01*
X59309810Y-58746762D02*
X59547905Y-59461048D01*
X58928857Y-59461048D01*
X58643143Y-58794381D02*
X57976476Y-58794381D01*
X58405048Y-59794381D01*
X52503143Y-57401143D02*
X52550762Y-57353524D01*
X52598381Y-57210667D01*
X52598381Y-57115429D01*
X52550762Y-56972571D01*
X52455524Y-56877333D01*
X52360286Y-56829714D01*
X52169810Y-56782095D01*
X52026952Y-56782095D01*
X51836476Y-56829714D01*
X51741238Y-56877333D01*
X51646000Y-56972571D01*
X51598381Y-57115429D01*
X51598381Y-57210667D01*
X51646000Y-57353524D01*
X51693619Y-57401143D01*
X51931714Y-58258286D02*
X52598381Y-58258286D01*
X51550762Y-58020190D02*
X52265048Y-57782095D01*
X52265048Y-58401143D01*
X52026952Y-58924952D02*
X51979333Y-58829714D01*
X51931714Y-58782095D01*
X51836476Y-58734476D01*
X51788857Y-58734476D01*
X51693619Y-58782095D01*
X51646000Y-58829714D01*
X51598381Y-58924952D01*
X51598381Y-59115429D01*
X51646000Y-59210667D01*
X51693619Y-59258286D01*
X51788857Y-59305905D01*
X51836476Y-59305905D01*
X51931714Y-59258286D01*
X51979333Y-59210667D01*
X52026952Y-59115429D01*
X52026952Y-58924952D01*
X52074571Y-58829714D01*
X52122190Y-58782095D01*
X52217429Y-58734476D01*
X52407905Y-58734476D01*
X52503143Y-58782095D01*
X52550762Y-58829714D01*
X52598381Y-58924952D01*
X52598381Y-59115429D01*
X52550762Y-59210667D01*
X52503143Y-59258286D01*
X52407905Y-59305905D01*
X52217429Y-59305905D01*
X52122190Y-59258286D01*
X52074571Y-59210667D01*
X52026952Y-59115429D01*
X59928857Y-70621143D02*
X59976476Y-70668762D01*
X60119333Y-70716381D01*
X60214571Y-70716381D01*
X60357429Y-70668762D01*
X60452667Y-70573524D01*
X60500286Y-70478286D01*
X60547905Y-70287810D01*
X60547905Y-70144952D01*
X60500286Y-69954476D01*
X60452667Y-69859238D01*
X60357429Y-69764000D01*
X60214571Y-69716381D01*
X60119333Y-69716381D01*
X59976476Y-69764000D01*
X59928857Y-69811619D01*
X59071714Y-70049714D02*
X59071714Y-70716381D01*
X59309810Y-69668762D02*
X59547905Y-70383048D01*
X58928857Y-70383048D01*
X58500286Y-70716381D02*
X58309810Y-70716381D01*
X58214571Y-70668762D01*
X58166952Y-70621143D01*
X58071714Y-70478286D01*
X58024095Y-70287810D01*
X58024095Y-69906857D01*
X58071714Y-69811619D01*
X58119333Y-69764000D01*
X58214571Y-69716381D01*
X58405048Y-69716381D01*
X58500286Y-69764000D01*
X58547905Y-69811619D01*
X58595524Y-69906857D01*
X58595524Y-70144952D01*
X58547905Y-70240190D01*
X58500286Y-70287810D01*
X58405048Y-70335429D01*
X58214571Y-70335429D01*
X58119333Y-70287810D01*
X58071714Y-70240190D01*
X58024095Y-70144952D01*
X52503143Y-68323143D02*
X52550762Y-68275524D01*
X52598381Y-68132667D01*
X52598381Y-68037429D01*
X52550762Y-67894571D01*
X52455524Y-67799333D01*
X52360286Y-67751714D01*
X52169810Y-67704095D01*
X52026952Y-67704095D01*
X51836476Y-67751714D01*
X51741238Y-67799333D01*
X51646000Y-67894571D01*
X51598381Y-68037429D01*
X51598381Y-68132667D01*
X51646000Y-68275524D01*
X51693619Y-68323143D01*
X51598381Y-69227905D02*
X51598381Y-68751714D01*
X52074571Y-68704095D01*
X52026952Y-68751714D01*
X51979333Y-68846952D01*
X51979333Y-69085048D01*
X52026952Y-69180286D01*
X52074571Y-69227905D01*
X52169810Y-69275524D01*
X52407905Y-69275524D01*
X52503143Y-69227905D01*
X52550762Y-69180286D01*
X52598381Y-69085048D01*
X52598381Y-68846952D01*
X52550762Y-68751714D01*
X52503143Y-68704095D01*
X51598381Y-69894571D02*
X51598381Y-69989810D01*
X51646000Y-70085048D01*
X51693619Y-70132667D01*
X51788857Y-70180286D01*
X51979333Y-70227905D01*
X52217429Y-70227905D01*
X52407905Y-70180286D01*
X52503143Y-70132667D01*
X52550762Y-70085048D01*
X52598381Y-69989810D01*
X52598381Y-69894571D01*
X52550762Y-69799333D01*
X52503143Y-69751714D01*
X52407905Y-69704095D01*
X52217429Y-69656476D01*
X51979333Y-69656476D01*
X51788857Y-69704095D01*
X51693619Y-69751714D01*
X51646000Y-69799333D01*
X51598381Y-69894571D01*
X59928857Y-81543143D02*
X59976476Y-81590762D01*
X60119333Y-81638381D01*
X60214571Y-81638381D01*
X60357429Y-81590762D01*
X60452667Y-81495524D01*
X60500286Y-81400286D01*
X60547905Y-81209810D01*
X60547905Y-81066952D01*
X60500286Y-80876476D01*
X60452667Y-80781238D01*
X60357429Y-80686000D01*
X60214571Y-80638381D01*
X60119333Y-80638381D01*
X59976476Y-80686000D01*
X59928857Y-80733619D01*
X59024095Y-80638381D02*
X59500286Y-80638381D01*
X59547905Y-81114571D01*
X59500286Y-81066952D01*
X59405048Y-81019333D01*
X59166952Y-81019333D01*
X59071714Y-81066952D01*
X59024095Y-81114571D01*
X58976476Y-81209810D01*
X58976476Y-81447905D01*
X59024095Y-81543143D01*
X59071714Y-81590762D01*
X59166952Y-81638381D01*
X59405048Y-81638381D01*
X59500286Y-81590762D01*
X59547905Y-81543143D01*
X58024095Y-81638381D02*
X58595524Y-81638381D01*
X58309810Y-81638381D02*
X58309810Y-80638381D01*
X58405048Y-80781238D01*
X58500286Y-80876476D01*
X58595524Y-80924095D01*
X52503143Y-79245143D02*
X52550762Y-79197524D01*
X52598381Y-79054667D01*
X52598381Y-78959429D01*
X52550762Y-78816571D01*
X52455524Y-78721333D01*
X52360286Y-78673714D01*
X52169810Y-78626095D01*
X52026952Y-78626095D01*
X51836476Y-78673714D01*
X51741238Y-78721333D01*
X51646000Y-78816571D01*
X51598381Y-78959429D01*
X51598381Y-79054667D01*
X51646000Y-79197524D01*
X51693619Y-79245143D01*
X51598381Y-80149905D02*
X51598381Y-79673714D01*
X52074571Y-79626095D01*
X52026952Y-79673714D01*
X51979333Y-79768952D01*
X51979333Y-80007048D01*
X52026952Y-80102286D01*
X52074571Y-80149905D01*
X52169810Y-80197524D01*
X52407905Y-80197524D01*
X52503143Y-80149905D01*
X52550762Y-80102286D01*
X52598381Y-80007048D01*
X52598381Y-79768952D01*
X52550762Y-79673714D01*
X52503143Y-79626095D01*
X51693619Y-80578476D02*
X51646000Y-80626095D01*
X51598381Y-80721333D01*
X51598381Y-80959429D01*
X51646000Y-81054667D01*
X51693619Y-81102286D01*
X51788857Y-81149905D01*
X51884095Y-81149905D01*
X52026952Y-81102286D01*
X52598381Y-80530857D01*
X52598381Y-81149905D01*
X59928857Y-92211143D02*
X59976476Y-92258762D01*
X60119333Y-92306381D01*
X60214571Y-92306381D01*
X60357429Y-92258762D01*
X60452667Y-92163524D01*
X60500286Y-92068286D01*
X60547905Y-91877810D01*
X60547905Y-91734952D01*
X60500286Y-91544476D01*
X60452667Y-91449238D01*
X60357429Y-91354000D01*
X60214571Y-91306381D01*
X60119333Y-91306381D01*
X59976476Y-91354000D01*
X59928857Y-91401619D01*
X59024095Y-91306381D02*
X59500286Y-91306381D01*
X59547905Y-91782571D01*
X59500286Y-91734952D01*
X59405048Y-91687333D01*
X59166952Y-91687333D01*
X59071714Y-91734952D01*
X59024095Y-91782571D01*
X58976476Y-91877810D01*
X58976476Y-92115905D01*
X59024095Y-92211143D01*
X59071714Y-92258762D01*
X59166952Y-92306381D01*
X59405048Y-92306381D01*
X59500286Y-92258762D01*
X59547905Y-92211143D01*
X58643143Y-91306381D02*
X58024095Y-91306381D01*
X58357429Y-91687333D01*
X58214571Y-91687333D01*
X58119333Y-91734952D01*
X58071714Y-91782571D01*
X58024095Y-91877810D01*
X58024095Y-92115905D01*
X58071714Y-92211143D01*
X58119333Y-92258762D01*
X58214571Y-92306381D01*
X58500286Y-92306381D01*
X58595524Y-92258762D01*
X58643143Y-92211143D01*
X52503143Y-90167143D02*
X52550762Y-90119524D01*
X52598381Y-89976667D01*
X52598381Y-89881429D01*
X52550762Y-89738571D01*
X52455524Y-89643333D01*
X52360286Y-89595714D01*
X52169810Y-89548095D01*
X52026952Y-89548095D01*
X51836476Y-89595714D01*
X51741238Y-89643333D01*
X51646000Y-89738571D01*
X51598381Y-89881429D01*
X51598381Y-89976667D01*
X51646000Y-90119524D01*
X51693619Y-90167143D01*
X51598381Y-91071905D02*
X51598381Y-90595714D01*
X52074571Y-90548095D01*
X52026952Y-90595714D01*
X51979333Y-90690952D01*
X51979333Y-90929048D01*
X52026952Y-91024286D01*
X52074571Y-91071905D01*
X52169810Y-91119524D01*
X52407905Y-91119524D01*
X52503143Y-91071905D01*
X52550762Y-91024286D01*
X52598381Y-90929048D01*
X52598381Y-90690952D01*
X52550762Y-90595714D01*
X52503143Y-90548095D01*
X51931714Y-91976667D02*
X52598381Y-91976667D01*
X51550762Y-91738571D02*
X52265048Y-91500476D01*
X52265048Y-92119524D01*
D12*
X95251428Y-60606190D02*
X95418095Y-60368095D01*
X95537142Y-60606190D02*
X95537142Y-60106190D01*
X95346666Y-60106190D01*
X95299047Y-60130000D01*
X95275238Y-60153810D01*
X95251428Y-60201429D01*
X95251428Y-60272857D01*
X95275238Y-60320476D01*
X95299047Y-60344286D01*
X95346666Y-60368095D01*
X95537142Y-60368095D01*
X95060952Y-60153810D02*
X95037142Y-60130000D01*
X94989523Y-60106190D01*
X94870476Y-60106190D01*
X94822857Y-60130000D01*
X94799047Y-60153810D01*
X94775238Y-60201429D01*
X94775238Y-60249048D01*
X94799047Y-60320476D01*
X95084761Y-60606190D01*
X94775238Y-60606190D01*
X94299048Y-60606190D02*
X94584762Y-60606190D01*
X94441905Y-60606190D02*
X94441905Y-60106190D01*
X94489524Y-60177619D01*
X94537143Y-60225238D01*
X94584762Y-60249048D01*
M02*
