%FSLAX45Y45*%
G04 Gerber Fmt 4.5, Leading zero omitted, Abs format (unit mm)*
G04 Created by KiCad (PCBNEW 4.0.7) date 02/05/18 11:08:49*
%MOMM*%
%LPD*%
G01*
G04 APERTURE LIST*
%ADD10C,0.127000*%
%ADD11C,0.150000*%
%ADD12C,0.200000*%
%ADD13C,0.300000*%
G04 APERTURE END LIST*
D10*
D11*
X7000000Y-4000000D02*
X16995000Y-4000000D01*
X7000000Y-14000000D02*
X16995000Y-14000000D01*
X16995000Y-4000000D02*
X16995000Y-14000000D01*
X7000000Y-4000000D02*
X7000000Y-14000000D01*
D12*
X7097000Y-4150600D02*
X7127000Y-4180600D01*
X7127000Y-4150600D02*
X7097000Y-4180600D01*
X7097000Y-4569700D02*
X7127000Y-4599700D01*
X7127000Y-4569700D02*
X7097000Y-4599700D01*
X7097000Y-5077700D02*
X7127000Y-5107700D01*
X7127000Y-5077700D02*
X7097000Y-5107700D01*
X7097000Y-5585700D02*
X7127000Y-5615700D01*
X7127000Y-5585700D02*
X7097000Y-5615700D01*
X7097000Y-6093700D02*
X7127000Y-6123700D01*
X7127000Y-6093700D02*
X7097000Y-6123700D01*
X7097000Y-6601700D02*
X7127000Y-6631700D01*
X7127000Y-6601700D02*
X7097000Y-6631700D01*
X7097000Y-7109700D02*
X7127000Y-7139700D01*
X7127000Y-7109700D02*
X7097000Y-7139700D01*
X7097000Y-7528800D02*
X7127000Y-7558800D01*
X7127000Y-7528800D02*
X7097000Y-7558800D01*
X7097000Y-8036800D02*
X7127000Y-8066800D01*
X7127000Y-8036800D02*
X7097000Y-8066800D01*
X7097000Y-8544800D02*
X7127000Y-8574800D01*
X7127000Y-8544800D02*
X7097000Y-8574800D01*
X7097000Y-9052800D02*
X7127000Y-9082800D01*
X7127000Y-9052800D02*
X7097000Y-9082800D01*
X7097000Y-9560800D02*
X7127000Y-9590800D01*
X7127000Y-9560800D02*
X7097000Y-9590800D01*
X7097000Y-10068800D02*
X7127000Y-10098800D01*
X7127000Y-10068800D02*
X7097000Y-10098800D01*
X7147800Y-10602200D02*
X7177800Y-10632200D01*
X7177800Y-10602200D02*
X7147800Y-10632200D01*
X7147800Y-11008600D02*
X7177800Y-11038600D01*
X7177800Y-11008600D02*
X7147800Y-11038600D01*
X7198600Y-13650200D02*
X7228600Y-13680200D01*
X7228600Y-13650200D02*
X7198600Y-13680200D01*
X7224000Y-11923000D02*
X7254000Y-11953000D01*
X7254000Y-11923000D02*
X7224000Y-11953000D01*
X7224000Y-12431000D02*
X7254000Y-12461000D01*
X7254000Y-12431000D02*
X7224000Y-12461000D01*
X7224000Y-12939000D02*
X7254000Y-12969000D01*
X7254000Y-12939000D02*
X7224000Y-12969000D01*
X7224000Y-13218400D02*
X7254000Y-13248400D01*
X7254000Y-13218400D02*
X7224000Y-13248400D01*
X7249400Y-10399000D02*
X7279400Y-10429000D01*
X7279400Y-10399000D02*
X7249400Y-10429000D01*
X7274800Y-7287500D02*
X7304800Y-7317500D01*
X7304800Y-7287500D02*
X7274800Y-7317500D01*
X7287500Y-4341100D02*
X7317500Y-4371100D01*
X7317500Y-4341100D02*
X7287500Y-4371100D01*
X7300200Y-10805400D02*
X7330200Y-10835400D01*
X7330200Y-10805400D02*
X7300200Y-10835400D01*
X7376400Y-10602200D02*
X7406400Y-10632200D01*
X7406400Y-10602200D02*
X7376400Y-10632200D01*
X7401800Y-11465800D02*
X7431800Y-11495800D01*
X7431800Y-11465800D02*
X7401800Y-11495800D01*
X7401800Y-11719800D02*
X7431800Y-11749800D01*
X7431800Y-11719800D02*
X7401800Y-11749800D01*
X7452600Y-7528800D02*
X7482600Y-7558800D01*
X7482600Y-7528800D02*
X7452600Y-7558800D01*
X7605000Y-13802600D02*
X7635000Y-13832600D01*
X7635000Y-13802600D02*
X7605000Y-13832600D01*
X7681200Y-11059400D02*
X7711200Y-11089400D01*
X7711200Y-11059400D02*
X7681200Y-11089400D01*
X7681200Y-11719800D02*
X7711200Y-11749800D01*
X7711200Y-11719800D02*
X7681200Y-11749800D01*
X7681200Y-12253200D02*
X7711200Y-12283200D01*
X7711200Y-12253200D02*
X7681200Y-12283200D01*
X7693900Y-7287500D02*
X7723900Y-7317500D01*
X7723900Y-7287500D02*
X7693900Y-7317500D01*
X7732000Y-13015200D02*
X7762000Y-13045200D01*
X7762000Y-13015200D02*
X7732000Y-13045200D01*
X7757400Y-7897100D02*
X7787400Y-7927100D01*
X7787400Y-7897100D02*
X7757400Y-7927100D01*
X7770100Y-5979400D02*
X7800100Y-6009400D01*
X7800100Y-5979400D02*
X7770100Y-6009400D01*
X7795500Y-4341100D02*
X7825500Y-4371100D01*
X7825500Y-4341100D02*
X7795500Y-4371100D01*
X7808200Y-8798800D02*
X7838200Y-8828800D01*
X7838200Y-8798800D02*
X7808200Y-8828800D01*
X7808200Y-9789400D02*
X7838200Y-9819400D01*
X7838200Y-9789400D02*
X7808200Y-9819400D01*
X7833600Y-7706600D02*
X7863600Y-7736600D01*
X7863600Y-7706600D02*
X7833600Y-7736600D01*
X7846300Y-10411700D02*
X7876300Y-10441700D01*
X7876300Y-10411700D02*
X7846300Y-10441700D01*
X7859000Y-9002000D02*
X7889000Y-9032000D01*
X7889000Y-9002000D02*
X7859000Y-9032000D01*
X7859000Y-10754600D02*
X7889000Y-10784600D01*
X7889000Y-10754600D02*
X7859000Y-10784600D01*
X7859000Y-11059400D02*
X7889000Y-11089400D01*
X7889000Y-11059400D02*
X7859000Y-11089400D01*
X7859000Y-11719800D02*
X7889000Y-11749800D01*
X7889000Y-11719800D02*
X7859000Y-11749800D01*
X7884400Y-4684000D02*
X7914400Y-4714000D01*
X7914400Y-4684000D02*
X7884400Y-4714000D01*
X7884400Y-9941800D02*
X7914400Y-9971800D01*
X7914400Y-9941800D02*
X7884400Y-9971800D01*
X7884400Y-12608800D02*
X7914400Y-12638800D01*
X7914400Y-12608800D02*
X7884400Y-12638800D01*
X7947900Y-5560300D02*
X7977900Y-5590300D01*
X7977900Y-5560300D02*
X7947900Y-5590300D01*
X7947900Y-5738100D02*
X7977900Y-5768100D01*
X7977900Y-5738100D02*
X7947900Y-5768100D01*
X7960600Y-7528800D02*
X7990600Y-7558800D01*
X7990600Y-7528800D02*
X7960600Y-7558800D01*
X8005050Y-9414750D02*
X8035050Y-9444750D01*
X8035050Y-9414750D02*
X8005050Y-9444750D01*
X8005050Y-9598900D02*
X8035050Y-9628900D01*
X8035050Y-9598900D02*
X8005050Y-9628900D01*
X8011400Y-5369800D02*
X8041400Y-5399800D01*
X8041400Y-5369800D02*
X8011400Y-5399800D01*
X8011400Y-10500600D02*
X8041400Y-10530600D01*
X8041400Y-10500600D02*
X8011400Y-10530600D01*
X8011400Y-10754600D02*
X8041400Y-10784600D01*
X8041400Y-10754600D02*
X8011400Y-10784600D01*
X8036800Y-11059400D02*
X8066800Y-11089400D01*
X8066800Y-11059400D02*
X8036800Y-11089400D01*
X8036800Y-12253200D02*
X8066800Y-12283200D01*
X8066800Y-12253200D02*
X8036800Y-12283200D01*
X8062200Y-7897100D02*
X8092200Y-7927100D01*
X8092200Y-7897100D02*
X8062200Y-7927100D01*
X8062200Y-8138400D02*
X8092200Y-8168400D01*
X8092200Y-8138400D02*
X8062200Y-8168400D01*
X8062200Y-8290800D02*
X8092200Y-8320800D01*
X8092200Y-8290800D02*
X8062200Y-8320800D01*
X8062200Y-8417800D02*
X8092200Y-8447800D01*
X8092200Y-8417800D02*
X8062200Y-8447800D01*
X8074900Y-6665200D02*
X8104900Y-6695200D01*
X8104900Y-6665200D02*
X8074900Y-6695200D01*
X8113000Y-6131800D02*
X8143000Y-6161800D01*
X8143000Y-6131800D02*
X8113000Y-6161800D01*
X8113000Y-13802600D02*
X8143000Y-13832600D01*
X8143000Y-13802600D02*
X8113000Y-13832600D01*
X8163800Y-5763500D02*
X8193800Y-5793500D01*
X8193800Y-5763500D02*
X8163800Y-5793500D01*
X8189200Y-9154400D02*
X8219200Y-9184400D01*
X8219200Y-9154400D02*
X8189200Y-9184400D01*
X8201900Y-7287500D02*
X8231900Y-7317500D01*
X8231900Y-7287500D02*
X8201900Y-7317500D01*
X8201900Y-7884400D02*
X8231900Y-7914400D01*
X8231900Y-7884400D02*
X8201900Y-7914400D01*
X8214600Y-9433800D02*
X8244600Y-9463800D01*
X8244600Y-9433800D02*
X8214600Y-9463800D01*
X8240000Y-8138400D02*
X8270000Y-8168400D01*
X8270000Y-8138400D02*
X8240000Y-8168400D01*
X8265400Y-11821400D02*
X8295400Y-11851400D01*
X8295400Y-11821400D02*
X8265400Y-11851400D01*
X8290800Y-9814800D02*
X8320800Y-9844800D01*
X8320800Y-9814800D02*
X8290800Y-9844800D01*
X8303500Y-4341100D02*
X8333500Y-4371100D01*
X8333500Y-4341100D02*
X8303500Y-4371100D01*
X8316200Y-10500600D02*
X8346200Y-10530600D01*
X8346200Y-10500600D02*
X8316200Y-10530600D01*
X8316200Y-12608800D02*
X8346200Y-12638800D01*
X8346200Y-12608800D02*
X8316200Y-12638800D01*
X8392400Y-11008600D02*
X8422400Y-11038600D01*
X8422400Y-11008600D02*
X8392400Y-11038600D01*
X8443200Y-5522200D02*
X8473200Y-5552200D01*
X8473200Y-5522200D02*
X8443200Y-5552200D01*
X8443200Y-7528800D02*
X8473200Y-7558800D01*
X8473200Y-7528800D02*
X8443200Y-7558800D01*
X8519400Y-10373600D02*
X8549400Y-10403600D01*
X8549400Y-10373600D02*
X8519400Y-10403600D01*
X8544800Y-12151600D02*
X8574800Y-12181600D01*
X8574800Y-12151600D02*
X8544800Y-12181600D01*
X8544800Y-12380200D02*
X8574800Y-12410200D01*
X8574800Y-12380200D02*
X8544800Y-12410200D01*
X8557500Y-6817600D02*
X8587500Y-6847600D01*
X8587500Y-6817600D02*
X8557500Y-6847600D01*
X8570200Y-10119600D02*
X8600200Y-10149600D01*
X8600200Y-10119600D02*
X8570200Y-10149600D01*
X8570200Y-13802600D02*
X8600200Y-13832600D01*
X8600200Y-13802600D02*
X8570200Y-13832600D01*
X8595600Y-8138400D02*
X8625600Y-8168400D01*
X8625600Y-8138400D02*
X8595600Y-8168400D01*
X8595600Y-11338800D02*
X8625600Y-11368800D01*
X8625600Y-11338800D02*
X8595600Y-11368800D01*
X8646400Y-10576800D02*
X8676400Y-10606800D01*
X8676400Y-10576800D02*
X8646400Y-10606800D01*
X8646400Y-10983200D02*
X8676400Y-11013200D01*
X8676400Y-10983200D02*
X8646400Y-11013200D01*
X8697200Y-9433800D02*
X8727200Y-9463800D01*
X8727200Y-9433800D02*
X8697200Y-9463800D01*
X8709900Y-7287500D02*
X8739900Y-7317500D01*
X8739900Y-7287500D02*
X8709900Y-7317500D01*
X8709900Y-7884400D02*
X8739900Y-7914400D01*
X8739900Y-7884400D02*
X8709900Y-7914400D01*
X8722600Y-8265400D02*
X8752600Y-8295400D01*
X8752600Y-8265400D02*
X8722600Y-8295400D01*
X8722600Y-8557500D02*
X8752600Y-8587500D01*
X8752600Y-8557500D02*
X8722600Y-8587500D01*
X8773400Y-9008350D02*
X8803400Y-9038350D01*
X8803400Y-9008350D02*
X8773400Y-9038350D01*
X8773400Y-9687800D02*
X8803400Y-9717800D01*
X8803400Y-9687800D02*
X8773400Y-9717800D01*
X8824200Y-5522200D02*
X8854200Y-5552200D01*
X8854200Y-5522200D02*
X8824200Y-5552200D01*
X8824200Y-10830800D02*
X8854200Y-10860800D01*
X8854200Y-10830800D02*
X8824200Y-10860800D01*
X8875000Y-8138400D02*
X8905000Y-8168400D01*
X8905000Y-8138400D02*
X8875000Y-8168400D01*
X8875000Y-9332200D02*
X8905000Y-9362200D01*
X8905000Y-9332200D02*
X8875000Y-9362200D01*
X8875000Y-11084800D02*
X8905000Y-11114800D01*
X8905000Y-11084800D02*
X8875000Y-11114800D01*
X8900400Y-8367000D02*
X8930400Y-8397000D01*
X8930400Y-8367000D02*
X8900400Y-8397000D01*
X8951200Y-7084300D02*
X8981200Y-7114300D01*
X8981200Y-7084300D02*
X8951200Y-7114300D01*
X8951200Y-10119600D02*
X8981200Y-10149600D01*
X8981200Y-10119600D02*
X8951200Y-10149600D01*
X8976600Y-6157200D02*
X9006600Y-6187200D01*
X9006600Y-6157200D02*
X8976600Y-6187200D01*
X8976600Y-7287500D02*
X9006600Y-7317500D01*
X9006600Y-7287500D02*
X8976600Y-7317500D01*
X8976600Y-7528800D02*
X9006600Y-7558800D01*
X9006600Y-7528800D02*
X8976600Y-7558800D01*
X8976600Y-9129000D02*
X9006600Y-9159000D01*
X9006600Y-9129000D02*
X8976600Y-9159000D01*
X9027400Y-9332200D02*
X9057400Y-9362200D01*
X9057400Y-9332200D02*
X9027400Y-9362200D01*
X9027400Y-11415000D02*
X9057400Y-11445000D01*
X9057400Y-11415000D02*
X9027400Y-11445000D01*
X9103600Y-4988800D02*
X9133600Y-5018800D01*
X9133600Y-4988800D02*
X9103600Y-5018800D01*
X9154400Y-5242800D02*
X9184400Y-5272800D01*
X9184400Y-5242800D02*
X9154400Y-5272800D01*
X9154400Y-5420600D02*
X9184400Y-5450600D01*
X9184400Y-5420600D02*
X9154400Y-5450600D01*
X9154400Y-9840200D02*
X9184400Y-9870200D01*
X9184400Y-9840200D02*
X9154400Y-9870200D01*
X9154400Y-9967200D02*
X9184400Y-9997200D01*
X9184400Y-9967200D02*
X9154400Y-9997200D01*
X9154400Y-10856200D02*
X9184400Y-10886200D01*
X9184400Y-10856200D02*
X9154400Y-10886200D01*
X9205200Y-6233400D02*
X9235200Y-6263400D01*
X9235200Y-6233400D02*
X9205200Y-6263400D01*
X9205200Y-7033500D02*
X9235200Y-7063500D01*
X9235200Y-7033500D02*
X9205200Y-7063500D01*
X9205200Y-8189200D02*
X9235200Y-8219200D01*
X9235200Y-8189200D02*
X9205200Y-8219200D01*
X9230600Y-9332200D02*
X9260600Y-9362200D01*
X9260600Y-9332200D02*
X9230600Y-9362200D01*
X9281400Y-5674600D02*
X9311400Y-5704600D01*
X9311400Y-5674600D02*
X9281400Y-5704600D01*
X9281400Y-7655800D02*
X9311400Y-7685800D01*
X9311400Y-7655800D02*
X9281400Y-7685800D01*
X9319500Y-9840200D02*
X9349500Y-9870200D01*
X9349500Y-9840200D02*
X9319500Y-9870200D01*
X9319500Y-9967200D02*
X9349500Y-9997200D01*
X9349500Y-9967200D02*
X9319500Y-9997200D01*
X9332200Y-9408400D02*
X9362200Y-9438400D01*
X9362200Y-9408400D02*
X9332200Y-9438400D01*
X9344900Y-7287500D02*
X9374900Y-7317500D01*
X9374900Y-7287500D02*
X9344900Y-7317500D01*
X9357600Y-6182600D02*
X9387600Y-6212600D01*
X9387600Y-6182600D02*
X9357600Y-6212600D01*
X9357600Y-6512800D02*
X9387600Y-6542800D01*
X9387600Y-6512800D02*
X9357600Y-6542800D01*
X9357600Y-6741400D02*
X9387600Y-6771400D01*
X9387600Y-6741400D02*
X9357600Y-6771400D01*
X9357600Y-10678400D02*
X9387600Y-10708400D01*
X9387600Y-10678400D02*
X9357600Y-10708400D01*
X9357600Y-11135600D02*
X9387600Y-11165600D01*
X9387600Y-11135600D02*
X9357600Y-11165600D01*
X9357600Y-11516600D02*
X9387600Y-11546600D01*
X9387600Y-11516600D02*
X9357600Y-11546600D01*
X9383000Y-7884400D02*
X9413000Y-7914400D01*
X9413000Y-7884400D02*
X9383000Y-7914400D01*
X9383000Y-13091400D02*
X9413000Y-13121400D01*
X9413000Y-13091400D02*
X9383000Y-13121400D01*
X9383000Y-13294600D02*
X9413000Y-13324600D01*
X9413000Y-13294600D02*
X9383000Y-13324600D01*
X9383000Y-13548600D02*
X9413000Y-13578600D01*
X9413000Y-13548600D02*
X9383000Y-13578600D01*
X9383000Y-13828000D02*
X9413000Y-13858000D01*
X9413000Y-13828000D02*
X9383000Y-13858000D01*
X9395700Y-8608300D02*
X9425700Y-8638300D01*
X9425700Y-8608300D02*
X9395700Y-8638300D01*
X9408400Y-10322800D02*
X9438400Y-10352800D01*
X9438400Y-10322800D02*
X9408400Y-10352800D01*
X9459200Y-5014200D02*
X9489200Y-5044200D01*
X9489200Y-5014200D02*
X9459200Y-5044200D01*
X9459200Y-9179800D02*
X9489200Y-9209800D01*
X9489200Y-9179800D02*
X9459200Y-9209800D01*
X9459200Y-11364200D02*
X9489200Y-11394200D01*
X9489200Y-11364200D02*
X9459200Y-11394200D01*
X9484600Y-8138400D02*
X9514600Y-8168400D01*
X9514600Y-8138400D02*
X9484600Y-8168400D01*
X9484600Y-8379700D02*
X9514600Y-8409700D01*
X9514600Y-8379700D02*
X9484600Y-8409700D01*
X9484600Y-9052800D02*
X9514600Y-9082800D01*
X9514600Y-9052800D02*
X9484600Y-9082800D01*
X9484600Y-10856200D02*
X9514600Y-10886200D01*
X9514600Y-10856200D02*
X9484600Y-10886200D01*
X9535400Y-8824200D02*
X9565400Y-8854200D01*
X9565400Y-8824200D02*
X9535400Y-8854200D01*
X9535400Y-11770600D02*
X9565400Y-11800600D01*
X9565400Y-11770600D02*
X9535400Y-11800600D01*
X9560800Y-4341100D02*
X9590800Y-4371100D01*
X9590800Y-4341100D02*
X9560800Y-4371100D01*
X9573500Y-8582900D02*
X9603500Y-8612900D01*
X9603500Y-8582900D02*
X9573500Y-8612900D01*
X9586200Y-5808600D02*
X9616200Y-5838600D01*
X9616200Y-5808600D02*
X9586200Y-5838600D01*
X9586200Y-5908600D02*
X9616200Y-5938600D01*
X9616200Y-5908600D02*
X9586200Y-5938600D01*
X9586200Y-8722600D02*
X9616200Y-8752600D01*
X9616200Y-8722600D02*
X9586200Y-8752600D01*
X9586200Y-12786600D02*
X9616200Y-12816600D01*
X9616200Y-12786600D02*
X9586200Y-12816600D01*
X9611600Y-10627600D02*
X9641600Y-10657600D01*
X9641600Y-10627600D02*
X9611600Y-10657600D01*
X9611600Y-12431000D02*
X9641600Y-12461000D01*
X9641600Y-12431000D02*
X9611600Y-12461000D01*
X9611600Y-12634200D02*
X9641600Y-12664200D01*
X9641600Y-12634200D02*
X9611600Y-12664200D01*
X9637000Y-7655800D02*
X9667000Y-7685800D01*
X9667000Y-7655800D02*
X9637000Y-7685800D01*
X9637000Y-11618200D02*
X9667000Y-11648200D01*
X9667000Y-11618200D02*
X9637000Y-11648200D01*
X9675100Y-6804900D02*
X9705100Y-6834900D01*
X9705100Y-6804900D02*
X9675100Y-6834900D01*
X9687800Y-12253200D02*
X9717800Y-12283200D01*
X9717800Y-12253200D02*
X9687800Y-12283200D01*
X9700500Y-7287500D02*
X9730500Y-7317500D01*
X9730500Y-7287500D02*
X9700500Y-7317500D01*
X9713200Y-10780000D02*
X9743200Y-10810000D01*
X9743200Y-10780000D02*
X9713200Y-10810000D01*
X9713200Y-11135600D02*
X9743200Y-11165600D01*
X9743200Y-11135600D02*
X9713200Y-11165600D01*
X9738600Y-5141200D02*
X9768600Y-5171200D01*
X9768600Y-5141200D02*
X9738600Y-5171200D01*
X9738600Y-9306800D02*
X9768600Y-9336800D01*
X9768600Y-9306800D02*
X9738600Y-9336800D01*
X9764000Y-8849600D02*
X9794000Y-8879600D01*
X9794000Y-8849600D02*
X9764000Y-8879600D01*
X9789400Y-12050000D02*
X9819400Y-12080000D01*
X9819400Y-12050000D02*
X9789400Y-12080000D01*
X9814800Y-8138400D02*
X9844800Y-8168400D01*
X9844800Y-8138400D02*
X9814800Y-8168400D01*
X9814800Y-8417800D02*
X9844800Y-8447800D01*
X9844800Y-8417800D02*
X9814800Y-8447800D01*
X9814800Y-10386300D02*
X9844800Y-10416300D01*
X9844800Y-10386300D02*
X9814800Y-10416300D01*
X9814800Y-10602200D02*
X9844800Y-10632200D01*
X9844800Y-10602200D02*
X9814800Y-10632200D01*
X9865600Y-5674600D02*
X9895600Y-5704600D01*
X9895600Y-5674600D02*
X9865600Y-5704600D01*
X9865600Y-11262600D02*
X9895600Y-11292600D01*
X9895600Y-11262600D02*
X9865600Y-11292600D01*
X9865600Y-11465800D02*
X9895600Y-11495800D01*
X9895600Y-11465800D02*
X9865600Y-11495800D01*
X9865600Y-11897600D02*
X9895600Y-11927600D01*
X9895600Y-11897600D02*
X9865600Y-11927600D01*
X9891000Y-4861800D02*
X9921000Y-4891800D01*
X9921000Y-4861800D02*
X9891000Y-4891800D01*
X9891000Y-7884400D02*
X9921000Y-7914400D01*
X9921000Y-7884400D02*
X9891000Y-7914400D01*
X9891000Y-12532600D02*
X9921000Y-12562600D01*
X9921000Y-12532600D02*
X9891000Y-12562600D01*
X9891000Y-13040600D02*
X9921000Y-13070600D01*
X9921000Y-13040600D02*
X9891000Y-13070600D01*
X9891000Y-13548600D02*
X9921000Y-13578600D01*
X9921000Y-13548600D02*
X9891000Y-13578600D01*
X9891000Y-13828000D02*
X9921000Y-13858000D01*
X9921000Y-13828000D02*
X9891000Y-13858000D01*
X9903700Y-10386300D02*
X9933700Y-10416300D01*
X9933700Y-10386300D02*
X9903700Y-10416300D01*
X9903700Y-10602200D02*
X9933700Y-10632200D01*
X9933700Y-10602200D02*
X9903700Y-10632200D01*
X9941800Y-8824200D02*
X9971800Y-8854200D01*
X9971800Y-8824200D02*
X9941800Y-8854200D01*
X9941800Y-9408400D02*
X9971800Y-9438400D01*
X9971800Y-9408400D02*
X9941800Y-9438400D01*
X9967200Y-5776200D02*
X9997200Y-5806200D01*
X9997200Y-5776200D02*
X9967200Y-5806200D01*
X9967200Y-6081000D02*
X9997200Y-6111000D01*
X9997200Y-6081000D02*
X9967200Y-6111000D01*
X10018000Y-6589000D02*
X10048000Y-6619000D01*
X10048000Y-6589000D02*
X10018000Y-6619000D01*
X10018000Y-6779500D02*
X10048000Y-6809500D01*
X10048000Y-6779500D02*
X10018000Y-6809500D01*
X10018000Y-9306800D02*
X10048000Y-9336800D01*
X10048000Y-9306800D02*
X10018000Y-9336800D01*
X10018000Y-9865600D02*
X10048000Y-9895600D01*
X10048000Y-9865600D02*
X10018000Y-9895600D01*
X10018000Y-10373600D02*
X10048000Y-10403600D01*
X10048000Y-10373600D02*
X10018000Y-10403600D01*
X10043400Y-5420600D02*
X10073400Y-5450600D01*
X10073400Y-5420600D02*
X10043400Y-5450600D01*
X10043400Y-5979400D02*
X10073400Y-6009400D01*
X10073400Y-5979400D02*
X10043400Y-6009400D01*
X10043400Y-6157200D02*
X10073400Y-6187200D01*
X10073400Y-6157200D02*
X10043400Y-6187200D01*
X10043400Y-8417800D02*
X10073400Y-8447800D01*
X10073400Y-8417800D02*
X10043400Y-8447800D01*
X10068800Y-4341100D02*
X10098800Y-4371100D01*
X10098800Y-4341100D02*
X10068800Y-4371100D01*
X10081500Y-7287500D02*
X10111500Y-7317500D01*
X10111500Y-7287500D02*
X10081500Y-7317500D01*
X10094200Y-8544800D02*
X10124200Y-8574800D01*
X10124200Y-8544800D02*
X10094200Y-8574800D01*
X10119600Y-4861800D02*
X10149600Y-4891800D01*
X10149600Y-4861800D02*
X10119600Y-4891800D01*
X10119600Y-5649200D02*
X10149600Y-5679200D01*
X10149600Y-5649200D02*
X10119600Y-5679200D01*
X10119600Y-8875000D02*
X10149600Y-8905000D01*
X10149600Y-8875000D02*
X10119600Y-8905000D01*
X10145000Y-10780000D02*
X10175000Y-10810000D01*
X10175000Y-10780000D02*
X10145000Y-10810000D01*
X10145000Y-11288000D02*
X10175000Y-11318000D01*
X10175000Y-11288000D02*
X10145000Y-11318000D01*
X10145000Y-11796000D02*
X10175000Y-11826000D01*
X10175000Y-11796000D02*
X10145000Y-11826000D01*
X10145000Y-12253200D02*
X10175000Y-12283200D01*
X10175000Y-12253200D02*
X10145000Y-12283200D01*
X10145000Y-12786600D02*
X10175000Y-12816600D01*
X10175000Y-12786600D02*
X10145000Y-12816600D01*
X10145000Y-13294600D02*
X10175000Y-13324600D01*
X10175000Y-13294600D02*
X10145000Y-13324600D01*
X10170400Y-7655800D02*
X10200400Y-7685800D01*
X10200400Y-7655800D02*
X10170400Y-7685800D01*
X10221200Y-9230600D02*
X10251200Y-9260600D01*
X10251200Y-9230600D02*
X10221200Y-9260600D01*
X10221200Y-9738600D02*
X10251200Y-9768600D01*
X10251200Y-9738600D02*
X10221200Y-9768600D01*
X10221200Y-10246600D02*
X10251200Y-10276600D01*
X10251200Y-10246600D02*
X10221200Y-10276600D01*
X10272000Y-8316200D02*
X10302000Y-8346200D01*
X10302000Y-8316200D02*
X10272000Y-8346200D01*
X10335500Y-5280900D02*
X10365500Y-5310900D01*
X10365500Y-5280900D02*
X10335500Y-5310900D01*
X10399000Y-5141200D02*
X10429000Y-5171200D01*
X10429000Y-5141200D02*
X10399000Y-5171200D01*
X10399000Y-7884400D02*
X10429000Y-7914400D01*
X10429000Y-7884400D02*
X10399000Y-7914400D01*
X10399000Y-8925800D02*
X10429000Y-8955800D01*
X10429000Y-8925800D02*
X10399000Y-8955800D01*
X10399000Y-9484600D02*
X10429000Y-9514600D01*
X10429000Y-9484600D02*
X10399000Y-9514600D01*
X10399000Y-9992600D02*
X10429000Y-10022600D01*
X10429000Y-9992600D02*
X10399000Y-10022600D01*
X10399000Y-10500600D02*
X10429000Y-10530600D01*
X10429000Y-10500600D02*
X10399000Y-10530600D01*
X10399000Y-11008600D02*
X10429000Y-11038600D01*
X10429000Y-11008600D02*
X10399000Y-11038600D01*
X10399000Y-11516600D02*
X10429000Y-11546600D01*
X10429000Y-11516600D02*
X10399000Y-11546600D01*
X10399000Y-12024600D02*
X10429000Y-12054600D01*
X10429000Y-12024600D02*
X10399000Y-12054600D01*
X10399000Y-12532600D02*
X10429000Y-12562600D01*
X10429000Y-12532600D02*
X10399000Y-12562600D01*
X10399000Y-13040600D02*
X10429000Y-13070600D01*
X10429000Y-13040600D02*
X10399000Y-13070600D01*
X10399000Y-13548600D02*
X10429000Y-13578600D01*
X10429000Y-13548600D02*
X10399000Y-13578600D01*
X10399000Y-13828000D02*
X10429000Y-13858000D01*
X10429000Y-13828000D02*
X10399000Y-13858000D01*
X10449800Y-4874500D02*
X10479800Y-4904500D01*
X10479800Y-4874500D02*
X10449800Y-4904500D01*
X10462500Y-7224000D02*
X10492500Y-7254000D01*
X10492500Y-7224000D02*
X10462500Y-7254000D01*
X10576800Y-4341100D02*
X10606800Y-4371100D01*
X10606800Y-4341100D02*
X10576800Y-4371100D01*
X10589500Y-5573000D02*
X10619500Y-5603000D01*
X10619500Y-5573000D02*
X10589500Y-5603000D01*
X10589500Y-5954000D02*
X10619500Y-5984000D01*
X10619500Y-5954000D02*
X10589500Y-5984000D01*
X10589500Y-6335000D02*
X10619500Y-6365000D01*
X10619500Y-6335000D02*
X10589500Y-6365000D01*
X10589500Y-6716000D02*
X10619500Y-6746000D01*
X10619500Y-6716000D02*
X10589500Y-6746000D01*
X10716500Y-5446000D02*
X10746500Y-5476000D01*
X10746500Y-5446000D02*
X10716500Y-5476000D01*
X10805400Y-5090400D02*
X10835400Y-5120400D01*
X10835400Y-5090400D02*
X10805400Y-5120400D01*
X11034000Y-5446000D02*
X11064000Y-5476000D01*
X11064000Y-5446000D02*
X11034000Y-5476000D01*
X11034000Y-5700000D02*
X11064000Y-5730000D01*
X11064000Y-5700000D02*
X11034000Y-5730000D01*
X11034000Y-6462000D02*
X11064000Y-6492000D01*
X11064000Y-6462000D02*
X11034000Y-6492000D01*
X11034000Y-7224000D02*
X11064000Y-7254000D01*
X11064000Y-7224000D02*
X11034000Y-7254000D01*
X11034000Y-7986000D02*
X11064000Y-8016000D01*
X11064000Y-7986000D02*
X11034000Y-8016000D01*
X11034000Y-8748000D02*
X11064000Y-8778000D01*
X11064000Y-8748000D02*
X11034000Y-8778000D01*
X11034000Y-9510000D02*
X11064000Y-9540000D01*
X11064000Y-9510000D02*
X11034000Y-9540000D01*
X11034000Y-10272000D02*
X11064000Y-10302000D01*
X11064000Y-10272000D02*
X11034000Y-10302000D01*
X11034000Y-11034000D02*
X11064000Y-11064000D01*
X11064000Y-11034000D02*
X11034000Y-11064000D01*
X11034000Y-11796000D02*
X11064000Y-11826000D01*
X11064000Y-11796000D02*
X11034000Y-11826000D01*
X11034000Y-12558000D02*
X11064000Y-12588000D01*
X11064000Y-12558000D02*
X11034000Y-12588000D01*
X11034000Y-13320000D02*
X11064000Y-13350000D01*
X11064000Y-13320000D02*
X11034000Y-13350000D01*
X11034000Y-13828000D02*
X11064000Y-13858000D01*
X11064000Y-13828000D02*
X11034000Y-13858000D01*
X11084800Y-4341100D02*
X11114800Y-4371100D01*
X11114800Y-4341100D02*
X11084800Y-4371100D01*
X11211800Y-5090400D02*
X11241800Y-5120400D01*
X11241800Y-5090400D02*
X11211800Y-5120400D01*
X11288000Y-7605000D02*
X11318000Y-7635000D01*
X11318000Y-7605000D02*
X11288000Y-7635000D01*
X11288000Y-8697200D02*
X11318000Y-8727200D01*
X11318000Y-8697200D02*
X11288000Y-8727200D01*
X11288000Y-9789400D02*
X11318000Y-9819400D01*
X11318000Y-9789400D02*
X11288000Y-9819400D01*
X11288000Y-10881600D02*
X11318000Y-10911600D01*
X11318000Y-10881600D02*
X11288000Y-10911600D01*
X11288000Y-11973800D02*
X11318000Y-12003800D01*
X11318000Y-11973800D02*
X11288000Y-12003800D01*
X11288000Y-13066000D02*
X11318000Y-13096000D01*
X11318000Y-13066000D02*
X11288000Y-13096000D01*
X11288000Y-13574000D02*
X11318000Y-13604000D01*
X11318000Y-13574000D02*
X11288000Y-13604000D01*
X11415000Y-5446000D02*
X11445000Y-5476000D01*
X11445000Y-5446000D02*
X11415000Y-5476000D01*
X11415000Y-6081000D02*
X11445000Y-6111000D01*
X11445000Y-6081000D02*
X11415000Y-6111000D01*
X11415000Y-6843000D02*
X11445000Y-6873000D01*
X11445000Y-6843000D02*
X11415000Y-6873000D01*
X11542000Y-5700000D02*
X11572000Y-5730000D01*
X11572000Y-5700000D02*
X11542000Y-5730000D01*
X11542000Y-7173200D02*
X11572000Y-7203200D01*
X11572000Y-7173200D02*
X11542000Y-7203200D01*
X11542000Y-8265400D02*
X11572000Y-8295400D01*
X11572000Y-8265400D02*
X11542000Y-8295400D01*
X11542000Y-9357600D02*
X11572000Y-9387600D01*
X11572000Y-9357600D02*
X11542000Y-9387600D01*
X11542000Y-10449800D02*
X11572000Y-10479800D01*
X11572000Y-10449800D02*
X11542000Y-10479800D01*
X11542000Y-11542000D02*
X11572000Y-11572000D01*
X11572000Y-11542000D02*
X11542000Y-11572000D01*
X11542000Y-12634200D02*
X11572000Y-12664200D01*
X11572000Y-12634200D02*
X11542000Y-12664200D01*
X11542000Y-13828000D02*
X11572000Y-13858000D01*
X11572000Y-13828000D02*
X11542000Y-13858000D01*
X11592800Y-4341100D02*
X11622800Y-4371100D01*
X11622800Y-4341100D02*
X11592800Y-4371100D01*
X11592800Y-5090400D02*
X11622800Y-5120400D01*
X11622800Y-5090400D02*
X11592800Y-5120400D01*
X11796000Y-5446000D02*
X11826000Y-5476000D01*
X11826000Y-5446000D02*
X11796000Y-5476000D01*
X11821400Y-7605000D02*
X11851400Y-7635000D01*
X11851400Y-7605000D02*
X11821400Y-7635000D01*
X11821400Y-8697200D02*
X11851400Y-8727200D01*
X11851400Y-8697200D02*
X11821400Y-8727200D01*
X11821400Y-9789400D02*
X11851400Y-9819400D01*
X11851400Y-9789400D02*
X11821400Y-9819400D01*
X11821400Y-10881600D02*
X11851400Y-10911600D01*
X11851400Y-10881600D02*
X11821400Y-10911600D01*
X11821400Y-11973800D02*
X11851400Y-12003800D01*
X11851400Y-11973800D02*
X11821400Y-12003800D01*
X11821400Y-13066000D02*
X11851400Y-13096000D01*
X11851400Y-13066000D02*
X11821400Y-13096000D01*
X11897600Y-13574000D02*
X11927600Y-13604000D01*
X11927600Y-13574000D02*
X11897600Y-13604000D01*
X11973800Y-5090400D02*
X12003800Y-5120400D01*
X12003800Y-5090400D02*
X11973800Y-5120400D01*
X11986500Y-6081000D02*
X12016500Y-6111000D01*
X12016500Y-6081000D02*
X11986500Y-6111000D01*
X11986500Y-6843000D02*
X12016500Y-6873000D01*
X12016500Y-6843000D02*
X11986500Y-6873000D01*
X12100800Y-4341100D02*
X12130800Y-4371100D01*
X12130800Y-4341100D02*
X12100800Y-4371100D01*
X12151600Y-4506200D02*
X12181600Y-4536200D01*
X12181600Y-4506200D02*
X12151600Y-4536200D01*
X12177000Y-5446000D02*
X12207000Y-5476000D01*
X12207000Y-5446000D02*
X12177000Y-5476000D01*
X12304000Y-5700000D02*
X12334000Y-5730000D01*
X12334000Y-5700000D02*
X12304000Y-5730000D01*
X12304000Y-7173200D02*
X12334000Y-7203200D01*
X12334000Y-7173200D02*
X12304000Y-7203200D01*
X12304000Y-8265400D02*
X12334000Y-8295400D01*
X12334000Y-8265400D02*
X12304000Y-8295400D01*
X12304000Y-9357600D02*
X12334000Y-9387600D01*
X12334000Y-9357600D02*
X12304000Y-9387600D01*
X12304000Y-10449800D02*
X12334000Y-10479800D01*
X12334000Y-10449800D02*
X12304000Y-10479800D01*
X12304000Y-11542000D02*
X12334000Y-11572000D01*
X12334000Y-11542000D02*
X12304000Y-11572000D01*
X12304000Y-12634200D02*
X12334000Y-12664200D01*
X12334000Y-12634200D02*
X12304000Y-12664200D01*
X12304000Y-13828000D02*
X12334000Y-13858000D01*
X12334000Y-13828000D02*
X12304000Y-13858000D01*
X12329400Y-7605000D02*
X12359400Y-7635000D01*
X12359400Y-7605000D02*
X12329400Y-7635000D01*
X12329400Y-8697200D02*
X12359400Y-8727200D01*
X12359400Y-8697200D02*
X12329400Y-8727200D01*
X12329400Y-9789400D02*
X12359400Y-9819400D01*
X12359400Y-9789400D02*
X12329400Y-9819400D01*
X12329400Y-10881600D02*
X12359400Y-10911600D01*
X12359400Y-10881600D02*
X12329400Y-10911600D01*
X12329400Y-11973800D02*
X12359400Y-12003800D01*
X12359400Y-11973800D02*
X12329400Y-12003800D01*
X12329400Y-13066000D02*
X12359400Y-13096000D01*
X12359400Y-13066000D02*
X12329400Y-13096000D01*
X12354800Y-5090400D02*
X12384800Y-5120400D01*
X12384800Y-5090400D02*
X12354800Y-5120400D01*
X12456400Y-13574000D02*
X12486400Y-13604000D01*
X12486400Y-13574000D02*
X12456400Y-13604000D01*
X12558000Y-5446000D02*
X12588000Y-5476000D01*
X12588000Y-5446000D02*
X12558000Y-5476000D01*
X12608800Y-4341100D02*
X12638800Y-4371100D01*
X12638800Y-4341100D02*
X12608800Y-4371100D01*
X12659600Y-7706600D02*
X12689600Y-7736600D01*
X12689600Y-7706600D02*
X12659600Y-7736600D01*
X12659600Y-8798800D02*
X12689600Y-8828800D01*
X12689600Y-8798800D02*
X12659600Y-8828800D01*
X12659600Y-9891000D02*
X12689600Y-9921000D01*
X12689600Y-9891000D02*
X12659600Y-9921000D01*
X12659600Y-10983200D02*
X12689600Y-11013200D01*
X12689600Y-10983200D02*
X12659600Y-11013200D01*
X12659600Y-12075400D02*
X12689600Y-12105400D01*
X12689600Y-12075400D02*
X12659600Y-12105400D01*
X12659600Y-13167600D02*
X12689600Y-13197600D01*
X12689600Y-13167600D02*
X12659600Y-13197600D01*
X12685000Y-6271500D02*
X12715000Y-6301500D01*
X12715000Y-6271500D02*
X12685000Y-6301500D01*
X12685000Y-6589000D02*
X12715000Y-6619000D01*
X12715000Y-6589000D02*
X12685000Y-6619000D01*
X12735800Y-5090400D02*
X12765800Y-5120400D01*
X12765800Y-5090400D02*
X12735800Y-5120400D01*
X12888200Y-7605000D02*
X12918200Y-7635000D01*
X12918200Y-7605000D02*
X12888200Y-7635000D01*
X12888200Y-8671800D02*
X12918200Y-8701800D01*
X12918200Y-8671800D02*
X12888200Y-8701800D01*
X12888200Y-9764000D02*
X12918200Y-9794000D01*
X12918200Y-9764000D02*
X12888200Y-9794000D01*
X12888200Y-10856200D02*
X12918200Y-10886200D01*
X12918200Y-10856200D02*
X12888200Y-10886200D01*
X12888200Y-11973800D02*
X12918200Y-12003800D01*
X12918200Y-11973800D02*
X12888200Y-12003800D01*
X12888200Y-13040600D02*
X12918200Y-13070600D01*
X12918200Y-13040600D02*
X12888200Y-13070600D01*
X12939000Y-5446000D02*
X12969000Y-5476000D01*
X12969000Y-5446000D02*
X12939000Y-5476000D01*
X13066000Y-5700000D02*
X13096000Y-5730000D01*
X13096000Y-5700000D02*
X13066000Y-5730000D01*
X13066000Y-6271500D02*
X13096000Y-6301500D01*
X13096000Y-6271500D02*
X13066000Y-6301500D01*
X13066000Y-6589000D02*
X13096000Y-6619000D01*
X13096000Y-6589000D02*
X13066000Y-6619000D01*
X13066000Y-7173200D02*
X13096000Y-7203200D01*
X13096000Y-7173200D02*
X13066000Y-7203200D01*
X13066000Y-13828000D02*
X13096000Y-13858000D01*
X13096000Y-13828000D02*
X13066000Y-13858000D01*
X13091400Y-8265400D02*
X13121400Y-8295400D01*
X13121400Y-8265400D02*
X13091400Y-8295400D01*
X13091400Y-9357600D02*
X13121400Y-9387600D01*
X13121400Y-9357600D02*
X13091400Y-9387600D01*
X13091400Y-10449800D02*
X13121400Y-10479800D01*
X13121400Y-10449800D02*
X13091400Y-10479800D01*
X13091400Y-11542000D02*
X13121400Y-11572000D01*
X13121400Y-11542000D02*
X13091400Y-11572000D01*
X13116800Y-4341100D02*
X13146800Y-4371100D01*
X13146800Y-4341100D02*
X13116800Y-4371100D01*
X13116800Y-5090400D02*
X13146800Y-5120400D01*
X13146800Y-5090400D02*
X13116800Y-5120400D01*
X13116800Y-12634200D02*
X13146800Y-12664200D01*
X13146800Y-12634200D02*
X13116800Y-12664200D01*
X13193000Y-4684000D02*
X13223000Y-4714000D01*
X13223000Y-4684000D02*
X13193000Y-4714000D01*
X13320000Y-5446000D02*
X13350000Y-5476000D01*
X13350000Y-5446000D02*
X13320000Y-5476000D01*
X13472400Y-7681200D02*
X13502400Y-7711200D01*
X13502400Y-7681200D02*
X13472400Y-7711200D01*
X13472400Y-8773400D02*
X13502400Y-8803400D01*
X13502400Y-8773400D02*
X13472400Y-8803400D01*
X13472400Y-9865600D02*
X13502400Y-9895600D01*
X13502400Y-9865600D02*
X13472400Y-9895600D01*
X13472400Y-10957800D02*
X13502400Y-10987800D01*
X13502400Y-10957800D02*
X13472400Y-10987800D01*
X13472400Y-12050000D02*
X13502400Y-12080000D01*
X13502400Y-12050000D02*
X13472400Y-12080000D01*
X13472400Y-13116800D02*
X13502400Y-13146800D01*
X13502400Y-13116800D02*
X13472400Y-13146800D01*
X13548600Y-5166600D02*
X13578600Y-5196600D01*
X13578600Y-5166600D02*
X13548600Y-5196600D01*
X13574000Y-7173200D02*
X13604000Y-7203200D01*
X13604000Y-7173200D02*
X13574000Y-7203200D01*
X13574000Y-8265400D02*
X13604000Y-8295400D01*
X13604000Y-8265400D02*
X13574000Y-8295400D01*
X13574000Y-9357600D02*
X13604000Y-9387600D01*
X13604000Y-9357600D02*
X13574000Y-9387600D01*
X13574000Y-10449800D02*
X13604000Y-10479800D01*
X13604000Y-10449800D02*
X13574000Y-10479800D01*
X13574000Y-11542000D02*
X13604000Y-11572000D01*
X13604000Y-11542000D02*
X13574000Y-11572000D01*
X13574000Y-12634200D02*
X13604000Y-12664200D01*
X13604000Y-12634200D02*
X13574000Y-12664200D01*
X13599400Y-4938000D02*
X13629400Y-4968000D01*
X13629400Y-4938000D02*
X13599400Y-4968000D01*
X13624800Y-4341100D02*
X13654800Y-4371100D01*
X13654800Y-4341100D02*
X13624800Y-4371100D01*
X13637500Y-6589000D02*
X13667500Y-6619000D01*
X13667500Y-6589000D02*
X13637500Y-6619000D01*
X13701000Y-5446000D02*
X13731000Y-5476000D01*
X13731000Y-5446000D02*
X13701000Y-5476000D01*
X13828000Y-5700000D02*
X13858000Y-5730000D01*
X13858000Y-5700000D02*
X13828000Y-5730000D01*
X13828000Y-13828000D02*
X13858000Y-13858000D01*
X13858000Y-13828000D02*
X13828000Y-13858000D01*
X13891500Y-6208000D02*
X13921500Y-6238000D01*
X13921500Y-6208000D02*
X13891500Y-6238000D01*
X13891500Y-6589000D02*
X13921500Y-6619000D01*
X13921500Y-6589000D02*
X13891500Y-6619000D01*
X13980400Y-4836400D02*
X14010400Y-4866400D01*
X14010400Y-4836400D02*
X13980400Y-4866400D01*
X13980400Y-5217400D02*
X14010400Y-5247400D01*
X14010400Y-5217400D02*
X13980400Y-5247400D01*
X13980400Y-13116800D02*
X14010400Y-13146800D01*
X14010400Y-13116800D02*
X13980400Y-13146800D01*
X14005800Y-5293600D02*
X14035800Y-5323600D01*
X14035800Y-5293600D02*
X14005800Y-5323600D01*
X14005800Y-10957800D02*
X14035800Y-10987800D01*
X14035800Y-10957800D02*
X14005800Y-10987800D01*
X14031200Y-7681200D02*
X14061200Y-7711200D01*
X14061200Y-7681200D02*
X14031200Y-7711200D01*
X14031200Y-8773400D02*
X14061200Y-8803400D01*
X14061200Y-8773400D02*
X14031200Y-8803400D01*
X14031200Y-9865600D02*
X14061200Y-9895600D01*
X14061200Y-9865600D02*
X14031200Y-9895600D01*
X14031200Y-12050000D02*
X14061200Y-12080000D01*
X14061200Y-12050000D02*
X14031200Y-12080000D01*
X14082000Y-4684000D02*
X14112000Y-4714000D01*
X14112000Y-4684000D02*
X14082000Y-4714000D01*
X14082000Y-5446000D02*
X14112000Y-5476000D01*
X14112000Y-5446000D02*
X14082000Y-5476000D01*
X14132800Y-4341100D02*
X14162800Y-4371100D01*
X14162800Y-4341100D02*
X14132800Y-4371100D01*
X14412200Y-6538200D02*
X14442200Y-6568200D01*
X14442200Y-6538200D02*
X14412200Y-6568200D01*
X14412200Y-7681200D02*
X14442200Y-7711200D01*
X14442200Y-7681200D02*
X14412200Y-7711200D01*
X14412200Y-8773400D02*
X14442200Y-8803400D01*
X14442200Y-8773400D02*
X14412200Y-8803400D01*
X14412200Y-9865600D02*
X14442200Y-9895600D01*
X14442200Y-9865600D02*
X14412200Y-9895600D01*
X14412200Y-10957800D02*
X14442200Y-10987800D01*
X14442200Y-10957800D02*
X14412200Y-10987800D01*
X14412200Y-12050000D02*
X14442200Y-12080000D01*
X14442200Y-12050000D02*
X14412200Y-12080000D01*
X14412200Y-13116800D02*
X14442200Y-13146800D01*
X14442200Y-13116800D02*
X14412200Y-13146800D01*
X14437600Y-5115800D02*
X14467600Y-5145800D01*
X14467600Y-5115800D02*
X14437600Y-5145800D01*
X14463000Y-5446000D02*
X14493000Y-5476000D01*
X14493000Y-5446000D02*
X14463000Y-5476000D01*
X14488400Y-5776200D02*
X14518400Y-5806200D01*
X14518400Y-5776200D02*
X14488400Y-5806200D01*
X14590000Y-5700000D02*
X14620000Y-5730000D01*
X14620000Y-5700000D02*
X14590000Y-5730000D01*
X14590000Y-13828000D02*
X14620000Y-13858000D01*
X14620000Y-13828000D02*
X14590000Y-13858000D01*
X14640800Y-4341100D02*
X14670800Y-4371100D01*
X14670800Y-4341100D02*
X14640800Y-4371100D01*
X14666200Y-6970000D02*
X14696200Y-7000000D01*
X14696200Y-6970000D02*
X14666200Y-7000000D01*
X14666200Y-8087600D02*
X14696200Y-8117600D01*
X14696200Y-8087600D02*
X14666200Y-8117600D01*
X14666200Y-9179800D02*
X14696200Y-9209800D01*
X14696200Y-9179800D02*
X14666200Y-9209800D01*
X14666200Y-10272000D02*
X14696200Y-10302000D01*
X14696200Y-10272000D02*
X14666200Y-10302000D01*
X14666200Y-11364200D02*
X14696200Y-11394200D01*
X14696200Y-11364200D02*
X14666200Y-11394200D01*
X14666200Y-12456400D02*
X14696200Y-12486400D01*
X14696200Y-12456400D02*
X14666200Y-12486400D01*
X14742400Y-7732000D02*
X14772400Y-7762000D01*
X14772400Y-7732000D02*
X14742400Y-7762000D01*
X14742400Y-8824200D02*
X14772400Y-8854200D01*
X14772400Y-8824200D02*
X14742400Y-8854200D01*
X14742400Y-9916400D02*
X14772400Y-9946400D01*
X14772400Y-9916400D02*
X14742400Y-9946400D01*
X14742400Y-11008600D02*
X14772400Y-11038600D01*
X14772400Y-11008600D02*
X14742400Y-11038600D01*
X14742400Y-12100800D02*
X14772400Y-12130800D01*
X14772400Y-12100800D02*
X14742400Y-12130800D01*
X14742400Y-13193000D02*
X14772400Y-13223000D01*
X14772400Y-13193000D02*
X14742400Y-13223000D01*
X14844000Y-5446000D02*
X14874000Y-5476000D01*
X14874000Y-5446000D02*
X14844000Y-5476000D01*
X14856700Y-5179300D02*
X14886700Y-5209300D01*
X14886700Y-5179300D02*
X14856700Y-5209300D01*
X14869400Y-4912600D02*
X14899400Y-4942600D01*
X14899400Y-4912600D02*
X14869400Y-4942600D01*
X14894800Y-11008600D02*
X14924800Y-11038600D01*
X14924800Y-11008600D02*
X14894800Y-11038600D01*
X15021800Y-4557000D02*
X15051800Y-4587000D01*
X15051800Y-4557000D02*
X15021800Y-4587000D01*
X15021800Y-9332200D02*
X15051800Y-9362200D01*
X15051800Y-9332200D02*
X15021800Y-9362200D01*
X15047200Y-8316200D02*
X15077200Y-8346200D01*
X15077200Y-8316200D02*
X15047200Y-8346200D01*
X15098000Y-9027400D02*
X15128000Y-9057400D01*
X15128000Y-9027400D02*
X15098000Y-9057400D01*
X15123400Y-7935200D02*
X15153400Y-7965200D01*
X15153400Y-7935200D02*
X15123400Y-7965200D01*
X15148800Y-4341100D02*
X15178800Y-4371100D01*
X15178800Y-4341100D02*
X15148800Y-4371100D01*
X15148800Y-10145000D02*
X15178800Y-10175000D01*
X15178800Y-10145000D02*
X15148800Y-10175000D01*
X15148800Y-12177000D02*
X15178800Y-12207000D01*
X15178800Y-12177000D02*
X15148800Y-12207000D01*
X15200000Y-10782000D02*
X15230000Y-10812000D01*
X15230000Y-10782000D02*
X15200000Y-10812000D01*
X15212300Y-12646900D02*
X15242300Y-12676900D01*
X15242300Y-12646900D02*
X15212300Y-12676900D01*
X15225000Y-5446000D02*
X15255000Y-5476000D01*
X15255000Y-5446000D02*
X15225000Y-5476000D01*
X15225000Y-7427200D02*
X15255000Y-7457200D01*
X15255000Y-7427200D02*
X15225000Y-7457200D01*
X15275800Y-8671800D02*
X15305800Y-8701800D01*
X15305800Y-8671800D02*
X15275800Y-8701800D01*
X15326600Y-11186400D02*
X15356600Y-11216400D01*
X15356600Y-11186400D02*
X15326600Y-11216400D01*
X15331000Y-9426000D02*
X15361000Y-9456000D01*
X15361000Y-9426000D02*
X15331000Y-9456000D01*
X15352000Y-5700000D02*
X15382000Y-5730000D01*
X15382000Y-5700000D02*
X15352000Y-5730000D01*
X15352000Y-10195800D02*
X15382000Y-10225800D01*
X15382000Y-10195800D02*
X15352000Y-10225800D01*
X15352000Y-11923000D02*
X15382000Y-11953000D01*
X15382000Y-11923000D02*
X15352000Y-11953000D01*
X15352000Y-12304000D02*
X15382000Y-12334000D01*
X15382000Y-12304000D02*
X15352000Y-12334000D01*
X15352000Y-12939000D02*
X15382000Y-12969000D01*
X15382000Y-12939000D02*
X15352000Y-12969000D01*
X15352000Y-13447000D02*
X15382000Y-13477000D01*
X15382000Y-13447000D02*
X15352000Y-13477000D01*
X15352000Y-13828000D02*
X15382000Y-13858000D01*
X15382000Y-13828000D02*
X15352000Y-13858000D01*
X15377400Y-7452600D02*
X15407400Y-7482600D01*
X15407400Y-7452600D02*
X15377400Y-7482600D01*
X15377400Y-9789400D02*
X15407400Y-9819400D01*
X15407400Y-9789400D02*
X15377400Y-9819400D01*
X15377400Y-11034000D02*
X15407400Y-11064000D01*
X15407400Y-11034000D02*
X15377400Y-11064000D01*
X15390100Y-5153900D02*
X15420100Y-5183900D01*
X15420100Y-5153900D02*
X15390100Y-5183900D01*
X15390100Y-5446000D02*
X15420100Y-5476000D01*
X15420100Y-5446000D02*
X15390100Y-5476000D01*
X15402800Y-11351500D02*
X15432800Y-11381500D01*
X15432800Y-11351500D02*
X15402800Y-11381500D01*
X15428200Y-10145000D02*
X15458200Y-10175000D01*
X15458200Y-10145000D02*
X15428200Y-10175000D01*
X15453600Y-4709400D02*
X15483600Y-4739400D01*
X15483600Y-4709400D02*
X15453600Y-4739400D01*
X15453600Y-11440400D02*
X15483600Y-11470400D01*
X15483600Y-11440400D02*
X15453600Y-11470400D01*
X15479000Y-11542000D02*
X15509000Y-11572000D01*
X15509000Y-11542000D02*
X15479000Y-11572000D01*
X15501000Y-10089000D02*
X15531000Y-10119000D01*
X15531000Y-10089000D02*
X15501000Y-10119000D01*
X15554000Y-10310000D02*
X15584000Y-10340000D01*
X15584000Y-10310000D02*
X15554000Y-10340000D01*
X15631400Y-5141200D02*
X15661400Y-5171200D01*
X15661400Y-5141200D02*
X15631400Y-5171200D01*
X15644100Y-9103600D02*
X15674100Y-9133600D01*
X15674100Y-9103600D02*
X15644100Y-9133600D01*
X15656800Y-4341100D02*
X15686800Y-4371100D01*
X15686800Y-4341100D02*
X15656800Y-4371100D01*
X15656800Y-10043400D02*
X15686800Y-10073400D01*
X15686800Y-10043400D02*
X15656800Y-10073400D01*
X15733000Y-12050000D02*
X15763000Y-12080000D01*
X15763000Y-12050000D02*
X15733000Y-12080000D01*
X15733000Y-12558000D02*
X15763000Y-12588000D01*
X15763000Y-12558000D02*
X15733000Y-12588000D01*
X15733000Y-13193000D02*
X15763000Y-13223000D01*
X15763000Y-13193000D02*
X15733000Y-13223000D01*
X15821900Y-9154400D02*
X15851900Y-9184400D01*
X15851900Y-9154400D02*
X15821900Y-9184400D01*
X15866000Y-9796000D02*
X15896000Y-9826000D01*
X15896000Y-9796000D02*
X15866000Y-9826000D01*
X15872700Y-9459200D02*
X15902700Y-9489200D01*
X15902700Y-9459200D02*
X15872700Y-9489200D01*
X15936200Y-7986000D02*
X15966200Y-8016000D01*
X15966200Y-7986000D02*
X15936200Y-8016000D01*
X15936200Y-11059400D02*
X15966200Y-11089400D01*
X15966200Y-11059400D02*
X15936200Y-11089400D01*
X15948900Y-9573500D02*
X15978900Y-9603500D01*
X15978900Y-9573500D02*
X15948900Y-9603500D01*
X15961600Y-10348200D02*
X15991600Y-10378200D01*
X15991600Y-10348200D02*
X15961600Y-10378200D01*
X15999700Y-9154400D02*
X16029700Y-9184400D01*
X16029700Y-9154400D02*
X15999700Y-9184400D01*
X15999700Y-9459200D02*
X16029700Y-9489200D01*
X16029700Y-9459200D02*
X15999700Y-9489200D01*
X16025100Y-11059400D02*
X16055100Y-11089400D01*
X16055100Y-11059400D02*
X16025100Y-11089400D01*
X16025100Y-11224500D02*
X16055100Y-11254500D01*
X16055100Y-11224500D02*
X16025100Y-11254500D01*
X16037800Y-10272000D02*
X16067800Y-10302000D01*
X16067800Y-10272000D02*
X16037800Y-10302000D01*
X16037800Y-10627600D02*
X16067800Y-10657600D01*
X16067800Y-10627600D02*
X16037800Y-10657600D01*
X16037800Y-10932400D02*
X16067800Y-10962400D01*
X16067800Y-10932400D02*
X16037800Y-10962400D01*
X16042000Y-11675000D02*
X16072000Y-11705000D01*
X16072000Y-11675000D02*
X16042000Y-11705000D01*
X16103700Y-10988200D02*
X16133700Y-11018200D01*
X16133700Y-10988200D02*
X16103700Y-11018200D01*
X16114000Y-5700000D02*
X16144000Y-5730000D01*
X16144000Y-5700000D02*
X16114000Y-5730000D01*
X16114000Y-7452600D02*
X16144000Y-7482600D01*
X16144000Y-7452600D02*
X16114000Y-7482600D01*
X16114000Y-12050000D02*
X16144000Y-12080000D01*
X16144000Y-12050000D02*
X16114000Y-12080000D01*
X16114000Y-12812000D02*
X16144000Y-12842000D01*
X16144000Y-12812000D02*
X16114000Y-12842000D01*
X16114000Y-13320000D02*
X16144000Y-13350000D01*
X16144000Y-13320000D02*
X16114000Y-13350000D01*
X16114000Y-13828000D02*
X16144000Y-13858000D01*
X16144000Y-13828000D02*
X16114000Y-13858000D01*
X16126700Y-11224500D02*
X16156700Y-11254500D01*
X16156700Y-11224500D02*
X16126700Y-11254500D01*
X16164800Y-4341100D02*
X16194800Y-4371100D01*
X16194800Y-4341100D02*
X16164800Y-4371100D01*
X16215600Y-7351000D02*
X16245600Y-7381000D01*
X16245600Y-7351000D02*
X16215600Y-7381000D01*
X16285000Y-11974000D02*
X16315000Y-12004000D01*
X16315000Y-11974000D02*
X16285000Y-12004000D01*
X16291800Y-10373600D02*
X16321800Y-10403600D01*
X16321800Y-10373600D02*
X16291800Y-10403600D01*
X16304500Y-5573000D02*
X16334500Y-5603000D01*
X16334500Y-5573000D02*
X16304500Y-5603000D01*
X16317200Y-10602200D02*
X16347200Y-10632200D01*
X16347200Y-10602200D02*
X16317200Y-10632200D01*
X16317200Y-11084800D02*
X16347200Y-11114800D01*
X16347200Y-11084800D02*
X16317200Y-11114800D01*
X16340000Y-9598000D02*
X16370000Y-9628000D01*
X16370000Y-9598000D02*
X16340000Y-9628000D01*
X16347000Y-6624000D02*
X16377000Y-6654000D01*
X16377000Y-6624000D02*
X16347000Y-6654000D01*
X16347680Y-6304520D02*
X16377680Y-6334520D01*
X16377680Y-6304520D02*
X16347680Y-6334520D01*
X16368000Y-10246600D02*
X16398000Y-10276600D01*
X16398000Y-10246600D02*
X16368000Y-10276600D01*
X16418800Y-11846800D02*
X16448800Y-11876800D01*
X16448800Y-11846800D02*
X16418800Y-11876800D01*
X16422000Y-9352000D02*
X16452000Y-9382000D01*
X16452000Y-9352000D02*
X16422000Y-9382000D01*
X16431500Y-5382500D02*
X16461500Y-5412500D01*
X16461500Y-5382500D02*
X16431500Y-5412500D01*
X16444200Y-10449800D02*
X16474200Y-10479800D01*
X16474200Y-10449800D02*
X16444200Y-10479800D01*
X16453000Y-11586000D02*
X16483000Y-11616000D01*
X16483000Y-11586000D02*
X16453000Y-11616000D01*
X16482300Y-10564100D02*
X16512300Y-10594100D01*
X16512300Y-10564100D02*
X16482300Y-10594100D01*
X16482300Y-10691100D02*
X16512300Y-10721100D01*
X16512300Y-10691100D02*
X16482300Y-10721100D01*
X16482300Y-10818100D02*
X16512300Y-10848100D01*
X16512300Y-10818100D02*
X16482300Y-10848100D01*
X16482300Y-10945100D02*
X16512300Y-10975100D01*
X16512300Y-10945100D02*
X16482300Y-10975100D01*
X16482300Y-11072100D02*
X16512300Y-11102100D01*
X16512300Y-11072100D02*
X16482300Y-11102100D01*
X16482300Y-11199100D02*
X16512300Y-11229100D01*
X16512300Y-11199100D02*
X16482300Y-11229100D01*
X16495000Y-7122400D02*
X16525000Y-7152400D01*
X16525000Y-7122400D02*
X16495000Y-7152400D01*
X16520400Y-7884400D02*
X16550400Y-7914400D01*
X16550400Y-7884400D02*
X16520400Y-7914400D01*
X16545800Y-8849600D02*
X16575800Y-8879600D01*
X16575800Y-8849600D02*
X16545800Y-8879600D01*
X16545800Y-10246600D02*
X16575800Y-10276600D01*
X16575800Y-10246600D02*
X16545800Y-10276600D01*
X16571200Y-7630400D02*
X16601200Y-7660400D01*
X16601200Y-7630400D02*
X16571200Y-7660400D01*
X16571200Y-9814800D02*
X16601200Y-9844800D01*
X16601200Y-9814800D02*
X16571200Y-9844800D01*
X16596600Y-8367000D02*
X16626600Y-8397000D01*
X16626600Y-8367000D02*
X16596600Y-8397000D01*
X16622000Y-8062200D02*
X16652000Y-8092200D01*
X16652000Y-8062200D02*
X16622000Y-8092200D01*
X16733760Y-7792960D02*
X16763760Y-7822960D01*
X16763760Y-7792960D02*
X16733760Y-7822960D01*
X16799800Y-7020800D02*
X16829800Y-7050800D01*
X16829800Y-7020800D02*
X16799800Y-7050800D01*
X16799800Y-7503400D02*
X16829800Y-7533400D01*
X16829800Y-7503400D02*
X16799800Y-7533400D01*
X16876000Y-10526000D02*
X16906000Y-10556000D01*
X16906000Y-10526000D02*
X16876000Y-10556000D01*
X16876000Y-11288000D02*
X16906000Y-11318000D01*
X16906000Y-11288000D02*
X16876000Y-11318000D01*
X16876000Y-12050000D02*
X16906000Y-12080000D01*
X16906000Y-12050000D02*
X16876000Y-12080000D01*
X13832840Y-6070600D02*
G75*
G03X13832840Y-6070600I-40640J0D01*
G01*
X13832840Y-6832600D02*
G75*
G03X13832840Y-6832600I-40640J0D01*
G01*
X13832840Y-7188200D02*
G75*
G03X13832840Y-7188200I-40640J0D01*
G01*
X13832840Y-7950200D02*
G75*
G03X13832840Y-7950200I-40640J0D01*
G01*
X13832840Y-8280400D02*
G75*
G03X13832840Y-8280400I-40640J0D01*
G01*
X13832840Y-9042400D02*
G75*
G03X13832840Y-9042400I-40640J0D01*
G01*
X13832840Y-9372600D02*
G75*
G03X13832840Y-9372600I-40640J0D01*
G01*
X13832840Y-10134600D02*
G75*
G03X13832840Y-10134600I-40640J0D01*
G01*
X13832840Y-10464800D02*
G75*
G03X13832840Y-10464800I-40640J0D01*
G01*
X13832840Y-11226800D02*
G75*
G03X13832840Y-11226800I-40640J0D01*
G01*
X13832840Y-11557000D02*
G75*
G03X13832840Y-11557000I-40640J0D01*
G01*
X13832840Y-12319000D02*
G75*
G03X13832840Y-12319000I-40640J0D01*
G01*
X13832840Y-12649200D02*
G75*
G03X13832840Y-12649200I-40640J0D01*
G01*
X13832840Y-13411200D02*
G75*
G03X13832840Y-13411200I-40640J0D01*
G01*
X14086840Y-6070600D02*
G75*
G03X14086840Y-6070600I-40640J0D01*
G01*
X14086840Y-6832600D02*
G75*
G03X14086840Y-6832600I-40640J0D01*
G01*
X14086840Y-7188200D02*
G75*
G03X14086840Y-7188200I-40640J0D01*
G01*
X14086840Y-7950200D02*
G75*
G03X14086840Y-7950200I-40640J0D01*
G01*
X14086840Y-8280400D02*
G75*
G03X14086840Y-8280400I-40640J0D01*
G01*
X14086840Y-9042400D02*
G75*
G03X14086840Y-9042400I-40640J0D01*
G01*
X14086840Y-9372600D02*
G75*
G03X14086840Y-9372600I-40640J0D01*
G01*
X14086840Y-10134600D02*
G75*
G03X14086840Y-10134600I-40640J0D01*
G01*
X14086840Y-10464800D02*
G75*
G03X14086840Y-10464800I-40640J0D01*
G01*
X14086840Y-11226800D02*
G75*
G03X14086840Y-11226800I-40640J0D01*
G01*
X14086840Y-11557000D02*
G75*
G03X14086840Y-11557000I-40640J0D01*
G01*
X14086840Y-12319000D02*
G75*
G03X14086840Y-12319000I-40640J0D01*
G01*
X14086840Y-12649200D02*
G75*
G03X14086840Y-12649200I-40640J0D01*
G01*
X14086840Y-13411200D02*
G75*
G03X14086840Y-13411200I-40640J0D01*
G01*
X14340840Y-6070600D02*
G75*
G03X14340840Y-6070600I-40640J0D01*
G01*
X14340840Y-6832600D02*
G75*
G03X14340840Y-6832600I-40640J0D01*
G01*
X14340840Y-7188200D02*
G75*
G03X14340840Y-7188200I-40640J0D01*
G01*
X14340840Y-7950200D02*
G75*
G03X14340840Y-7950200I-40640J0D01*
G01*
X14340840Y-8280400D02*
G75*
G03X14340840Y-8280400I-40640J0D01*
G01*
X14340840Y-9042400D02*
G75*
G03X14340840Y-9042400I-40640J0D01*
G01*
X14340840Y-9372600D02*
G75*
G03X14340840Y-9372600I-40640J0D01*
G01*
X14340840Y-10134600D02*
G75*
G03X14340840Y-10134600I-40640J0D01*
G01*
X14340840Y-10464800D02*
G75*
G03X14340840Y-10464800I-40640J0D01*
G01*
X14340840Y-11226800D02*
G75*
G03X14340840Y-11226800I-40640J0D01*
G01*
X14340840Y-11557000D02*
G75*
G03X14340840Y-11557000I-40640J0D01*
G01*
X14340840Y-12319000D02*
G75*
G03X14340840Y-12319000I-40640J0D01*
G01*
X14340840Y-12649200D02*
G75*
G03X14340840Y-12649200I-40640J0D01*
G01*
X14340840Y-13411200D02*
G75*
G03X14340840Y-13411200I-40640J0D01*
G01*
X14594840Y-6070600D02*
G75*
G03X14594840Y-6070600I-40640J0D01*
G01*
X14594840Y-6832600D02*
G75*
G03X14594840Y-6832600I-40640J0D01*
G01*
X14594840Y-7188200D02*
G75*
G03X14594840Y-7188200I-40640J0D01*
G01*
X14594840Y-7950200D02*
G75*
G03X14594840Y-7950200I-40640J0D01*
G01*
X14594840Y-8280400D02*
G75*
G03X14594840Y-8280400I-40640J0D01*
G01*
X14594840Y-9042400D02*
G75*
G03X14594840Y-9042400I-40640J0D01*
G01*
X14594840Y-9372600D02*
G75*
G03X14594840Y-9372600I-40640J0D01*
G01*
X14594840Y-10134600D02*
G75*
G03X14594840Y-10134600I-40640J0D01*
G01*
X14594840Y-10464800D02*
G75*
G03X14594840Y-10464800I-40640J0D01*
G01*
X14594840Y-11226800D02*
G75*
G03X14594840Y-11226800I-40640J0D01*
G01*
X14594840Y-11557000D02*
G75*
G03X14594840Y-11557000I-40640J0D01*
G01*
X14594840Y-12319000D02*
G75*
G03X14594840Y-12319000I-40640J0D01*
G01*
X14594840Y-12649200D02*
G75*
G03X14594840Y-12649200I-40640J0D01*
G01*
X14594840Y-13411200D02*
G75*
G03X14594840Y-13411200I-40640J0D01*
G01*
X14848840Y-6070600D02*
G75*
G03X14848840Y-6070600I-40640J0D01*
G01*
X14848840Y-6832600D02*
G75*
G03X14848840Y-6832600I-40640J0D01*
G01*
X14848840Y-7188200D02*
G75*
G03X14848840Y-7188200I-40640J0D01*
G01*
X14848840Y-7950200D02*
G75*
G03X14848840Y-7950200I-40640J0D01*
G01*
X14848840Y-8280400D02*
G75*
G03X14848840Y-8280400I-40640J0D01*
G01*
X14848840Y-9042400D02*
G75*
G03X14848840Y-9042400I-40640J0D01*
G01*
X14848840Y-9372600D02*
G75*
G03X14848840Y-9372600I-40640J0D01*
G01*
X14848840Y-10134600D02*
G75*
G03X14848840Y-10134600I-40640J0D01*
G01*
X14848840Y-10464800D02*
G75*
G03X14848840Y-10464800I-40640J0D01*
G01*
X14848840Y-11226800D02*
G75*
G03X14848840Y-11226800I-40640J0D01*
G01*
X14848840Y-11557000D02*
G75*
G03X14848840Y-11557000I-40640J0D01*
G01*
X14848840Y-12319000D02*
G75*
G03X14848840Y-12319000I-40640J0D01*
G01*
X14848840Y-12649200D02*
G75*
G03X14848840Y-12649200I-40640J0D01*
G01*
X14848840Y-13411200D02*
G75*
G03X14848840Y-13411200I-40640J0D01*
G01*
X7639000Y-6168089D02*
X7639000Y-6267911D01*
X7589089Y-6218000D02*
X7688911Y-6218000D01*
X7639000Y-6422089D02*
X7639000Y-6521911D01*
X7589089Y-6472000D02*
X7688911Y-6472000D01*
X7639000Y-6795389D02*
X7639000Y-6895211D01*
X7589089Y-6845300D02*
X7688911Y-6845300D01*
X7639000Y-7049389D02*
X7639000Y-7149211D01*
X7589089Y-7099300D02*
X7688911Y-7099300D01*
X7439456Y-7830616D02*
X7439456Y-7759904D01*
X7368744Y-7759904D01*
X7368744Y-7830616D01*
X7439456Y-7830616D01*
X7439456Y-8084616D02*
X7439456Y-8013904D01*
X7368744Y-8013904D01*
X7368744Y-8084616D01*
X7439456Y-8084616D01*
X7439456Y-8338616D02*
X7439456Y-8267904D01*
X7368744Y-8267904D01*
X7368744Y-8338616D01*
X7439456Y-8338616D01*
X7439456Y-8592616D02*
X7439456Y-8521904D01*
X7368744Y-8521904D01*
X7368744Y-8592616D01*
X7439456Y-8592616D01*
X7439456Y-8846616D02*
X7439456Y-8775904D01*
X7368744Y-8775904D01*
X7368744Y-8846616D01*
X7439456Y-8846616D01*
X7439456Y-9100616D02*
X7439456Y-9029904D01*
X7368744Y-9029904D01*
X7368744Y-9100616D01*
X7439456Y-9100616D01*
X7439456Y-9354616D02*
X7439456Y-9283904D01*
X7368744Y-9283904D01*
X7368744Y-9354616D01*
X7439456Y-9354616D01*
X7439456Y-9608616D02*
X7439456Y-9537904D01*
X7368744Y-9537904D01*
X7368744Y-9608616D01*
X7439456Y-9608616D01*
X7439456Y-9862616D02*
X7439456Y-9791904D01*
X7368744Y-9791904D01*
X7368744Y-9862616D01*
X7439456Y-9862616D01*
X7439456Y-10116616D02*
X7439456Y-10045904D01*
X7368744Y-10045904D01*
X7368744Y-10116616D01*
X7439456Y-10116616D01*
X7494574Y-4632502D02*
X7494574Y-4561790D01*
X7423862Y-4561790D01*
X7423862Y-4632502D01*
X7494574Y-4632502D01*
X7494574Y-4886502D02*
X7494574Y-4815790D01*
X7423862Y-4815790D01*
X7423862Y-4886502D01*
X7494574Y-4886502D01*
X7494574Y-5140502D02*
X7494574Y-5069790D01*
X7423862Y-5069790D01*
X7423862Y-5140502D01*
X7494574Y-5140502D01*
X7494574Y-5394502D02*
X7494574Y-5323790D01*
X7423862Y-5323790D01*
X7423862Y-5394502D01*
X7494574Y-5394502D01*
X7494574Y-5648502D02*
X7494574Y-5577790D01*
X7423862Y-5577790D01*
X7423862Y-5648502D01*
X7494574Y-5648502D01*
X7494574Y-5902502D02*
X7494574Y-5831790D01*
X7423862Y-5831790D01*
X7423862Y-5902502D01*
X7494574Y-5902502D01*
X7693456Y-7830616D02*
X7693456Y-7759904D01*
X7622744Y-7759904D01*
X7622744Y-7830616D01*
X7693456Y-7830616D01*
X7693456Y-8084616D02*
X7693456Y-8013904D01*
X7622744Y-8013904D01*
X7622744Y-8084616D01*
X7693456Y-8084616D01*
X7693456Y-8338616D02*
X7693456Y-8267904D01*
X7622744Y-8267904D01*
X7622744Y-8338616D01*
X7693456Y-8338616D01*
X7693456Y-8592616D02*
X7693456Y-8521904D01*
X7622744Y-8521904D01*
X7622744Y-8592616D01*
X7693456Y-8592616D01*
X7693456Y-8846616D02*
X7693456Y-8775904D01*
X7622744Y-8775904D01*
X7622744Y-8846616D01*
X7693456Y-8846616D01*
X7693456Y-9100616D02*
X7693456Y-9029904D01*
X7622744Y-9029904D01*
X7622744Y-9100616D01*
X7693456Y-9100616D01*
X7693456Y-9354616D02*
X7693456Y-9283904D01*
X7622744Y-9283904D01*
X7622744Y-9354616D01*
X7693456Y-9354616D01*
X7693456Y-9608616D02*
X7693456Y-9537904D01*
X7622744Y-9537904D01*
X7622744Y-9608616D01*
X7693456Y-9608616D01*
X7693456Y-9862616D02*
X7693456Y-9791904D01*
X7622744Y-9791904D01*
X7622744Y-9862616D01*
X7693456Y-9862616D01*
X7693456Y-10116616D02*
X7693456Y-10045904D01*
X7622744Y-10045904D01*
X7622744Y-10116616D01*
X7693456Y-10116616D01*
X8188756Y-4632756D02*
X8188756Y-4562044D01*
X8118044Y-4562044D01*
X8118044Y-4632756D01*
X8188756Y-4632756D01*
X8384336Y-8780576D02*
X8384336Y-8709864D01*
X8313624Y-8709864D01*
X8313624Y-8780576D01*
X8384336Y-8780576D01*
X8384336Y-9034576D02*
X8384336Y-8963864D01*
X8313624Y-8963864D01*
X8313624Y-9034576D01*
X8384336Y-9034576D01*
X8384336Y-9288576D02*
X8384336Y-9217864D01*
X8313624Y-9217864D01*
X8313624Y-9288576D01*
X8384336Y-9288576D01*
X8442756Y-4632756D02*
X8442756Y-4562044D01*
X8372044Y-4562044D01*
X8372044Y-4632756D01*
X8442756Y-4632756D01*
X8638336Y-8780576D02*
X8638336Y-8709864D01*
X8567624Y-8709864D01*
X8567624Y-8780576D01*
X8638336Y-8780576D01*
X8638336Y-9034576D02*
X8638336Y-8963864D01*
X8567624Y-8963864D01*
X8567624Y-9034576D01*
X8638336Y-9034576D01*
X8638336Y-9288576D02*
X8638336Y-9217864D01*
X8567624Y-9217864D01*
X8567624Y-9288576D01*
X8638336Y-9288576D01*
X8899956Y-11338356D02*
X8899956Y-11267644D01*
X8829244Y-11267644D01*
X8829244Y-11338356D01*
X8899956Y-11338356D01*
X8899956Y-11592356D02*
X8899956Y-11521644D01*
X8829244Y-11521644D01*
X8829244Y-11592356D01*
X8899956Y-11592356D01*
X8899956Y-11846356D02*
X8899956Y-11775644D01*
X8829244Y-11775644D01*
X8829244Y-11846356D01*
X8899956Y-11846356D01*
X8899956Y-12100356D02*
X8899956Y-12029644D01*
X8829244Y-12029644D01*
X8829244Y-12100356D01*
X8899956Y-12100356D01*
X8899956Y-12481356D02*
X8899956Y-12410644D01*
X8829244Y-12410644D01*
X8829244Y-12481356D01*
X8899956Y-12481356D01*
X8899956Y-12735356D02*
X8899956Y-12664644D01*
X8829244Y-12664644D01*
X8829244Y-12735356D01*
X8899956Y-12735356D01*
X8899956Y-12989356D02*
X8899956Y-12918644D01*
X8829244Y-12918644D01*
X8829244Y-12989356D01*
X8899956Y-12989356D01*
X8899956Y-13243356D02*
X8899956Y-13172644D01*
X8829244Y-13172644D01*
X8829244Y-13243356D01*
X8899956Y-13243356D01*
X9661956Y-10093756D02*
X9661956Y-10023044D01*
X9591244Y-10023044D01*
X9591244Y-10093756D01*
X9661956Y-10093756D01*
X9661956Y-10347756D02*
X9661956Y-10277044D01*
X9591244Y-10277044D01*
X9591244Y-10347756D01*
X9661956Y-10347756D01*
X11196116Y-4815636D02*
X11196116Y-4744924D01*
X11125404Y-4744924D01*
X11125404Y-4815636D01*
X11196116Y-4815636D01*
X11450116Y-4815636D02*
X11450116Y-4744924D01*
X11379404Y-4744924D01*
X11379404Y-4815636D01*
X11450116Y-4815636D01*
X11704116Y-4815636D02*
X11704116Y-4744924D01*
X11633404Y-4744924D01*
X11633404Y-4815636D01*
X11704116Y-4815636D01*
X11958116Y-4815636D02*
X11958116Y-4744924D01*
X11887404Y-4744924D01*
X11887404Y-4815636D01*
X11958116Y-4815636D01*
X12212116Y-4815636D02*
X12212116Y-4744924D01*
X12141404Y-4744924D01*
X12141404Y-4815636D01*
X12212116Y-4815636D01*
X12466116Y-4815636D02*
X12466116Y-4744924D01*
X12395404Y-4744924D01*
X12395404Y-4815636D01*
X12466116Y-4815636D01*
X16634356Y-6500356D02*
X16634356Y-6429644D01*
X16563644Y-6429644D01*
X16563644Y-6500356D01*
X16634356Y-6500356D01*
X16651356Y-4730356D02*
X16651356Y-4659644D01*
X16580644Y-4659644D01*
X16580644Y-4730356D01*
X16651356Y-4730356D01*
X16651356Y-4984356D02*
X16651356Y-4913644D01*
X16580644Y-4913644D01*
X16580644Y-4984356D01*
X16651356Y-4984356D01*
X16651356Y-4984356D02*
X16651356Y-4913644D01*
X16580644Y-4913644D01*
X16580644Y-4984356D01*
X16651356Y-4984356D01*
X16651356Y-4984356D02*
X16651356Y-4913644D01*
X16580644Y-4913644D01*
X16580644Y-4984356D01*
X16651356Y-4984356D01*
X16651356Y-4984356D02*
X16651356Y-4913644D01*
X16580644Y-4913644D01*
X16580644Y-4984356D01*
X16651356Y-4984356D01*
X16651356Y-5238356D02*
X16651356Y-5167644D01*
X16580644Y-5167644D01*
X16580644Y-5238356D01*
X16651356Y-5238356D01*
X16651356Y-5492356D02*
X16651356Y-5421644D01*
X16580644Y-5421644D01*
X16580644Y-5492356D01*
X16651356Y-5492356D01*
X16651356Y-5746356D02*
X16651356Y-5675644D01*
X16580644Y-5675644D01*
X16580644Y-5746356D01*
X16651356Y-5746356D01*
X16651356Y-12855356D02*
X16651356Y-12784644D01*
X16580644Y-12784644D01*
X16580644Y-12855356D01*
X16651356Y-12855356D01*
X16888356Y-5992356D02*
X16888356Y-5921644D01*
X16817644Y-5921644D01*
X16817644Y-5992356D01*
X16888356Y-5992356D01*
X16888356Y-6246356D02*
X16888356Y-6175644D01*
X16817644Y-6175644D01*
X16817644Y-6246356D01*
X16888356Y-6246356D01*
X16888356Y-6754356D02*
X16888356Y-6683644D01*
X16817644Y-6683644D01*
X16817644Y-6754356D01*
X16888356Y-6754356D01*
X16905356Y-4730356D02*
X16905356Y-4659644D01*
X16834644Y-4659644D01*
X16834644Y-4730356D01*
X16905356Y-4730356D01*
X16905356Y-4984356D02*
X16905356Y-4913644D01*
X16834644Y-4913644D01*
X16834644Y-4984356D01*
X16905356Y-4984356D01*
X16905356Y-4984356D02*
X16905356Y-4913644D01*
X16834644Y-4913644D01*
X16834644Y-4984356D01*
X16905356Y-4984356D01*
X16905356Y-4984356D02*
X16905356Y-4913644D01*
X16834644Y-4913644D01*
X16834644Y-4984356D01*
X16905356Y-4984356D01*
X16905356Y-4984356D02*
X16905356Y-4913644D01*
X16834644Y-4913644D01*
X16834644Y-4984356D01*
X16905356Y-4984356D01*
X16905356Y-5238356D02*
X16905356Y-5167644D01*
X16834644Y-5167644D01*
X16834644Y-5238356D01*
X16905356Y-5238356D01*
X16905356Y-5492356D02*
X16905356Y-5421644D01*
X16834644Y-5421644D01*
X16834644Y-5492356D01*
X16905356Y-5492356D01*
X16905356Y-5746356D02*
X16905356Y-5675644D01*
X16834644Y-5675644D01*
X16834644Y-5746356D01*
X16905356Y-5746356D01*
X16905356Y-12347356D02*
X16905356Y-12276644D01*
X16834644Y-12276644D01*
X16834644Y-12347356D01*
X16905356Y-12347356D01*
X16905356Y-12601356D02*
X16905356Y-12530644D01*
X16834644Y-12530644D01*
X16834644Y-12601356D01*
X16905356Y-12601356D01*
X16905356Y-13109356D02*
X16905356Y-13038644D01*
X16834644Y-13038644D01*
X16834644Y-13109356D01*
X16905356Y-13109356D01*
X16909356Y-8031356D02*
X16909356Y-7960644D01*
X16838644Y-7960644D01*
X16838644Y-8031356D01*
X16909356Y-8031356D01*
X16909356Y-8285356D02*
X16909356Y-8214644D01*
X16838644Y-8214644D01*
X16838644Y-8285356D01*
X16909356Y-8285356D01*
X16909356Y-8539356D02*
X16909356Y-8468644D01*
X16838644Y-8468644D01*
X16838644Y-8539356D01*
X16909356Y-8539356D01*
X16909356Y-8793356D02*
X16909356Y-8722644D01*
X16838644Y-8722644D01*
X16838644Y-8793356D01*
X16909356Y-8793356D01*
X16909356Y-9047356D02*
X16909356Y-8976644D01*
X16838644Y-8976644D01*
X16838644Y-9047356D01*
X16909356Y-9047356D01*
X16909356Y-9301356D02*
X16909356Y-9230644D01*
X16838644Y-9230644D01*
X16838644Y-9301356D01*
X16909356Y-9301356D01*
X16909356Y-9555356D02*
X16909356Y-9484644D01*
X16838644Y-9484644D01*
X16838644Y-9555356D01*
X16909356Y-9555356D01*
X16909356Y-9809356D02*
X16909356Y-9738644D01*
X16838644Y-9738644D01*
X16838644Y-9809356D01*
X16909356Y-9809356D01*
X16909356Y-10063356D02*
X16909356Y-9992644D01*
X16838644Y-9992644D01*
X16838644Y-10063356D01*
X16909356Y-10063356D01*
X12217400Y-6333800D02*
X12277400Y-6273800D01*
X12217400Y-6213800D01*
X12157400Y-6273800D01*
X12217400Y-6333800D01*
X12217400Y-6841800D02*
X12277400Y-6781800D01*
X12217400Y-6721800D01*
X12157400Y-6781800D01*
X12217400Y-6841800D01*
X12217400Y-7426000D02*
X12277400Y-7366000D01*
X12217400Y-7306000D01*
X12157400Y-7366000D01*
X12217400Y-7426000D01*
X12217400Y-7934000D02*
X12277400Y-7874000D01*
X12217400Y-7814000D01*
X12157400Y-7874000D01*
X12217400Y-7934000D01*
X12217400Y-8518200D02*
X12277400Y-8458200D01*
X12217400Y-8398200D01*
X12157400Y-8458200D01*
X12217400Y-8518200D01*
X12217400Y-9026200D02*
X12277400Y-8966200D01*
X12217400Y-8906200D01*
X12157400Y-8966200D01*
X12217400Y-9026200D01*
X12217400Y-9610400D02*
X12277400Y-9550400D01*
X12217400Y-9490400D01*
X12157400Y-9550400D01*
X12217400Y-9610400D01*
X12217400Y-10118400D02*
X12277400Y-10058400D01*
X12217400Y-9998400D01*
X12157400Y-10058400D01*
X12217400Y-10118400D01*
X12217400Y-10702600D02*
X12277400Y-10642600D01*
X12217400Y-10582600D01*
X12157400Y-10642600D01*
X12217400Y-10702600D01*
X12217400Y-11210600D02*
X12277400Y-11150600D01*
X12217400Y-11090600D01*
X12157400Y-11150600D01*
X12217400Y-11210600D01*
X12217400Y-11794800D02*
X12277400Y-11734800D01*
X12217400Y-11674800D01*
X12157400Y-11734800D01*
X12217400Y-11794800D01*
X12217400Y-12302800D02*
X12277400Y-12242800D01*
X12217400Y-12182800D01*
X12157400Y-12242800D01*
X12217400Y-12302800D01*
X12217400Y-12887000D02*
X12277400Y-12827000D01*
X12217400Y-12767000D01*
X12157400Y-12827000D01*
X12217400Y-12887000D01*
X12217400Y-13395000D02*
X12277400Y-13335000D01*
X12217400Y-13275000D01*
X12157400Y-13335000D01*
X12217400Y-13395000D01*
X12674600Y-8162600D02*
X12734600Y-8102600D01*
X12674600Y-8042600D01*
X12614600Y-8102600D01*
X12674600Y-8162600D01*
X12674600Y-9254800D02*
X12734600Y-9194800D01*
X12674600Y-9134800D01*
X12614600Y-9194800D01*
X12674600Y-9254800D01*
X12674600Y-10347000D02*
X12734600Y-10287000D01*
X12674600Y-10227000D01*
X12614600Y-10287000D01*
X12674600Y-10347000D01*
X12674600Y-11439200D02*
X12734600Y-11379200D01*
X12674600Y-11319200D01*
X12614600Y-11379200D01*
X12674600Y-11439200D01*
X12674600Y-12531400D02*
X12734600Y-12471400D01*
X12674600Y-12411400D01*
X12614600Y-12471400D01*
X12674600Y-12531400D01*
X12674600Y-13623600D02*
X12734600Y-13563600D01*
X12674600Y-13503600D01*
X12614600Y-13563600D01*
X12674600Y-13623600D01*
X13182600Y-8162600D02*
X13242600Y-8102600D01*
X13182600Y-8042600D01*
X13122600Y-8102600D01*
X13182600Y-8162600D01*
X13182600Y-9254800D02*
X13242600Y-9194800D01*
X13182600Y-9134800D01*
X13122600Y-9194800D01*
X13182600Y-9254800D01*
X13182600Y-10347000D02*
X13242600Y-10287000D01*
X13182600Y-10227000D01*
X13122600Y-10287000D01*
X13182600Y-10347000D01*
X13182600Y-11439200D02*
X13242600Y-11379200D01*
X13182600Y-11319200D01*
X13122600Y-11379200D01*
X13182600Y-11439200D01*
X13182600Y-12531400D02*
X13242600Y-12471400D01*
X13182600Y-12411400D01*
X13122600Y-12471400D01*
X13182600Y-12531400D01*
X13182600Y-13623600D02*
X13242600Y-13563600D01*
X13182600Y-13503600D01*
X13122600Y-13563600D01*
X13182600Y-13623600D01*
X13462000Y-6333800D02*
X13522000Y-6273800D01*
X13462000Y-6213800D01*
X13402000Y-6273800D01*
X13462000Y-6333800D01*
X13462000Y-6841800D02*
X13522000Y-6781800D01*
X13462000Y-6721800D01*
X13402000Y-6781800D01*
X13462000Y-6841800D01*
X15169000Y-6183000D02*
X15229000Y-6123000D01*
X15169000Y-6063000D01*
X15109000Y-6123000D01*
X15169000Y-6183000D01*
X15232500Y-5865500D02*
X15292500Y-5805500D01*
X15232500Y-5745500D01*
X15172500Y-5805500D01*
X15232500Y-5865500D01*
X15550000Y-6818000D02*
X15610000Y-6758000D01*
X15550000Y-6698000D01*
X15490000Y-6758000D01*
X15550000Y-6818000D01*
X15804000Y-6183000D02*
X15864000Y-6123000D01*
X15804000Y-6063000D01*
X15744000Y-6123000D01*
X15804000Y-6183000D01*
X16058000Y-6818000D02*
X16118000Y-6758000D01*
X16058000Y-6698000D01*
X15998000Y-6758000D01*
X16058000Y-6818000D01*
X15876500Y-5006500D02*
X16003500Y-5133500D01*
X16003500Y-5006500D02*
X15876500Y-5133500D01*
X16003500Y-5070000D02*
G75*
G03X16003500Y-5070000I-63500J0D01*
G01*
X9119800Y-8815000D02*
X9269800Y-8965000D01*
X9269800Y-8815000D02*
X9119800Y-8965000D01*
X9194800Y-8815000D02*
X9194800Y-8965000D01*
X9119800Y-8890000D02*
X9269800Y-8890000D01*
X9526200Y-6048600D02*
X9676200Y-6198600D01*
X9676200Y-6048600D02*
X9526200Y-6198600D01*
X9601200Y-6048600D02*
X9601200Y-6198600D01*
X9526200Y-6123600D02*
X9676200Y-6123600D01*
X16505000Y-6132500D02*
X16662000Y-6289500D01*
X16662000Y-6132500D02*
X16505000Y-6289500D01*
X16639008Y-6266508D02*
X16639008Y-6155492D01*
X16527992Y-6155492D01*
X16527992Y-6266508D01*
X16639008Y-6266508D01*
X16505000Y-6640500D02*
X16662000Y-6797500D01*
X16662000Y-6640500D02*
X16505000Y-6797500D01*
X16639008Y-6774508D02*
X16639008Y-6663492D01*
X16527992Y-6663492D01*
X16527992Y-6774508D01*
X16639008Y-6774508D01*
X16522000Y-12487500D02*
X16679000Y-12644500D01*
X16679000Y-12487500D02*
X16522000Y-12644500D01*
X16656008Y-12621508D02*
X16656008Y-12510492D01*
X16544992Y-12510492D01*
X16544992Y-12621508D01*
X16656008Y-12621508D01*
X16522000Y-12995500D02*
X16679000Y-13152500D01*
X16679000Y-12995500D02*
X16522000Y-13152500D01*
X16656008Y-13129508D02*
X16656008Y-13018492D01*
X16544992Y-13018492D01*
X16544992Y-13129508D01*
X16656008Y-13129508D01*
X16746000Y-6386500D02*
X16903000Y-6543500D01*
X16903000Y-6386500D02*
X16746000Y-6543500D01*
X16880008Y-6520508D02*
X16880008Y-6409492D01*
X16768992Y-6409492D01*
X16768992Y-6520508D01*
X16880008Y-6520508D01*
X16763000Y-12741500D02*
X16920000Y-12898500D01*
X16920000Y-12741500D02*
X16763000Y-12898500D01*
X16897008Y-12875508D02*
X16897008Y-12764492D01*
X16785992Y-12764492D01*
X16785992Y-12875508D01*
X16897008Y-12875508D01*
X16165000Y-4990000D02*
X16325000Y-5150000D01*
X16325000Y-4990000D02*
X16165000Y-5150000D01*
X16245000Y-5150000D02*
X16325000Y-5070000D01*
X16245000Y-4990000D01*
X16165000Y-5070000D01*
X16245000Y-5150000D01*
X9000000Y-4135000D02*
X9000000Y-4465000D01*
X8835000Y-4300000D02*
X9165000Y-4300000D01*
X9165000Y-4300000D02*
G75*
G03X9165000Y-4300000I-165000J0D01*
G01*
X9000000Y-13535000D02*
X9000000Y-13865000D01*
X8835000Y-13700000D02*
X9165000Y-13700000D01*
X9165000Y-13700000D02*
G75*
G03X9165000Y-13700000I-165000J0D01*
G01*
X16700000Y-4135000D02*
X16700000Y-4465000D01*
X16535000Y-4300000D02*
X16865000Y-4300000D01*
X16865000Y-4300000D02*
G75*
G03X16865000Y-4300000I-165000J0D01*
G01*
X16700000Y-13535000D02*
X16700000Y-13865000D01*
X16535000Y-13700000D02*
X16865000Y-13700000D01*
X16865000Y-13700000D02*
G75*
G03X16865000Y-13700000I-165000J0D01*
G01*
D13*
X7263928Y-14473214D02*
X7263928Y-14173214D01*
X7335357Y-14173214D01*
X7378214Y-14187500D01*
X7406786Y-14216071D01*
X7421071Y-14244643D01*
X7435357Y-14301786D01*
X7435357Y-14344643D01*
X7421071Y-14401786D01*
X7406786Y-14430357D01*
X7378214Y-14458929D01*
X7335357Y-14473214D01*
X7263928Y-14473214D01*
X7563928Y-14473214D02*
X7563928Y-14273214D01*
X7563928Y-14330357D02*
X7578214Y-14301786D01*
X7592500Y-14287500D01*
X7621071Y-14273214D01*
X7649643Y-14273214D01*
X7749643Y-14473214D02*
X7749643Y-14273214D01*
X7749643Y-14173214D02*
X7735357Y-14187500D01*
X7749643Y-14201786D01*
X7763928Y-14187500D01*
X7749643Y-14173214D01*
X7749643Y-14201786D01*
X7935357Y-14473214D02*
X7906786Y-14458929D01*
X7892500Y-14430357D01*
X7892500Y-14173214D01*
X8092500Y-14473214D02*
X8063928Y-14458929D01*
X8049643Y-14430357D01*
X8049643Y-14173214D01*
X8435357Y-14473214D02*
X8435357Y-14173214D01*
X8535357Y-14387500D01*
X8635357Y-14173214D01*
X8635357Y-14473214D01*
X8906786Y-14473214D02*
X8906786Y-14316071D01*
X8892500Y-14287500D01*
X8863929Y-14273214D01*
X8806786Y-14273214D01*
X8778214Y-14287500D01*
X8906786Y-14458929D02*
X8878214Y-14473214D01*
X8806786Y-14473214D01*
X8778214Y-14458929D01*
X8763929Y-14430357D01*
X8763929Y-14401786D01*
X8778214Y-14373214D01*
X8806786Y-14358929D01*
X8878214Y-14358929D01*
X8906786Y-14344643D01*
X9049643Y-14273214D02*
X9049643Y-14573214D01*
X9049643Y-14287500D02*
X9078214Y-14273214D01*
X9135357Y-14273214D01*
X9163929Y-14287500D01*
X9178214Y-14301786D01*
X9192500Y-14330357D01*
X9192500Y-14416071D01*
X9178214Y-14444643D01*
X9163929Y-14458929D01*
X9135357Y-14473214D01*
X9078214Y-14473214D01*
X9049643Y-14458929D01*
X9321071Y-14444643D02*
X9335357Y-14458929D01*
X9321071Y-14473214D01*
X9306786Y-14458929D01*
X9321071Y-14444643D01*
X9321071Y-14473214D01*
X9321071Y-14287500D02*
X9335357Y-14301786D01*
X9321071Y-14316071D01*
X9306786Y-14301786D01*
X9321071Y-14287500D01*
X9321071Y-14316071D01*
X6962500Y-14952500D02*
X6992500Y-14982500D01*
X6992500Y-14952500D02*
X6962500Y-14982500D01*
X7321071Y-14803214D02*
X7349643Y-14803214D01*
X7378214Y-14817500D01*
X7392500Y-14831786D01*
X7406786Y-14860357D01*
X7421071Y-14917500D01*
X7421071Y-14988929D01*
X7406786Y-15046071D01*
X7392500Y-15074643D01*
X7378214Y-15088929D01*
X7349643Y-15103214D01*
X7321071Y-15103214D01*
X7292500Y-15088929D01*
X7278214Y-15074643D01*
X7263928Y-15046071D01*
X7249643Y-14988929D01*
X7249643Y-14917500D01*
X7263928Y-14860357D01*
X7278214Y-14831786D01*
X7292500Y-14817500D01*
X7321071Y-14803214D01*
X7549643Y-15074643D02*
X7563928Y-15088929D01*
X7549643Y-15103214D01*
X7535357Y-15088929D01*
X7549643Y-15074643D01*
X7549643Y-15103214D01*
X7663928Y-14803214D02*
X7849643Y-14803214D01*
X7749643Y-14917500D01*
X7792500Y-14917500D01*
X7821071Y-14931786D01*
X7835357Y-14946071D01*
X7849643Y-14974643D01*
X7849643Y-15046071D01*
X7835357Y-15074643D01*
X7821071Y-15088929D01*
X7792500Y-15103214D01*
X7706786Y-15103214D01*
X7678214Y-15088929D01*
X7663928Y-15074643D01*
X8035357Y-14803214D02*
X8063928Y-14803214D01*
X8092500Y-14817500D01*
X8106786Y-14831786D01*
X8121071Y-14860357D01*
X8135357Y-14917500D01*
X8135357Y-14988929D01*
X8121071Y-15046071D01*
X8106786Y-15074643D01*
X8092500Y-15088929D01*
X8063928Y-15103214D01*
X8035357Y-15103214D01*
X8006786Y-15088929D01*
X7992500Y-15074643D01*
X7978214Y-15046071D01*
X7963928Y-14988929D01*
X7963928Y-14917500D01*
X7978214Y-14860357D01*
X7992500Y-14831786D01*
X8006786Y-14817500D01*
X8035357Y-14803214D01*
X8263928Y-15103214D02*
X8263928Y-14903214D01*
X8263928Y-14931786D02*
X8278214Y-14917500D01*
X8306786Y-14903214D01*
X8349643Y-14903214D01*
X8378214Y-14917500D01*
X8392500Y-14946071D01*
X8392500Y-15103214D01*
X8392500Y-14946071D02*
X8406786Y-14917500D01*
X8435357Y-14903214D01*
X8478214Y-14903214D01*
X8506786Y-14917500D01*
X8521071Y-14946071D01*
X8521071Y-15103214D01*
X8663929Y-15103214D02*
X8663929Y-14903214D01*
X8663929Y-14931786D02*
X8678214Y-14917500D01*
X8706786Y-14903214D01*
X8749643Y-14903214D01*
X8778214Y-14917500D01*
X8792500Y-14946071D01*
X8792500Y-15103214D01*
X8792500Y-14946071D02*
X8806786Y-14917500D01*
X8835357Y-14903214D01*
X8878214Y-14903214D01*
X8906786Y-14917500D01*
X8921071Y-14946071D01*
X8921071Y-15103214D01*
X9506786Y-14788929D02*
X9249643Y-15174643D01*
X9892500Y-14803214D02*
X9921071Y-14803214D01*
X9949643Y-14817500D01*
X9963928Y-14831786D01*
X9978214Y-14860357D01*
X9992500Y-14917500D01*
X9992500Y-14988929D01*
X9978214Y-15046071D01*
X9963928Y-15074643D01*
X9949643Y-15088929D01*
X9921071Y-15103214D01*
X9892500Y-15103214D01*
X9863928Y-15088929D01*
X9849643Y-15074643D01*
X9835357Y-15046071D01*
X9821071Y-14988929D01*
X9821071Y-14917500D01*
X9835357Y-14860357D01*
X9849643Y-14831786D01*
X9863928Y-14817500D01*
X9892500Y-14803214D01*
X10121071Y-15074643D02*
X10135357Y-15088929D01*
X10121071Y-15103214D01*
X10106786Y-15088929D01*
X10121071Y-15074643D01*
X10121071Y-15103214D01*
X10321071Y-14803214D02*
X10349643Y-14803214D01*
X10378214Y-14817500D01*
X10392500Y-14831786D01*
X10406786Y-14860357D01*
X10421071Y-14917500D01*
X10421071Y-14988929D01*
X10406786Y-15046071D01*
X10392500Y-15074643D01*
X10378214Y-15088929D01*
X10349643Y-15103214D01*
X10321071Y-15103214D01*
X10292500Y-15088929D01*
X10278214Y-15074643D01*
X10263928Y-15046071D01*
X10249643Y-14988929D01*
X10249643Y-14917500D01*
X10263928Y-14860357D01*
X10278214Y-14831786D01*
X10292500Y-14817500D01*
X10321071Y-14803214D01*
X10706786Y-15103214D02*
X10535357Y-15103214D01*
X10621071Y-15103214D02*
X10621071Y-14803214D01*
X10592500Y-14846071D01*
X10563928Y-14874643D01*
X10535357Y-14888929D01*
X10821071Y-14831786D02*
X10835357Y-14817500D01*
X10863928Y-14803214D01*
X10935357Y-14803214D01*
X10963928Y-14817500D01*
X10978214Y-14831786D01*
X10992500Y-14860357D01*
X10992500Y-14888929D01*
X10978214Y-14931786D01*
X10806786Y-15103214D01*
X10992500Y-15103214D01*
X11106786Y-14803214D02*
X11106786Y-14860357D01*
X11221071Y-14803214D02*
X11221071Y-14860357D01*
X11663928Y-15217500D02*
X11649643Y-15203214D01*
X11621071Y-15160357D01*
X11606785Y-15131786D01*
X11592500Y-15088929D01*
X11578214Y-15017500D01*
X11578214Y-14960357D01*
X11592500Y-14888929D01*
X11606785Y-14846071D01*
X11621071Y-14817500D01*
X11649643Y-14774643D01*
X11663928Y-14760357D01*
X11906785Y-14903214D02*
X11906785Y-15103214D01*
X11835357Y-14788929D02*
X11763928Y-15003214D01*
X11949643Y-15003214D01*
X12078214Y-15103214D02*
X12135357Y-15103214D01*
X12163928Y-15088929D01*
X12178214Y-15074643D01*
X12206785Y-15031786D01*
X12221071Y-14974643D01*
X12221071Y-14860357D01*
X12206785Y-14831786D01*
X12192500Y-14817500D01*
X12163928Y-14803214D01*
X12106785Y-14803214D01*
X12078214Y-14817500D01*
X12063928Y-14831786D01*
X12049643Y-14860357D01*
X12049643Y-14931786D01*
X12063928Y-14960357D01*
X12078214Y-14974643D01*
X12106785Y-14988929D01*
X12163928Y-14988929D01*
X12192500Y-14974643D01*
X12206785Y-14960357D01*
X12221071Y-14931786D01*
X12478214Y-14803214D02*
X12421071Y-14803214D01*
X12392500Y-14817500D01*
X12378214Y-14831786D01*
X12349643Y-14874643D01*
X12335357Y-14931786D01*
X12335357Y-15046071D01*
X12349643Y-15074643D01*
X12363928Y-15088929D01*
X12392500Y-15103214D01*
X12449643Y-15103214D01*
X12478214Y-15088929D01*
X12492500Y-15074643D01*
X12506785Y-15046071D01*
X12506785Y-14974643D01*
X12492500Y-14946071D01*
X12478214Y-14931786D01*
X12449643Y-14917500D01*
X12392500Y-14917500D01*
X12363928Y-14931786D01*
X12349643Y-14946071D01*
X12335357Y-14974643D01*
X12863928Y-15103214D02*
X12863928Y-14803214D01*
X12992500Y-15103214D02*
X12992500Y-14946071D01*
X12978214Y-14917500D01*
X12949643Y-14903214D01*
X12906785Y-14903214D01*
X12878214Y-14917500D01*
X12863928Y-14931786D01*
X13178214Y-15103214D02*
X13149643Y-15088929D01*
X13135357Y-15074643D01*
X13121071Y-15046071D01*
X13121071Y-14960357D01*
X13135357Y-14931786D01*
X13149643Y-14917500D01*
X13178214Y-14903214D01*
X13221071Y-14903214D01*
X13249643Y-14917500D01*
X13263928Y-14931786D01*
X13278214Y-14960357D01*
X13278214Y-15046071D01*
X13263928Y-15074643D01*
X13249643Y-15088929D01*
X13221071Y-15103214D01*
X13178214Y-15103214D01*
X13449643Y-15103214D02*
X13421071Y-15088929D01*
X13406786Y-15060357D01*
X13406786Y-14803214D01*
X13678214Y-15088929D02*
X13649643Y-15103214D01*
X13592500Y-15103214D01*
X13563928Y-15088929D01*
X13549643Y-15060357D01*
X13549643Y-14946071D01*
X13563928Y-14917500D01*
X13592500Y-14903214D01*
X13649643Y-14903214D01*
X13678214Y-14917500D01*
X13692500Y-14946071D01*
X13692500Y-14974643D01*
X13549643Y-15003214D01*
X13806786Y-15088929D02*
X13835357Y-15103214D01*
X13892500Y-15103214D01*
X13921071Y-15088929D01*
X13935357Y-15060357D01*
X13935357Y-15046071D01*
X13921071Y-15017500D01*
X13892500Y-15003214D01*
X13849643Y-15003214D01*
X13821071Y-14988929D01*
X13806786Y-14960357D01*
X13806786Y-14946071D01*
X13821071Y-14917500D01*
X13849643Y-14903214D01*
X13892500Y-14903214D01*
X13921071Y-14917500D01*
X14035357Y-15217500D02*
X14049643Y-15203214D01*
X14078214Y-15160357D01*
X14092500Y-15131786D01*
X14106786Y-15088929D01*
X14121071Y-15017500D01*
X14121071Y-14960357D01*
X14106786Y-14888929D01*
X14092500Y-14846071D01*
X14078214Y-14817500D01*
X14049643Y-14774643D01*
X14035357Y-14760357D01*
X6992500Y-15363500D02*
G75*
G03X6992500Y-15363500I-40640J0D01*
G01*
X7321071Y-15199214D02*
X7349643Y-15199214D01*
X7378214Y-15213500D01*
X7392500Y-15227786D01*
X7406786Y-15256357D01*
X7421071Y-15313500D01*
X7421071Y-15384929D01*
X7406786Y-15442071D01*
X7392500Y-15470643D01*
X7378214Y-15484929D01*
X7349643Y-15499214D01*
X7321071Y-15499214D01*
X7292500Y-15484929D01*
X7278214Y-15470643D01*
X7263928Y-15442071D01*
X7249643Y-15384929D01*
X7249643Y-15313500D01*
X7263928Y-15256357D01*
X7278214Y-15227786D01*
X7292500Y-15213500D01*
X7321071Y-15199214D01*
X7549643Y-15470643D02*
X7563928Y-15484929D01*
X7549643Y-15499214D01*
X7535357Y-15484929D01*
X7549643Y-15470643D01*
X7549643Y-15499214D01*
X7735357Y-15327786D02*
X7706786Y-15313500D01*
X7692500Y-15299214D01*
X7678214Y-15270643D01*
X7678214Y-15256357D01*
X7692500Y-15227786D01*
X7706786Y-15213500D01*
X7735357Y-15199214D01*
X7792500Y-15199214D01*
X7821071Y-15213500D01*
X7835357Y-15227786D01*
X7849643Y-15256357D01*
X7849643Y-15270643D01*
X7835357Y-15299214D01*
X7821071Y-15313500D01*
X7792500Y-15327786D01*
X7735357Y-15327786D01*
X7706786Y-15342071D01*
X7692500Y-15356357D01*
X7678214Y-15384929D01*
X7678214Y-15442071D01*
X7692500Y-15470643D01*
X7706786Y-15484929D01*
X7735357Y-15499214D01*
X7792500Y-15499214D01*
X7821071Y-15484929D01*
X7835357Y-15470643D01*
X7849643Y-15442071D01*
X7849643Y-15384929D01*
X7835357Y-15356357D01*
X7821071Y-15342071D01*
X7792500Y-15327786D01*
X8135357Y-15499214D02*
X7963928Y-15499214D01*
X8049643Y-15499214D02*
X8049643Y-15199214D01*
X8021071Y-15242071D01*
X7992500Y-15270643D01*
X7963928Y-15284929D01*
X8263928Y-15499214D02*
X8263928Y-15299214D01*
X8263928Y-15327786D02*
X8278214Y-15313500D01*
X8306786Y-15299214D01*
X8349643Y-15299214D01*
X8378214Y-15313500D01*
X8392500Y-15342071D01*
X8392500Y-15499214D01*
X8392500Y-15342071D02*
X8406786Y-15313500D01*
X8435357Y-15299214D01*
X8478214Y-15299214D01*
X8506786Y-15313500D01*
X8521071Y-15342071D01*
X8521071Y-15499214D01*
X8663929Y-15499214D02*
X8663929Y-15299214D01*
X8663929Y-15327786D02*
X8678214Y-15313500D01*
X8706786Y-15299214D01*
X8749643Y-15299214D01*
X8778214Y-15313500D01*
X8792500Y-15342071D01*
X8792500Y-15499214D01*
X8792500Y-15342071D02*
X8806786Y-15313500D01*
X8835357Y-15299214D01*
X8878214Y-15299214D01*
X8906786Y-15313500D01*
X8921071Y-15342071D01*
X8921071Y-15499214D01*
X9506786Y-15184929D02*
X9249643Y-15570643D01*
X9892500Y-15199214D02*
X9921071Y-15199214D01*
X9949643Y-15213500D01*
X9963928Y-15227786D01*
X9978214Y-15256357D01*
X9992500Y-15313500D01*
X9992500Y-15384929D01*
X9978214Y-15442071D01*
X9963928Y-15470643D01*
X9949643Y-15484929D01*
X9921071Y-15499214D01*
X9892500Y-15499214D01*
X9863928Y-15484929D01*
X9849643Y-15470643D01*
X9835357Y-15442071D01*
X9821071Y-15384929D01*
X9821071Y-15313500D01*
X9835357Y-15256357D01*
X9849643Y-15227786D01*
X9863928Y-15213500D01*
X9892500Y-15199214D01*
X10121071Y-15470643D02*
X10135357Y-15484929D01*
X10121071Y-15499214D01*
X10106786Y-15484929D01*
X10121071Y-15470643D01*
X10121071Y-15499214D01*
X10321071Y-15199214D02*
X10349643Y-15199214D01*
X10378214Y-15213500D01*
X10392500Y-15227786D01*
X10406786Y-15256357D01*
X10421071Y-15313500D01*
X10421071Y-15384929D01*
X10406786Y-15442071D01*
X10392500Y-15470643D01*
X10378214Y-15484929D01*
X10349643Y-15499214D01*
X10321071Y-15499214D01*
X10292500Y-15484929D01*
X10278214Y-15470643D01*
X10263928Y-15442071D01*
X10249643Y-15384929D01*
X10249643Y-15313500D01*
X10263928Y-15256357D01*
X10278214Y-15227786D01*
X10292500Y-15213500D01*
X10321071Y-15199214D01*
X10521071Y-15199214D02*
X10706786Y-15199214D01*
X10606786Y-15313500D01*
X10649643Y-15313500D01*
X10678214Y-15327786D01*
X10692500Y-15342071D01*
X10706786Y-15370643D01*
X10706786Y-15442071D01*
X10692500Y-15470643D01*
X10678214Y-15484929D01*
X10649643Y-15499214D01*
X10563928Y-15499214D01*
X10535357Y-15484929D01*
X10521071Y-15470643D01*
X10821071Y-15227786D02*
X10835357Y-15213500D01*
X10863928Y-15199214D01*
X10935357Y-15199214D01*
X10963928Y-15213500D01*
X10978214Y-15227786D01*
X10992500Y-15256357D01*
X10992500Y-15284929D01*
X10978214Y-15327786D01*
X10806786Y-15499214D01*
X10992500Y-15499214D01*
X11106786Y-15199214D02*
X11106786Y-15256357D01*
X11221071Y-15199214D02*
X11221071Y-15256357D01*
X11663928Y-15613500D02*
X11649643Y-15599214D01*
X11621071Y-15556357D01*
X11606785Y-15527786D01*
X11592500Y-15484929D01*
X11578214Y-15413500D01*
X11578214Y-15356357D01*
X11592500Y-15284929D01*
X11606785Y-15242071D01*
X11621071Y-15213500D01*
X11649643Y-15170643D01*
X11663928Y-15156357D01*
X11749643Y-15199214D02*
X11949643Y-15199214D01*
X11821071Y-15499214D01*
X12121071Y-15199214D02*
X12149643Y-15199214D01*
X12178214Y-15213500D01*
X12192500Y-15227786D01*
X12206785Y-15256357D01*
X12221071Y-15313500D01*
X12221071Y-15384929D01*
X12206785Y-15442071D01*
X12192500Y-15470643D01*
X12178214Y-15484929D01*
X12149643Y-15499214D01*
X12121071Y-15499214D01*
X12092500Y-15484929D01*
X12078214Y-15470643D01*
X12063928Y-15442071D01*
X12049643Y-15384929D01*
X12049643Y-15313500D01*
X12063928Y-15256357D01*
X12078214Y-15227786D01*
X12092500Y-15213500D01*
X12121071Y-15199214D01*
X12578214Y-15499214D02*
X12578214Y-15199214D01*
X12706785Y-15499214D02*
X12706785Y-15342071D01*
X12692500Y-15313500D01*
X12663928Y-15299214D01*
X12621071Y-15299214D01*
X12592500Y-15313500D01*
X12578214Y-15327786D01*
X12892500Y-15499214D02*
X12863928Y-15484929D01*
X12849643Y-15470643D01*
X12835357Y-15442071D01*
X12835357Y-15356357D01*
X12849643Y-15327786D01*
X12863928Y-15313500D01*
X12892500Y-15299214D01*
X12935357Y-15299214D01*
X12963928Y-15313500D01*
X12978214Y-15327786D01*
X12992500Y-15356357D01*
X12992500Y-15442071D01*
X12978214Y-15470643D01*
X12963928Y-15484929D01*
X12935357Y-15499214D01*
X12892500Y-15499214D01*
X13163928Y-15499214D02*
X13135357Y-15484929D01*
X13121071Y-15456357D01*
X13121071Y-15199214D01*
X13392500Y-15484929D02*
X13363928Y-15499214D01*
X13306786Y-15499214D01*
X13278214Y-15484929D01*
X13263928Y-15456357D01*
X13263928Y-15342071D01*
X13278214Y-15313500D01*
X13306786Y-15299214D01*
X13363928Y-15299214D01*
X13392500Y-15313500D01*
X13406786Y-15342071D01*
X13406786Y-15370643D01*
X13263928Y-15399214D01*
X13521071Y-15484929D02*
X13549643Y-15499214D01*
X13606786Y-15499214D01*
X13635357Y-15484929D01*
X13649643Y-15456357D01*
X13649643Y-15442071D01*
X13635357Y-15413500D01*
X13606786Y-15399214D01*
X13563928Y-15399214D01*
X13535357Y-15384929D01*
X13521071Y-15356357D01*
X13521071Y-15342071D01*
X13535357Y-15313500D01*
X13563928Y-15299214D01*
X13606786Y-15299214D01*
X13635357Y-15313500D01*
X13749643Y-15613500D02*
X13763928Y-15599214D01*
X13792500Y-15556357D01*
X13806786Y-15527786D01*
X13821071Y-15484929D01*
X13835357Y-15413500D01*
X13835357Y-15356357D01*
X13821071Y-15284929D01*
X13806786Y-15242071D01*
X13792500Y-15213500D01*
X13763928Y-15170643D01*
X13749643Y-15156357D01*
X6942589Y-15709589D02*
X6942589Y-15809411D01*
X6892678Y-15759500D02*
X6992500Y-15759500D01*
X7421071Y-15895214D02*
X7249643Y-15895214D01*
X7335357Y-15895214D02*
X7335357Y-15595214D01*
X7306786Y-15638071D01*
X7278214Y-15666643D01*
X7249643Y-15680929D01*
X7549643Y-15866643D02*
X7563928Y-15880929D01*
X7549643Y-15895214D01*
X7535357Y-15880929D01*
X7549643Y-15866643D01*
X7549643Y-15895214D01*
X7749643Y-15595214D02*
X7778214Y-15595214D01*
X7806786Y-15609500D01*
X7821071Y-15623786D01*
X7835357Y-15652357D01*
X7849643Y-15709500D01*
X7849643Y-15780929D01*
X7835357Y-15838071D01*
X7821071Y-15866643D01*
X7806786Y-15880929D01*
X7778214Y-15895214D01*
X7749643Y-15895214D01*
X7721071Y-15880929D01*
X7706786Y-15866643D01*
X7692500Y-15838071D01*
X7678214Y-15780929D01*
X7678214Y-15709500D01*
X7692500Y-15652357D01*
X7706786Y-15623786D01*
X7721071Y-15609500D01*
X7749643Y-15595214D01*
X8035357Y-15595214D02*
X8063928Y-15595214D01*
X8092500Y-15609500D01*
X8106786Y-15623786D01*
X8121071Y-15652357D01*
X8135357Y-15709500D01*
X8135357Y-15780929D01*
X8121071Y-15838071D01*
X8106786Y-15866643D01*
X8092500Y-15880929D01*
X8063928Y-15895214D01*
X8035357Y-15895214D01*
X8006786Y-15880929D01*
X7992500Y-15866643D01*
X7978214Y-15838071D01*
X7963928Y-15780929D01*
X7963928Y-15709500D01*
X7978214Y-15652357D01*
X7992500Y-15623786D01*
X8006786Y-15609500D01*
X8035357Y-15595214D01*
X8263928Y-15895214D02*
X8263928Y-15695214D01*
X8263928Y-15723786D02*
X8278214Y-15709500D01*
X8306786Y-15695214D01*
X8349643Y-15695214D01*
X8378214Y-15709500D01*
X8392500Y-15738071D01*
X8392500Y-15895214D01*
X8392500Y-15738071D02*
X8406786Y-15709500D01*
X8435357Y-15695214D01*
X8478214Y-15695214D01*
X8506786Y-15709500D01*
X8521071Y-15738071D01*
X8521071Y-15895214D01*
X8663929Y-15895214D02*
X8663929Y-15695214D01*
X8663929Y-15723786D02*
X8678214Y-15709500D01*
X8706786Y-15695214D01*
X8749643Y-15695214D01*
X8778214Y-15709500D01*
X8792500Y-15738071D01*
X8792500Y-15895214D01*
X8792500Y-15738071D02*
X8806786Y-15709500D01*
X8835357Y-15695214D01*
X8878214Y-15695214D01*
X8906786Y-15709500D01*
X8921071Y-15738071D01*
X8921071Y-15895214D01*
X9506786Y-15580929D02*
X9249643Y-15966643D01*
X9892500Y-15595214D02*
X9921071Y-15595214D01*
X9949643Y-15609500D01*
X9963928Y-15623786D01*
X9978214Y-15652357D01*
X9992500Y-15709500D01*
X9992500Y-15780929D01*
X9978214Y-15838071D01*
X9963928Y-15866643D01*
X9949643Y-15880929D01*
X9921071Y-15895214D01*
X9892500Y-15895214D01*
X9863928Y-15880929D01*
X9849643Y-15866643D01*
X9835357Y-15838071D01*
X9821071Y-15780929D01*
X9821071Y-15709500D01*
X9835357Y-15652357D01*
X9849643Y-15623786D01*
X9863928Y-15609500D01*
X9892500Y-15595214D01*
X10121071Y-15866643D02*
X10135357Y-15880929D01*
X10121071Y-15895214D01*
X10106786Y-15880929D01*
X10121071Y-15866643D01*
X10121071Y-15895214D01*
X10321071Y-15595214D02*
X10349643Y-15595214D01*
X10378214Y-15609500D01*
X10392500Y-15623786D01*
X10406786Y-15652357D01*
X10421071Y-15709500D01*
X10421071Y-15780929D01*
X10406786Y-15838071D01*
X10392500Y-15866643D01*
X10378214Y-15880929D01*
X10349643Y-15895214D01*
X10321071Y-15895214D01*
X10292500Y-15880929D01*
X10278214Y-15866643D01*
X10263928Y-15838071D01*
X10249643Y-15780929D01*
X10249643Y-15709500D01*
X10263928Y-15652357D01*
X10278214Y-15623786D01*
X10292500Y-15609500D01*
X10321071Y-15595214D01*
X10521071Y-15595214D02*
X10706786Y-15595214D01*
X10606786Y-15709500D01*
X10649643Y-15709500D01*
X10678214Y-15723786D01*
X10692500Y-15738071D01*
X10706786Y-15766643D01*
X10706786Y-15838071D01*
X10692500Y-15866643D01*
X10678214Y-15880929D01*
X10649643Y-15895214D01*
X10563928Y-15895214D01*
X10535357Y-15880929D01*
X10521071Y-15866643D01*
X10849643Y-15895214D02*
X10906786Y-15895214D01*
X10935357Y-15880929D01*
X10949643Y-15866643D01*
X10978214Y-15823786D01*
X10992500Y-15766643D01*
X10992500Y-15652357D01*
X10978214Y-15623786D01*
X10963928Y-15609500D01*
X10935357Y-15595214D01*
X10878214Y-15595214D01*
X10849643Y-15609500D01*
X10835357Y-15623786D01*
X10821071Y-15652357D01*
X10821071Y-15723786D01*
X10835357Y-15752357D01*
X10849643Y-15766643D01*
X10878214Y-15780929D01*
X10935357Y-15780929D01*
X10963928Y-15766643D01*
X10978214Y-15752357D01*
X10992500Y-15723786D01*
X11106786Y-15595214D02*
X11106786Y-15652357D01*
X11221071Y-15595214D02*
X11221071Y-15652357D01*
X11663928Y-16009500D02*
X11649643Y-15995214D01*
X11621071Y-15952357D01*
X11606785Y-15923786D01*
X11592500Y-15880929D01*
X11578214Y-15809500D01*
X11578214Y-15752357D01*
X11592500Y-15680929D01*
X11606785Y-15638071D01*
X11621071Y-15609500D01*
X11649643Y-15566643D01*
X11663928Y-15552357D01*
X11906785Y-15695214D02*
X11906785Y-15895214D01*
X11835357Y-15580929D02*
X11763928Y-15795214D01*
X11949643Y-15795214D01*
X12292500Y-15895214D02*
X12292500Y-15595214D01*
X12421071Y-15895214D02*
X12421071Y-15738071D01*
X12406785Y-15709500D01*
X12378214Y-15695214D01*
X12335357Y-15695214D01*
X12306785Y-15709500D01*
X12292500Y-15723786D01*
X12606785Y-15895214D02*
X12578214Y-15880929D01*
X12563928Y-15866643D01*
X12549643Y-15838071D01*
X12549643Y-15752357D01*
X12563928Y-15723786D01*
X12578214Y-15709500D01*
X12606785Y-15695214D01*
X12649643Y-15695214D01*
X12678214Y-15709500D01*
X12692500Y-15723786D01*
X12706785Y-15752357D01*
X12706785Y-15838071D01*
X12692500Y-15866643D01*
X12678214Y-15880929D01*
X12649643Y-15895214D01*
X12606785Y-15895214D01*
X12878214Y-15895214D02*
X12849643Y-15880929D01*
X12835357Y-15852357D01*
X12835357Y-15595214D01*
X13106786Y-15880929D02*
X13078214Y-15895214D01*
X13021071Y-15895214D01*
X12992500Y-15880929D01*
X12978214Y-15852357D01*
X12978214Y-15738071D01*
X12992500Y-15709500D01*
X13021071Y-15695214D01*
X13078214Y-15695214D01*
X13106786Y-15709500D01*
X13121071Y-15738071D01*
X13121071Y-15766643D01*
X12978214Y-15795214D01*
X13235357Y-15880929D02*
X13263928Y-15895214D01*
X13321071Y-15895214D01*
X13349643Y-15880929D01*
X13363928Y-15852357D01*
X13363928Y-15838071D01*
X13349643Y-15809500D01*
X13321071Y-15795214D01*
X13278214Y-15795214D01*
X13249643Y-15780929D01*
X13235357Y-15752357D01*
X13235357Y-15738071D01*
X13249643Y-15709500D01*
X13278214Y-15695214D01*
X13321071Y-15695214D01*
X13349643Y-15709500D01*
X13463928Y-16009500D02*
X13478214Y-15995214D01*
X13506786Y-15952357D01*
X13521071Y-15923786D01*
X13535357Y-15880929D01*
X13549643Y-15809500D01*
X13549643Y-15752357D01*
X13535357Y-15680929D01*
X13521071Y-15638071D01*
X13506786Y-15609500D01*
X13478214Y-15566643D01*
X13463928Y-15552357D01*
X6977856Y-16190856D02*
X6977856Y-16120144D01*
X6907144Y-16120144D01*
X6907144Y-16190856D01*
X6977856Y-16190856D01*
X7421071Y-16291214D02*
X7249643Y-16291214D01*
X7335357Y-16291214D02*
X7335357Y-15991214D01*
X7306786Y-16034071D01*
X7278214Y-16062643D01*
X7249643Y-16076929D01*
X7549643Y-16262643D02*
X7563928Y-16276929D01*
X7549643Y-16291214D01*
X7535357Y-16276929D01*
X7549643Y-16262643D01*
X7549643Y-16291214D01*
X7749643Y-15991214D02*
X7778214Y-15991214D01*
X7806786Y-16005500D01*
X7821071Y-16019786D01*
X7835357Y-16048357D01*
X7849643Y-16105500D01*
X7849643Y-16176929D01*
X7835357Y-16234071D01*
X7821071Y-16262643D01*
X7806786Y-16276929D01*
X7778214Y-16291214D01*
X7749643Y-16291214D01*
X7721071Y-16276929D01*
X7706786Y-16262643D01*
X7692500Y-16234071D01*
X7678214Y-16176929D01*
X7678214Y-16105500D01*
X7692500Y-16048357D01*
X7706786Y-16019786D01*
X7721071Y-16005500D01*
X7749643Y-15991214D01*
X8035357Y-15991214D02*
X8063928Y-15991214D01*
X8092500Y-16005500D01*
X8106786Y-16019786D01*
X8121071Y-16048357D01*
X8135357Y-16105500D01*
X8135357Y-16176929D01*
X8121071Y-16234071D01*
X8106786Y-16262643D01*
X8092500Y-16276929D01*
X8063928Y-16291214D01*
X8035357Y-16291214D01*
X8006786Y-16276929D01*
X7992500Y-16262643D01*
X7978214Y-16234071D01*
X7963928Y-16176929D01*
X7963928Y-16105500D01*
X7978214Y-16048357D01*
X7992500Y-16019786D01*
X8006786Y-16005500D01*
X8035357Y-15991214D01*
X8263928Y-16291214D02*
X8263928Y-16091214D01*
X8263928Y-16119786D02*
X8278214Y-16105500D01*
X8306786Y-16091214D01*
X8349643Y-16091214D01*
X8378214Y-16105500D01*
X8392500Y-16134071D01*
X8392500Y-16291214D01*
X8392500Y-16134071D02*
X8406786Y-16105500D01*
X8435357Y-16091214D01*
X8478214Y-16091214D01*
X8506786Y-16105500D01*
X8521071Y-16134071D01*
X8521071Y-16291214D01*
X8663929Y-16291214D02*
X8663929Y-16091214D01*
X8663929Y-16119786D02*
X8678214Y-16105500D01*
X8706786Y-16091214D01*
X8749643Y-16091214D01*
X8778214Y-16105500D01*
X8792500Y-16134071D01*
X8792500Y-16291214D01*
X8792500Y-16134071D02*
X8806786Y-16105500D01*
X8835357Y-16091214D01*
X8878214Y-16091214D01*
X8906786Y-16105500D01*
X8921071Y-16134071D01*
X8921071Y-16291214D01*
X9506786Y-15976929D02*
X9249643Y-16362643D01*
X9892500Y-15991214D02*
X9921071Y-15991214D01*
X9949643Y-16005500D01*
X9963928Y-16019786D01*
X9978214Y-16048357D01*
X9992500Y-16105500D01*
X9992500Y-16176929D01*
X9978214Y-16234071D01*
X9963928Y-16262643D01*
X9949643Y-16276929D01*
X9921071Y-16291214D01*
X9892500Y-16291214D01*
X9863928Y-16276929D01*
X9849643Y-16262643D01*
X9835357Y-16234071D01*
X9821071Y-16176929D01*
X9821071Y-16105500D01*
X9835357Y-16048357D01*
X9849643Y-16019786D01*
X9863928Y-16005500D01*
X9892500Y-15991214D01*
X10121071Y-16262643D02*
X10135357Y-16276929D01*
X10121071Y-16291214D01*
X10106786Y-16276929D01*
X10121071Y-16262643D01*
X10121071Y-16291214D01*
X10321071Y-15991214D02*
X10349643Y-15991214D01*
X10378214Y-16005500D01*
X10392500Y-16019786D01*
X10406786Y-16048357D01*
X10421071Y-16105500D01*
X10421071Y-16176929D01*
X10406786Y-16234071D01*
X10392500Y-16262643D01*
X10378214Y-16276929D01*
X10349643Y-16291214D01*
X10321071Y-16291214D01*
X10292500Y-16276929D01*
X10278214Y-16262643D01*
X10263928Y-16234071D01*
X10249643Y-16176929D01*
X10249643Y-16105500D01*
X10263928Y-16048357D01*
X10278214Y-16019786D01*
X10292500Y-16005500D01*
X10321071Y-15991214D01*
X10521071Y-15991214D02*
X10706786Y-15991214D01*
X10606786Y-16105500D01*
X10649643Y-16105500D01*
X10678214Y-16119786D01*
X10692500Y-16134071D01*
X10706786Y-16162643D01*
X10706786Y-16234071D01*
X10692500Y-16262643D01*
X10678214Y-16276929D01*
X10649643Y-16291214D01*
X10563928Y-16291214D01*
X10535357Y-16276929D01*
X10521071Y-16262643D01*
X10849643Y-16291214D02*
X10906786Y-16291214D01*
X10935357Y-16276929D01*
X10949643Y-16262643D01*
X10978214Y-16219786D01*
X10992500Y-16162643D01*
X10992500Y-16048357D01*
X10978214Y-16019786D01*
X10963928Y-16005500D01*
X10935357Y-15991214D01*
X10878214Y-15991214D01*
X10849643Y-16005500D01*
X10835357Y-16019786D01*
X10821071Y-16048357D01*
X10821071Y-16119786D01*
X10835357Y-16148357D01*
X10849643Y-16162643D01*
X10878214Y-16176929D01*
X10935357Y-16176929D01*
X10963928Y-16162643D01*
X10978214Y-16148357D01*
X10992500Y-16119786D01*
X11106786Y-15991214D02*
X11106786Y-16048357D01*
X11221071Y-15991214D02*
X11221071Y-16048357D01*
X11663928Y-16405500D02*
X11649643Y-16391214D01*
X11621071Y-16348357D01*
X11606785Y-16319786D01*
X11592500Y-16276929D01*
X11578214Y-16205500D01*
X11578214Y-16148357D01*
X11592500Y-16076929D01*
X11606785Y-16034071D01*
X11621071Y-16005500D01*
X11649643Y-15962643D01*
X11663928Y-15948357D01*
X11821071Y-16119786D02*
X11792500Y-16105500D01*
X11778214Y-16091214D01*
X11763928Y-16062643D01*
X11763928Y-16048357D01*
X11778214Y-16019786D01*
X11792500Y-16005500D01*
X11821071Y-15991214D01*
X11878214Y-15991214D01*
X11906785Y-16005500D01*
X11921071Y-16019786D01*
X11935357Y-16048357D01*
X11935357Y-16062643D01*
X11921071Y-16091214D01*
X11906785Y-16105500D01*
X11878214Y-16119786D01*
X11821071Y-16119786D01*
X11792500Y-16134071D01*
X11778214Y-16148357D01*
X11763928Y-16176929D01*
X11763928Y-16234071D01*
X11778214Y-16262643D01*
X11792500Y-16276929D01*
X11821071Y-16291214D01*
X11878214Y-16291214D01*
X11906785Y-16276929D01*
X11921071Y-16262643D01*
X11935357Y-16234071D01*
X11935357Y-16176929D01*
X11921071Y-16148357D01*
X11906785Y-16134071D01*
X11878214Y-16119786D01*
X12035357Y-15991214D02*
X12221071Y-15991214D01*
X12121071Y-16105500D01*
X12163928Y-16105500D01*
X12192500Y-16119786D01*
X12206785Y-16134071D01*
X12221071Y-16162643D01*
X12221071Y-16234071D01*
X12206785Y-16262643D01*
X12192500Y-16276929D01*
X12163928Y-16291214D01*
X12078214Y-16291214D01*
X12049643Y-16276929D01*
X12035357Y-16262643D01*
X12578214Y-16291214D02*
X12578214Y-15991214D01*
X12706785Y-16291214D02*
X12706785Y-16134071D01*
X12692500Y-16105500D01*
X12663928Y-16091214D01*
X12621071Y-16091214D01*
X12592500Y-16105500D01*
X12578214Y-16119786D01*
X12892500Y-16291214D02*
X12863928Y-16276929D01*
X12849643Y-16262643D01*
X12835357Y-16234071D01*
X12835357Y-16148357D01*
X12849643Y-16119786D01*
X12863928Y-16105500D01*
X12892500Y-16091214D01*
X12935357Y-16091214D01*
X12963928Y-16105500D01*
X12978214Y-16119786D01*
X12992500Y-16148357D01*
X12992500Y-16234071D01*
X12978214Y-16262643D01*
X12963928Y-16276929D01*
X12935357Y-16291214D01*
X12892500Y-16291214D01*
X13163928Y-16291214D02*
X13135357Y-16276929D01*
X13121071Y-16248357D01*
X13121071Y-15991214D01*
X13392500Y-16276929D02*
X13363928Y-16291214D01*
X13306786Y-16291214D01*
X13278214Y-16276929D01*
X13263928Y-16248357D01*
X13263928Y-16134071D01*
X13278214Y-16105500D01*
X13306786Y-16091214D01*
X13363928Y-16091214D01*
X13392500Y-16105500D01*
X13406786Y-16134071D01*
X13406786Y-16162643D01*
X13263928Y-16191214D01*
X13521071Y-16276929D02*
X13549643Y-16291214D01*
X13606786Y-16291214D01*
X13635357Y-16276929D01*
X13649643Y-16248357D01*
X13649643Y-16234071D01*
X13635357Y-16205500D01*
X13606786Y-16191214D01*
X13563928Y-16191214D01*
X13535357Y-16176929D01*
X13521071Y-16148357D01*
X13521071Y-16134071D01*
X13535357Y-16105500D01*
X13563928Y-16091214D01*
X13606786Y-16091214D01*
X13635357Y-16105500D01*
X13749643Y-16405500D02*
X13763928Y-16391214D01*
X13792500Y-16348357D01*
X13806786Y-16319786D01*
X13821071Y-16276929D01*
X13835357Y-16205500D01*
X13835357Y-16148357D01*
X13821071Y-16076929D01*
X13806786Y-16034071D01*
X13792500Y-16005500D01*
X13763928Y-15962643D01*
X13749643Y-15948357D01*
X6932500Y-16611500D02*
X6992500Y-16551500D01*
X6932500Y-16491500D01*
X6872500Y-16551500D01*
X6932500Y-16611500D01*
X7421071Y-16687214D02*
X7249643Y-16687214D01*
X7335357Y-16687214D02*
X7335357Y-16387214D01*
X7306786Y-16430071D01*
X7278214Y-16458643D01*
X7249643Y-16472929D01*
X7549643Y-16658643D02*
X7563928Y-16672929D01*
X7549643Y-16687214D01*
X7535357Y-16672929D01*
X7549643Y-16658643D01*
X7549643Y-16687214D01*
X7678214Y-16415786D02*
X7692500Y-16401500D01*
X7721071Y-16387214D01*
X7792500Y-16387214D01*
X7821071Y-16401500D01*
X7835357Y-16415786D01*
X7849643Y-16444357D01*
X7849643Y-16472929D01*
X7835357Y-16515786D01*
X7663928Y-16687214D01*
X7849643Y-16687214D01*
X8035357Y-16387214D02*
X8063928Y-16387214D01*
X8092500Y-16401500D01*
X8106786Y-16415786D01*
X8121071Y-16444357D01*
X8135357Y-16501500D01*
X8135357Y-16572929D01*
X8121071Y-16630071D01*
X8106786Y-16658643D01*
X8092500Y-16672929D01*
X8063928Y-16687214D01*
X8035357Y-16687214D01*
X8006786Y-16672929D01*
X7992500Y-16658643D01*
X7978214Y-16630071D01*
X7963928Y-16572929D01*
X7963928Y-16501500D01*
X7978214Y-16444357D01*
X7992500Y-16415786D01*
X8006786Y-16401500D01*
X8035357Y-16387214D01*
X8263928Y-16687214D02*
X8263928Y-16487214D01*
X8263928Y-16515786D02*
X8278214Y-16501500D01*
X8306786Y-16487214D01*
X8349643Y-16487214D01*
X8378214Y-16501500D01*
X8392500Y-16530071D01*
X8392500Y-16687214D01*
X8392500Y-16530071D02*
X8406786Y-16501500D01*
X8435357Y-16487214D01*
X8478214Y-16487214D01*
X8506786Y-16501500D01*
X8521071Y-16530071D01*
X8521071Y-16687214D01*
X8663929Y-16687214D02*
X8663929Y-16487214D01*
X8663929Y-16515786D02*
X8678214Y-16501500D01*
X8706786Y-16487214D01*
X8749643Y-16487214D01*
X8778214Y-16501500D01*
X8792500Y-16530071D01*
X8792500Y-16687214D01*
X8792500Y-16530071D02*
X8806786Y-16501500D01*
X8835357Y-16487214D01*
X8878214Y-16487214D01*
X8906786Y-16501500D01*
X8921071Y-16530071D01*
X8921071Y-16687214D01*
X9506786Y-16372929D02*
X9249643Y-16758643D01*
X9892500Y-16387214D02*
X9921071Y-16387214D01*
X9949643Y-16401500D01*
X9963928Y-16415786D01*
X9978214Y-16444357D01*
X9992500Y-16501500D01*
X9992500Y-16572929D01*
X9978214Y-16630071D01*
X9963928Y-16658643D01*
X9949643Y-16672929D01*
X9921071Y-16687214D01*
X9892500Y-16687214D01*
X9863928Y-16672929D01*
X9849643Y-16658643D01*
X9835357Y-16630071D01*
X9821071Y-16572929D01*
X9821071Y-16501500D01*
X9835357Y-16444357D01*
X9849643Y-16415786D01*
X9863928Y-16401500D01*
X9892500Y-16387214D01*
X10121071Y-16658643D02*
X10135357Y-16672929D01*
X10121071Y-16687214D01*
X10106786Y-16672929D01*
X10121071Y-16658643D01*
X10121071Y-16687214D01*
X10321071Y-16387214D02*
X10349643Y-16387214D01*
X10378214Y-16401500D01*
X10392500Y-16415786D01*
X10406786Y-16444357D01*
X10421071Y-16501500D01*
X10421071Y-16572929D01*
X10406786Y-16630071D01*
X10392500Y-16658643D01*
X10378214Y-16672929D01*
X10349643Y-16687214D01*
X10321071Y-16687214D01*
X10292500Y-16672929D01*
X10278214Y-16658643D01*
X10263928Y-16630071D01*
X10249643Y-16572929D01*
X10249643Y-16501500D01*
X10263928Y-16444357D01*
X10278214Y-16415786D01*
X10292500Y-16401500D01*
X10321071Y-16387214D01*
X10678214Y-16487214D02*
X10678214Y-16687214D01*
X10606786Y-16372929D02*
X10535357Y-16587214D01*
X10721071Y-16587214D01*
X10806786Y-16387214D02*
X11006786Y-16387214D01*
X10878214Y-16687214D01*
X11106786Y-16387214D02*
X11106786Y-16444357D01*
X11221071Y-16387214D02*
X11221071Y-16444357D01*
X11663928Y-16801500D02*
X11649643Y-16787214D01*
X11621071Y-16744357D01*
X11606785Y-16715786D01*
X11592500Y-16672929D01*
X11578214Y-16601500D01*
X11578214Y-16544357D01*
X11592500Y-16472929D01*
X11606785Y-16430071D01*
X11621071Y-16401500D01*
X11649643Y-16358643D01*
X11663928Y-16344357D01*
X11749643Y-16387214D02*
X11935357Y-16387214D01*
X11835357Y-16501500D01*
X11878214Y-16501500D01*
X11906785Y-16515786D01*
X11921071Y-16530071D01*
X11935357Y-16558643D01*
X11935357Y-16630071D01*
X11921071Y-16658643D01*
X11906785Y-16672929D01*
X11878214Y-16687214D01*
X11792500Y-16687214D01*
X11763928Y-16672929D01*
X11749643Y-16658643D01*
X12035357Y-16387214D02*
X12221071Y-16387214D01*
X12121071Y-16501500D01*
X12163928Y-16501500D01*
X12192500Y-16515786D01*
X12206785Y-16530071D01*
X12221071Y-16558643D01*
X12221071Y-16630071D01*
X12206785Y-16658643D01*
X12192500Y-16672929D01*
X12163928Y-16687214D01*
X12078214Y-16687214D01*
X12049643Y-16672929D01*
X12035357Y-16658643D01*
X12578214Y-16687214D02*
X12578214Y-16387214D01*
X12706785Y-16687214D02*
X12706785Y-16530071D01*
X12692500Y-16501500D01*
X12663928Y-16487214D01*
X12621071Y-16487214D01*
X12592500Y-16501500D01*
X12578214Y-16515786D01*
X12892500Y-16687214D02*
X12863928Y-16672929D01*
X12849643Y-16658643D01*
X12835357Y-16630071D01*
X12835357Y-16544357D01*
X12849643Y-16515786D01*
X12863928Y-16501500D01*
X12892500Y-16487214D01*
X12935357Y-16487214D01*
X12963928Y-16501500D01*
X12978214Y-16515786D01*
X12992500Y-16544357D01*
X12992500Y-16630071D01*
X12978214Y-16658643D01*
X12963928Y-16672929D01*
X12935357Y-16687214D01*
X12892500Y-16687214D01*
X13163928Y-16687214D02*
X13135357Y-16672929D01*
X13121071Y-16644357D01*
X13121071Y-16387214D01*
X13392500Y-16672929D02*
X13363928Y-16687214D01*
X13306786Y-16687214D01*
X13278214Y-16672929D01*
X13263928Y-16644357D01*
X13263928Y-16530071D01*
X13278214Y-16501500D01*
X13306786Y-16487214D01*
X13363928Y-16487214D01*
X13392500Y-16501500D01*
X13406786Y-16530071D01*
X13406786Y-16558643D01*
X13263928Y-16587214D01*
X13521071Y-16672929D02*
X13549643Y-16687214D01*
X13606786Y-16687214D01*
X13635357Y-16672929D01*
X13649643Y-16644357D01*
X13649643Y-16630071D01*
X13635357Y-16601500D01*
X13606786Y-16587214D01*
X13563928Y-16587214D01*
X13535357Y-16572929D01*
X13521071Y-16544357D01*
X13521071Y-16530071D01*
X13535357Y-16501500D01*
X13563928Y-16487214D01*
X13606786Y-16487214D01*
X13635357Y-16501500D01*
X13749643Y-16801500D02*
X13763928Y-16787214D01*
X13792500Y-16744357D01*
X13806786Y-16715786D01*
X13821071Y-16672929D01*
X13835357Y-16601500D01*
X13835357Y-16544357D01*
X13821071Y-16472929D01*
X13806786Y-16430071D01*
X13792500Y-16401500D01*
X13763928Y-16358643D01*
X13749643Y-16344357D01*
X6865500Y-16884000D02*
X6992500Y-17011000D01*
X6992500Y-16884000D02*
X6865500Y-17011000D01*
X6992500Y-16947500D02*
G75*
G03X6992500Y-16947500I-63500J0D01*
G01*
X7421071Y-17083214D02*
X7249643Y-17083214D01*
X7335357Y-17083214D02*
X7335357Y-16783214D01*
X7306786Y-16826072D01*
X7278214Y-16854643D01*
X7249643Y-16868929D01*
X7549643Y-17054643D02*
X7563928Y-17068929D01*
X7549643Y-17083214D01*
X7535357Y-17068929D01*
X7549643Y-17054643D01*
X7549643Y-17083214D01*
X7678214Y-16811786D02*
X7692500Y-16797500D01*
X7721071Y-16783214D01*
X7792500Y-16783214D01*
X7821071Y-16797500D01*
X7835357Y-16811786D01*
X7849643Y-16840357D01*
X7849643Y-16868929D01*
X7835357Y-16911786D01*
X7663928Y-17083214D01*
X7849643Y-17083214D01*
X7949643Y-16783214D02*
X8149643Y-16783214D01*
X8021071Y-17083214D01*
X8263928Y-17083214D02*
X8263928Y-16883214D01*
X8263928Y-16911786D02*
X8278214Y-16897500D01*
X8306786Y-16883214D01*
X8349643Y-16883214D01*
X8378214Y-16897500D01*
X8392500Y-16926072D01*
X8392500Y-17083214D01*
X8392500Y-16926072D02*
X8406786Y-16897500D01*
X8435357Y-16883214D01*
X8478214Y-16883214D01*
X8506786Y-16897500D01*
X8521071Y-16926072D01*
X8521071Y-17083214D01*
X8663929Y-17083214D02*
X8663929Y-16883214D01*
X8663929Y-16911786D02*
X8678214Y-16897500D01*
X8706786Y-16883214D01*
X8749643Y-16883214D01*
X8778214Y-16897500D01*
X8792500Y-16926072D01*
X8792500Y-17083214D01*
X8792500Y-16926072D02*
X8806786Y-16897500D01*
X8835357Y-16883214D01*
X8878214Y-16883214D01*
X8906786Y-16897500D01*
X8921071Y-16926072D01*
X8921071Y-17083214D01*
X9506786Y-16768929D02*
X9249643Y-17154643D01*
X9892500Y-16783214D02*
X9921071Y-16783214D01*
X9949643Y-16797500D01*
X9963928Y-16811786D01*
X9978214Y-16840357D01*
X9992500Y-16897500D01*
X9992500Y-16968929D01*
X9978214Y-17026072D01*
X9963928Y-17054643D01*
X9949643Y-17068929D01*
X9921071Y-17083214D01*
X9892500Y-17083214D01*
X9863928Y-17068929D01*
X9849643Y-17054643D01*
X9835357Y-17026072D01*
X9821071Y-16968929D01*
X9821071Y-16897500D01*
X9835357Y-16840357D01*
X9849643Y-16811786D01*
X9863928Y-16797500D01*
X9892500Y-16783214D01*
X10121071Y-17054643D02*
X10135357Y-17068929D01*
X10121071Y-17083214D01*
X10106786Y-17068929D01*
X10121071Y-17054643D01*
X10121071Y-17083214D01*
X10321071Y-16783214D02*
X10349643Y-16783214D01*
X10378214Y-16797500D01*
X10392500Y-16811786D01*
X10406786Y-16840357D01*
X10421071Y-16897500D01*
X10421071Y-16968929D01*
X10406786Y-17026072D01*
X10392500Y-17054643D01*
X10378214Y-17068929D01*
X10349643Y-17083214D01*
X10321071Y-17083214D01*
X10292500Y-17068929D01*
X10278214Y-17054643D01*
X10263928Y-17026072D01*
X10249643Y-16968929D01*
X10249643Y-16897500D01*
X10263928Y-16840357D01*
X10278214Y-16811786D01*
X10292500Y-16797500D01*
X10321071Y-16783214D01*
X10692500Y-16783214D02*
X10549643Y-16783214D01*
X10535357Y-16926072D01*
X10549643Y-16911786D01*
X10578214Y-16897500D01*
X10649643Y-16897500D01*
X10678214Y-16911786D01*
X10692500Y-16926072D01*
X10706786Y-16954643D01*
X10706786Y-17026072D01*
X10692500Y-17054643D01*
X10678214Y-17068929D01*
X10649643Y-17083214D01*
X10578214Y-17083214D01*
X10549643Y-17068929D01*
X10535357Y-17054643D01*
X10892500Y-16783214D02*
X10921071Y-16783214D01*
X10949643Y-16797500D01*
X10963928Y-16811786D01*
X10978214Y-16840357D01*
X10992500Y-16897500D01*
X10992500Y-16968929D01*
X10978214Y-17026072D01*
X10963928Y-17054643D01*
X10949643Y-17068929D01*
X10921071Y-17083214D01*
X10892500Y-17083214D01*
X10863928Y-17068929D01*
X10849643Y-17054643D01*
X10835357Y-17026072D01*
X10821071Y-16968929D01*
X10821071Y-16897500D01*
X10835357Y-16840357D01*
X10849643Y-16811786D01*
X10863928Y-16797500D01*
X10892500Y-16783214D01*
X11106786Y-16783214D02*
X11106786Y-16840357D01*
X11221071Y-16783214D02*
X11221071Y-16840357D01*
X11663928Y-17197500D02*
X11649643Y-17183214D01*
X11621071Y-17140357D01*
X11606785Y-17111786D01*
X11592500Y-17068929D01*
X11578214Y-16997500D01*
X11578214Y-16940357D01*
X11592500Y-16868929D01*
X11606785Y-16826072D01*
X11621071Y-16797500D01*
X11649643Y-16754643D01*
X11663928Y-16740357D01*
X11935357Y-17083214D02*
X11763928Y-17083214D01*
X11849643Y-17083214D02*
X11849643Y-16783214D01*
X11821071Y-16826072D01*
X11792500Y-16854643D01*
X11763928Y-16868929D01*
X12292500Y-17083214D02*
X12292500Y-16783214D01*
X12421071Y-17083214D02*
X12421071Y-16926072D01*
X12406785Y-16897500D01*
X12378214Y-16883214D01*
X12335357Y-16883214D01*
X12306785Y-16897500D01*
X12292500Y-16911786D01*
X12606785Y-17083214D02*
X12578214Y-17068929D01*
X12563928Y-17054643D01*
X12549643Y-17026072D01*
X12549643Y-16940357D01*
X12563928Y-16911786D01*
X12578214Y-16897500D01*
X12606785Y-16883214D01*
X12649643Y-16883214D01*
X12678214Y-16897500D01*
X12692500Y-16911786D01*
X12706785Y-16940357D01*
X12706785Y-17026072D01*
X12692500Y-17054643D01*
X12678214Y-17068929D01*
X12649643Y-17083214D01*
X12606785Y-17083214D01*
X12878214Y-17083214D02*
X12849643Y-17068929D01*
X12835357Y-17040357D01*
X12835357Y-16783214D01*
X13106786Y-17068929D02*
X13078214Y-17083214D01*
X13021071Y-17083214D01*
X12992500Y-17068929D01*
X12978214Y-17040357D01*
X12978214Y-16926072D01*
X12992500Y-16897500D01*
X13021071Y-16883214D01*
X13078214Y-16883214D01*
X13106786Y-16897500D01*
X13121071Y-16926072D01*
X13121071Y-16954643D01*
X12978214Y-16983214D01*
X13221071Y-17197500D02*
X13235357Y-17183214D01*
X13263928Y-17140357D01*
X13278214Y-17111786D01*
X13292500Y-17068929D01*
X13306786Y-16997500D01*
X13306786Y-16940357D01*
X13292500Y-16868929D01*
X13278214Y-16826072D01*
X13263928Y-16797500D01*
X13235357Y-16754643D01*
X13221071Y-16740357D01*
X6842500Y-17268500D02*
X6992500Y-17418500D01*
X6992500Y-17268500D02*
X6842500Y-17418500D01*
X6917500Y-17268500D02*
X6917500Y-17418500D01*
X6842500Y-17343500D02*
X6992500Y-17343500D01*
X7421071Y-17479214D02*
X7249643Y-17479214D01*
X7335357Y-17479214D02*
X7335357Y-17179214D01*
X7306786Y-17222072D01*
X7278214Y-17250643D01*
X7249643Y-17264929D01*
X7549643Y-17450643D02*
X7563928Y-17464929D01*
X7549643Y-17479214D01*
X7535357Y-17464929D01*
X7549643Y-17450643D01*
X7549643Y-17479214D01*
X7835357Y-17179214D02*
X7692500Y-17179214D01*
X7678214Y-17322072D01*
X7692500Y-17307786D01*
X7721071Y-17293500D01*
X7792500Y-17293500D01*
X7821071Y-17307786D01*
X7835357Y-17322072D01*
X7849643Y-17350643D01*
X7849643Y-17422072D01*
X7835357Y-17450643D01*
X7821071Y-17464929D01*
X7792500Y-17479214D01*
X7721071Y-17479214D01*
X7692500Y-17464929D01*
X7678214Y-17450643D01*
X8035357Y-17179214D02*
X8063928Y-17179214D01*
X8092500Y-17193500D01*
X8106786Y-17207786D01*
X8121071Y-17236357D01*
X8135357Y-17293500D01*
X8135357Y-17364929D01*
X8121071Y-17422072D01*
X8106786Y-17450643D01*
X8092500Y-17464929D01*
X8063928Y-17479214D01*
X8035357Y-17479214D01*
X8006786Y-17464929D01*
X7992500Y-17450643D01*
X7978214Y-17422072D01*
X7963928Y-17364929D01*
X7963928Y-17293500D01*
X7978214Y-17236357D01*
X7992500Y-17207786D01*
X8006786Y-17193500D01*
X8035357Y-17179214D01*
X8263928Y-17479214D02*
X8263928Y-17279214D01*
X8263928Y-17307786D02*
X8278214Y-17293500D01*
X8306786Y-17279214D01*
X8349643Y-17279214D01*
X8378214Y-17293500D01*
X8392500Y-17322072D01*
X8392500Y-17479214D01*
X8392500Y-17322072D02*
X8406786Y-17293500D01*
X8435357Y-17279214D01*
X8478214Y-17279214D01*
X8506786Y-17293500D01*
X8521071Y-17322072D01*
X8521071Y-17479214D01*
X8663929Y-17479214D02*
X8663929Y-17279214D01*
X8663929Y-17307786D02*
X8678214Y-17293500D01*
X8706786Y-17279214D01*
X8749643Y-17279214D01*
X8778214Y-17293500D01*
X8792500Y-17322072D01*
X8792500Y-17479214D01*
X8792500Y-17322072D02*
X8806786Y-17293500D01*
X8835357Y-17279214D01*
X8878214Y-17279214D01*
X8906786Y-17293500D01*
X8921071Y-17322072D01*
X8921071Y-17479214D01*
X9506786Y-17164929D02*
X9249643Y-17550643D01*
X9892500Y-17179214D02*
X9921071Y-17179214D01*
X9949643Y-17193500D01*
X9963928Y-17207786D01*
X9978214Y-17236357D01*
X9992500Y-17293500D01*
X9992500Y-17364929D01*
X9978214Y-17422072D01*
X9963928Y-17450643D01*
X9949643Y-17464929D01*
X9921071Y-17479214D01*
X9892500Y-17479214D01*
X9863928Y-17464929D01*
X9849643Y-17450643D01*
X9835357Y-17422072D01*
X9821071Y-17364929D01*
X9821071Y-17293500D01*
X9835357Y-17236357D01*
X9849643Y-17207786D01*
X9863928Y-17193500D01*
X9892500Y-17179214D01*
X10121071Y-17450643D02*
X10135357Y-17464929D01*
X10121071Y-17479214D01*
X10106786Y-17464929D01*
X10121071Y-17450643D01*
X10121071Y-17479214D01*
X10321071Y-17179214D02*
X10349643Y-17179214D01*
X10378214Y-17193500D01*
X10392500Y-17207786D01*
X10406786Y-17236357D01*
X10421071Y-17293500D01*
X10421071Y-17364929D01*
X10406786Y-17422072D01*
X10392500Y-17450643D01*
X10378214Y-17464929D01*
X10349643Y-17479214D01*
X10321071Y-17479214D01*
X10292500Y-17464929D01*
X10278214Y-17450643D01*
X10263928Y-17422072D01*
X10249643Y-17364929D01*
X10249643Y-17293500D01*
X10263928Y-17236357D01*
X10278214Y-17207786D01*
X10292500Y-17193500D01*
X10321071Y-17179214D01*
X10692500Y-17179214D02*
X10549643Y-17179214D01*
X10535357Y-17322072D01*
X10549643Y-17307786D01*
X10578214Y-17293500D01*
X10649643Y-17293500D01*
X10678214Y-17307786D01*
X10692500Y-17322072D01*
X10706786Y-17350643D01*
X10706786Y-17422072D01*
X10692500Y-17450643D01*
X10678214Y-17464929D01*
X10649643Y-17479214D01*
X10578214Y-17479214D01*
X10549643Y-17464929D01*
X10535357Y-17450643D01*
X10849643Y-17479214D02*
X10906786Y-17479214D01*
X10935357Y-17464929D01*
X10949643Y-17450643D01*
X10978214Y-17407786D01*
X10992500Y-17350643D01*
X10992500Y-17236357D01*
X10978214Y-17207786D01*
X10963928Y-17193500D01*
X10935357Y-17179214D01*
X10878214Y-17179214D01*
X10849643Y-17193500D01*
X10835357Y-17207786D01*
X10821071Y-17236357D01*
X10821071Y-17307786D01*
X10835357Y-17336357D01*
X10849643Y-17350643D01*
X10878214Y-17364929D01*
X10935357Y-17364929D01*
X10963928Y-17350643D01*
X10978214Y-17336357D01*
X10992500Y-17307786D01*
X11106786Y-17179214D02*
X11106786Y-17236357D01*
X11221071Y-17179214D02*
X11221071Y-17236357D01*
X11663928Y-17593500D02*
X11649643Y-17579214D01*
X11621071Y-17536357D01*
X11606785Y-17507786D01*
X11592500Y-17464929D01*
X11578214Y-17393500D01*
X11578214Y-17336357D01*
X11592500Y-17264929D01*
X11606785Y-17222072D01*
X11621071Y-17193500D01*
X11649643Y-17150643D01*
X11663928Y-17136357D01*
X11763928Y-17207786D02*
X11778214Y-17193500D01*
X11806785Y-17179214D01*
X11878214Y-17179214D01*
X11906785Y-17193500D01*
X11921071Y-17207786D01*
X11935357Y-17236357D01*
X11935357Y-17264929D01*
X11921071Y-17307786D01*
X11749643Y-17479214D01*
X11935357Y-17479214D01*
X12292500Y-17479214D02*
X12292500Y-17179214D01*
X12421071Y-17479214D02*
X12421071Y-17322072D01*
X12406785Y-17293500D01*
X12378214Y-17279214D01*
X12335357Y-17279214D01*
X12306785Y-17293500D01*
X12292500Y-17307786D01*
X12606785Y-17479214D02*
X12578214Y-17464929D01*
X12563928Y-17450643D01*
X12549643Y-17422072D01*
X12549643Y-17336357D01*
X12563928Y-17307786D01*
X12578214Y-17293500D01*
X12606785Y-17279214D01*
X12649643Y-17279214D01*
X12678214Y-17293500D01*
X12692500Y-17307786D01*
X12706785Y-17336357D01*
X12706785Y-17422072D01*
X12692500Y-17450643D01*
X12678214Y-17464929D01*
X12649643Y-17479214D01*
X12606785Y-17479214D01*
X12878214Y-17479214D02*
X12849643Y-17464929D01*
X12835357Y-17436357D01*
X12835357Y-17179214D01*
X13106786Y-17464929D02*
X13078214Y-17479214D01*
X13021071Y-17479214D01*
X12992500Y-17464929D01*
X12978214Y-17436357D01*
X12978214Y-17322072D01*
X12992500Y-17293500D01*
X13021071Y-17279214D01*
X13078214Y-17279214D01*
X13106786Y-17293500D01*
X13121071Y-17322072D01*
X13121071Y-17350643D01*
X12978214Y-17379214D01*
X13235357Y-17464929D02*
X13263928Y-17479214D01*
X13321071Y-17479214D01*
X13349643Y-17464929D01*
X13363928Y-17436357D01*
X13363928Y-17422072D01*
X13349643Y-17393500D01*
X13321071Y-17379214D01*
X13278214Y-17379214D01*
X13249643Y-17364929D01*
X13235357Y-17336357D01*
X13235357Y-17322072D01*
X13249643Y-17293500D01*
X13278214Y-17279214D01*
X13321071Y-17279214D01*
X13349643Y-17293500D01*
X13463928Y-17593500D02*
X13478214Y-17579214D01*
X13506786Y-17536357D01*
X13521071Y-17507786D01*
X13535357Y-17464929D01*
X13549643Y-17393500D01*
X13549643Y-17336357D01*
X13535357Y-17264929D01*
X13521071Y-17222072D01*
X13506786Y-17193500D01*
X13478214Y-17150643D01*
X13463928Y-17136357D01*
X6835500Y-17661000D02*
X6992500Y-17818000D01*
X6992500Y-17661000D02*
X6835500Y-17818000D01*
X6969508Y-17795009D02*
X6969508Y-17683992D01*
X6858491Y-17683992D01*
X6858491Y-17795009D01*
X6969508Y-17795009D01*
X7421071Y-17875214D02*
X7249643Y-17875214D01*
X7335357Y-17875214D02*
X7335357Y-17575214D01*
X7306786Y-17618072D01*
X7278214Y-17646643D01*
X7249643Y-17660929D01*
X7549643Y-17846643D02*
X7563928Y-17860929D01*
X7549643Y-17875214D01*
X7535357Y-17860929D01*
X7549643Y-17846643D01*
X7549643Y-17875214D01*
X7835357Y-17575214D02*
X7692500Y-17575214D01*
X7678214Y-17718072D01*
X7692500Y-17703786D01*
X7721071Y-17689500D01*
X7792500Y-17689500D01*
X7821071Y-17703786D01*
X7835357Y-17718072D01*
X7849643Y-17746643D01*
X7849643Y-17818072D01*
X7835357Y-17846643D01*
X7821071Y-17860929D01*
X7792500Y-17875214D01*
X7721071Y-17875214D01*
X7692500Y-17860929D01*
X7678214Y-17846643D01*
X7949643Y-17575214D02*
X8149643Y-17575214D01*
X8021071Y-17875214D01*
X8263928Y-17875214D02*
X8263928Y-17675214D01*
X8263928Y-17703786D02*
X8278214Y-17689500D01*
X8306786Y-17675214D01*
X8349643Y-17675214D01*
X8378214Y-17689500D01*
X8392500Y-17718072D01*
X8392500Y-17875214D01*
X8392500Y-17718072D02*
X8406786Y-17689500D01*
X8435357Y-17675214D01*
X8478214Y-17675214D01*
X8506786Y-17689500D01*
X8521071Y-17718072D01*
X8521071Y-17875214D01*
X8663929Y-17875214D02*
X8663929Y-17675214D01*
X8663929Y-17703786D02*
X8678214Y-17689500D01*
X8706786Y-17675214D01*
X8749643Y-17675214D01*
X8778214Y-17689500D01*
X8792500Y-17718072D01*
X8792500Y-17875214D01*
X8792500Y-17718072D02*
X8806786Y-17689500D01*
X8835357Y-17675214D01*
X8878214Y-17675214D01*
X8906786Y-17689500D01*
X8921071Y-17718072D01*
X8921071Y-17875214D01*
X9506786Y-17560929D02*
X9249643Y-17946643D01*
X9892500Y-17575214D02*
X9921071Y-17575214D01*
X9949643Y-17589500D01*
X9963928Y-17603786D01*
X9978214Y-17632357D01*
X9992500Y-17689500D01*
X9992500Y-17760929D01*
X9978214Y-17818072D01*
X9963928Y-17846643D01*
X9949643Y-17860929D01*
X9921071Y-17875214D01*
X9892500Y-17875214D01*
X9863928Y-17860929D01*
X9849643Y-17846643D01*
X9835357Y-17818072D01*
X9821071Y-17760929D01*
X9821071Y-17689500D01*
X9835357Y-17632357D01*
X9849643Y-17603786D01*
X9863928Y-17589500D01*
X9892500Y-17575214D01*
X10121071Y-17846643D02*
X10135357Y-17860929D01*
X10121071Y-17875214D01*
X10106786Y-17860929D01*
X10121071Y-17846643D01*
X10121071Y-17875214D01*
X10321071Y-17575214D02*
X10349643Y-17575214D01*
X10378214Y-17589500D01*
X10392500Y-17603786D01*
X10406786Y-17632357D01*
X10421071Y-17689500D01*
X10421071Y-17760929D01*
X10406786Y-17818072D01*
X10392500Y-17846643D01*
X10378214Y-17860929D01*
X10349643Y-17875214D01*
X10321071Y-17875214D01*
X10292500Y-17860929D01*
X10278214Y-17846643D01*
X10263928Y-17818072D01*
X10249643Y-17760929D01*
X10249643Y-17689500D01*
X10263928Y-17632357D01*
X10278214Y-17603786D01*
X10292500Y-17589500D01*
X10321071Y-17575214D01*
X10678214Y-17575214D02*
X10621071Y-17575214D01*
X10592500Y-17589500D01*
X10578214Y-17603786D01*
X10549643Y-17646643D01*
X10535357Y-17703786D01*
X10535357Y-17818072D01*
X10549643Y-17846643D01*
X10563928Y-17860929D01*
X10592500Y-17875214D01*
X10649643Y-17875214D01*
X10678214Y-17860929D01*
X10692500Y-17846643D01*
X10706786Y-17818072D01*
X10706786Y-17746643D01*
X10692500Y-17718072D01*
X10678214Y-17703786D01*
X10649643Y-17689500D01*
X10592500Y-17689500D01*
X10563928Y-17703786D01*
X10549643Y-17718072D01*
X10535357Y-17746643D01*
X10821071Y-17603786D02*
X10835357Y-17589500D01*
X10863928Y-17575214D01*
X10935357Y-17575214D01*
X10963928Y-17589500D01*
X10978214Y-17603786D01*
X10992500Y-17632357D01*
X10992500Y-17660929D01*
X10978214Y-17703786D01*
X10806786Y-17875214D01*
X10992500Y-17875214D01*
X11106786Y-17575214D02*
X11106786Y-17632357D01*
X11221071Y-17575214D02*
X11221071Y-17632357D01*
X11663928Y-17989500D02*
X11649643Y-17975214D01*
X11621071Y-17932357D01*
X11606785Y-17903786D01*
X11592500Y-17860929D01*
X11578214Y-17789500D01*
X11578214Y-17732357D01*
X11592500Y-17660929D01*
X11606785Y-17618072D01*
X11621071Y-17589500D01*
X11649643Y-17546643D01*
X11663928Y-17532357D01*
X11906785Y-17575214D02*
X11849643Y-17575214D01*
X11821071Y-17589500D01*
X11806785Y-17603786D01*
X11778214Y-17646643D01*
X11763928Y-17703786D01*
X11763928Y-17818072D01*
X11778214Y-17846643D01*
X11792500Y-17860929D01*
X11821071Y-17875214D01*
X11878214Y-17875214D01*
X11906785Y-17860929D01*
X11921071Y-17846643D01*
X11935357Y-17818072D01*
X11935357Y-17746643D01*
X11921071Y-17718072D01*
X11906785Y-17703786D01*
X11878214Y-17689500D01*
X11821071Y-17689500D01*
X11792500Y-17703786D01*
X11778214Y-17718072D01*
X11763928Y-17746643D01*
X12292500Y-17875214D02*
X12292500Y-17575214D01*
X12421071Y-17875214D02*
X12421071Y-17718072D01*
X12406785Y-17689500D01*
X12378214Y-17675214D01*
X12335357Y-17675214D01*
X12306785Y-17689500D01*
X12292500Y-17703786D01*
X12606785Y-17875214D02*
X12578214Y-17860929D01*
X12563928Y-17846643D01*
X12549643Y-17818072D01*
X12549643Y-17732357D01*
X12563928Y-17703786D01*
X12578214Y-17689500D01*
X12606785Y-17675214D01*
X12649643Y-17675214D01*
X12678214Y-17689500D01*
X12692500Y-17703786D01*
X12706785Y-17732357D01*
X12706785Y-17818072D01*
X12692500Y-17846643D01*
X12678214Y-17860929D01*
X12649643Y-17875214D01*
X12606785Y-17875214D01*
X12878214Y-17875214D02*
X12849643Y-17860929D01*
X12835357Y-17832357D01*
X12835357Y-17575214D01*
X13106786Y-17860929D02*
X13078214Y-17875214D01*
X13021071Y-17875214D01*
X12992500Y-17860929D01*
X12978214Y-17832357D01*
X12978214Y-17718072D01*
X12992500Y-17689500D01*
X13021071Y-17675214D01*
X13078214Y-17675214D01*
X13106786Y-17689500D01*
X13121071Y-17718072D01*
X13121071Y-17746643D01*
X12978214Y-17775214D01*
X13235357Y-17860929D02*
X13263928Y-17875214D01*
X13321071Y-17875214D01*
X13349643Y-17860929D01*
X13363928Y-17832357D01*
X13363928Y-17818072D01*
X13349643Y-17789500D01*
X13321071Y-17775214D01*
X13278214Y-17775214D01*
X13249643Y-17760929D01*
X13235357Y-17732357D01*
X13235357Y-17718072D01*
X13249643Y-17689500D01*
X13278214Y-17675214D01*
X13321071Y-17675214D01*
X13349643Y-17689500D01*
X13463928Y-17989500D02*
X13478214Y-17975214D01*
X13506786Y-17932357D01*
X13521071Y-17903786D01*
X13535357Y-17860929D01*
X13549643Y-17789500D01*
X13549643Y-17732357D01*
X13535357Y-17660929D01*
X13521071Y-17618072D01*
X13506786Y-17589500D01*
X13478214Y-17546643D01*
X13463928Y-17532357D01*
X6832500Y-18055500D02*
X6992500Y-18215500D01*
X6992500Y-18055500D02*
X6832500Y-18215500D01*
X6912500Y-18215500D02*
X6992500Y-18135500D01*
X6912500Y-18055500D01*
X6832500Y-18135500D01*
X6912500Y-18215500D01*
X7421071Y-18271214D02*
X7249643Y-18271214D01*
X7335357Y-18271214D02*
X7335357Y-17971214D01*
X7306786Y-18014072D01*
X7278214Y-18042643D01*
X7249643Y-18056929D01*
X7549643Y-18242643D02*
X7563928Y-18256929D01*
X7549643Y-18271214D01*
X7535357Y-18256929D01*
X7549643Y-18242643D01*
X7549643Y-18271214D01*
X7821071Y-17971214D02*
X7763928Y-17971214D01*
X7735357Y-17985500D01*
X7721071Y-17999786D01*
X7692500Y-18042643D01*
X7678214Y-18099786D01*
X7678214Y-18214072D01*
X7692500Y-18242643D01*
X7706786Y-18256929D01*
X7735357Y-18271214D01*
X7792500Y-18271214D01*
X7821071Y-18256929D01*
X7835357Y-18242643D01*
X7849643Y-18214072D01*
X7849643Y-18142643D01*
X7835357Y-18114072D01*
X7821071Y-18099786D01*
X7792500Y-18085500D01*
X7735357Y-18085500D01*
X7706786Y-18099786D01*
X7692500Y-18114072D01*
X7678214Y-18142643D01*
X8035357Y-17971214D02*
X8063928Y-17971214D01*
X8092500Y-17985500D01*
X8106786Y-17999786D01*
X8121071Y-18028357D01*
X8135357Y-18085500D01*
X8135357Y-18156929D01*
X8121071Y-18214072D01*
X8106786Y-18242643D01*
X8092500Y-18256929D01*
X8063928Y-18271214D01*
X8035357Y-18271214D01*
X8006786Y-18256929D01*
X7992500Y-18242643D01*
X7978214Y-18214072D01*
X7963928Y-18156929D01*
X7963928Y-18085500D01*
X7978214Y-18028357D01*
X7992500Y-17999786D01*
X8006786Y-17985500D01*
X8035357Y-17971214D01*
X8263928Y-18271214D02*
X8263928Y-18071214D01*
X8263928Y-18099786D02*
X8278214Y-18085500D01*
X8306786Y-18071214D01*
X8349643Y-18071214D01*
X8378214Y-18085500D01*
X8392500Y-18114072D01*
X8392500Y-18271214D01*
X8392500Y-18114072D02*
X8406786Y-18085500D01*
X8435357Y-18071214D01*
X8478214Y-18071214D01*
X8506786Y-18085500D01*
X8521071Y-18114072D01*
X8521071Y-18271214D01*
X8663929Y-18271214D02*
X8663929Y-18071214D01*
X8663929Y-18099786D02*
X8678214Y-18085500D01*
X8706786Y-18071214D01*
X8749643Y-18071214D01*
X8778214Y-18085500D01*
X8792500Y-18114072D01*
X8792500Y-18271214D01*
X8792500Y-18114072D02*
X8806786Y-18085500D01*
X8835357Y-18071214D01*
X8878214Y-18071214D01*
X8906786Y-18085500D01*
X8921071Y-18114072D01*
X8921071Y-18271214D01*
X9506786Y-17956929D02*
X9249643Y-18342643D01*
X9892500Y-17971214D02*
X9921071Y-17971214D01*
X9949643Y-17985500D01*
X9963928Y-17999786D01*
X9978214Y-18028357D01*
X9992500Y-18085500D01*
X9992500Y-18156929D01*
X9978214Y-18214072D01*
X9963928Y-18242643D01*
X9949643Y-18256929D01*
X9921071Y-18271214D01*
X9892500Y-18271214D01*
X9863928Y-18256929D01*
X9849643Y-18242643D01*
X9835357Y-18214072D01*
X9821071Y-18156929D01*
X9821071Y-18085500D01*
X9835357Y-18028357D01*
X9849643Y-17999786D01*
X9863928Y-17985500D01*
X9892500Y-17971214D01*
X10121071Y-18242643D02*
X10135357Y-18256929D01*
X10121071Y-18271214D01*
X10106786Y-18256929D01*
X10121071Y-18242643D01*
X10121071Y-18271214D01*
X10321071Y-17971214D02*
X10349643Y-17971214D01*
X10378214Y-17985500D01*
X10392500Y-17999786D01*
X10406786Y-18028357D01*
X10421071Y-18085500D01*
X10421071Y-18156929D01*
X10406786Y-18214072D01*
X10392500Y-18242643D01*
X10378214Y-18256929D01*
X10349643Y-18271214D01*
X10321071Y-18271214D01*
X10292500Y-18256929D01*
X10278214Y-18242643D01*
X10263928Y-18214072D01*
X10249643Y-18156929D01*
X10249643Y-18085500D01*
X10263928Y-18028357D01*
X10278214Y-17999786D01*
X10292500Y-17985500D01*
X10321071Y-17971214D01*
X10678214Y-17971214D02*
X10621071Y-17971214D01*
X10592500Y-17985500D01*
X10578214Y-17999786D01*
X10549643Y-18042643D01*
X10535357Y-18099786D01*
X10535357Y-18214072D01*
X10549643Y-18242643D01*
X10563928Y-18256929D01*
X10592500Y-18271214D01*
X10649643Y-18271214D01*
X10678214Y-18256929D01*
X10692500Y-18242643D01*
X10706786Y-18214072D01*
X10706786Y-18142643D01*
X10692500Y-18114072D01*
X10678214Y-18099786D01*
X10649643Y-18085500D01*
X10592500Y-18085500D01*
X10563928Y-18099786D01*
X10549643Y-18114072D01*
X10535357Y-18142643D01*
X10806786Y-17971214D02*
X10992500Y-17971214D01*
X10892500Y-18085500D01*
X10935357Y-18085500D01*
X10963928Y-18099786D01*
X10978214Y-18114072D01*
X10992500Y-18142643D01*
X10992500Y-18214072D01*
X10978214Y-18242643D01*
X10963928Y-18256929D01*
X10935357Y-18271214D01*
X10849643Y-18271214D01*
X10821071Y-18256929D01*
X10806786Y-18242643D01*
X11106786Y-17971214D02*
X11106786Y-18028357D01*
X11221071Y-17971214D02*
X11221071Y-18028357D01*
X11663928Y-18385500D02*
X11649643Y-18371214D01*
X11621071Y-18328357D01*
X11606785Y-18299786D01*
X11592500Y-18256929D01*
X11578214Y-18185500D01*
X11578214Y-18128357D01*
X11592500Y-18056929D01*
X11606785Y-18014072D01*
X11621071Y-17985500D01*
X11649643Y-17942643D01*
X11663928Y-17928357D01*
X11935357Y-18271214D02*
X11763928Y-18271214D01*
X11849643Y-18271214D02*
X11849643Y-17971214D01*
X11821071Y-18014072D01*
X11792500Y-18042643D01*
X11763928Y-18056929D01*
X12292500Y-18271214D02*
X12292500Y-17971214D01*
X12421071Y-18271214D02*
X12421071Y-18114072D01*
X12406785Y-18085500D01*
X12378214Y-18071214D01*
X12335357Y-18071214D01*
X12306785Y-18085500D01*
X12292500Y-18099786D01*
X12606785Y-18271214D02*
X12578214Y-18256929D01*
X12563928Y-18242643D01*
X12549643Y-18214072D01*
X12549643Y-18128357D01*
X12563928Y-18099786D01*
X12578214Y-18085500D01*
X12606785Y-18071214D01*
X12649643Y-18071214D01*
X12678214Y-18085500D01*
X12692500Y-18099786D01*
X12706785Y-18128357D01*
X12706785Y-18214072D01*
X12692500Y-18242643D01*
X12678214Y-18256929D01*
X12649643Y-18271214D01*
X12606785Y-18271214D01*
X12878214Y-18271214D02*
X12849643Y-18256929D01*
X12835357Y-18228357D01*
X12835357Y-17971214D01*
X13106786Y-18256929D02*
X13078214Y-18271214D01*
X13021071Y-18271214D01*
X12992500Y-18256929D01*
X12978214Y-18228357D01*
X12978214Y-18114072D01*
X12992500Y-18085500D01*
X13021071Y-18071214D01*
X13078214Y-18071214D01*
X13106786Y-18085500D01*
X13121071Y-18114072D01*
X13121071Y-18142643D01*
X12978214Y-18171214D01*
X13221071Y-18385500D02*
X13235357Y-18371214D01*
X13263928Y-18328357D01*
X13278214Y-18299786D01*
X13292500Y-18256929D01*
X13306786Y-18185500D01*
X13306786Y-18128357D01*
X13292500Y-18056929D01*
X13278214Y-18014072D01*
X13263928Y-17985500D01*
X13235357Y-17942643D01*
X13221071Y-17928357D01*
X6827500Y-18366500D02*
X6827500Y-18696500D01*
X6662500Y-18531500D02*
X6992500Y-18531500D01*
X6992500Y-18531500D02*
G75*
G03X6992500Y-18531500I-165000J0D01*
G01*
X7235357Y-18367214D02*
X7421071Y-18367214D01*
X7321071Y-18481500D01*
X7363928Y-18481500D01*
X7392500Y-18495786D01*
X7406786Y-18510072D01*
X7421071Y-18538643D01*
X7421071Y-18610072D01*
X7406786Y-18638643D01*
X7392500Y-18652929D01*
X7363928Y-18667214D01*
X7278214Y-18667214D01*
X7249643Y-18652929D01*
X7235357Y-18638643D01*
X7549643Y-18638643D02*
X7563928Y-18652929D01*
X7549643Y-18667214D01*
X7535357Y-18652929D01*
X7549643Y-18638643D01*
X7549643Y-18667214D01*
X7663928Y-18367214D02*
X7849643Y-18367214D01*
X7749643Y-18481500D01*
X7792500Y-18481500D01*
X7821071Y-18495786D01*
X7835357Y-18510072D01*
X7849643Y-18538643D01*
X7849643Y-18610072D01*
X7835357Y-18638643D01*
X7821071Y-18652929D01*
X7792500Y-18667214D01*
X7706786Y-18667214D01*
X7678214Y-18652929D01*
X7663928Y-18638643D01*
X8035357Y-18367214D02*
X8063928Y-18367214D01*
X8092500Y-18381500D01*
X8106786Y-18395786D01*
X8121071Y-18424357D01*
X8135357Y-18481500D01*
X8135357Y-18552929D01*
X8121071Y-18610072D01*
X8106786Y-18638643D01*
X8092500Y-18652929D01*
X8063928Y-18667214D01*
X8035357Y-18667214D01*
X8006786Y-18652929D01*
X7992500Y-18638643D01*
X7978214Y-18610072D01*
X7963928Y-18552929D01*
X7963928Y-18481500D01*
X7978214Y-18424357D01*
X7992500Y-18395786D01*
X8006786Y-18381500D01*
X8035357Y-18367214D01*
X8263928Y-18667214D02*
X8263928Y-18467214D01*
X8263928Y-18495786D02*
X8278214Y-18481500D01*
X8306786Y-18467214D01*
X8349643Y-18467214D01*
X8378214Y-18481500D01*
X8392500Y-18510072D01*
X8392500Y-18667214D01*
X8392500Y-18510072D02*
X8406786Y-18481500D01*
X8435357Y-18467214D01*
X8478214Y-18467214D01*
X8506786Y-18481500D01*
X8521071Y-18510072D01*
X8521071Y-18667214D01*
X8663929Y-18667214D02*
X8663929Y-18467214D01*
X8663929Y-18495786D02*
X8678214Y-18481500D01*
X8706786Y-18467214D01*
X8749643Y-18467214D01*
X8778214Y-18481500D01*
X8792500Y-18510072D01*
X8792500Y-18667214D01*
X8792500Y-18510072D02*
X8806786Y-18481500D01*
X8835357Y-18467214D01*
X8878214Y-18467214D01*
X8906786Y-18481500D01*
X8921071Y-18510072D01*
X8921071Y-18667214D01*
X9506786Y-18352929D02*
X9249643Y-18738643D01*
X9892500Y-18367214D02*
X9921071Y-18367214D01*
X9949643Y-18381500D01*
X9963928Y-18395786D01*
X9978214Y-18424357D01*
X9992500Y-18481500D01*
X9992500Y-18552929D01*
X9978214Y-18610072D01*
X9963928Y-18638643D01*
X9949643Y-18652929D01*
X9921071Y-18667214D01*
X9892500Y-18667214D01*
X9863928Y-18652929D01*
X9849643Y-18638643D01*
X9835357Y-18610072D01*
X9821071Y-18552929D01*
X9821071Y-18481500D01*
X9835357Y-18424357D01*
X9849643Y-18395786D01*
X9863928Y-18381500D01*
X9892500Y-18367214D01*
X10121071Y-18638643D02*
X10135357Y-18652929D01*
X10121071Y-18667214D01*
X10106786Y-18652929D01*
X10121071Y-18638643D01*
X10121071Y-18667214D01*
X10421071Y-18667214D02*
X10249643Y-18667214D01*
X10335357Y-18667214D02*
X10335357Y-18367214D01*
X10306786Y-18410072D01*
X10278214Y-18438643D01*
X10249643Y-18452929D01*
X10521071Y-18367214D02*
X10706786Y-18367214D01*
X10606786Y-18481500D01*
X10649643Y-18481500D01*
X10678214Y-18495786D01*
X10692500Y-18510072D01*
X10706786Y-18538643D01*
X10706786Y-18610072D01*
X10692500Y-18638643D01*
X10678214Y-18652929D01*
X10649643Y-18667214D01*
X10563928Y-18667214D01*
X10535357Y-18652929D01*
X10521071Y-18638643D01*
X10892500Y-18367214D02*
X10921071Y-18367214D01*
X10949643Y-18381500D01*
X10963928Y-18395786D01*
X10978214Y-18424357D01*
X10992500Y-18481500D01*
X10992500Y-18552929D01*
X10978214Y-18610072D01*
X10963928Y-18638643D01*
X10949643Y-18652929D01*
X10921071Y-18667214D01*
X10892500Y-18667214D01*
X10863928Y-18652929D01*
X10849643Y-18638643D01*
X10835357Y-18610072D01*
X10821071Y-18552929D01*
X10821071Y-18481500D01*
X10835357Y-18424357D01*
X10849643Y-18395786D01*
X10863928Y-18381500D01*
X10892500Y-18367214D01*
X11106786Y-18367214D02*
X11106786Y-18424357D01*
X11221071Y-18367214D02*
X11221071Y-18424357D01*
X11663928Y-18781500D02*
X11649643Y-18767214D01*
X11621071Y-18724357D01*
X11606785Y-18695786D01*
X11592500Y-18652929D01*
X11578214Y-18581500D01*
X11578214Y-18524357D01*
X11592500Y-18452929D01*
X11606785Y-18410072D01*
X11621071Y-18381500D01*
X11649643Y-18338643D01*
X11663928Y-18324357D01*
X11906785Y-18467214D02*
X11906785Y-18667214D01*
X11835357Y-18352929D02*
X11763928Y-18567214D01*
X11949643Y-18567214D01*
X12292500Y-18667214D02*
X12292500Y-18367214D01*
X12421071Y-18667214D02*
X12421071Y-18510072D01*
X12406785Y-18481500D01*
X12378214Y-18467214D01*
X12335357Y-18467214D01*
X12306785Y-18481500D01*
X12292500Y-18495786D01*
X12606785Y-18667214D02*
X12578214Y-18652929D01*
X12563928Y-18638643D01*
X12549643Y-18610072D01*
X12549643Y-18524357D01*
X12563928Y-18495786D01*
X12578214Y-18481500D01*
X12606785Y-18467214D01*
X12649643Y-18467214D01*
X12678214Y-18481500D01*
X12692500Y-18495786D01*
X12706785Y-18524357D01*
X12706785Y-18610072D01*
X12692500Y-18638643D01*
X12678214Y-18652929D01*
X12649643Y-18667214D01*
X12606785Y-18667214D01*
X12878214Y-18667214D02*
X12849643Y-18652929D01*
X12835357Y-18624357D01*
X12835357Y-18367214D01*
X13106786Y-18652929D02*
X13078214Y-18667214D01*
X13021071Y-18667214D01*
X12992500Y-18652929D01*
X12978214Y-18624357D01*
X12978214Y-18510072D01*
X12992500Y-18481500D01*
X13021071Y-18467214D01*
X13078214Y-18467214D01*
X13106786Y-18481500D01*
X13121071Y-18510072D01*
X13121071Y-18538643D01*
X12978214Y-18567214D01*
X13235357Y-18652929D02*
X13263928Y-18667214D01*
X13321071Y-18667214D01*
X13349643Y-18652929D01*
X13363928Y-18624357D01*
X13363928Y-18610072D01*
X13349643Y-18581500D01*
X13321071Y-18567214D01*
X13278214Y-18567214D01*
X13249643Y-18552929D01*
X13235357Y-18524357D01*
X13235357Y-18510072D01*
X13249643Y-18481500D01*
X13278214Y-18467214D01*
X13321071Y-18467214D01*
X13349643Y-18481500D01*
X13463928Y-18781500D02*
X13478214Y-18767214D01*
X13506786Y-18724357D01*
X13521071Y-18695786D01*
X13535357Y-18652929D01*
X13549643Y-18581500D01*
X13549643Y-18524357D01*
X13535357Y-18452929D01*
X13521071Y-18410072D01*
X13506786Y-18381500D01*
X13478214Y-18338643D01*
X13463928Y-18324357D01*
M02*
