G04 #@! TF.FileFunction,Soldermask,Bot*
%FSLAX46Y46*%
G04 Gerber Fmt 4.6, Leading zero omitted, Abs format (unit mm)*
G04 Created by KiCad (PCBNEW 4.0.7) date 02/05/18 11:03:03*
%MOMM*%
%LPD*%
G01*
G04 APERTURE LIST*
%ADD10C,0.100000*%
%ADD11C,2.400000*%
%ADD12R,1.750000X0.550000*%
%ADD13C,1.524000*%
%ADD14C,5.300000*%
%ADD15R,5.000000X3.300000*%
%ADD16C,1.850000*%
%ADD17C,1.800000*%
%ADD18C,0.500000*%
%ADD19C,2.500000*%
%ADD20R,0.750000X1.200000*%
%ADD21R,1.200000X0.750000*%
%ADD22C,2.000000*%
%ADD23R,1.700000X1.700000*%
%ADD24O,1.700000X1.700000*%
%ADD25O,3.014980X1.506220*%
%ADD26C,1.700000*%
%ADD27R,1.850000X1.850000*%
%ADD28R,1.400000X1.200000*%
%ADD29R,1.400000X1.000000*%
%ADD30R,1.250000X1.500000*%
%ADD31R,1.500000X1.250000*%
%ADD32R,1.950000X0.600000*%
%ADD33R,1.500000X1.300000*%
%ADD34C,2.600000*%
%ADD35C,2.200000*%
%ADD36R,0.800100X0.800100*%
%ADD37C,0.600000*%
%ADD38C,0.254000*%
G04 APERTURE END LIST*
D10*
D11*
X56746000Y-95636000D03*
X61826000Y-95636000D03*
X56746000Y-41026000D03*
X61826000Y-41026000D03*
X56746000Y-51948000D03*
X61826000Y-51948000D03*
X56746000Y-62870000D03*
X61826000Y-62870000D03*
D12*
X85558000Y-55631000D03*
X85558000Y-54361000D03*
X85558000Y-53091000D03*
X85558000Y-51821000D03*
X92958000Y-51821000D03*
X92958000Y-53091000D03*
X92958000Y-54361000D03*
X92958000Y-55631000D03*
D13*
X78082000Y-20706000D03*
X75542000Y-20706000D03*
X73002000Y-20706000D03*
X70462000Y-20706000D03*
X67922000Y-20706000D03*
X67922000Y-28326000D03*
X70462000Y-28326000D03*
X73002000Y-28326000D03*
X75542000Y-28326000D03*
X78082000Y-28326000D03*
D14*
X20000000Y-3000000D03*
X20000000Y-97000000D03*
X97000000Y-97000000D03*
X97000000Y-3000000D03*
D15*
X97200000Y-84900000D03*
X97200000Y-91500000D03*
D16*
X98415000Y-88200000D03*
X98700000Y-85660000D03*
X98700000Y-90740000D03*
X96005000Y-90740000D03*
X96005000Y-85660000D03*
D17*
X96160000Y-88200000D03*
D16*
X98700000Y-83120000D03*
D15*
X97030000Y-21350000D03*
X97030000Y-27950000D03*
D16*
X98245000Y-24650000D03*
X98530000Y-22110000D03*
X98530000Y-27190000D03*
X95835000Y-27190000D03*
X95835000Y-22110000D03*
D17*
X95990000Y-24650000D03*
D16*
X98530000Y-19570000D03*
D18*
X26012000Y-18236000D03*
D19*
X26012000Y-21236000D03*
D18*
X26012000Y-19236000D03*
D20*
X18646000Y-52644000D03*
X18646000Y-50744000D03*
X20424000Y-52644000D03*
X20424000Y-50744000D03*
X24234000Y-52644000D03*
X24234000Y-50744000D03*
X22456000Y-52644000D03*
X22456000Y-50744000D03*
D21*
X26708000Y-46868000D03*
X24808000Y-46868000D03*
X26708000Y-45090000D03*
X24808000Y-45090000D03*
X24808000Y-48646000D03*
X26708000Y-48646000D03*
D22*
X5300000Y-91000000D03*
X12300000Y-91000000D03*
X5200000Y-69200000D03*
X12200000Y-69200000D03*
D23*
X26266000Y-60584000D03*
D24*
X26266000Y-63124000D03*
D23*
X18646000Y-84460000D03*
D24*
X18646000Y-87000000D03*
X18646000Y-89540000D03*
X18646000Y-92080000D03*
D23*
X18646000Y-73030000D03*
D24*
X18646000Y-75570000D03*
X18646000Y-78110000D03*
X18646000Y-80650000D03*
D23*
X14074000Y-5974000D03*
D24*
X11534000Y-5974000D03*
D23*
X4592180Y-18671460D03*
D24*
X4592180Y-16131460D03*
X4592180Y-13591460D03*
X4592180Y-11051460D03*
X4592180Y-8511460D03*
X4592180Y-5971460D03*
D25*
X6390000Y-24720000D03*
X6390000Y-22180000D03*
D26*
X21948000Y-48900000D03*
D27*
X4041000Y-37952600D03*
D16*
X6581000Y-37952600D03*
X4041000Y-40492600D03*
X6581000Y-40492600D03*
X4041000Y-43032600D03*
X6581000Y-43032600D03*
X4041000Y-45572600D03*
X6581000Y-45572600D03*
X4041000Y-48112600D03*
X6581000Y-48112600D03*
X4041000Y-50652600D03*
X6581000Y-50652600D03*
X4041000Y-53192600D03*
X6581000Y-53192600D03*
X4041000Y-55732600D03*
X6581000Y-55732600D03*
X4041000Y-58272600D03*
X6581000Y-58272600D03*
X4041000Y-60812600D03*
X6581000Y-60812600D03*
D27*
X41607600Y-7802800D03*
D16*
X44147600Y-7802800D03*
X46687600Y-7802800D03*
X49227600Y-7802800D03*
X51767600Y-7802800D03*
X54307600Y-7802800D03*
D27*
X13489800Y-47452200D03*
D16*
X16029800Y-47452200D03*
X13489800Y-49992200D03*
X16029800Y-49992200D03*
X13489800Y-52532200D03*
X16029800Y-52532200D03*
D13*
X78082000Y-31882000D03*
X75542000Y-31882000D03*
X73002000Y-31882000D03*
X70462000Y-31882000D03*
X67922000Y-31882000D03*
X67922000Y-39502000D03*
X70462000Y-39502000D03*
X73002000Y-39502000D03*
X75542000Y-39502000D03*
X78082000Y-39502000D03*
X78082000Y-42804000D03*
X75542000Y-42804000D03*
X73002000Y-42804000D03*
X70462000Y-42804000D03*
X67922000Y-42804000D03*
X67922000Y-50424000D03*
X70462000Y-50424000D03*
X73002000Y-50424000D03*
X75542000Y-50424000D03*
X78082000Y-50424000D03*
X78082000Y-64648000D03*
X75542000Y-64648000D03*
X73002000Y-64648000D03*
X70462000Y-64648000D03*
X67922000Y-64648000D03*
X67922000Y-72268000D03*
X70462000Y-72268000D03*
X73002000Y-72268000D03*
X75542000Y-72268000D03*
X78082000Y-72268000D03*
X78082000Y-75570000D03*
X75542000Y-75570000D03*
X73002000Y-75570000D03*
X70462000Y-75570000D03*
X67922000Y-75570000D03*
X67922000Y-83190000D03*
X70462000Y-83190000D03*
X73002000Y-83190000D03*
X75542000Y-83190000D03*
X78082000Y-83190000D03*
X78082000Y-86492000D03*
X75542000Y-86492000D03*
X73002000Y-86492000D03*
X70462000Y-86492000D03*
X67922000Y-86492000D03*
X67922000Y-94112000D03*
X70462000Y-94112000D03*
X73002000Y-94112000D03*
X75542000Y-94112000D03*
X78082000Y-94112000D03*
D11*
X64620000Y-27818000D03*
X64620000Y-22738000D03*
X56746000Y-73792000D03*
X61826000Y-73792000D03*
X56746000Y-84714000D03*
X61826000Y-84714000D03*
X52174000Y-27818000D03*
X52174000Y-22738000D03*
X52174000Y-38740000D03*
X52174000Y-33660000D03*
X52174000Y-49662000D03*
X52174000Y-44582000D03*
X52174000Y-60584000D03*
X52174000Y-55504000D03*
X52174000Y-71506000D03*
X52174000Y-66426000D03*
X52174000Y-82428000D03*
X52174000Y-77348000D03*
X52174000Y-93350000D03*
X52174000Y-88270000D03*
D16*
X98700000Y-6950000D03*
X96160000Y-6950000D03*
X96160000Y-9490000D03*
X98700000Y-9490000D03*
X98700000Y-9490000D03*
X96160000Y-9490000D03*
X96160000Y-9490000D03*
X98700000Y-9490000D03*
D27*
X98700000Y-17110000D03*
D16*
X96160000Y-17110000D03*
X98700000Y-14570000D03*
X96160000Y-14570000D03*
X98700000Y-12030000D03*
X96160000Y-12030000D03*
X98700000Y-9490000D03*
X96160000Y-9490000D03*
D28*
X91460000Y-37478000D03*
D29*
X91460000Y-35758000D03*
X93660000Y-35758000D03*
X93660000Y-37658000D03*
D28*
X84602000Y-37478000D03*
D29*
X84602000Y-35758000D03*
X86802000Y-35758000D03*
X86802000Y-37658000D03*
D30*
X80876000Y-91338000D03*
X80876000Y-93838000D03*
D31*
X78062000Y-26040000D03*
X75562000Y-26040000D03*
D30*
X78082000Y-88290000D03*
X78082000Y-90790000D03*
X78082000Y-77368000D03*
X78082000Y-79868000D03*
X78082000Y-66446000D03*
X78082000Y-68946000D03*
X78082000Y-55524000D03*
X78082000Y-58024000D03*
X78082000Y-44602000D03*
X78082000Y-47102000D03*
D31*
X59052000Y-37216000D03*
X61552000Y-37216000D03*
X59052000Y-48138000D03*
X61552000Y-48138000D03*
X59052000Y-59060000D03*
X61552000Y-59060000D03*
X59052000Y-69982000D03*
X61552000Y-69982000D03*
X59052000Y-80904000D03*
X61552000Y-80904000D03*
X59052000Y-91572000D03*
X61552000Y-91572000D03*
X63624000Y-30104000D03*
X66124000Y-30104000D03*
D30*
X78082000Y-33680000D03*
X78082000Y-36180000D03*
D31*
X79078000Y-18420000D03*
X76578000Y-18420000D03*
D30*
X54460000Y-37236000D03*
X54460000Y-39736000D03*
X54460000Y-48158000D03*
X54460000Y-50658000D03*
X54460000Y-59080000D03*
X54460000Y-61580000D03*
X54460000Y-70002000D03*
X54460000Y-72502000D03*
X54460000Y-80924000D03*
X54460000Y-83424000D03*
X54460000Y-91846000D03*
X54460000Y-94346000D03*
D31*
X54480000Y-27818000D03*
X56980000Y-27818000D03*
D30*
X56746000Y-36180000D03*
X56746000Y-33680000D03*
X56746000Y-47102000D03*
X56746000Y-44602000D03*
X56746000Y-58024000D03*
X56746000Y-55524000D03*
X56746000Y-68946000D03*
X56746000Y-66446000D03*
X56746000Y-79868000D03*
X56746000Y-77368000D03*
X56746000Y-90790000D03*
X56746000Y-88290000D03*
X54714000Y-22758000D03*
X54714000Y-25258000D03*
D31*
X89238000Y-61600000D03*
X86738000Y-61600000D03*
D32*
X86844000Y-75951000D03*
X86844000Y-74681000D03*
X86844000Y-73411000D03*
X86844000Y-72141000D03*
X86844000Y-70871000D03*
X86844000Y-69601000D03*
X86844000Y-68331000D03*
X86844000Y-67061000D03*
X86844000Y-65791000D03*
X86844000Y-64521000D03*
X96244000Y-64521000D03*
X96244000Y-65791000D03*
X96244000Y-67061000D03*
X96244000Y-68331000D03*
X96244000Y-69601000D03*
X96244000Y-70871000D03*
X96244000Y-72141000D03*
X96244000Y-73411000D03*
X96244000Y-74681000D03*
X96244000Y-75951000D03*
D31*
X92199000Y-40010000D03*
X94699000Y-40010000D03*
X85595000Y-40010000D03*
X88095000Y-40010000D03*
D33*
X93656000Y-46868000D03*
X90956000Y-46868000D03*
X93656000Y-49154000D03*
X90956000Y-49154000D03*
X89432000Y-30358000D03*
X92132000Y-30358000D03*
X83844000Y-30358000D03*
X86544000Y-30358000D03*
X85622000Y-24770000D03*
X88322000Y-24770000D03*
X86638000Y-32644000D03*
X89338000Y-32644000D03*
X92226000Y-32644000D03*
X94926000Y-32644000D03*
X91510000Y-44510000D03*
X94210000Y-44510000D03*
X93496000Y-42296000D03*
X96196000Y-42296000D03*
X89592000Y-42296000D03*
X86892000Y-42296000D03*
X85368000Y-44582000D03*
X88068000Y-44582000D03*
D27*
X98740000Y-60280000D03*
D16*
X98740000Y-57740000D03*
X98740000Y-55200000D03*
X98740000Y-52660000D03*
X98740000Y-50120000D03*
X98740000Y-47580000D03*
X98740000Y-45040000D03*
X98740000Y-42500000D03*
X98740000Y-39960000D03*
D34*
X92450000Y-10700000D03*
D35*
X89400000Y-10700000D03*
D36*
X1694000Y-63139240D03*
X3594000Y-63139240D03*
X2644000Y-65138220D03*
X8552000Y-63139240D03*
X10452000Y-63139240D03*
X9502000Y-65138220D03*
D25*
X6390000Y-30993000D03*
X6390000Y-28453000D03*
D11*
X90580000Y-27580000D03*
X85500000Y-27580000D03*
X88040000Y-21230000D03*
X81690000Y-21230000D03*
X82325000Y-18055000D03*
D31*
X60536000Y-39248000D03*
X58036000Y-39248000D03*
D30*
X50396000Y-37450000D03*
X50396000Y-34950000D03*
D31*
X60536000Y-50170000D03*
X58036000Y-50170000D03*
D30*
X50396000Y-48372000D03*
X50396000Y-45872000D03*
D31*
X60536000Y-61092000D03*
X58036000Y-61092000D03*
D30*
X50396000Y-59294000D03*
X50396000Y-56794000D03*
D31*
X60536000Y-72014000D03*
X58036000Y-72014000D03*
D30*
X50396000Y-70216000D03*
X50396000Y-67716000D03*
D31*
X60536000Y-82936000D03*
X58036000Y-82936000D03*
D30*
X50396000Y-81138000D03*
X50396000Y-78638000D03*
D31*
X60536000Y-93604000D03*
X58036000Y-93604000D03*
D30*
X50396000Y-92060000D03*
X50396000Y-89560000D03*
D13*
X78082000Y-53726000D03*
X75542000Y-53726000D03*
X73002000Y-53726000D03*
X70462000Y-53726000D03*
X67922000Y-53726000D03*
X67922000Y-61346000D03*
X70462000Y-61346000D03*
X73002000Y-61346000D03*
X75542000Y-61346000D03*
X78082000Y-61346000D03*
D33*
X96280000Y-60380000D03*
X93580000Y-60380000D03*
D37*
X8994000Y-86238000D03*
X13312000Y-86238000D03*
X15598000Y-83952000D03*
X15598000Y-81666000D03*
X7470000Y-90302000D03*
X93550000Y-56130000D03*
X85690000Y-63250000D03*
X94680000Y-76010000D03*
X95608000Y-62616000D03*
X93322000Y-70998000D03*
X93322000Y-66172000D03*
X83924000Y-58044000D03*
X90528000Y-69474000D03*
X90528000Y-66426000D03*
X90528000Y-62870000D03*
X88810000Y-58110000D03*
X86718000Y-60584000D03*
X81638000Y-61600000D03*
X53444000Y-90810000D03*
X48364000Y-90810000D03*
X43030000Y-90810000D03*
X53444000Y-79888000D03*
X48364000Y-79888000D03*
X43030000Y-79888000D03*
X53444000Y-68966000D03*
X48364000Y-68966000D03*
X43030000Y-68966000D03*
X53444000Y-58044000D03*
X48364000Y-58044000D03*
X43030000Y-58044000D03*
X53444000Y-47122000D03*
X48364000Y-47122000D03*
X43030000Y-47122000D03*
X53444000Y-36200000D03*
X48364000Y-36200000D03*
X43030000Y-36200000D03*
X74272000Y-36962000D03*
X70462000Y-36962000D03*
X64874000Y-36962000D03*
X59032000Y-36200000D03*
X74272000Y-47884000D03*
X70462000Y-47884000D03*
X64874000Y-47884000D03*
X59032000Y-46868000D03*
X74272000Y-58806000D03*
X70462000Y-58806000D03*
X64874000Y-58806000D03*
X59032000Y-57790000D03*
X74272000Y-69728000D03*
X70208000Y-69728000D03*
X64874000Y-69728000D03*
X59032000Y-68712000D03*
X74272000Y-80650000D03*
X70462000Y-80650000D03*
X64874000Y-80650000D03*
X59032000Y-79888000D03*
X74272000Y-91318000D03*
X69954000Y-91318000D03*
X64874000Y-91318000D03*
X59032000Y-90556000D03*
X83670000Y-17150000D03*
X91290000Y-17150000D03*
X76050000Y-17150000D03*
X68430000Y-17150000D03*
X60810000Y-17150000D03*
X53190000Y-17150000D03*
X45570000Y-17150000D03*
X40490000Y-17150000D03*
X40490000Y-24770000D03*
X98148000Y-30358000D03*
X98148000Y-35184000D03*
X95862000Y-36454000D03*
X54714000Y-95890000D03*
X49126000Y-95890000D03*
X43030000Y-95890000D03*
X65890000Y-86492000D03*
X61318000Y-86492000D03*
X53190000Y-86492000D03*
X45570000Y-86492000D03*
X65890000Y-75570000D03*
X61064000Y-75570000D03*
X53190000Y-75570000D03*
X45570000Y-75570000D03*
X65890000Y-64648000D03*
X61064000Y-64648000D03*
X53190000Y-64648000D03*
X45570000Y-64648000D03*
X65890000Y-53726000D03*
X61064000Y-53726000D03*
X53190000Y-53726000D03*
X45570000Y-53726000D03*
X65890000Y-42804000D03*
X61064000Y-42804000D03*
X53190000Y-42804000D03*
X45570000Y-42804000D03*
X65890000Y-31882000D03*
X60810000Y-31882000D03*
X53190000Y-31882000D03*
X45570000Y-31882000D03*
X56746000Y-37216000D03*
X56746000Y-48138000D03*
X56746000Y-59060000D03*
X56746000Y-69982000D03*
X56746000Y-80904000D03*
X56746000Y-91826000D03*
X50015000Y-20960000D03*
X44300000Y-20960000D03*
X44300000Y-28580000D03*
X50015000Y-28580000D03*
X74272000Y-25532000D03*
X76812000Y-29850000D03*
X76812000Y-41026000D03*
X76812000Y-51948000D03*
X76812000Y-62870000D03*
X76812000Y-73792000D03*
X77574000Y-70236000D03*
X76812000Y-84714000D03*
X77574000Y-81158000D03*
X77574000Y-48392000D03*
X77574000Y-37470000D03*
X77574000Y-59314000D03*
X80368000Y-53472000D03*
X69065000Y-22230000D03*
X69065000Y-26040000D03*
X66525000Y-26040000D03*
X60810000Y-26040000D03*
X57000000Y-26040000D03*
X57000000Y-22865000D03*
X60810000Y-22865000D03*
X40490000Y-32390000D03*
X40490000Y-40010000D03*
X40490000Y-47630000D03*
X40490000Y-55250000D03*
X40490000Y-62870000D03*
X80622000Y-43312000D03*
X96370000Y-40772000D03*
X96116000Y-43820000D03*
X95608000Y-48646000D03*
X83416000Y-72014000D03*
X83924000Y-70490000D03*
X82273000Y-86619000D03*
X82150000Y-67970000D03*
X79098000Y-70236000D03*
X83924000Y-34676000D03*
X82400000Y-34422000D03*
X82908000Y-46868000D03*
X77574000Y-92080000D03*
X86591000Y-51186000D03*
X89639000Y-55885000D03*
X88369000Y-51694000D03*
X90147000Y-51694000D03*
X75034000Y-17912000D03*
X90570000Y-76900000D03*
X93000000Y-79890000D03*
X95354000Y-38994000D03*
X91290000Y-34676000D03*
X89512000Y-40010000D03*
X95100000Y-31374000D03*
X87480000Y-80650000D03*
X87480000Y-85730000D03*
X87480000Y-92080000D03*
X83670000Y-94620000D03*
X83670000Y-89540000D03*
X83670000Y-83190000D03*
X84940000Y-75570000D03*
X83670000Y-79380000D03*
X91290000Y-93350000D03*
X98910000Y-65410000D03*
X98910000Y-73030000D03*
X98910000Y-80650000D03*
X91290000Y-80650000D03*
X91290000Y-88270000D03*
X91290000Y-98430000D03*
X83670000Y-98430000D03*
X76050000Y-98430000D03*
X68430000Y-98430000D03*
X60810000Y-98430000D03*
X40490000Y-70490000D03*
X53190000Y-98430000D03*
X40490000Y-78110000D03*
X40490000Y-85730000D03*
X40490000Y-93350000D03*
X40490000Y-98430000D03*
X45570000Y-98430000D03*
X95862000Y-58298000D03*
X29822000Y-20960000D03*
X29822000Y-17912000D03*
X7724000Y-39121000D03*
X10772000Y-39121000D03*
X17376000Y-42804000D03*
X17376000Y-45725000D03*
X8740000Y-67696000D03*
X8613000Y-64267000D03*
X3914000Y-66172000D03*
X9629000Y-15753000D03*
X9629000Y-17531000D03*
X30584000Y-14356000D03*
X30584000Y-19944000D03*
X21694000Y-12578000D03*
X21694000Y-14356000D03*
X22456000Y-53472000D03*
X18900000Y-53472000D03*
X20424000Y-53472000D03*
X24742000Y-51948000D03*
X26012000Y-47376000D03*
X25885000Y-45979000D03*
X27790000Y-48646000D03*
X28298000Y-66172000D03*
X28298000Y-64013000D03*
X29187000Y-66172000D03*
X29187000Y-64013000D03*
X21694000Y-58552000D03*
X23345000Y-58552000D03*
X21694000Y-59822000D03*
X23345000Y-59822000D03*
X69954000Y-12324000D03*
X69954000Y-8514000D03*
X10200500Y-54297500D03*
X10200500Y-56139000D03*
X51666000Y-5212000D03*
X84051000Y-11689000D03*
X84051000Y-14610000D03*
X84432000Y-61600000D03*
X81384000Y-39502000D03*
X83670000Y-62108000D03*
X81130000Y-50424000D03*
X93830000Y-62616000D03*
X85160000Y-61040000D03*
X89512000Y-70744000D03*
X89766000Y-63632000D03*
X81638000Y-81920000D03*
X84178000Y-73665000D03*
X84686000Y-74554000D03*
X90401000Y-70744000D03*
X90401000Y-72395000D03*
X97487600Y-38079600D03*
X93626800Y-23195200D03*
X93620000Y-26390000D03*
X91187000Y-70032000D03*
X91417000Y-72395000D03*
X94338000Y-78618000D03*
X94973000Y-65791000D03*
X94973000Y-67061000D03*
X94973000Y-68331000D03*
X94973000Y-69601000D03*
X94973000Y-70871000D03*
X94973000Y-72141000D03*
X83460000Y-54410000D03*
X88877000Y-54742000D03*
X94370000Y-53670000D03*
X90147000Y-54742000D03*
X92306000Y-33660000D03*
X8486000Y-37216000D03*
X4168000Y-77348000D03*
X2390000Y-92334000D03*
X2390000Y-89540000D03*
X2390000Y-84460000D03*
X2390000Y-79380000D03*
X14582000Y-35438000D03*
X9756000Y-35438000D03*
X4676000Y-35438000D03*
X19916000Y-35438000D03*
X22964000Y-36708000D03*
X26520000Y-36708000D03*
X31854000Y-36708000D03*
X1120000Y-60838000D03*
X1120000Y-55758000D03*
X1120000Y-50678000D03*
X1120000Y-45598000D03*
X1120000Y-40518000D03*
X1120000Y-35438000D03*
X34140000Y-38994000D03*
X29060000Y-38994000D03*
X23980000Y-38994000D03*
X12169000Y-38994000D03*
X17249000Y-38994000D03*
X23980000Y-98430000D03*
X29060000Y-98430000D03*
X34140000Y-98430000D03*
X28298000Y-44328000D03*
X24996000Y-43947000D03*
X8740000Y-50170000D03*
X8232000Y-48138000D03*
X8994000Y-59568000D03*
X8232000Y-58044000D03*
X24234000Y-63378000D03*
X15852000Y-61346000D03*
X17884000Y-57028000D03*
X24996000Y-41534000D03*
X31092000Y-45598000D03*
X30584000Y-44328000D03*
X31346000Y-48900000D03*
X29568000Y-48392000D03*
X32362000Y-57536000D03*
X32362000Y-52456000D03*
X27536000Y-53218000D03*
X30330000Y-53218000D03*
X30330000Y-58806000D03*
X30330000Y-63886000D03*
X23726000Y-66934000D03*
X24996000Y-68712000D03*
X21694000Y-68712000D03*
X23726000Y-75316000D03*
X24742000Y-73792000D03*
X20424000Y-74300000D03*
X19154000Y-43820000D03*
X12042000Y-51694000D03*
X10772000Y-44328000D03*
X18900000Y-41534000D03*
X16106000Y-41534000D03*
X22202000Y-42042000D03*
X10772000Y-41534000D03*
X12550000Y-41534000D03*
X13058000Y-58298000D03*
X17122000Y-54488000D03*
X12296000Y-54488000D03*
X16614000Y-69982000D03*
X16106000Y-73538000D03*
X2136000Y-96652000D03*
X15852000Y-98176000D03*
X11280000Y-98176000D03*
X6200000Y-98176000D03*
X8740000Y-70744000D03*
X8740000Y-77348000D03*
X10518000Y-82682000D03*
X6962000Y-82682000D03*
X3152000Y-68204000D03*
X1628000Y-70236000D03*
X6962000Y-77348000D03*
X6962000Y-70744000D03*
X10264000Y-67696000D03*
X10518000Y-70744000D03*
X14074000Y-70236000D03*
X27282000Y-71506000D03*
X23726000Y-71506000D03*
X18900000Y-70998000D03*
X16614000Y-65918000D03*
X26266000Y-66426000D03*
X27282000Y-67950000D03*
X29060000Y-95636000D03*
X23980000Y-95636000D03*
X23980000Y-93096000D03*
X31600000Y-93096000D03*
X31600000Y-88016000D03*
X31600000Y-82682000D03*
X29060000Y-85476000D03*
X29060000Y-90556000D03*
X28298000Y-41534000D03*
X32870000Y-43312000D03*
X34140000Y-49408000D03*
X34140000Y-54996000D03*
X34140000Y-60076000D03*
X34140000Y-65156000D03*
X34140000Y-70236000D03*
X34140000Y-75316000D03*
X34140000Y-80396000D03*
X34140000Y-85476000D03*
X34140000Y-95636000D03*
X34140000Y-90556000D03*
X31600000Y-67950000D03*
X31600000Y-73030000D03*
X31600000Y-78110000D03*
X32362000Y-62616000D03*
X28806000Y-79126000D03*
X28806000Y-74808000D03*
X28044000Y-80650000D03*
X28806000Y-72776000D03*
X25504000Y-77856000D03*
X26520000Y-76332000D03*
X27028000Y-82682000D03*
X17884000Y-50233500D03*
X24107000Y-46233000D03*
X25504000Y-48392000D03*
X29568000Y-54234000D03*
X23472000Y-54234000D03*
X19916000Y-51440000D03*
X24996000Y-50678000D03*
X19662000Y-61346000D03*
X18392000Y-68458000D03*
X15344000Y-63886000D03*
X13312000Y-65156000D03*
X4168000Y-74808000D03*
X26266000Y-86492000D03*
X26266000Y-84460000D03*
X12804000Y-78364000D03*
X23980000Y-91064000D03*
X26012000Y-88016000D03*
X10264000Y-65156000D03*
X2644000Y-64140000D03*
X23726000Y-25278000D03*
X2898000Y-33025000D03*
X1120000Y-31247000D03*
X1120000Y-26167000D03*
X1120000Y-21087000D03*
X1120000Y-16007000D03*
X1120000Y-10927000D03*
X1120000Y-5847000D03*
X17249000Y-33025000D03*
X12169000Y-33025000D03*
X7089000Y-33025000D03*
X23599000Y-33025000D03*
X51920000Y-14610000D03*
X48110000Y-14610000D03*
X44300000Y-14610000D03*
X40490000Y-14610000D03*
X55730000Y-14610000D03*
X59540000Y-14610000D03*
X63350000Y-14610000D03*
X67160000Y-14610000D03*
X36045000Y-27310000D03*
X36045000Y-23500000D03*
X36045000Y-19690000D03*
X36045000Y-15880000D03*
X37315000Y-14610000D03*
X34775000Y-32390000D03*
X30965000Y-33025000D03*
X27155000Y-33025000D03*
X19916000Y-33025000D03*
X1120000Y-1656000D03*
X3025000Y-3561000D03*
X8105000Y-3561000D03*
X13185000Y-3561000D03*
X25758000Y-3561000D03*
X30838000Y-3561000D03*
X35918000Y-3561000D03*
X40998000Y-3561000D03*
X46078000Y-3561000D03*
X51158000Y-3561000D03*
X56238000Y-3561000D03*
X61318000Y-3561000D03*
X66398000Y-3561000D03*
X71478000Y-3561000D03*
X76558000Y-3561000D03*
X81638000Y-3561000D03*
X86718000Y-3561000D03*
X91798000Y-3561000D03*
X34648000Y-8895000D03*
X11788000Y-17785000D03*
X7851000Y-19944000D03*
X15725000Y-28326000D03*
X10899000Y-26802000D03*
X26901000Y-28199000D03*
X30330000Y-27945000D03*
X34140000Y-11562000D03*
X38204000Y-11054000D03*
X42268000Y-11054000D03*
X33505000Y-12959000D03*
X19662000Y-30993000D03*
X22202000Y-30485000D03*
X31346000Y-16642000D03*
X84686000Y-7244000D03*
X86464000Y-11562000D03*
X80368000Y-5720000D03*
X70208000Y-13086000D03*
X94465000Y-13975000D03*
X93195000Y-15880000D03*
X70970000Y-14610000D03*
X74780000Y-14610000D03*
X31346000Y-8768000D03*
X61318000Y-11054000D03*
X57508000Y-11054000D03*
X53698000Y-11054000D03*
X49888000Y-11054000D03*
X46078000Y-11054000D03*
X82400000Y-14610000D03*
X78590000Y-14610000D03*
X65636000Y-11816000D03*
X66144000Y-9530000D03*
X78717000Y-11943000D03*
X78844000Y-9276000D03*
X62080000Y-6990000D03*
X70970000Y-6990000D03*
X74526000Y-11308000D03*
X30330000Y-26040000D03*
X30584000Y-21722000D03*
X14582000Y-15372000D03*
X18392000Y-15372000D03*
X24742000Y-10292000D03*
X21186000Y-10038000D03*
X29060000Y-8768000D03*
X27536000Y-11562000D03*
X10264000Y-13848000D03*
X8994000Y-6990000D03*
X11280000Y-21468000D03*
X22202000Y-22484000D03*
X23726000Y-27564000D03*
X19916000Y-21722000D03*
X23726000Y-21976000D03*
X22964000Y-16896000D03*
X28806000Y-16896000D03*
X1628000Y-66172000D03*
X10772000Y-43058000D03*
X94592000Y-64648000D03*
X93068000Y-63886000D03*
D38*
G36*
X94031394Y-17912000D02*
X93998263Y-17945131D01*
X93332927Y-18499578D01*
X91636844Y-16682346D01*
X91595816Y-16653051D01*
X91544000Y-16642000D01*
X39728000Y-16642000D01*
X39678590Y-16652006D01*
X39636965Y-16680447D01*
X39609685Y-16722841D01*
X39601000Y-16769000D01*
X39601000Y-97160000D01*
X39611006Y-97209410D01*
X39639447Y-97251035D01*
X39681841Y-97278315D01*
X39728000Y-97287000D01*
X99672000Y-97287000D01*
X99672000Y-99700000D01*
X231000Y-99700000D01*
X231000Y-97287000D01*
X37950000Y-97287000D01*
X37999410Y-97276994D01*
X38041035Y-97248553D01*
X38068315Y-97206159D01*
X38077000Y-97160000D01*
X38077000Y-15626000D01*
X91745394Y-15626000D01*
X94031394Y-17912000D01*
X94031394Y-17912000D01*
G37*
X94031394Y-17912000D02*
X93998263Y-17945131D01*
X93332927Y-18499578D01*
X91636844Y-16682346D01*
X91595816Y-16653051D01*
X91544000Y-16642000D01*
X39728000Y-16642000D01*
X39678590Y-16652006D01*
X39636965Y-16680447D01*
X39609685Y-16722841D01*
X39601000Y-16769000D01*
X39601000Y-97160000D01*
X39611006Y-97209410D01*
X39639447Y-97251035D01*
X39681841Y-97278315D01*
X39728000Y-97287000D01*
X99672000Y-97287000D01*
X99672000Y-99700000D01*
X231000Y-99700000D01*
X231000Y-97287000D01*
X37950000Y-97287000D01*
X37999410Y-97276994D01*
X38041035Y-97248553D01*
X38068315Y-97206159D01*
X38077000Y-97160000D01*
X38077000Y-15626000D01*
X91745394Y-15626000D01*
X94031394Y-17912000D01*
G36*
X99672000Y-82301000D02*
X98656000Y-82301000D01*
X98656000Y-62235000D01*
X99672000Y-62235000D01*
X99672000Y-82301000D01*
X99672000Y-82301000D01*
G37*
X99672000Y-82301000D02*
X98656000Y-82301000D01*
X98656000Y-62235000D01*
X99672000Y-62235000D01*
X99672000Y-82301000D01*
G36*
X99672000Y-38359000D02*
X98656000Y-38359000D01*
X98656000Y-28326000D01*
X99672000Y-28326000D01*
X99672000Y-38359000D01*
X99672000Y-38359000D01*
G37*
X99672000Y-38359000D02*
X98656000Y-38359000D01*
X98656000Y-28326000D01*
X99672000Y-28326000D01*
X99672000Y-38359000D01*
G36*
X99672000Y-2672000D02*
X231000Y-2672000D01*
X231000Y-259000D01*
X99672000Y-259000D01*
X99672000Y-2672000D01*
X99672000Y-2672000D01*
G37*
X99672000Y-2672000D02*
X231000Y-2672000D01*
X231000Y-259000D01*
X99672000Y-259000D01*
X99672000Y-2672000D01*
M02*
