M48
;DRILL file {KiCad 4.0.7} date 02/05/18 11:08:46
;FORMAT={-:-/ absolute / metric / decimal}
FMAT,2
METRIC,TZ
T1C0.300
T2C0.813
T3C0.998
T4C1.000
T5C1.200
T6C1.270
T7C1.500
T8C1.570
T9C1.600
T10C3.300
%
G90
G05
M71
T1
X71.12Y-41.656
X71.12Y-45.847
X71.12Y-50.927
X71.12Y-56.007
X71.12Y-61.087
X71.12Y-66.167
X71.12Y-71.247
X71.12Y-75.438
X71.12Y-80.518
X71.12Y-85.598
X71.12Y-90.678
X71.12Y-95.758
X71.12Y-100.838
X71.628Y-106.172
X71.628Y-110.236
X72.136Y-136.652
X72.39Y-119.38
X72.39Y-124.46
X72.39Y-129.54
X72.39Y-132.334
X72.644Y-104.14
X72.898Y-73.025
X73.025Y-43.561
X73.152Y-108.204
X73.914Y-106.172
X74.168Y-114.808
X74.168Y-117.348
X74.676Y-75.438
X76.2Y-138.176
X76.962Y-110.744
X76.962Y-117.348
X76.962Y-122.682
X77.089Y-73.025
X77.47Y-130.302
X77.724Y-79.121
X77.851Y-59.944
X78.105Y-43.561
X78.232Y-88.138
X78.232Y-98.044
X78.486Y-77.216
X78.613Y-104.267
X78.74Y-90.17
X78.74Y-107.696
X78.74Y-110.744
X78.74Y-117.348
X78.994Y-46.99
X78.994Y-99.568
X78.994Y-126.238
X79.629Y-55.753
X79.629Y-57.531
X79.756Y-75.438
X80.2Y-94.297
X80.2Y-96.139
X80.264Y-53.848
X80.264Y-105.156
X80.264Y-107.696
X80.518Y-110.744
X80.518Y-122.682
X80.772Y-79.121
X80.772Y-81.534
X80.772Y-83.058
X80.772Y-84.328
X80.899Y-66.802
X81.28Y-61.468
X81.28Y-138.176
X81.788Y-57.785
X82.042Y-91.694
X82.169Y-73.025
X82.169Y-78.994
X82.296Y-94.488
X82.55Y-81.534
X82.804Y-118.364
X83.058Y-98.298
X83.185Y-43.561
X83.312Y-105.156
X83.312Y-126.238
X84.074Y-110.236
X84.582Y-55.372
X84.582Y-75.438
X85.344Y-103.886
X85.598Y-121.666
X85.598Y-123.952
X85.725Y-68.326
X85.852Y-101.346
X85.852Y-138.176
X86.106Y-81.534
X86.106Y-113.538
X86.614Y-105.918
X86.614Y-109.982
X87.122Y-94.488
X87.249Y-73.025
X87.249Y-78.994
X87.376Y-82.804
X87.376Y-85.725
X87.884Y-90.233
X87.884Y-97.028
X88.392Y-55.372
X88.392Y-108.458
X88.9Y-81.534
X88.9Y-93.472
X88.9Y-110.998
X89.154Y-83.82
X89.662Y-70.993
X89.662Y-101.346
X89.916Y-61.722
X89.916Y-73.025
X89.916Y-75.438
X89.916Y-91.44
X90.424Y-93.472
X90.424Y-114.3
X91.186Y-50.038
X91.694Y-52.578
X91.694Y-54.356
X91.694Y-98.552
X91.694Y-99.822
X91.694Y-108.712
X92.202Y-62.484
X92.202Y-70.485
X92.202Y-82.042
X92.456Y-93.472
X92.964Y-56.896
X92.964Y-76.708
X93.345Y-98.552
X93.345Y-99.822
X93.472Y-94.234
X93.599Y-73.025
X93.726Y-61.976
X93.726Y-65.278
X93.726Y-67.564
X93.726Y-106.934
X93.726Y-111.506
X93.726Y-115.316
X93.98Y-78.994
X93.98Y-131.064
X93.98Y-133.096
X93.98Y-135.636
X93.98Y-138.43
X94.107Y-86.233
X94.234Y-103.378
X94.742Y-50.292
X94.742Y-91.948
X94.742Y-113.792
X94.996Y-81.534
X94.996Y-83.947
X94.996Y-90.678
X94.996Y-108.712
X95.504Y-88.392
X95.504Y-117.856
X95.758Y-43.561
X95.885Y-85.979
X96.012Y-58.236
X96.012Y-59.236
X96.012Y-87.376
X96.012Y-128.016
X96.266Y-106.426
X96.266Y-124.46
X96.266Y-126.492
X96.52Y-76.708
X96.52Y-116.332
X96.901Y-68.199
X97.028Y-122.682
X97.155Y-73.025
X97.282Y-107.95
X97.282Y-111.506
X97.536Y-51.562
X97.536Y-93.218
X97.79Y-88.646
X98.044Y-120.65
X98.298Y-81.534
X98.298Y-84.328
X98.298Y-104.013
X98.298Y-106.172
X98.806Y-56.896
X98.806Y-112.776
X98.806Y-114.808
X98.806Y-119.126
X99.06Y-48.768
X99.06Y-78.994
X99.06Y-125.476
X99.06Y-130.556
X99.06Y-135.636
X99.06Y-138.43
X99.187Y-104.013
X99.187Y-106.172
X99.568Y-88.392
X99.568Y-94.234
X99.822Y-57.912
X99.822Y-60.96
X100.33Y-66.04
X100.33Y-67.945
X100.33Y-93.218
X100.33Y-98.806
X100.33Y-103.886
X100.584Y-54.356
X100.584Y-59.944
X100.584Y-61.722
X100.584Y-84.328
X100.838Y-43.561
X100.965Y-73.025
X101.092Y-85.598
X101.346Y-48.768
X101.346Y-56.642
X101.346Y-88.9
X101.6Y-107.95
X101.6Y-113.03
X101.6Y-118.11
X101.6Y-122.682
X101.6Y-128.016
X101.6Y-133.096
X101.854Y-76.708
X102.362Y-92.456
X102.362Y-97.536
X102.362Y-102.616
X102.87Y-83.312
X103.505Y-52.959
X104.14Y-51.562
X104.14Y-78.994
X104.14Y-89.408
X104.14Y-94.996
X104.14Y-100.076
X104.14Y-105.156
X104.14Y-110.236
X104.14Y-115.316
X104.14Y-120.396
X104.14Y-125.476
X104.14Y-130.556
X104.14Y-135.636
X104.14Y-138.43
X104.648Y-48.895
X104.775Y-72.39
X105.918Y-43.561
X106.045Y-55.88
X106.045Y-59.69
X106.045Y-63.5
X106.045Y-67.31
X107.315Y-54.61
X108.204Y-51.054
X110.49Y-54.61
X110.49Y-57.15
X110.49Y-64.77
X110.49Y-72.39
X110.49Y-80.01
X110.49Y-87.63
X110.49Y-95.25
X110.49Y-102.87
X110.49Y-110.49
X110.49Y-118.11
X110.49Y-125.73
X110.49Y-133.35
X110.49Y-138.43
X110.998Y-43.561
X112.268Y-51.054
X113.03Y-76.2
X113.03Y-87.122
X113.03Y-98.044
X113.03Y-108.966
X113.03Y-119.888
X113.03Y-130.81
X113.03Y-135.89
X114.3Y-54.61
X114.3Y-60.96
X114.3Y-68.58
X115.57Y-57.15
X115.57Y-71.882
X115.57Y-82.804
X115.57Y-93.726
X115.57Y-104.648
X115.57Y-115.57
X115.57Y-126.492
X115.57Y-138.43
X116.078Y-43.561
X116.078Y-51.054
X118.11Y-54.61
X118.364Y-76.2
X118.364Y-87.122
X118.364Y-98.044
X118.364Y-108.966
X118.364Y-119.888
X118.364Y-130.81
X119.126Y-135.89
X119.888Y-51.054
X120.015Y-60.96
X120.015Y-68.58
X121.158Y-43.561
X121.666Y-45.212
X121.92Y-54.61
X123.19Y-57.15
X123.19Y-71.882
X123.19Y-82.804
X123.19Y-93.726
X123.19Y-104.648
X123.19Y-115.57
X123.19Y-126.492
X123.19Y-138.43
X123.444Y-76.2
X123.444Y-87.122
X123.444Y-98.044
X123.444Y-108.966
X123.444Y-119.888
X123.444Y-130.81
X123.698Y-51.054
X124.714Y-135.89
X125.73Y-54.61
X126.238Y-43.561
X126.746Y-77.216
X126.746Y-88.138
X126.746Y-99.06
X126.746Y-109.982
X126.746Y-120.904
X126.746Y-131.826
X127.Y-62.865
X127.Y-66.04
X127.508Y-51.054
X129.032Y-76.2
X129.032Y-86.868
X129.032Y-97.79
X129.032Y-108.712
X129.032Y-119.888
X129.032Y-130.556
X129.54Y-54.61
X130.81Y-57.15
X130.81Y-62.865
X130.81Y-66.04
X130.81Y-71.882
X130.81Y-138.43
X131.064Y-82.804
X131.064Y-93.726
X131.064Y-104.648
X131.064Y-115.57
X131.318Y-43.561
X131.318Y-51.054
X131.318Y-126.492
X132.08Y-46.99
X133.35Y-54.61
X134.874Y-76.962
X134.874Y-87.884
X134.874Y-98.806
X134.874Y-109.728
X134.874Y-120.65
X134.874Y-131.318
X135.636Y-51.816
X135.89Y-71.882
X135.89Y-82.804
X135.89Y-93.726
X135.89Y-104.648
X135.89Y-115.57
X135.89Y-126.492
X136.144Y-49.53
X136.398Y-43.561
X136.525Y-66.04
X137.16Y-54.61
X138.43Y-57.15
X138.43Y-138.43
X139.065Y-62.23
X139.065Y-66.04
X139.954Y-48.514
X139.954Y-52.324
X139.954Y-131.318
X140.208Y-53.086
X140.208Y-109.728
X140.462Y-76.962
X140.462Y-87.884
X140.462Y-98.806
X140.462Y-120.65
X140.97Y-46.99
X140.97Y-54.61
X141.478Y-43.561
X144.272Y-65.532
X144.272Y-76.962
X144.272Y-87.884
X144.272Y-98.806
X144.272Y-109.728
X144.272Y-120.65
X144.272Y-131.318
X144.526Y-51.308
X144.78Y-54.61
X145.034Y-57.912
X146.05Y-57.15
X146.05Y-138.43
X146.558Y-43.561
X146.812Y-69.85
X146.812Y-81.026
X146.812Y-91.948
X146.812Y-102.87
X146.812Y-113.792
X146.812Y-124.714
X147.574Y-77.47
X147.574Y-88.392
X147.574Y-99.314
X147.574Y-110.236
X147.574Y-121.158
X147.574Y-132.08
X148.59Y-54.61
X148.717Y-51.943
X148.844Y-49.276
X149.098Y-110.236
X150.368Y-45.72
X150.368Y-93.472
X150.622Y-83.312
X151.13Y-90.424
X151.384Y-79.502
X151.638Y-43.561
X151.638Y-101.6
X151.638Y-121.92
X152.15Y-107.97
X152.273Y-126.619
X152.4Y-54.61
X152.4Y-74.422
X152.908Y-86.868
X153.416Y-112.014
X153.46Y-94.41
X153.67Y-57.15
X153.67Y-102.108
X153.67Y-119.38
X153.67Y-123.19
X153.67Y-129.54
X153.67Y-134.62
X153.67Y-138.43
X153.924Y-74.676
X153.924Y-98.044
X153.924Y-110.49
X154.051Y-51.689
X154.051Y-54.61
X154.178Y-113.665
X154.432Y-101.6
X154.686Y-47.244
X154.686Y-114.554
X154.94Y-115.57
X155.16Y-101.04
X155.69Y-103.25
X156.464Y-51.562
X156.591Y-91.186
X156.718Y-43.561
X156.718Y-100.584
X157.48Y-120.65
X157.48Y-125.73
X157.48Y-132.08
X158.369Y-91.694
X158.81Y-98.11
X158.877Y-94.742
X159.512Y-80.01
X159.512Y-110.744
X159.639Y-95.885
X159.766Y-103.632
X160.147Y-91.694
X160.147Y-94.742
X160.401Y-110.744
X160.401Y-112.395
X160.528Y-102.87
X160.528Y-106.426
X160.528Y-109.474
X160.57Y-116.9
X161.187Y-110.032
X161.29Y-57.15
X161.29Y-74.676
X161.29Y-120.65
X161.29Y-128.27
X161.29Y-133.35
X161.29Y-138.43
X161.417Y-112.395
X161.798Y-43.561
X162.306Y-73.66
X163.Y-119.89
X163.068Y-103.886
X163.195Y-55.88
X163.322Y-106.172
X163.322Y-110.998
X163.55Y-96.13
X163.62Y-66.39
X163.627Y-63.195
X163.83Y-102.616
X164.338Y-118.618
X164.37Y-93.67
X164.465Y-53.975
X164.592Y-104.648
X164.68Y-116.01
X164.973Y-105.791
X164.973Y-107.061
X164.973Y-108.331
X164.973Y-109.601
X164.973Y-110.871
X164.973Y-112.141
X165.1Y-71.374
X165.354Y-78.994
X165.608Y-88.646
X165.608Y-102.616
X165.862Y-76.454
X165.862Y-98.298
X166.116Y-83.82
X166.37Y-80.772
X167.488Y-78.08
X168.148Y-70.358
X168.148Y-75.184
X168.91Y-105.41
X168.91Y-113.03
X168.91Y-120.65
T2
X137.922Y-60.706
X137.922Y-68.326
X137.922Y-71.882
X137.922Y-79.502
X137.922Y-82.804
X137.922Y-90.424
X137.922Y-93.726
X137.922Y-101.346
X137.922Y-104.648
X137.922Y-112.268
X137.922Y-115.57
X137.922Y-123.19
X137.922Y-126.492
X137.922Y-134.112
X140.462Y-60.706
X140.462Y-68.326
X140.462Y-71.882
X140.462Y-79.502
X140.462Y-82.804
X140.462Y-90.424
X140.462Y-93.726
X140.462Y-101.346
X140.462Y-104.648
X140.462Y-112.268
X140.462Y-115.57
X140.462Y-123.19
X140.462Y-126.492
X140.462Y-134.112
X143.002Y-60.706
X143.002Y-68.326
X143.002Y-71.882
X143.002Y-79.502
X143.002Y-82.804
X143.002Y-90.424
X143.002Y-93.726
X143.002Y-101.346
X143.002Y-104.648
X143.002Y-112.268
X143.002Y-115.57
X143.002Y-123.19
X143.002Y-126.492
X143.002Y-134.112
X145.542Y-60.706
X145.542Y-68.326
X145.542Y-71.882
X145.542Y-79.502
X145.542Y-82.804
X145.542Y-90.424
X145.542Y-93.726
X145.542Y-101.346
X145.542Y-104.648
X145.542Y-112.268
X145.542Y-115.57
X145.542Y-123.19
X145.542Y-126.492
X145.542Y-134.112
X148.082Y-60.706
X148.082Y-68.326
X148.082Y-71.882
X148.082Y-79.502
X148.082Y-82.804
X148.082Y-90.424
X148.082Y-93.726
X148.082Y-101.346
X148.082Y-104.648
X148.082Y-112.268
X148.082Y-115.57
X148.082Y-123.19
X148.082Y-126.492
X148.082Y-134.112
T3
X76.39Y-62.18
X76.39Y-64.72
X76.39Y-68.453
X76.39Y-70.993
T4
X74.041Y-77.953
X74.041Y-80.493
X74.041Y-83.033
X74.041Y-85.573
X74.041Y-88.113
X74.041Y-90.653
X74.041Y-93.193
X74.041Y-95.733
X74.041Y-98.273
X74.041Y-100.813
X74.592Y-45.971
X74.592Y-48.511
X74.592Y-51.051
X74.592Y-53.591
X74.592Y-56.131
X74.592Y-58.671
X76.581Y-77.953
X76.581Y-80.493
X76.581Y-83.033
X76.581Y-85.573
X76.581Y-88.113
X76.581Y-90.653
X76.581Y-93.193
X76.581Y-95.733
X76.581Y-98.273
X76.581Y-100.813
X81.534Y-45.974
X83.49Y-87.452
X83.49Y-89.992
X83.49Y-92.532
X84.074Y-45.974
X86.03Y-87.452
X86.03Y-89.992
X86.03Y-92.532
X88.646Y-113.03
X88.646Y-115.57
X88.646Y-118.11
X88.646Y-120.65
X88.646Y-124.46
X88.646Y-127.
X88.646Y-129.54
X88.646Y-132.08
X96.266Y-100.584
X96.266Y-103.124
X111.608Y-47.803
X114.148Y-47.803
X116.688Y-47.803
X119.228Y-47.803
X121.768Y-47.803
X124.308Y-47.803
X165.99Y-64.65
X166.16Y-46.95
X166.16Y-49.49
X166.16Y-49.49
X166.16Y-49.49
X166.16Y-49.49
X166.16Y-52.03
X166.16Y-54.57
X166.16Y-57.11
X166.16Y-128.2
X168.53Y-59.57
X168.53Y-62.11
X168.53Y-67.19
X168.7Y-46.95
X168.7Y-49.49
X168.7Y-49.49
X168.7Y-49.49
X168.7Y-49.49
X168.7Y-52.03
X168.7Y-54.57
X168.7Y-57.11
X168.7Y-123.12
X168.7Y-125.66
X168.7Y-130.74
X168.74Y-79.96
X168.74Y-82.5
X168.74Y-85.04
X168.74Y-87.58
X168.74Y-90.12
X168.74Y-92.66
X168.74Y-95.2
X168.74Y-97.74
X168.74Y-100.28
T5
X122.174Y-62.738
X122.174Y-67.818
X122.174Y-73.66
X122.174Y-78.74
X122.174Y-84.582
X122.174Y-89.662
X122.174Y-95.504
X122.174Y-100.584
X122.174Y-106.426
X122.174Y-111.506
X122.174Y-117.348
X122.174Y-122.428
X122.174Y-128.27
X122.174Y-133.35
X126.746Y-81.026
X126.746Y-91.948
X126.746Y-102.87
X126.746Y-113.792
X126.746Y-124.714
X126.746Y-135.636
X131.826Y-81.026
X131.826Y-91.948
X131.826Y-102.87
X131.826Y-113.792
X131.826Y-124.714
X131.826Y-135.636
X134.62Y-62.738
X134.62Y-67.818
X151.69Y-61.23
X152.325Y-58.055
X155.5Y-67.58
X158.04Y-61.23
X160.58Y-67.58
T6
X159.4Y-50.7
T7
X91.948Y-88.9
X96.012Y-61.236
T8
X165.835Y-62.11
X165.835Y-67.19
X166.005Y-125.66
X166.005Y-130.74
X168.245Y-64.65
X168.415Y-128.2
T9
X162.45Y-50.7
T10
X90.Y-43.
X90.Y-137.
X167.Y-43.
X167.Y-137.
T0
M30
