G04 #@! TF.FileFunction,Other,User*
%FSLAX46Y46*%
G04 Gerber Fmt 4.6, Leading zero omitted, Abs format (unit mm)*
G04 Created by KiCad (PCBNEW 4.0.7) date 02/05/18 11:03:03*
%MOMM*%
%LPD*%
G01*
G04 APERTURE LIST*
%ADD10C,0.100000*%
%ADD11C,0.050000*%
G04 APERTURE END LIST*
D10*
D11*
X51436000Y-86306000D02*
X51436000Y-94806000D01*
X51436000Y-94806000D02*
X67386000Y-94806000D01*
X67386000Y-94806000D02*
X67386000Y-86306000D01*
X67386000Y-86306000D02*
X51436000Y-86306000D01*
X51436000Y-31696000D02*
X51436000Y-40196000D01*
X51436000Y-40196000D02*
X67386000Y-40196000D01*
X67386000Y-40196000D02*
X67386000Y-31696000D01*
X67386000Y-31696000D02*
X51436000Y-31696000D01*
X51436000Y-42618000D02*
X51436000Y-51118000D01*
X51436000Y-51118000D02*
X67386000Y-51118000D01*
X67386000Y-51118000D02*
X67386000Y-42618000D01*
X67386000Y-42618000D02*
X51436000Y-42618000D01*
X51436000Y-53540000D02*
X51436000Y-62040000D01*
X51436000Y-62040000D02*
X67386000Y-62040000D01*
X67386000Y-62040000D02*
X67386000Y-53540000D01*
X67386000Y-53540000D02*
X51436000Y-53540000D01*
X9684000Y-58310000D02*
X13384000Y-58310000D01*
X9684000Y-59810000D02*
X13384000Y-59810000D01*
X9684000Y-58310000D02*
X9684000Y-59810000D01*
X13384000Y-58310000D02*
X13384000Y-59810000D01*
X14824000Y-62290000D02*
X14824000Y-65990000D01*
X13324000Y-62290000D02*
X13324000Y-65990000D01*
X14824000Y-62290000D02*
X13324000Y-62290000D01*
X14824000Y-65990000D02*
X13324000Y-65990000D01*
X19904000Y-65846000D02*
X19904000Y-69546000D01*
X18404000Y-65846000D02*
X18404000Y-69546000D01*
X19904000Y-65846000D02*
X18404000Y-65846000D01*
X19904000Y-69546000D02*
X18404000Y-69546000D01*
X22952000Y-41970000D02*
X22952000Y-45670000D01*
X21452000Y-41970000D02*
X21452000Y-45670000D01*
X22952000Y-41970000D02*
X21452000Y-41970000D01*
X22952000Y-45670000D02*
X21452000Y-45670000D01*
X28032000Y-48828000D02*
X28032000Y-52528000D01*
X26532000Y-48828000D02*
X26532000Y-52528000D01*
X28032000Y-48828000D02*
X26532000Y-48828000D01*
X28032000Y-52528000D02*
X26532000Y-52528000D01*
X30596000Y-52528000D02*
X30596000Y-48828000D01*
X32096000Y-52528000D02*
X32096000Y-48828000D01*
X30596000Y-52528000D02*
X32096000Y-52528000D01*
X30596000Y-48828000D02*
X32096000Y-48828000D01*
X19674000Y-45670000D02*
X19674000Y-41970000D01*
X21174000Y-45670000D02*
X21174000Y-41970000D01*
X19674000Y-45670000D02*
X21174000Y-45670000D01*
X19674000Y-41970000D02*
X21174000Y-41970000D01*
X26508000Y-54162000D02*
X26508000Y-57862000D01*
X25008000Y-54162000D02*
X25008000Y-57862000D01*
X26508000Y-54162000D02*
X25008000Y-54162000D01*
X26508000Y-57862000D02*
X25008000Y-57862000D01*
X26508000Y-41970000D02*
X26508000Y-45670000D01*
X25008000Y-41970000D02*
X25008000Y-45670000D01*
X26508000Y-41970000D02*
X25008000Y-41970000D01*
X26508000Y-45670000D02*
X25008000Y-45670000D01*
X28667000Y-54162000D02*
X28667000Y-57862000D01*
X27167000Y-54162000D02*
X27167000Y-57862000D01*
X28667000Y-54162000D02*
X27167000Y-54162000D01*
X28667000Y-57862000D02*
X27167000Y-57862000D01*
X13384000Y-58032000D02*
X9684000Y-58032000D01*
X13384000Y-56532000D02*
X9684000Y-56532000D01*
X13384000Y-58032000D02*
X13384000Y-56532000D01*
X9684000Y-58032000D02*
X9684000Y-56532000D01*
X13384000Y-61588000D02*
X9684000Y-61588000D01*
X13384000Y-60088000D02*
X9684000Y-60088000D01*
X13384000Y-61588000D02*
X13384000Y-60088000D01*
X9684000Y-61588000D02*
X9684000Y-60088000D01*
X28564000Y-52528000D02*
X28564000Y-48828000D01*
X30064000Y-52528000D02*
X30064000Y-48828000D01*
X28564000Y-52528000D02*
X30064000Y-52528000D01*
X28564000Y-48828000D02*
X30064000Y-48828000D01*
X6696000Y-77784000D02*
X6696000Y-81484000D01*
X5196000Y-77784000D02*
X5196000Y-81484000D01*
X6696000Y-77784000D02*
X5196000Y-77784000D01*
X6696000Y-81484000D02*
X5196000Y-81484000D01*
X8728000Y-77784000D02*
X8728000Y-81484000D01*
X7228000Y-77784000D02*
X7228000Y-81484000D01*
X8728000Y-77784000D02*
X7228000Y-77784000D01*
X8728000Y-81484000D02*
X7228000Y-81484000D01*
X27718000Y-42308000D02*
X31418000Y-42308000D01*
X27718000Y-43808000D02*
X31418000Y-43808000D01*
X27718000Y-42308000D02*
X27718000Y-43808000D01*
X31418000Y-42308000D02*
X31418000Y-43808000D01*
X30826000Y-71942000D02*
X30826000Y-75642000D01*
X29326000Y-71942000D02*
X29326000Y-75642000D01*
X30826000Y-71942000D02*
X29326000Y-71942000D01*
X30826000Y-75642000D02*
X29326000Y-75642000D01*
X26786000Y-75642000D02*
X26786000Y-71942000D01*
X28286000Y-75642000D02*
X28286000Y-71942000D01*
X26786000Y-75642000D02*
X28286000Y-75642000D01*
X26786000Y-71942000D02*
X28286000Y-71942000D01*
X9260000Y-81484000D02*
X9260000Y-77784000D01*
X10760000Y-81484000D02*
X10760000Y-77784000D01*
X9260000Y-81484000D02*
X10760000Y-81484000D01*
X9260000Y-77784000D02*
X10760000Y-77784000D01*
X12876000Y-76320000D02*
X9176000Y-76320000D01*
X12876000Y-74820000D02*
X9176000Y-74820000D01*
X12876000Y-76320000D02*
X12876000Y-74820000D01*
X9176000Y-76320000D02*
X9176000Y-74820000D01*
X24466000Y-58784000D02*
X24466000Y-64934000D01*
X24466000Y-64934000D02*
X28066000Y-64934000D01*
X28066000Y-64934000D02*
X28066000Y-58784000D01*
X28066000Y-58784000D02*
X24466000Y-58784000D01*
X16846000Y-82660000D02*
X16846000Y-93860000D01*
X16846000Y-93860000D02*
X20446000Y-93860000D01*
X20446000Y-93860000D02*
X20446000Y-82660000D01*
X20446000Y-82660000D02*
X16846000Y-82660000D01*
X16846000Y-71230000D02*
X16846000Y-82430000D01*
X16846000Y-82430000D02*
X20446000Y-82430000D01*
X20446000Y-82430000D02*
X20446000Y-71230000D01*
X20446000Y-71230000D02*
X16846000Y-71230000D01*
X15874000Y-4174000D02*
X9724000Y-4174000D01*
X9724000Y-4174000D02*
X9724000Y-7774000D01*
X9724000Y-7774000D02*
X15874000Y-7774000D01*
X15874000Y-7774000D02*
X15874000Y-4174000D01*
X6392180Y-20471460D02*
X6392180Y-4171460D01*
X6392180Y-4171460D02*
X2792180Y-4171460D01*
X2792180Y-4171460D02*
X2792180Y-20471460D01*
X2792180Y-20471460D02*
X6392180Y-20471460D01*
X24730000Y-41970000D02*
X24730000Y-45670000D01*
X23230000Y-41970000D02*
X23230000Y-45670000D01*
X24730000Y-41970000D02*
X23230000Y-41970000D01*
X24730000Y-45670000D02*
X23230000Y-45670000D01*
X22976000Y-57862000D02*
X22976000Y-54162000D01*
X24476000Y-57862000D02*
X24476000Y-54162000D01*
X22976000Y-57862000D02*
X24476000Y-57862000D01*
X22976000Y-54162000D02*
X24476000Y-54162000D01*
X29199000Y-57862000D02*
X29199000Y-54162000D01*
X30699000Y-57862000D02*
X30699000Y-54162000D01*
X29199000Y-57862000D02*
X30699000Y-57862000D01*
X29199000Y-54162000D02*
X30699000Y-54162000D01*
X12792000Y-77784000D02*
X12792000Y-81484000D01*
X11292000Y-77784000D02*
X11292000Y-81484000D01*
X12792000Y-77784000D02*
X11292000Y-77784000D01*
X12792000Y-81484000D02*
X11292000Y-81484000D01*
X24398000Y-46450000D02*
X19498000Y-46450000D01*
X24398000Y-51350000D02*
X19498000Y-51350000D01*
X24398000Y-46450000D02*
X24398000Y-51350000D01*
X19498000Y-46450000D02*
X19498000Y-51350000D01*
X29436000Y-13362000D02*
X25636000Y-13362000D01*
X25636000Y-13362000D02*
X25636000Y-9762000D01*
X25636000Y-9762000D02*
X29436000Y-9762000D01*
X29436000Y-9762000D02*
X29436000Y-13362000D01*
X18312000Y-14262000D02*
X18312000Y-8862000D01*
X10852000Y-14262000D02*
X10852000Y-8862000D01*
X18312000Y-14262000D02*
X10852000Y-14262000D01*
X18312000Y-8862000D02*
X10852000Y-8862000D01*
X65558000Y-8994000D02*
X62158000Y-8994000D01*
X62158000Y-8994000D02*
X62158000Y-5494000D01*
X62158000Y-5494000D02*
X65558000Y-5494000D01*
X65558000Y-5494000D02*
X65558000Y-8994000D01*
X74448000Y-8994000D02*
X71048000Y-8994000D01*
X71048000Y-8994000D02*
X71048000Y-5494000D01*
X71048000Y-5494000D02*
X74448000Y-5494000D01*
X74448000Y-5494000D02*
X74448000Y-8994000D01*
X62158000Y-9812000D02*
X65558000Y-9812000D01*
X65558000Y-9812000D02*
X65558000Y-13312000D01*
X65558000Y-13312000D02*
X62158000Y-13312000D01*
X62158000Y-13312000D02*
X62158000Y-9812000D01*
X71048000Y-9812000D02*
X74448000Y-9812000D01*
X74448000Y-9812000D02*
X74448000Y-13312000D01*
X74448000Y-13312000D02*
X71048000Y-13312000D01*
X71048000Y-13312000D02*
X71048000Y-9812000D01*
X68418000Y-7934000D02*
X68418000Y-11634000D01*
X66918000Y-7934000D02*
X66918000Y-11634000D01*
X68418000Y-7934000D02*
X66918000Y-7934000D01*
X68418000Y-11634000D02*
X66918000Y-11634000D01*
X77308000Y-7807000D02*
X77308000Y-11507000D01*
X75808000Y-7807000D02*
X75808000Y-11507000D01*
X77308000Y-7807000D02*
X75808000Y-7807000D01*
X77308000Y-11507000D02*
X75808000Y-11507000D01*
X88000000Y-7570000D02*
X88000000Y-3870000D01*
X89500000Y-7570000D02*
X89500000Y-3870000D01*
X88000000Y-7570000D02*
X89500000Y-7570000D01*
X88000000Y-3870000D02*
X89500000Y-3870000D01*
X55290000Y-33128000D02*
X63790000Y-33128000D01*
X63790000Y-33128000D02*
X63790000Y-17178000D01*
X63790000Y-17178000D02*
X55290000Y-17178000D01*
X55290000Y-17178000D02*
X55290000Y-33128000D01*
X51436000Y-64462000D02*
X51436000Y-72962000D01*
X51436000Y-72962000D02*
X67386000Y-72962000D01*
X67386000Y-72962000D02*
X67386000Y-64462000D01*
X67386000Y-64462000D02*
X51436000Y-64462000D01*
X51436000Y-75384000D02*
X51436000Y-83884000D01*
X51436000Y-83884000D02*
X67386000Y-83884000D01*
X67386000Y-83884000D02*
X67386000Y-75384000D01*
X67386000Y-75384000D02*
X51436000Y-75384000D01*
X42844000Y-33128000D02*
X51344000Y-33128000D01*
X51344000Y-33128000D02*
X51344000Y-17178000D01*
X51344000Y-17178000D02*
X42844000Y-17178000D01*
X42844000Y-17178000D02*
X42844000Y-33128000D01*
X42844000Y-44050000D02*
X51344000Y-44050000D01*
X51344000Y-44050000D02*
X51344000Y-28100000D01*
X51344000Y-28100000D02*
X42844000Y-28100000D01*
X42844000Y-28100000D02*
X42844000Y-44050000D01*
X42844000Y-54972000D02*
X51344000Y-54972000D01*
X51344000Y-54972000D02*
X51344000Y-39022000D01*
X51344000Y-39022000D02*
X42844000Y-39022000D01*
X42844000Y-39022000D02*
X42844000Y-54972000D01*
X42844000Y-65894000D02*
X51344000Y-65894000D01*
X51344000Y-65894000D02*
X51344000Y-49944000D01*
X51344000Y-49944000D02*
X42844000Y-49944000D01*
X42844000Y-49944000D02*
X42844000Y-65894000D01*
X42844000Y-76816000D02*
X51344000Y-76816000D01*
X51344000Y-76816000D02*
X51344000Y-60866000D01*
X51344000Y-60866000D02*
X42844000Y-60866000D01*
X42844000Y-60866000D02*
X42844000Y-76816000D01*
X42844000Y-87738000D02*
X51344000Y-87738000D01*
X51344000Y-87738000D02*
X51344000Y-71788000D01*
X51344000Y-71788000D02*
X42844000Y-71788000D01*
X42844000Y-71788000D02*
X42844000Y-87738000D01*
X42844000Y-98660000D02*
X51344000Y-98660000D01*
X51344000Y-98660000D02*
X51344000Y-82710000D01*
X51344000Y-82710000D02*
X42844000Y-82710000D01*
X42844000Y-82710000D02*
X42844000Y-98660000D01*
X96738000Y-80018000D02*
X96738000Y-77218000D01*
X91938000Y-77218000D02*
X91938000Y-80018000D01*
X91938000Y-77218000D02*
X96738000Y-77218000D01*
X92738000Y-80018000D02*
X95938000Y-80018000D01*
X80758000Y-39212000D02*
X80758000Y-34712000D01*
X80758000Y-39212000D02*
X82508000Y-39212000D01*
X82508000Y-34712000D02*
X80758000Y-34712000D01*
X82508000Y-34712000D02*
X82508000Y-39212000D01*
X80504000Y-50388000D02*
X80504000Y-45888000D01*
X80504000Y-50388000D02*
X82254000Y-50388000D01*
X82254000Y-45888000D02*
X80504000Y-45888000D01*
X82254000Y-45888000D02*
X82254000Y-50388000D01*
X82518000Y-62906000D02*
X82518000Y-67406000D01*
X82518000Y-62906000D02*
X80768000Y-62906000D01*
X80768000Y-67406000D02*
X82518000Y-67406000D01*
X80768000Y-67406000D02*
X80768000Y-62906000D01*
X80758000Y-73248000D02*
X80758000Y-68748000D01*
X80758000Y-73248000D02*
X82508000Y-73248000D01*
X82508000Y-68748000D02*
X80758000Y-68748000D01*
X82508000Y-68748000D02*
X82508000Y-73248000D01*
X82518000Y-81956000D02*
X82518000Y-86456000D01*
X82518000Y-81956000D02*
X80768000Y-81956000D01*
X80768000Y-86456000D02*
X82518000Y-86456000D01*
X80768000Y-86456000D02*
X80768000Y-81956000D01*
X93790000Y-57570000D02*
X89290000Y-57570000D01*
X93790000Y-57570000D02*
X93790000Y-55820000D01*
X89290000Y-55820000D02*
X89290000Y-57570000D01*
X89290000Y-55820000D02*
X93790000Y-55820000D01*
X94048000Y-76450000D02*
X89548000Y-76450000D01*
X94048000Y-76450000D02*
X94048000Y-74700000D01*
X89548000Y-74700000D02*
X89548000Y-76450000D01*
X89548000Y-74700000D02*
X94048000Y-74700000D01*
X83987000Y-51810000D02*
X88687000Y-51810000D01*
X83987000Y-51810000D02*
X83987000Y-53610000D01*
X88687000Y-53610000D02*
X88687000Y-51810000D01*
X88687000Y-53610000D02*
X83987000Y-53610000D01*
X88687000Y-55515000D02*
X83987000Y-55515000D01*
X88687000Y-55515000D02*
X88687000Y-53715000D01*
X83987000Y-53715000D02*
X83987000Y-55515000D01*
X83987000Y-53715000D02*
X88687000Y-53715000D01*
X94910000Y-53610000D02*
X90210000Y-53610000D01*
X94910000Y-53610000D02*
X94910000Y-51810000D01*
X90210000Y-51810000D02*
X90210000Y-53610000D01*
X90210000Y-51810000D02*
X94910000Y-51810000D01*
X90210000Y-53715000D02*
X94910000Y-53715000D01*
X90210000Y-53715000D02*
X90210000Y-55515000D01*
X94910000Y-55515000D02*
X94910000Y-53715000D01*
X94910000Y-55515000D02*
X90210000Y-55515000D01*
X78768000Y-13212000D02*
X78768000Y-9912000D01*
X78768000Y-9912000D02*
X81968000Y-9912000D01*
X81968000Y-9912000D02*
X81968000Y-13212000D01*
X81968000Y-13212000D02*
X78768000Y-13212000D01*
X92392000Y-33496000D02*
X96792000Y-33496000D01*
X92392000Y-38546000D02*
X92392000Y-33496000D01*
X96792000Y-38546000D02*
X92392000Y-38546000D01*
X96792000Y-33496000D02*
X96792000Y-38546000D01*
X98110000Y-74500000D02*
X98110000Y-62200000D01*
X86210000Y-74500000D02*
X86210000Y-62200000D01*
X98110000Y-74500000D02*
X86210000Y-74500000D01*
X98110000Y-62200000D02*
X86210000Y-62200000D01*
X8498000Y-65736000D02*
X8498000Y-62036000D01*
X9998000Y-65736000D02*
X9998000Y-62036000D01*
X8498000Y-65736000D02*
X9998000Y-65736000D01*
X8498000Y-62036000D02*
X9998000Y-62036000D01*
X3164000Y-65990000D02*
X3164000Y-62290000D01*
X4664000Y-65990000D02*
X4664000Y-62290000D01*
X3164000Y-65990000D02*
X4664000Y-65990000D01*
X3164000Y-62290000D02*
X4664000Y-62290000D01*
X878000Y-65990000D02*
X878000Y-62290000D01*
X2378000Y-65990000D02*
X2378000Y-62290000D01*
X878000Y-65990000D02*
X2378000Y-65990000D01*
X878000Y-62290000D02*
X2378000Y-62290000D01*
X16729000Y-29143000D02*
X16729000Y-32843000D01*
X15229000Y-29143000D02*
X15229000Y-32843000D01*
X16729000Y-29143000D02*
X15229000Y-29143000D01*
X16729000Y-32843000D02*
X15229000Y-32843000D01*
X78970000Y-16130000D02*
X78970000Y-26330000D01*
X78970000Y-26330000D02*
X96870000Y-26330000D01*
X96870000Y-26330000D02*
X96870000Y-16130000D01*
X96870000Y-16130000D02*
X78970000Y-16130000D01*
M02*
