G04 #@! TF.FileFunction,Paste,Top*
%FSLAX46Y46*%
G04 Gerber Fmt 4.6, Leading zero omitted, Abs format (unit mm)*
G04 Created by KiCad (PCBNEW 4.0.7) date 02/08/18 06:22:55*
%MOMM*%
%LPD*%
G01*
G04 APERTURE LIST*
%ADD10C,0.100000*%
%ADD11R,5.000000X1.600000*%
%ADD12R,5.000000X3.300000*%
%ADD13R,1.397000X0.889000*%
%ADD14R,0.635000X1.143000*%
%ADD15R,1.143000X0.635000*%
%ADD16R,1.600000X1.800000*%
%ADD17R,5.700000X2.400000*%
%ADD18R,1.050000X0.600000*%
%ADD19R,1.100000X0.510000*%
%ADD20R,2.600000X3.500000*%
%ADD21R,1.200000X0.750000*%
%ADD22R,0.750000X1.200000*%
%ADD23R,1.800860X2.148840*%
%ADD24R,2.148840X1.800860*%
%ADD25R,2.200000X2.800000*%
%ADD26R,1.100000X0.300000*%
%ADD27R,2.000000X1.500000*%
%ADD28R,0.599440X0.500380*%
%ADD29O,0.200000X0.750000*%
%ADD30R,0.200000X0.800000*%
%ADD31O,0.750000X0.200000*%
%ADD32R,0.800000X0.200000*%
%ADD33R,0.795000X0.795000*%
%ADD34R,1.060000X0.650000*%
%ADD35R,1.550000X0.600000*%
%ADD36R,0.900000X0.800000*%
%ADD37R,1.500000X0.400000*%
%ADD38R,1.250000X1.500000*%
%ADD39R,1.500000X1.250000*%
%ADD40R,1.500000X1.300000*%
%ADD41R,0.800100X0.800100*%
%ADD42R,1.200000X1.200000*%
%ADD43R,1.600000X1.500000*%
%ADD44R,2.000000X0.600000*%
G04 APERTURE END LIST*
D10*
D11*
X97200000Y-88200000D03*
D12*
X97200000Y-91500000D03*
X97200000Y-84900000D03*
X97200000Y-84900000D03*
D11*
X97030000Y-24650000D03*
D12*
X97030000Y-27950000D03*
X97030000Y-21350000D03*
X97030000Y-21350000D03*
D13*
X31092000Y-11498500D03*
X31092000Y-9593500D03*
D14*
X26774000Y-8514000D03*
X28298000Y-8514000D03*
D13*
X20932000Y-18737500D03*
X20932000Y-20642500D03*
D15*
X24234000Y-12578000D03*
X24234000Y-11054000D03*
D13*
X29822000Y-23055500D03*
X29822000Y-24960500D03*
D14*
X15598000Y-15372000D03*
X17122000Y-15372000D03*
X25250000Y-24262000D03*
X26774000Y-24262000D03*
D13*
X20932000Y-24452500D03*
X20932000Y-22547500D03*
X10772000Y-24452500D03*
X10772000Y-22547500D03*
D16*
X19532000Y-26802000D03*
X22332000Y-26802000D03*
D17*
X15598000Y-23418000D03*
X15598000Y-19518000D03*
D15*
X7724000Y-16642000D03*
X7724000Y-18166000D03*
X20170000Y-7752000D03*
X20170000Y-9276000D03*
X20170000Y-12324000D03*
X20170000Y-10800000D03*
D14*
X25250000Y-26040000D03*
X26774000Y-26040000D03*
D15*
X31092000Y-18928000D03*
X31092000Y-17404000D03*
D18*
X16360000Y-62870000D03*
X16360000Y-63820000D03*
X16360000Y-64770000D03*
X19060000Y-64770000D03*
X19060000Y-62870000D03*
D19*
X23362000Y-21341000D03*
X28662000Y-21341000D03*
X23362000Y-20071000D03*
X28662000Y-20071000D03*
X23362000Y-18801000D03*
X28662000Y-18801000D03*
X23362000Y-17531000D03*
X28662000Y-17531000D03*
D20*
X26012000Y-19436000D03*
D21*
X10584000Y-59060000D03*
X12484000Y-59060000D03*
D22*
X14074000Y-63190000D03*
X14074000Y-65090000D03*
D23*
X15852000Y-59923600D03*
X15852000Y-56672400D03*
D22*
X19154000Y-66746000D03*
X19154000Y-68646000D03*
D23*
X19662000Y-59923600D03*
X19662000Y-56672400D03*
D22*
X22202000Y-42870000D03*
X22202000Y-44770000D03*
D23*
X22456000Y-66781600D03*
X22456000Y-63530400D03*
D22*
X27282000Y-49728000D03*
X27282000Y-51628000D03*
X31346000Y-51628000D03*
X31346000Y-49728000D03*
D24*
X31193600Y-46868000D03*
X27942400Y-46868000D03*
D22*
X20424000Y-44770000D03*
X20424000Y-42870000D03*
X25758000Y-55062000D03*
X25758000Y-56962000D03*
X25758000Y-42870000D03*
X25758000Y-44770000D03*
X27917000Y-55062000D03*
X27917000Y-56962000D03*
D21*
X12484000Y-57282000D03*
X10584000Y-57282000D03*
X12484000Y-60838000D03*
X10584000Y-60838000D03*
D22*
X29314000Y-51628000D03*
X29314000Y-49728000D03*
X5946000Y-78684000D03*
X5946000Y-80584000D03*
X7978000Y-78684000D03*
X7978000Y-80584000D03*
D21*
X28618000Y-43058000D03*
X30518000Y-43058000D03*
D22*
X30076000Y-72842000D03*
X30076000Y-74742000D03*
X27536000Y-74742000D03*
X27536000Y-72842000D03*
X10010000Y-80584000D03*
X10010000Y-78684000D03*
D21*
X11976000Y-75570000D03*
X10076000Y-75570000D03*
D25*
X13600000Y-94700000D03*
X6100000Y-87300000D03*
X4200000Y-94700000D03*
X1400000Y-94700000D03*
X13500000Y-72900000D03*
X6000000Y-65500000D03*
X4100000Y-72900000D03*
X1300000Y-72900000D03*
D26*
X24996000Y-87440000D03*
X24996000Y-86940000D03*
X24996000Y-86440000D03*
X24996000Y-85940000D03*
X24996000Y-85440000D03*
X24996000Y-84940000D03*
X24996000Y-84440000D03*
X24996000Y-83940000D03*
X24996000Y-83440000D03*
X24996000Y-82940000D03*
X24996000Y-82440000D03*
X24996000Y-81940000D03*
X24996000Y-81440000D03*
X24996000Y-87940000D03*
X24996000Y-78440000D03*
X24996000Y-78940000D03*
X24996000Y-79440000D03*
X24996000Y-79940000D03*
X24996000Y-80440000D03*
X24996000Y-80940000D03*
D27*
X23846000Y-76490000D03*
X23846000Y-89890000D03*
D28*
X9136240Y-8760380D03*
X9136240Y-7759620D03*
X7835760Y-8260000D03*
D22*
X23980000Y-42870000D03*
X23980000Y-44770000D03*
X23726000Y-56962000D03*
X23726000Y-55062000D03*
X29949000Y-56962000D03*
X29949000Y-55062000D03*
X12042000Y-78684000D03*
X12042000Y-80584000D03*
D29*
X23348000Y-46875000D03*
D30*
X22948000Y-46900000D03*
X22548000Y-46900000D03*
X22148000Y-46900000D03*
X21748000Y-46900000D03*
X21348000Y-46900000D03*
X20948000Y-46900000D03*
D29*
X20548000Y-46875000D03*
D31*
X19923000Y-47500000D03*
D32*
X19948000Y-47900000D03*
X19948000Y-48300000D03*
X19948000Y-48700000D03*
X19948000Y-49100000D03*
X19948000Y-49500000D03*
X19948000Y-49900000D03*
D31*
X19923000Y-50300000D03*
D29*
X20548000Y-50925000D03*
D30*
X20948000Y-50900000D03*
X21348000Y-50900000D03*
X21748000Y-50900000D03*
X22148000Y-50900000D03*
X22548000Y-50900000D03*
X22948000Y-50900000D03*
D29*
X23348000Y-50925000D03*
D31*
X23973000Y-50300000D03*
D32*
X23948000Y-49900000D03*
X23948000Y-49500000D03*
X23948000Y-49100000D03*
X23948000Y-48700000D03*
X23948000Y-48300000D03*
X23948000Y-47900000D03*
D31*
X23973000Y-47500000D03*
D33*
X21285500Y-49562500D03*
X22610500Y-49562500D03*
X21285500Y-48237500D03*
X22610500Y-48237500D03*
D34*
X28636000Y-12512000D03*
X28636000Y-11562000D03*
X28636000Y-10612000D03*
X26436000Y-10612000D03*
X26436000Y-12512000D03*
D35*
X17282000Y-13467000D03*
X17282000Y-12197000D03*
X17282000Y-10927000D03*
X17282000Y-9657000D03*
X11882000Y-9657000D03*
X11882000Y-10927000D03*
X11882000Y-12197000D03*
X11882000Y-13467000D03*
D36*
X64858000Y-8194000D03*
X64858000Y-6294000D03*
X62858000Y-7244000D03*
X73748000Y-8194000D03*
X73748000Y-6294000D03*
X71748000Y-7244000D03*
X62858000Y-10612000D03*
X62858000Y-12512000D03*
X64858000Y-11562000D03*
X71748000Y-10612000D03*
X71748000Y-12512000D03*
X73748000Y-11562000D03*
D22*
X67668000Y-8834000D03*
X67668000Y-10734000D03*
X76558000Y-8707000D03*
X76558000Y-10607000D03*
X88750000Y-6670000D03*
X88750000Y-4770000D03*
D36*
X90528000Y-5278000D03*
X92528000Y-6228000D03*
X90528000Y-7178000D03*
D37*
X93008000Y-77968000D03*
X93008000Y-78618000D03*
X93008000Y-79268000D03*
X95668000Y-79268000D03*
X95668000Y-77968000D03*
D38*
X81638000Y-38212000D03*
X81638000Y-35712000D03*
X81384000Y-49388000D03*
X81384000Y-46888000D03*
X81638000Y-63906000D03*
X81638000Y-66406000D03*
X81638000Y-72248000D03*
X81638000Y-69748000D03*
X81638000Y-82956000D03*
X81638000Y-85456000D03*
D39*
X92790000Y-56690000D03*
X90290000Y-56690000D03*
X93048000Y-75570000D03*
X90548000Y-75570000D03*
D40*
X84987000Y-52710000D03*
X87687000Y-52710000D03*
X87687000Y-54615000D03*
X84987000Y-54615000D03*
X93910000Y-52710000D03*
X91210000Y-52710000D03*
X91210000Y-54615000D03*
X93910000Y-54615000D03*
D41*
X81368760Y-12512000D03*
X81368760Y-10612000D03*
X79369780Y-11562000D03*
D42*
X95992000Y-34326000D03*
X93192000Y-34326000D03*
D43*
X94592000Y-37566000D03*
D44*
X96860000Y-73430000D03*
X96860000Y-72160000D03*
X96860000Y-70890000D03*
X96860000Y-69620000D03*
X96860000Y-68350000D03*
X96860000Y-67080000D03*
X96860000Y-65810000D03*
X96860000Y-64540000D03*
X96860000Y-63270000D03*
X87460000Y-63270000D03*
X87460000Y-64540000D03*
X87460000Y-65810000D03*
X87460000Y-67080000D03*
X87460000Y-68350000D03*
X87460000Y-69620000D03*
X87460000Y-70890000D03*
X87460000Y-72160000D03*
X87460000Y-73430000D03*
D22*
X9248000Y-64836000D03*
X9248000Y-62936000D03*
X3914000Y-65090000D03*
X3914000Y-63190000D03*
X1628000Y-65090000D03*
X1628000Y-63190000D03*
D28*
X85305760Y-5981620D03*
X85305760Y-6982380D03*
X86606240Y-6482000D03*
D36*
X14201000Y-31943000D03*
X12201000Y-30993000D03*
X14201000Y-30043000D03*
D28*
X18915240Y-32128380D03*
X18915240Y-31127620D03*
X17614760Y-31628000D03*
D22*
X15979000Y-30043000D03*
X15979000Y-31943000D03*
M02*
