%FSLAX45Y45*%
G04 Gerber Fmt 4.5, Leading zero omitted, Abs format (unit mm)*
G04 Created by KiCad (PCBNEW 4.0.7) date 02/08/18 06:23:07*
%MOMM*%
%LPD*%
G01*
G04 APERTURE LIST*
%ADD10C,0.127000*%
%ADD11C,0.150000*%
%ADD12C,0.200000*%
%ADD13C,0.300000*%
G04 APERTURE END LIST*
D10*
D11*
X0Y0D02*
X9995000Y0D01*
X0Y-10000000D02*
X9995000Y-10000000D01*
X9995000Y0D02*
X9995000Y-10000000D01*
X0Y0D02*
X0Y-10000000D01*
D12*
X435000Y-6835000D02*
X605000Y-7005000D01*
X605000Y-6835000D02*
X435000Y-7005000D01*
X445000Y-9015000D02*
X615000Y-9185000D01*
X615000Y-9015000D02*
X445000Y-9185000D01*
X1135000Y-6835000D02*
X1305000Y-7005000D01*
X1305000Y-6835000D02*
X1135000Y-7005000D01*
X1145000Y-9015000D02*
X1315000Y-9185000D01*
X1315000Y-9015000D02*
X1145000Y-9185000D01*
D13*
X263929Y-10473214D02*
X263929Y-10173214D01*
X335357Y-10173214D01*
X378214Y-10187500D01*
X406786Y-10216072D01*
X421071Y-10244643D01*
X435357Y-10301786D01*
X435357Y-10344643D01*
X421071Y-10401786D01*
X406786Y-10430357D01*
X378214Y-10458929D01*
X335357Y-10473214D01*
X263929Y-10473214D01*
X563929Y-10473214D02*
X563929Y-10273214D01*
X563929Y-10330357D02*
X578214Y-10301786D01*
X592500Y-10287500D01*
X621071Y-10273214D01*
X649643Y-10273214D01*
X749643Y-10473214D02*
X749643Y-10273214D01*
X749643Y-10173214D02*
X735357Y-10187500D01*
X749643Y-10201786D01*
X763928Y-10187500D01*
X749643Y-10173214D01*
X749643Y-10201786D01*
X935357Y-10473214D02*
X906786Y-10458929D01*
X892500Y-10430357D01*
X892500Y-10173214D01*
X1092500Y-10473214D02*
X1063929Y-10458929D01*
X1049643Y-10430357D01*
X1049643Y-10173214D01*
X1435357Y-10473214D02*
X1435357Y-10173214D01*
X1535357Y-10387500D01*
X1635357Y-10173214D01*
X1635357Y-10473214D01*
X1906786Y-10473214D02*
X1906786Y-10316072D01*
X1892500Y-10287500D01*
X1863928Y-10273214D01*
X1806786Y-10273214D01*
X1778214Y-10287500D01*
X1906786Y-10458929D02*
X1878214Y-10473214D01*
X1806786Y-10473214D01*
X1778214Y-10458929D01*
X1763928Y-10430357D01*
X1763928Y-10401786D01*
X1778214Y-10373214D01*
X1806786Y-10358929D01*
X1878214Y-10358929D01*
X1906786Y-10344643D01*
X2049643Y-10273214D02*
X2049643Y-10573214D01*
X2049643Y-10287500D02*
X2078214Y-10273214D01*
X2135357Y-10273214D01*
X2163929Y-10287500D01*
X2178214Y-10301786D01*
X2192500Y-10330357D01*
X2192500Y-10416072D01*
X2178214Y-10444643D01*
X2163929Y-10458929D01*
X2135357Y-10473214D01*
X2078214Y-10473214D01*
X2049643Y-10458929D01*
X2321071Y-10444643D02*
X2335357Y-10458929D01*
X2321071Y-10473214D01*
X2306786Y-10458929D01*
X2321071Y-10444643D01*
X2321071Y-10473214D01*
X2321071Y-10287500D02*
X2335357Y-10301786D01*
X2321071Y-10316072D01*
X2306786Y-10301786D01*
X2321071Y-10287500D01*
X2321071Y-10316072D01*
X-177500Y-10882500D02*
X-7500Y-11052500D01*
X-7500Y-10882500D02*
X-177500Y-11052500D01*
X421071Y-11103214D02*
X249643Y-11103214D01*
X335357Y-11103214D02*
X335357Y-10803214D01*
X306786Y-10846072D01*
X278214Y-10874643D01*
X249643Y-10888929D01*
X549643Y-11074643D02*
X563929Y-11088929D01*
X549643Y-11103214D01*
X535357Y-11088929D01*
X549643Y-11074643D01*
X549643Y-11103214D01*
X663928Y-10803214D02*
X863928Y-10803214D01*
X735357Y-11103214D01*
X1035357Y-10803214D02*
X1063929Y-10803214D01*
X1092500Y-10817500D01*
X1106786Y-10831786D01*
X1121071Y-10860357D01*
X1135357Y-10917500D01*
X1135357Y-10988929D01*
X1121071Y-11046072D01*
X1106786Y-11074643D01*
X1092500Y-11088929D01*
X1063929Y-11103214D01*
X1035357Y-11103214D01*
X1006786Y-11088929D01*
X992500Y-11074643D01*
X978214Y-11046072D01*
X963928Y-10988929D01*
X963928Y-10917500D01*
X978214Y-10860357D01*
X992500Y-10831786D01*
X1006786Y-10817500D01*
X1035357Y-10803214D01*
X1263929Y-11103214D02*
X1263929Y-10903214D01*
X1263929Y-10931786D02*
X1278214Y-10917500D01*
X1306786Y-10903214D01*
X1349643Y-10903214D01*
X1378214Y-10917500D01*
X1392500Y-10946072D01*
X1392500Y-11103214D01*
X1392500Y-10946072D02*
X1406786Y-10917500D01*
X1435357Y-10903214D01*
X1478214Y-10903214D01*
X1506786Y-10917500D01*
X1521071Y-10946072D01*
X1521071Y-11103214D01*
X1663928Y-11103214D02*
X1663928Y-10903214D01*
X1663928Y-10931786D02*
X1678214Y-10917500D01*
X1706786Y-10903214D01*
X1749643Y-10903214D01*
X1778214Y-10917500D01*
X1792500Y-10946072D01*
X1792500Y-11103214D01*
X1792500Y-10946072D02*
X1806786Y-10917500D01*
X1835357Y-10903214D01*
X1878214Y-10903214D01*
X1906786Y-10917500D01*
X1921071Y-10946072D01*
X1921071Y-11103214D01*
X2506786Y-10788929D02*
X2249643Y-11174643D01*
X2892500Y-10803214D02*
X2921071Y-10803214D01*
X2949643Y-10817500D01*
X2963928Y-10831786D01*
X2978214Y-10860357D01*
X2992500Y-10917500D01*
X2992500Y-10988929D01*
X2978214Y-11046072D01*
X2963928Y-11074643D01*
X2949643Y-11088929D01*
X2921071Y-11103214D01*
X2892500Y-11103214D01*
X2863928Y-11088929D01*
X2849643Y-11074643D01*
X2835357Y-11046072D01*
X2821071Y-10988929D01*
X2821071Y-10917500D01*
X2835357Y-10860357D01*
X2849643Y-10831786D01*
X2863928Y-10817500D01*
X2892500Y-10803214D01*
X3121071Y-11074643D02*
X3135357Y-11088929D01*
X3121071Y-11103214D01*
X3106786Y-11088929D01*
X3121071Y-11074643D01*
X3121071Y-11103214D01*
X3321071Y-10803214D02*
X3349643Y-10803214D01*
X3378214Y-10817500D01*
X3392500Y-10831786D01*
X3406785Y-10860357D01*
X3421071Y-10917500D01*
X3421071Y-10988929D01*
X3406785Y-11046072D01*
X3392500Y-11074643D01*
X3378214Y-11088929D01*
X3349643Y-11103214D01*
X3321071Y-11103214D01*
X3292500Y-11088929D01*
X3278214Y-11074643D01*
X3263928Y-11046072D01*
X3249643Y-10988929D01*
X3249643Y-10917500D01*
X3263928Y-10860357D01*
X3278214Y-10831786D01*
X3292500Y-10817500D01*
X3321071Y-10803214D01*
X3678214Y-10803214D02*
X3621071Y-10803214D01*
X3592500Y-10817500D01*
X3578214Y-10831786D01*
X3549643Y-10874643D01*
X3535357Y-10931786D01*
X3535357Y-11046072D01*
X3549643Y-11074643D01*
X3563928Y-11088929D01*
X3592500Y-11103214D01*
X3649643Y-11103214D01*
X3678214Y-11088929D01*
X3692500Y-11074643D01*
X3706785Y-11046072D01*
X3706785Y-10974643D01*
X3692500Y-10946072D01*
X3678214Y-10931786D01*
X3649643Y-10917500D01*
X3592500Y-10917500D01*
X3563928Y-10931786D01*
X3549643Y-10946072D01*
X3535357Y-10974643D01*
X3806785Y-10803214D02*
X4006785Y-10803214D01*
X3878214Y-11103214D01*
X4106786Y-10803214D02*
X4106786Y-10860357D01*
X4221071Y-10803214D02*
X4221071Y-10860357D01*
X4663928Y-11217500D02*
X4649643Y-11203214D01*
X4621071Y-11160357D01*
X4606786Y-11131786D01*
X4592500Y-11088929D01*
X4578214Y-11017500D01*
X4578214Y-10960357D01*
X4592500Y-10888929D01*
X4606786Y-10846072D01*
X4621071Y-10817500D01*
X4649643Y-10774643D01*
X4663928Y-10760357D01*
X4906786Y-10903214D02*
X4906786Y-11103214D01*
X4835357Y-10788929D02*
X4763928Y-11003214D01*
X4949643Y-11003214D01*
X5292500Y-11103214D02*
X5292500Y-10803214D01*
X5421071Y-11103214D02*
X5421071Y-10946072D01*
X5406786Y-10917500D01*
X5378214Y-10903214D01*
X5335357Y-10903214D01*
X5306786Y-10917500D01*
X5292500Y-10931786D01*
X5606785Y-11103214D02*
X5578214Y-11088929D01*
X5563928Y-11074643D01*
X5549643Y-11046072D01*
X5549643Y-10960357D01*
X5563928Y-10931786D01*
X5578214Y-10917500D01*
X5606785Y-10903214D01*
X5649643Y-10903214D01*
X5678214Y-10917500D01*
X5692500Y-10931786D01*
X5706785Y-10960357D01*
X5706785Y-11046072D01*
X5692500Y-11074643D01*
X5678214Y-11088929D01*
X5649643Y-11103214D01*
X5606785Y-11103214D01*
X5878214Y-11103214D02*
X5849643Y-11088929D01*
X5835357Y-11060357D01*
X5835357Y-10803214D01*
X6106786Y-11088929D02*
X6078214Y-11103214D01*
X6021071Y-11103214D01*
X5992500Y-11088929D01*
X5978214Y-11060357D01*
X5978214Y-10946072D01*
X5992500Y-10917500D01*
X6021071Y-10903214D01*
X6078214Y-10903214D01*
X6106786Y-10917500D01*
X6121071Y-10946072D01*
X6121071Y-10974643D01*
X5978214Y-11003214D01*
X6235357Y-11088929D02*
X6263928Y-11103214D01*
X6321071Y-11103214D01*
X6349643Y-11088929D01*
X6363928Y-11060357D01*
X6363928Y-11046072D01*
X6349643Y-11017500D01*
X6321071Y-11003214D01*
X6278214Y-11003214D01*
X6249643Y-10988929D01*
X6235357Y-10960357D01*
X6235357Y-10946072D01*
X6249643Y-10917500D01*
X6278214Y-10903214D01*
X6321071Y-10903214D01*
X6349643Y-10917500D01*
X6463928Y-11217500D02*
X6478214Y-11203214D01*
X6506786Y-11160357D01*
X6521071Y-11131786D01*
X6535357Y-11088929D01*
X6549643Y-11017500D01*
X6549643Y-10960357D01*
X6535357Y-10888929D01*
X6521071Y-10846072D01*
X6506786Y-10817500D01*
X6478214Y-10774643D01*
X6463928Y-10760357D01*
X7006786Y-11217500D02*
X6992500Y-11203214D01*
X6963928Y-11160357D01*
X6949643Y-11131786D01*
X6935357Y-11088929D01*
X6921071Y-11017500D01*
X6921071Y-10960357D01*
X6935357Y-10888929D01*
X6949643Y-10846072D01*
X6963928Y-10817500D01*
X6992500Y-10774643D01*
X7006786Y-10760357D01*
X7121071Y-10903214D02*
X7121071Y-11103214D01*
X7121071Y-10931786D02*
X7135357Y-10917500D01*
X7163928Y-10903214D01*
X7206786Y-10903214D01*
X7235357Y-10917500D01*
X7249643Y-10946072D01*
X7249643Y-11103214D01*
X7435357Y-11103214D02*
X7406786Y-11088929D01*
X7392500Y-11074643D01*
X7378214Y-11046072D01*
X7378214Y-10960357D01*
X7392500Y-10931786D01*
X7406786Y-10917500D01*
X7435357Y-10903214D01*
X7478214Y-10903214D01*
X7506786Y-10917500D01*
X7521071Y-10931786D01*
X7535357Y-10960357D01*
X7535357Y-11046072D01*
X7521071Y-11074643D01*
X7506786Y-11088929D01*
X7478214Y-11103214D01*
X7435357Y-11103214D01*
X7621071Y-10903214D02*
X7735357Y-10903214D01*
X7663928Y-10803214D02*
X7663928Y-11060357D01*
X7678214Y-11088929D01*
X7706786Y-11103214D01*
X7735357Y-11103214D01*
X8063928Y-10903214D02*
X8063928Y-11203214D01*
X8063928Y-10917500D02*
X8092500Y-10903214D01*
X8149643Y-10903214D01*
X8178214Y-10917500D01*
X8192500Y-10931786D01*
X8206786Y-10960357D01*
X8206786Y-11046072D01*
X8192500Y-11074643D01*
X8178214Y-11088929D01*
X8149643Y-11103214D01*
X8092500Y-11103214D01*
X8063928Y-11088929D01*
X8378214Y-11103214D02*
X8349643Y-11088929D01*
X8335357Y-11060357D01*
X8335357Y-10803214D01*
X8621071Y-11103214D02*
X8621071Y-10946072D01*
X8606786Y-10917500D01*
X8578214Y-10903214D01*
X8521071Y-10903214D01*
X8492500Y-10917500D01*
X8621071Y-11088929D02*
X8592500Y-11103214D01*
X8521071Y-11103214D01*
X8492500Y-11088929D01*
X8478214Y-11060357D01*
X8478214Y-11031786D01*
X8492500Y-11003214D01*
X8521071Y-10988929D01*
X8592500Y-10988929D01*
X8621071Y-10974643D01*
X8721071Y-10903214D02*
X8835357Y-10903214D01*
X8763929Y-10803214D02*
X8763929Y-11060357D01*
X8778214Y-11088929D01*
X8806786Y-11103214D01*
X8835357Y-11103214D01*
X9049643Y-11088929D02*
X9021072Y-11103214D01*
X8963929Y-11103214D01*
X8935357Y-11088929D01*
X8921072Y-11060357D01*
X8921072Y-10946072D01*
X8935357Y-10917500D01*
X8963929Y-10903214D01*
X9021072Y-10903214D01*
X9049643Y-10917500D01*
X9063929Y-10946072D01*
X9063929Y-10974643D01*
X8921072Y-11003214D01*
X9321072Y-11103214D02*
X9321072Y-10803214D01*
X9321072Y-11088929D02*
X9292500Y-11103214D01*
X9235357Y-11103214D01*
X9206786Y-11088929D01*
X9192500Y-11074643D01*
X9178214Y-11046072D01*
X9178214Y-10960357D01*
X9192500Y-10931786D01*
X9206786Y-10917500D01*
X9235357Y-10903214D01*
X9292500Y-10903214D01*
X9321072Y-10917500D01*
X9435357Y-11217500D02*
X9449643Y-11203214D01*
X9478214Y-11160357D01*
X9492500Y-11131786D01*
X9506786Y-11088929D01*
X9521072Y-11017500D01*
X9521072Y-10960357D01*
X9506786Y-10888929D01*
X9492500Y-10846072D01*
X9478214Y-10817500D01*
X9449643Y-10774643D01*
X9435357Y-10760357D01*
M02*
