G04 #@! TF.FileFunction,Paste,Bot*
%FSLAX46Y46*%
G04 Gerber Fmt 4.6, Leading zero omitted, Abs format (unit mm)*
G04 Created by KiCad (PCBNEW 4.0.7) date 02/08/18 06:22:55*
%MOMM*%
%LPD*%
G01*
G04 APERTURE LIST*
%ADD10C,0.100000*%
%ADD11R,1.750000X0.550000*%
%ADD12R,5.000000X3.300000*%
%ADD13R,0.750000X1.200000*%
%ADD14R,1.200000X0.750000*%
%ADD15R,1.400000X1.200000*%
%ADD16R,1.400000X1.000000*%
%ADD17R,1.250000X1.500000*%
%ADD18R,1.500000X1.250000*%
%ADD19R,1.950000X0.600000*%
%ADD20R,1.500000X1.300000*%
%ADD21R,0.800100X0.800100*%
G04 APERTURE END LIST*
D10*
D11*
X85558000Y-55631000D03*
X85558000Y-54361000D03*
X85558000Y-53091000D03*
X85558000Y-51821000D03*
X92958000Y-51821000D03*
X92958000Y-53091000D03*
X92958000Y-54361000D03*
X92958000Y-55631000D03*
D12*
X97200000Y-84900000D03*
X97200000Y-91500000D03*
X97030000Y-21350000D03*
X97030000Y-27950000D03*
D13*
X18646000Y-52644000D03*
X18646000Y-50744000D03*
X20424000Y-52644000D03*
X20424000Y-50744000D03*
X24234000Y-52644000D03*
X24234000Y-50744000D03*
X22456000Y-52644000D03*
X22456000Y-50744000D03*
D14*
X26708000Y-46868000D03*
X24808000Y-46868000D03*
X26708000Y-45090000D03*
X24808000Y-45090000D03*
X24808000Y-48646000D03*
X26708000Y-48646000D03*
D15*
X91460000Y-37478000D03*
D16*
X91460000Y-35758000D03*
X93660000Y-35758000D03*
X93660000Y-37658000D03*
D15*
X84602000Y-37478000D03*
D16*
X84602000Y-35758000D03*
X86802000Y-35758000D03*
X86802000Y-37658000D03*
D17*
X80876000Y-91338000D03*
X80876000Y-93838000D03*
D18*
X78062000Y-26040000D03*
X75562000Y-26040000D03*
D17*
X78082000Y-88290000D03*
X78082000Y-90790000D03*
X78082000Y-77368000D03*
X78082000Y-79868000D03*
X78082000Y-66446000D03*
X78082000Y-68946000D03*
X78082000Y-55524000D03*
X78082000Y-58024000D03*
X78082000Y-44602000D03*
X78082000Y-47102000D03*
D18*
X59052000Y-37216000D03*
X61552000Y-37216000D03*
X59052000Y-48138000D03*
X61552000Y-48138000D03*
X59052000Y-59060000D03*
X61552000Y-59060000D03*
X59052000Y-69982000D03*
X61552000Y-69982000D03*
X59052000Y-80904000D03*
X61552000Y-80904000D03*
X59052000Y-91572000D03*
X61552000Y-91572000D03*
X63624000Y-30104000D03*
X66124000Y-30104000D03*
D17*
X78082000Y-33680000D03*
X78082000Y-36180000D03*
D18*
X79078000Y-18420000D03*
X76578000Y-18420000D03*
D17*
X54460000Y-37236000D03*
X54460000Y-39736000D03*
X54460000Y-48158000D03*
X54460000Y-50658000D03*
X54460000Y-59080000D03*
X54460000Y-61580000D03*
X54460000Y-70002000D03*
X54460000Y-72502000D03*
X54460000Y-80924000D03*
X54460000Y-83424000D03*
X54460000Y-91846000D03*
X54460000Y-94346000D03*
D18*
X54480000Y-27818000D03*
X56980000Y-27818000D03*
D17*
X56746000Y-36180000D03*
X56746000Y-33680000D03*
X56746000Y-47102000D03*
X56746000Y-44602000D03*
X56746000Y-58024000D03*
X56746000Y-55524000D03*
X56746000Y-68946000D03*
X56746000Y-66446000D03*
X56746000Y-79868000D03*
X56746000Y-77368000D03*
X56746000Y-90790000D03*
X56746000Y-88290000D03*
X54714000Y-22758000D03*
X54714000Y-25258000D03*
D18*
X89238000Y-61600000D03*
X86738000Y-61600000D03*
D19*
X86844000Y-75951000D03*
X86844000Y-74681000D03*
X86844000Y-73411000D03*
X86844000Y-72141000D03*
X86844000Y-70871000D03*
X86844000Y-69601000D03*
X86844000Y-68331000D03*
X86844000Y-67061000D03*
X86844000Y-65791000D03*
X86844000Y-64521000D03*
X96244000Y-64521000D03*
X96244000Y-65791000D03*
X96244000Y-67061000D03*
X96244000Y-68331000D03*
X96244000Y-69601000D03*
X96244000Y-70871000D03*
X96244000Y-72141000D03*
X96244000Y-73411000D03*
X96244000Y-74681000D03*
X96244000Y-75951000D03*
D18*
X92199000Y-40010000D03*
X94699000Y-40010000D03*
X85595000Y-40010000D03*
X88095000Y-40010000D03*
D20*
X93656000Y-46868000D03*
X90956000Y-46868000D03*
X93656000Y-49154000D03*
X90956000Y-49154000D03*
X89432000Y-30358000D03*
X92132000Y-30358000D03*
X83844000Y-30358000D03*
X86544000Y-30358000D03*
X85622000Y-24770000D03*
X88322000Y-24770000D03*
X86638000Y-32644000D03*
X89338000Y-32644000D03*
X92226000Y-32644000D03*
X94926000Y-32644000D03*
X91510000Y-44510000D03*
X94210000Y-44510000D03*
X93496000Y-42296000D03*
X96196000Y-42296000D03*
X89592000Y-42296000D03*
X86892000Y-42296000D03*
X85368000Y-44582000D03*
X88068000Y-44582000D03*
D21*
X1694000Y-63139240D03*
X3594000Y-63139240D03*
X2644000Y-65138220D03*
X8552000Y-63139240D03*
X10452000Y-63139240D03*
X9502000Y-65138220D03*
D18*
X60536000Y-39248000D03*
X58036000Y-39248000D03*
D17*
X50396000Y-37450000D03*
X50396000Y-34950000D03*
D18*
X60536000Y-50170000D03*
X58036000Y-50170000D03*
D17*
X50396000Y-48372000D03*
X50396000Y-45872000D03*
D18*
X60536000Y-61092000D03*
X58036000Y-61092000D03*
D17*
X50396000Y-59294000D03*
X50396000Y-56794000D03*
D18*
X60536000Y-72014000D03*
X58036000Y-72014000D03*
D17*
X50396000Y-70216000D03*
X50396000Y-67716000D03*
D18*
X60536000Y-82936000D03*
X58036000Y-82936000D03*
D17*
X50396000Y-81138000D03*
X50396000Y-78638000D03*
D18*
X60536000Y-93604000D03*
X58036000Y-93604000D03*
D17*
X50396000Y-92060000D03*
X50396000Y-89560000D03*
D20*
X96280000Y-60380000D03*
X93580000Y-60380000D03*
M02*
