G04 #@! TF.FileFunction,Soldermask,Top*
%FSLAX46Y46*%
G04 Gerber Fmt 4.6, Leading zero omitted, Abs format (unit mm)*
G04 Created by KiCad (PCBNEW 4.0.7) date 02/08/18 06:22:55*
%MOMM*%
%LPD*%
G01*
G04 APERTURE LIST*
%ADD10C,0.100000*%
%ADD11C,2.400000*%
%ADD12C,1.524000*%
%ADD13C,5.300000*%
%ADD14R,5.000000X1.600000*%
%ADD15R,5.000000X3.300000*%
%ADD16C,1.850000*%
%ADD17C,1.800000*%
%ADD18R,1.397000X0.889000*%
%ADD19R,0.635000X1.143000*%
%ADD20R,1.143000X0.635000*%
%ADD21R,1.600000X1.800000*%
%ADD22R,5.700000X2.400000*%
%ADD23R,1.050000X0.600000*%
%ADD24C,0.500000*%
%ADD25R,1.100000X0.510000*%
%ADD26R,2.600000X3.500000*%
%ADD27C,2.500000*%
%ADD28R,1.200000X0.750000*%
%ADD29R,0.750000X1.200000*%
%ADD30R,1.800860X2.148840*%
%ADD31R,2.148840X1.800860*%
%ADD32R,2.200000X2.800000*%
%ADD33C,2.000000*%
%ADD34R,1.700000X1.700000*%
%ADD35O,1.700000X1.700000*%
%ADD36R,1.100000X0.300000*%
%ADD37R,2.000000X1.500000*%
%ADD38O,3.014980X1.506220*%
%ADD39R,0.599440X0.500380*%
%ADD40O,0.200000X0.750000*%
%ADD41R,0.200000X0.800000*%
%ADD42O,0.750000X0.200000*%
%ADD43R,0.800000X0.200000*%
%ADD44R,1.325000X1.325000*%
%ADD45C,1.700000*%
%ADD46R,1.060000X0.650000*%
%ADD47R,1.550000X0.600000*%
%ADD48R,1.850000X1.850000*%
%ADD49R,0.900000X0.800000*%
%ADD50R,1.500000X0.400000*%
%ADD51R,1.250000X1.500000*%
%ADD52R,1.500000X1.250000*%
%ADD53R,1.500000X1.300000*%
%ADD54R,0.800100X0.800100*%
%ADD55C,2.600000*%
%ADD56C,2.200000*%
%ADD57R,1.200000X1.200000*%
%ADD58R,1.600000X1.500000*%
%ADD59R,2.000000X0.600000*%
%ADD60C,0.600000*%
%ADD61C,0.254000*%
G04 APERTURE END LIST*
D10*
D11*
X56746000Y-95636000D03*
X61826000Y-95636000D03*
X56746000Y-41026000D03*
X61826000Y-41026000D03*
X56746000Y-51948000D03*
X61826000Y-51948000D03*
X56746000Y-62870000D03*
X61826000Y-62870000D03*
D12*
X78082000Y-20706000D03*
X75542000Y-20706000D03*
X73002000Y-20706000D03*
X70462000Y-20706000D03*
X67922000Y-20706000D03*
X67922000Y-28326000D03*
X70462000Y-28326000D03*
X73002000Y-28326000D03*
X75542000Y-28326000D03*
X78082000Y-28326000D03*
D13*
X20000000Y-3000000D03*
X20000000Y-97000000D03*
X97000000Y-97000000D03*
X97000000Y-3000000D03*
D14*
X97200000Y-88200000D03*
D15*
X97200000Y-91500000D03*
X97200000Y-84900000D03*
D16*
X98415000Y-88200000D03*
X98700000Y-85660000D03*
X98700000Y-90740000D03*
X96005000Y-90740000D03*
X96005000Y-85660000D03*
D17*
X96160000Y-88200000D03*
D16*
X98700000Y-83120000D03*
D14*
X97030000Y-24650000D03*
D15*
X97030000Y-27950000D03*
X97030000Y-21350000D03*
D16*
X98245000Y-24650000D03*
X98530000Y-22110000D03*
X98530000Y-27190000D03*
X95835000Y-27190000D03*
X95835000Y-22110000D03*
D17*
X95990000Y-24650000D03*
D16*
X98530000Y-19570000D03*
D18*
X31092000Y-11498500D03*
X31092000Y-9593500D03*
D19*
X26774000Y-8514000D03*
X28298000Y-8514000D03*
D18*
X20932000Y-18737500D03*
X20932000Y-20642500D03*
D20*
X24234000Y-12578000D03*
X24234000Y-11054000D03*
D18*
X29822000Y-23055500D03*
X29822000Y-24960500D03*
D19*
X15598000Y-15372000D03*
X17122000Y-15372000D03*
X25250000Y-24262000D03*
X26774000Y-24262000D03*
D18*
X20932000Y-24452500D03*
X20932000Y-22547500D03*
X10772000Y-24452500D03*
X10772000Y-22547500D03*
D21*
X19532000Y-26802000D03*
X22332000Y-26802000D03*
D22*
X15598000Y-23418000D03*
X15598000Y-19518000D03*
D20*
X7724000Y-16642000D03*
X7724000Y-18166000D03*
X20170000Y-7752000D03*
X20170000Y-9276000D03*
X20170000Y-12324000D03*
X20170000Y-10800000D03*
D19*
X25250000Y-26040000D03*
X26774000Y-26040000D03*
D20*
X31092000Y-18928000D03*
X31092000Y-17404000D03*
D23*
X16360000Y-62870000D03*
X16360000Y-63820000D03*
X16360000Y-64770000D03*
X19060000Y-64770000D03*
X19060000Y-62870000D03*
D24*
X26012000Y-18236000D03*
D25*
X23362000Y-21341000D03*
X28662000Y-21341000D03*
X23362000Y-20071000D03*
X28662000Y-20071000D03*
X23362000Y-18801000D03*
X28662000Y-18801000D03*
X23362000Y-17531000D03*
X28662000Y-17531000D03*
D26*
X26012000Y-19436000D03*
D27*
X26012000Y-21236000D03*
D24*
X26012000Y-19236000D03*
D28*
X10584000Y-59060000D03*
X12484000Y-59060000D03*
D29*
X14074000Y-63190000D03*
X14074000Y-65090000D03*
D30*
X15852000Y-59923600D03*
X15852000Y-56672400D03*
D29*
X19154000Y-66746000D03*
X19154000Y-68646000D03*
D30*
X19662000Y-59923600D03*
X19662000Y-56672400D03*
D29*
X22202000Y-42870000D03*
X22202000Y-44770000D03*
D30*
X22456000Y-66781600D03*
X22456000Y-63530400D03*
D29*
X27282000Y-49728000D03*
X27282000Y-51628000D03*
X31346000Y-51628000D03*
X31346000Y-49728000D03*
D31*
X31193600Y-46868000D03*
X27942400Y-46868000D03*
D29*
X20424000Y-44770000D03*
X20424000Y-42870000D03*
X25758000Y-55062000D03*
X25758000Y-56962000D03*
X25758000Y-42870000D03*
X25758000Y-44770000D03*
X27917000Y-55062000D03*
X27917000Y-56962000D03*
D28*
X12484000Y-57282000D03*
X10584000Y-57282000D03*
X12484000Y-60838000D03*
X10584000Y-60838000D03*
D29*
X29314000Y-51628000D03*
X29314000Y-49728000D03*
X5946000Y-78684000D03*
X5946000Y-80584000D03*
X7978000Y-78684000D03*
X7978000Y-80584000D03*
D28*
X28618000Y-43058000D03*
X30518000Y-43058000D03*
D29*
X30076000Y-72842000D03*
X30076000Y-74742000D03*
X27536000Y-74742000D03*
X27536000Y-72842000D03*
X10010000Y-80584000D03*
X10010000Y-78684000D03*
D28*
X11976000Y-75570000D03*
X10076000Y-75570000D03*
D32*
X13600000Y-94700000D03*
X6100000Y-87300000D03*
X4200000Y-94700000D03*
D33*
X5300000Y-91000000D03*
D32*
X1400000Y-94700000D03*
D33*
X12300000Y-91000000D03*
D32*
X13500000Y-72900000D03*
X6000000Y-65500000D03*
X4100000Y-72900000D03*
D33*
X5200000Y-69200000D03*
D32*
X1300000Y-72900000D03*
D33*
X12200000Y-69200000D03*
D34*
X26266000Y-60584000D03*
D35*
X26266000Y-63124000D03*
D36*
X24996000Y-87440000D03*
X24996000Y-86940000D03*
X24996000Y-86440000D03*
X24996000Y-85940000D03*
X24996000Y-85440000D03*
X24996000Y-84940000D03*
X24996000Y-84440000D03*
X24996000Y-83940000D03*
X24996000Y-83440000D03*
X24996000Y-82940000D03*
X24996000Y-82440000D03*
X24996000Y-81940000D03*
X24996000Y-81440000D03*
X24996000Y-87940000D03*
X24996000Y-78440000D03*
X24996000Y-78940000D03*
X24996000Y-79440000D03*
X24996000Y-79940000D03*
X24996000Y-80440000D03*
X24996000Y-80940000D03*
D37*
X23846000Y-76490000D03*
X23846000Y-89890000D03*
D34*
X18646000Y-84460000D03*
D35*
X18646000Y-87000000D03*
X18646000Y-89540000D03*
X18646000Y-92080000D03*
D34*
X18646000Y-73030000D03*
D35*
X18646000Y-75570000D03*
X18646000Y-78110000D03*
X18646000Y-80650000D03*
D34*
X14074000Y-5974000D03*
D35*
X11534000Y-5974000D03*
D34*
X4592180Y-18671460D03*
D35*
X4592180Y-16131460D03*
X4592180Y-13591460D03*
X4592180Y-11051460D03*
X4592180Y-8511460D03*
X4592180Y-5971460D03*
D38*
X6390000Y-24720000D03*
X6390000Y-22180000D03*
D39*
X9136240Y-8760380D03*
X9136240Y-7759620D03*
X7835760Y-8260000D03*
D29*
X23980000Y-42870000D03*
X23980000Y-44770000D03*
X23726000Y-56962000D03*
X23726000Y-55062000D03*
X29949000Y-56962000D03*
X29949000Y-55062000D03*
X12042000Y-78684000D03*
X12042000Y-80584000D03*
D40*
X23348000Y-46875000D03*
D41*
X22948000Y-46900000D03*
X22548000Y-46900000D03*
X22148000Y-46900000D03*
X21748000Y-46900000D03*
X21348000Y-46900000D03*
X20948000Y-46900000D03*
D40*
X20548000Y-46875000D03*
D42*
X19923000Y-47500000D03*
D43*
X19948000Y-47900000D03*
X19948000Y-48300000D03*
X19948000Y-48700000D03*
X19948000Y-49100000D03*
X19948000Y-49500000D03*
X19948000Y-49900000D03*
D42*
X19923000Y-50300000D03*
D40*
X20548000Y-50925000D03*
D41*
X20948000Y-50900000D03*
X21348000Y-50900000D03*
X21748000Y-50900000D03*
X22148000Y-50900000D03*
X22548000Y-50900000D03*
X22948000Y-50900000D03*
D40*
X23348000Y-50925000D03*
D42*
X23973000Y-50300000D03*
D43*
X23948000Y-49900000D03*
X23948000Y-49500000D03*
X23948000Y-49100000D03*
X23948000Y-48700000D03*
X23948000Y-48300000D03*
X23948000Y-47900000D03*
D42*
X23973000Y-47500000D03*
D44*
X21285500Y-49562500D03*
X22610500Y-49562500D03*
X21285500Y-48237500D03*
X22610500Y-48237500D03*
D45*
X21948000Y-48900000D03*
D46*
X28636000Y-12512000D03*
X28636000Y-11562000D03*
X28636000Y-10612000D03*
X26436000Y-10612000D03*
X26436000Y-12512000D03*
D47*
X17282000Y-13467000D03*
X17282000Y-12197000D03*
X17282000Y-10927000D03*
X17282000Y-9657000D03*
X11882000Y-9657000D03*
X11882000Y-10927000D03*
X11882000Y-12197000D03*
X11882000Y-13467000D03*
D48*
X4041000Y-37952600D03*
D16*
X6581000Y-37952600D03*
X4041000Y-40492600D03*
X6581000Y-40492600D03*
X4041000Y-43032600D03*
X6581000Y-43032600D03*
X4041000Y-45572600D03*
X6581000Y-45572600D03*
X4041000Y-48112600D03*
X6581000Y-48112600D03*
X4041000Y-50652600D03*
X6581000Y-50652600D03*
X4041000Y-53192600D03*
X6581000Y-53192600D03*
X4041000Y-55732600D03*
X6581000Y-55732600D03*
X4041000Y-58272600D03*
X6581000Y-58272600D03*
X4041000Y-60812600D03*
X6581000Y-60812600D03*
D48*
X41607600Y-7802800D03*
D16*
X44147600Y-7802800D03*
X46687600Y-7802800D03*
X49227600Y-7802800D03*
X51767600Y-7802800D03*
X54307600Y-7802800D03*
D48*
X13489800Y-47452200D03*
D16*
X16029800Y-47452200D03*
X13489800Y-49992200D03*
X16029800Y-49992200D03*
X13489800Y-52532200D03*
X16029800Y-52532200D03*
D49*
X64858000Y-8194000D03*
X64858000Y-6294000D03*
X62858000Y-7244000D03*
X73748000Y-8194000D03*
X73748000Y-6294000D03*
X71748000Y-7244000D03*
X62858000Y-10612000D03*
X62858000Y-12512000D03*
X64858000Y-11562000D03*
X71748000Y-10612000D03*
X71748000Y-12512000D03*
X73748000Y-11562000D03*
D29*
X67668000Y-8834000D03*
X67668000Y-10734000D03*
X76558000Y-8707000D03*
X76558000Y-10607000D03*
X88750000Y-6670000D03*
X88750000Y-4770000D03*
D12*
X78082000Y-31882000D03*
X75542000Y-31882000D03*
X73002000Y-31882000D03*
X70462000Y-31882000D03*
X67922000Y-31882000D03*
X67922000Y-39502000D03*
X70462000Y-39502000D03*
X73002000Y-39502000D03*
X75542000Y-39502000D03*
X78082000Y-39502000D03*
X78082000Y-42804000D03*
X75542000Y-42804000D03*
X73002000Y-42804000D03*
X70462000Y-42804000D03*
X67922000Y-42804000D03*
X67922000Y-50424000D03*
X70462000Y-50424000D03*
X73002000Y-50424000D03*
X75542000Y-50424000D03*
X78082000Y-50424000D03*
X78082000Y-64648000D03*
X75542000Y-64648000D03*
X73002000Y-64648000D03*
X70462000Y-64648000D03*
X67922000Y-64648000D03*
X67922000Y-72268000D03*
X70462000Y-72268000D03*
X73002000Y-72268000D03*
X75542000Y-72268000D03*
X78082000Y-72268000D03*
X78082000Y-75570000D03*
X75542000Y-75570000D03*
X73002000Y-75570000D03*
X70462000Y-75570000D03*
X67922000Y-75570000D03*
X67922000Y-83190000D03*
X70462000Y-83190000D03*
X73002000Y-83190000D03*
X75542000Y-83190000D03*
X78082000Y-83190000D03*
X78082000Y-86492000D03*
X75542000Y-86492000D03*
X73002000Y-86492000D03*
X70462000Y-86492000D03*
X67922000Y-86492000D03*
X67922000Y-94112000D03*
X70462000Y-94112000D03*
X73002000Y-94112000D03*
X75542000Y-94112000D03*
X78082000Y-94112000D03*
D11*
X64620000Y-27818000D03*
X64620000Y-22738000D03*
X56746000Y-73792000D03*
X61826000Y-73792000D03*
X56746000Y-84714000D03*
X61826000Y-84714000D03*
X52174000Y-27818000D03*
X52174000Y-22738000D03*
X52174000Y-38740000D03*
X52174000Y-33660000D03*
X52174000Y-49662000D03*
X52174000Y-44582000D03*
X52174000Y-60584000D03*
X52174000Y-55504000D03*
X52174000Y-71506000D03*
X52174000Y-66426000D03*
X52174000Y-82428000D03*
X52174000Y-77348000D03*
X52174000Y-93350000D03*
X52174000Y-88270000D03*
D16*
X98700000Y-6950000D03*
X96160000Y-6950000D03*
X96160000Y-9490000D03*
X98700000Y-9490000D03*
X98700000Y-9490000D03*
X96160000Y-9490000D03*
X96160000Y-9490000D03*
X98700000Y-9490000D03*
D48*
X98700000Y-17110000D03*
D16*
X96160000Y-17110000D03*
X98700000Y-14570000D03*
X96160000Y-14570000D03*
X98700000Y-12030000D03*
X96160000Y-12030000D03*
X98700000Y-9490000D03*
X96160000Y-9490000D03*
D49*
X90528000Y-5278000D03*
X92528000Y-6228000D03*
X90528000Y-7178000D03*
D50*
X93008000Y-77968000D03*
X93008000Y-78618000D03*
X93008000Y-79268000D03*
X95668000Y-79268000D03*
X95668000Y-77968000D03*
D51*
X81638000Y-38212000D03*
X81638000Y-35712000D03*
X81384000Y-49388000D03*
X81384000Y-46888000D03*
X81638000Y-63906000D03*
X81638000Y-66406000D03*
X81638000Y-72248000D03*
X81638000Y-69748000D03*
X81638000Y-82956000D03*
X81638000Y-85456000D03*
D52*
X92790000Y-56690000D03*
X90290000Y-56690000D03*
X93048000Y-75570000D03*
X90548000Y-75570000D03*
D53*
X84987000Y-52710000D03*
X87687000Y-52710000D03*
X87687000Y-54615000D03*
X84987000Y-54615000D03*
X93910000Y-52710000D03*
X91210000Y-52710000D03*
X91210000Y-54615000D03*
X93910000Y-54615000D03*
D48*
X98740000Y-60280000D03*
D16*
X98740000Y-57740000D03*
X98740000Y-55200000D03*
X98740000Y-52660000D03*
X98740000Y-50120000D03*
X98740000Y-47580000D03*
X98740000Y-45040000D03*
X98740000Y-42500000D03*
X98740000Y-39960000D03*
D54*
X81368760Y-12512000D03*
X81368760Y-10612000D03*
X79369780Y-11562000D03*
D55*
X92450000Y-10700000D03*
D56*
X89400000Y-10700000D03*
D57*
X95992000Y-34326000D03*
X93192000Y-34326000D03*
D58*
X94592000Y-37566000D03*
D59*
X96860000Y-73430000D03*
X96860000Y-72160000D03*
X96860000Y-70890000D03*
X96860000Y-69620000D03*
X96860000Y-68350000D03*
X96860000Y-67080000D03*
X96860000Y-65810000D03*
X96860000Y-64540000D03*
X96860000Y-63270000D03*
X87460000Y-63270000D03*
X87460000Y-64540000D03*
X87460000Y-65810000D03*
X87460000Y-67080000D03*
X87460000Y-68350000D03*
X87460000Y-69620000D03*
X87460000Y-70890000D03*
X87460000Y-72160000D03*
X87460000Y-73430000D03*
D29*
X9248000Y-64836000D03*
X9248000Y-62936000D03*
X3914000Y-65090000D03*
X3914000Y-63190000D03*
X1628000Y-65090000D03*
X1628000Y-63190000D03*
D38*
X6390000Y-30993000D03*
X6390000Y-28453000D03*
D39*
X85305760Y-5981620D03*
X85305760Y-6982380D03*
X86606240Y-6482000D03*
D49*
X14201000Y-31943000D03*
X12201000Y-30993000D03*
X14201000Y-30043000D03*
D39*
X18915240Y-32128380D03*
X18915240Y-31127620D03*
X17614760Y-31628000D03*
D29*
X15979000Y-30043000D03*
X15979000Y-31943000D03*
D11*
X90580000Y-27580000D03*
X85500000Y-27580000D03*
X88040000Y-21230000D03*
X81690000Y-21230000D03*
X82325000Y-18055000D03*
D12*
X78082000Y-53726000D03*
X75542000Y-53726000D03*
X73002000Y-53726000D03*
X70462000Y-53726000D03*
X67922000Y-53726000D03*
X67922000Y-61346000D03*
X70462000Y-61346000D03*
X73002000Y-61346000D03*
X75542000Y-61346000D03*
X78082000Y-61346000D03*
D60*
X93550000Y-56130000D03*
X85690000Y-63250000D03*
X94680000Y-76010000D03*
X95608000Y-62616000D03*
X93322000Y-70998000D03*
X93322000Y-66172000D03*
X83924000Y-58044000D03*
X90528000Y-69474000D03*
X90528000Y-66426000D03*
X90528000Y-62870000D03*
X88810000Y-58110000D03*
X86718000Y-60584000D03*
X81638000Y-61600000D03*
X53444000Y-90810000D03*
X48364000Y-90810000D03*
X43030000Y-90810000D03*
X53444000Y-79888000D03*
X48364000Y-79888000D03*
X43030000Y-79888000D03*
X53444000Y-68966000D03*
X48364000Y-68966000D03*
X43030000Y-68966000D03*
X53444000Y-58044000D03*
X48364000Y-58044000D03*
X43030000Y-58044000D03*
X53444000Y-47122000D03*
X48364000Y-47122000D03*
X43030000Y-47122000D03*
X53444000Y-36200000D03*
X48364000Y-36200000D03*
X43030000Y-36200000D03*
X74272000Y-36962000D03*
X70462000Y-36962000D03*
X64874000Y-36962000D03*
X59032000Y-36200000D03*
X74272000Y-47884000D03*
X70462000Y-47884000D03*
X64874000Y-47884000D03*
X59032000Y-46868000D03*
X74272000Y-58806000D03*
X70462000Y-58806000D03*
X64874000Y-58806000D03*
X59032000Y-57790000D03*
X74272000Y-69728000D03*
X70208000Y-69728000D03*
X64874000Y-69728000D03*
X59032000Y-68712000D03*
X74272000Y-80650000D03*
X70462000Y-80650000D03*
X64874000Y-80650000D03*
X59032000Y-79888000D03*
X74272000Y-91318000D03*
X69954000Y-91318000D03*
X64874000Y-91318000D03*
X59032000Y-90556000D03*
X83670000Y-17150000D03*
X91290000Y-17150000D03*
X76050000Y-17150000D03*
X68430000Y-17150000D03*
X60810000Y-17150000D03*
X53190000Y-17150000D03*
X45570000Y-17150000D03*
X40490000Y-17150000D03*
X40490000Y-24770000D03*
X98148000Y-30358000D03*
X98148000Y-35184000D03*
X95862000Y-36454000D03*
X54714000Y-95890000D03*
X49126000Y-95890000D03*
X43030000Y-95890000D03*
X65890000Y-86492000D03*
X61318000Y-86492000D03*
X53190000Y-86492000D03*
X45570000Y-86492000D03*
X65890000Y-75570000D03*
X61064000Y-75570000D03*
X53190000Y-75570000D03*
X45570000Y-75570000D03*
X65890000Y-64648000D03*
X61064000Y-64648000D03*
X53190000Y-64648000D03*
X45570000Y-64648000D03*
X65890000Y-53726000D03*
X61064000Y-53726000D03*
X53190000Y-53726000D03*
X45570000Y-53726000D03*
X65890000Y-42804000D03*
X61064000Y-42804000D03*
X53190000Y-42804000D03*
X45570000Y-42804000D03*
X65890000Y-31882000D03*
X60810000Y-31882000D03*
X53190000Y-31882000D03*
X45570000Y-31882000D03*
X56746000Y-37216000D03*
X56746000Y-48138000D03*
X56746000Y-59060000D03*
X56746000Y-69982000D03*
X56746000Y-80904000D03*
X56746000Y-91826000D03*
X50015000Y-20960000D03*
X44300000Y-20960000D03*
X44300000Y-28580000D03*
X50015000Y-28580000D03*
X74272000Y-25532000D03*
X76812000Y-29850000D03*
X76812000Y-41026000D03*
X76812000Y-51948000D03*
X76812000Y-62870000D03*
X76812000Y-73792000D03*
X77574000Y-70236000D03*
X76812000Y-84714000D03*
X77574000Y-81158000D03*
X77574000Y-48392000D03*
X77574000Y-37470000D03*
X77574000Y-59314000D03*
X80368000Y-53472000D03*
X69065000Y-22230000D03*
X69065000Y-26040000D03*
X66525000Y-26040000D03*
X60810000Y-26040000D03*
X57000000Y-26040000D03*
X57000000Y-22865000D03*
X60810000Y-22865000D03*
X40490000Y-32390000D03*
X40490000Y-40010000D03*
X40490000Y-47630000D03*
X40490000Y-55250000D03*
X40490000Y-62870000D03*
X80622000Y-43312000D03*
X96370000Y-40772000D03*
X96116000Y-43820000D03*
X95608000Y-48646000D03*
X83416000Y-72014000D03*
X83924000Y-70490000D03*
X82273000Y-86619000D03*
X82150000Y-67970000D03*
X79098000Y-70236000D03*
X83924000Y-34676000D03*
X82400000Y-34422000D03*
X82908000Y-46868000D03*
X77574000Y-92080000D03*
X86591000Y-51186000D03*
X89639000Y-55885000D03*
X88369000Y-51694000D03*
X90147000Y-51694000D03*
X75034000Y-17912000D03*
X90570000Y-76900000D03*
X93000000Y-79890000D03*
X95354000Y-38994000D03*
X91290000Y-34676000D03*
X89512000Y-40010000D03*
X95100000Y-31374000D03*
X87480000Y-80650000D03*
X87480000Y-85730000D03*
X87480000Y-92080000D03*
X83670000Y-94620000D03*
X83670000Y-89540000D03*
X83670000Y-83190000D03*
X84940000Y-75570000D03*
X83670000Y-79380000D03*
X91290000Y-93350000D03*
X98910000Y-65410000D03*
X98910000Y-73030000D03*
X98910000Y-80650000D03*
X91290000Y-80650000D03*
X91290000Y-88270000D03*
X91290000Y-98430000D03*
X83670000Y-98430000D03*
X76050000Y-98430000D03*
X68430000Y-98430000D03*
X60810000Y-98430000D03*
X40490000Y-70490000D03*
X53190000Y-98430000D03*
X40490000Y-78110000D03*
X40490000Y-85730000D03*
X40490000Y-93350000D03*
X40490000Y-98430000D03*
X45570000Y-98430000D03*
X95862000Y-58298000D03*
X29822000Y-20960000D03*
X29822000Y-17912000D03*
X7724000Y-39121000D03*
X10772000Y-39121000D03*
X17376000Y-42804000D03*
X17376000Y-45725000D03*
X8740000Y-67696000D03*
X8613000Y-64267000D03*
X3914000Y-66172000D03*
X9629000Y-15753000D03*
X9629000Y-17531000D03*
X30584000Y-14356000D03*
X30584000Y-19944000D03*
X21694000Y-12578000D03*
X21694000Y-14356000D03*
X22456000Y-53472000D03*
X18900000Y-53472000D03*
X20424000Y-53472000D03*
X24742000Y-51948000D03*
X26012000Y-47376000D03*
X25885000Y-45979000D03*
X27790000Y-48646000D03*
X28298000Y-66172000D03*
X28298000Y-64013000D03*
X29187000Y-66172000D03*
X29187000Y-64013000D03*
X21694000Y-58552000D03*
X23345000Y-58552000D03*
X21694000Y-59822000D03*
X23345000Y-59822000D03*
X69954000Y-12324000D03*
X69954000Y-8514000D03*
X10200500Y-54297500D03*
X10200500Y-56139000D03*
X51666000Y-5212000D03*
X84051000Y-11689000D03*
X84051000Y-14610000D03*
X84432000Y-61600000D03*
X81384000Y-39502000D03*
X83670000Y-62108000D03*
X81130000Y-50424000D03*
X93830000Y-62616000D03*
X85160000Y-61040000D03*
X89512000Y-70744000D03*
X89766000Y-63632000D03*
X81638000Y-81920000D03*
X84178000Y-73665000D03*
X84686000Y-74554000D03*
X90401000Y-70744000D03*
X90401000Y-72395000D03*
X97487600Y-38079600D03*
X93626800Y-23195200D03*
X93620000Y-26390000D03*
X91187000Y-70032000D03*
X91417000Y-72395000D03*
X94338000Y-78618000D03*
X94973000Y-65791000D03*
X94973000Y-67061000D03*
X94973000Y-68331000D03*
X94973000Y-69601000D03*
X94973000Y-70871000D03*
X94973000Y-72141000D03*
X83460000Y-54410000D03*
X88877000Y-54742000D03*
X94370000Y-53670000D03*
X90147000Y-54742000D03*
X92306000Y-33660000D03*
X8486000Y-37216000D03*
X4168000Y-77348000D03*
X2390000Y-92334000D03*
X2390000Y-89540000D03*
X2390000Y-84460000D03*
X2390000Y-79380000D03*
X14582000Y-35438000D03*
X9756000Y-35438000D03*
X4676000Y-35438000D03*
X19916000Y-35438000D03*
X22964000Y-36708000D03*
X26520000Y-36708000D03*
X31854000Y-36708000D03*
X1120000Y-60838000D03*
X1120000Y-55758000D03*
X1120000Y-50678000D03*
X1120000Y-45598000D03*
X1120000Y-40518000D03*
X1120000Y-35438000D03*
X34140000Y-38994000D03*
X29060000Y-38994000D03*
X23980000Y-38994000D03*
X12169000Y-38994000D03*
X17249000Y-38994000D03*
X23980000Y-98430000D03*
X29060000Y-98430000D03*
X34140000Y-98430000D03*
X28298000Y-44328000D03*
X24996000Y-43947000D03*
X8740000Y-50170000D03*
X8232000Y-48138000D03*
X8994000Y-59568000D03*
X8232000Y-58044000D03*
X24234000Y-63378000D03*
X15852000Y-61346000D03*
X17884000Y-57028000D03*
X24996000Y-41534000D03*
X31092000Y-45598000D03*
X30584000Y-44328000D03*
X31346000Y-48900000D03*
X29568000Y-48392000D03*
X32362000Y-57536000D03*
X32362000Y-52456000D03*
X27536000Y-53218000D03*
X30330000Y-53218000D03*
X30330000Y-58806000D03*
X30330000Y-63886000D03*
X23726000Y-66934000D03*
X24996000Y-68712000D03*
X21694000Y-68712000D03*
X23726000Y-75316000D03*
X24742000Y-73792000D03*
X20424000Y-74300000D03*
X19154000Y-43820000D03*
X12042000Y-51694000D03*
X10772000Y-44328000D03*
X18900000Y-41534000D03*
X16106000Y-41534000D03*
X22202000Y-42042000D03*
X10772000Y-41534000D03*
X12550000Y-41534000D03*
X13058000Y-58298000D03*
X17122000Y-54488000D03*
X12296000Y-54488000D03*
X16614000Y-69982000D03*
X16106000Y-73538000D03*
X2136000Y-96652000D03*
X15852000Y-98176000D03*
X11280000Y-98176000D03*
X6200000Y-98176000D03*
X8740000Y-70744000D03*
X8740000Y-77348000D03*
X10518000Y-82682000D03*
X6962000Y-82682000D03*
X3152000Y-68204000D03*
X1628000Y-70236000D03*
X6962000Y-77348000D03*
X6962000Y-70744000D03*
X10264000Y-67696000D03*
X10518000Y-70744000D03*
X14074000Y-70236000D03*
X27282000Y-71506000D03*
X23726000Y-71506000D03*
X18900000Y-70998000D03*
X16614000Y-65918000D03*
X26266000Y-66426000D03*
X27282000Y-67950000D03*
X29060000Y-95636000D03*
X23980000Y-95636000D03*
X23980000Y-93096000D03*
X31600000Y-93096000D03*
X31600000Y-88016000D03*
X31600000Y-82682000D03*
X29060000Y-85476000D03*
X29060000Y-90556000D03*
X28298000Y-41534000D03*
X32870000Y-43312000D03*
X34140000Y-49408000D03*
X34140000Y-54996000D03*
X34140000Y-60076000D03*
X34140000Y-65156000D03*
X34140000Y-70236000D03*
X34140000Y-75316000D03*
X34140000Y-80396000D03*
X34140000Y-85476000D03*
X34140000Y-95636000D03*
X34140000Y-90556000D03*
X31600000Y-67950000D03*
X31600000Y-73030000D03*
X31600000Y-78110000D03*
X32362000Y-62616000D03*
X28806000Y-79126000D03*
X28806000Y-74808000D03*
X28044000Y-80650000D03*
X28806000Y-72776000D03*
X25504000Y-77856000D03*
X26520000Y-76332000D03*
X27028000Y-82682000D03*
X17884000Y-50233500D03*
X24107000Y-46233000D03*
X25504000Y-48392000D03*
X29568000Y-54234000D03*
X23472000Y-54234000D03*
X19916000Y-51440000D03*
X24996000Y-50678000D03*
X19662000Y-61346000D03*
X18392000Y-68458000D03*
X15344000Y-63886000D03*
X13312000Y-65156000D03*
X4168000Y-74808000D03*
X26266000Y-86492000D03*
X26266000Y-84460000D03*
X12804000Y-78364000D03*
X23980000Y-91064000D03*
X26012000Y-88016000D03*
X10264000Y-65156000D03*
X2644000Y-64140000D03*
X23726000Y-25278000D03*
X2898000Y-33025000D03*
X1120000Y-31247000D03*
X1120000Y-26167000D03*
X1120000Y-21087000D03*
X1120000Y-16007000D03*
X1120000Y-10927000D03*
X1120000Y-5847000D03*
X17249000Y-33025000D03*
X12169000Y-33025000D03*
X7089000Y-33025000D03*
X23599000Y-33025000D03*
X51920000Y-14610000D03*
X48110000Y-14610000D03*
X44300000Y-14610000D03*
X40490000Y-14610000D03*
X55730000Y-14610000D03*
X59540000Y-14610000D03*
X63350000Y-14610000D03*
X67160000Y-14610000D03*
X36045000Y-27310000D03*
X36045000Y-23500000D03*
X36045000Y-19690000D03*
X36045000Y-15880000D03*
X37315000Y-14610000D03*
X34775000Y-32390000D03*
X30965000Y-33025000D03*
X27155000Y-33025000D03*
X19916000Y-33025000D03*
X1120000Y-1656000D03*
X3025000Y-3561000D03*
X8105000Y-3561000D03*
X13185000Y-3561000D03*
X25758000Y-3561000D03*
X30838000Y-3561000D03*
X35918000Y-3561000D03*
X40998000Y-3561000D03*
X46078000Y-3561000D03*
X51158000Y-3561000D03*
X56238000Y-3561000D03*
X61318000Y-3561000D03*
X66398000Y-3561000D03*
X71478000Y-3561000D03*
X76558000Y-3561000D03*
X81638000Y-3561000D03*
X86718000Y-3561000D03*
X91798000Y-3561000D03*
X34648000Y-8895000D03*
X11788000Y-17785000D03*
X7851000Y-19944000D03*
X15725000Y-28326000D03*
X10899000Y-26802000D03*
X26901000Y-28199000D03*
X30330000Y-27945000D03*
X34140000Y-11562000D03*
X38204000Y-11054000D03*
X42268000Y-11054000D03*
X33505000Y-12959000D03*
X19662000Y-30993000D03*
X22202000Y-30485000D03*
X31346000Y-16642000D03*
X84686000Y-7244000D03*
X86464000Y-11562000D03*
X80368000Y-5720000D03*
X70208000Y-13086000D03*
X94465000Y-13975000D03*
X93195000Y-15880000D03*
X70970000Y-14610000D03*
X74780000Y-14610000D03*
X31346000Y-8768000D03*
X61318000Y-11054000D03*
X57508000Y-11054000D03*
X53698000Y-11054000D03*
X49888000Y-11054000D03*
X46078000Y-11054000D03*
X82400000Y-14610000D03*
X78590000Y-14610000D03*
X65636000Y-11816000D03*
X66144000Y-9530000D03*
X78717000Y-11943000D03*
X78844000Y-9276000D03*
X62080000Y-6990000D03*
X70970000Y-6990000D03*
X74526000Y-11308000D03*
X30330000Y-26040000D03*
X30584000Y-21722000D03*
X14582000Y-15372000D03*
X18392000Y-15372000D03*
X24742000Y-10292000D03*
X21186000Y-10038000D03*
X29060000Y-8768000D03*
X27536000Y-11562000D03*
X10264000Y-13848000D03*
X8994000Y-6990000D03*
X11280000Y-21468000D03*
X22202000Y-22484000D03*
X23726000Y-27564000D03*
X19916000Y-21722000D03*
X23726000Y-21976000D03*
X22964000Y-16896000D03*
X28806000Y-16896000D03*
X1628000Y-66172000D03*
X10772000Y-43058000D03*
X94592000Y-64648000D03*
X93068000Y-63886000D03*
D61*
G36*
X99672000Y-38359000D02*
X98656000Y-38359000D01*
X98656000Y-28326000D01*
X99672000Y-28326000D01*
X99672000Y-38359000D01*
X99672000Y-38359000D01*
G37*
X99672000Y-38359000D02*
X98656000Y-38359000D01*
X98656000Y-28326000D01*
X99672000Y-28326000D01*
X99672000Y-38359000D01*
G36*
X99672000Y-82301000D02*
X98656000Y-82301000D01*
X98656000Y-62235000D01*
X99672000Y-62235000D01*
X99672000Y-82301000D01*
X99672000Y-82301000D01*
G37*
X99672000Y-82301000D02*
X98656000Y-82301000D01*
X98656000Y-62235000D01*
X99672000Y-62235000D01*
X99672000Y-82301000D01*
G36*
X18138000Y-36073000D02*
X1882000Y-36073000D01*
X1832590Y-36083006D01*
X1790965Y-36111447D01*
X1763685Y-36153841D01*
X1755000Y-36200000D01*
X1755000Y-56393000D01*
X231000Y-56393000D01*
X231000Y-34549000D01*
X18138000Y-34549000D01*
X18138000Y-36073000D01*
X18138000Y-36073000D01*
G37*
X18138000Y-36073000D02*
X1882000Y-36073000D01*
X1832590Y-36083006D01*
X1790965Y-36111447D01*
X1763685Y-36153841D01*
X1755000Y-36200000D01*
X1755000Y-56393000D01*
X231000Y-56393000D01*
X231000Y-34549000D01*
X18138000Y-34549000D01*
X18138000Y-36073000D01*
G36*
X99672000Y-2672000D02*
X37696000Y-2672000D01*
X37646590Y-2682006D01*
X37604965Y-2710447D01*
X37577685Y-2752841D01*
X37569000Y-2799000D01*
X37569000Y-7498000D01*
X36045000Y-7498000D01*
X36045000Y-2799000D01*
X36034994Y-2749590D01*
X36006553Y-2707965D01*
X35964159Y-2680685D01*
X35918000Y-2672000D01*
X1882000Y-2672000D01*
X1832590Y-2682006D01*
X1790965Y-2710447D01*
X1763685Y-2752841D01*
X1755000Y-2799000D01*
X1755000Y-33787000D01*
X231000Y-33787000D01*
X231000Y-259000D01*
X99672000Y-259000D01*
X99672000Y-2672000D01*
X99672000Y-2672000D01*
G37*
X99672000Y-2672000D02*
X37696000Y-2672000D01*
X37646590Y-2682006D01*
X37604965Y-2710447D01*
X37577685Y-2752841D01*
X37569000Y-2799000D01*
X37569000Y-7498000D01*
X36045000Y-7498000D01*
X36045000Y-2799000D01*
X36034994Y-2749590D01*
X36006553Y-2707965D01*
X35964159Y-2680685D01*
X35918000Y-2672000D01*
X1882000Y-2672000D01*
X1832590Y-2682006D01*
X1790965Y-2710447D01*
X1763685Y-2752841D01*
X1755000Y-2799000D01*
X1755000Y-33787000D01*
X231000Y-33787000D01*
X231000Y-259000D01*
X99672000Y-259000D01*
X99672000Y-2672000D01*
G36*
X94024221Y-17904827D02*
X93331779Y-18498348D01*
X91636844Y-16682346D01*
X91595816Y-16653051D01*
X91544000Y-16642000D01*
X39728000Y-16642000D01*
X39678590Y-16652006D01*
X39636965Y-16680447D01*
X39609685Y-16722841D01*
X39601000Y-16769000D01*
X39601000Y-97160000D01*
X39611006Y-97209410D01*
X39639447Y-97251035D01*
X39681841Y-97278315D01*
X39728000Y-97287000D01*
X99672000Y-97287000D01*
X99672000Y-99700000D01*
X231000Y-99700000D01*
X231000Y-97287000D01*
X35918000Y-97287000D01*
X35967410Y-97276994D01*
X36009035Y-97248553D01*
X36036315Y-97206159D01*
X36045000Y-97160000D01*
X36045000Y-36200000D01*
X36034994Y-36150590D01*
X36006553Y-36108965D01*
X35964159Y-36081685D01*
X35918000Y-36073000D01*
X23091000Y-36073000D01*
X23091000Y-34549000D01*
X35918000Y-34549000D01*
X35967410Y-34538994D01*
X36009035Y-34510553D01*
X36036315Y-34468159D01*
X36045000Y-34422000D01*
X36045000Y-15626000D01*
X91745394Y-15626000D01*
X94024221Y-17904827D01*
X94024221Y-17904827D01*
G37*
X94024221Y-17904827D02*
X93331779Y-18498348D01*
X91636844Y-16682346D01*
X91595816Y-16653051D01*
X91544000Y-16642000D01*
X39728000Y-16642000D01*
X39678590Y-16652006D01*
X39636965Y-16680447D01*
X39609685Y-16722841D01*
X39601000Y-16769000D01*
X39601000Y-97160000D01*
X39611006Y-97209410D01*
X39639447Y-97251035D01*
X39681841Y-97278315D01*
X39728000Y-97287000D01*
X99672000Y-97287000D01*
X99672000Y-99700000D01*
X231000Y-99700000D01*
X231000Y-97287000D01*
X35918000Y-97287000D01*
X35967410Y-97276994D01*
X36009035Y-97248553D01*
X36036315Y-97206159D01*
X36045000Y-97160000D01*
X36045000Y-36200000D01*
X36034994Y-36150590D01*
X36006553Y-36108965D01*
X35964159Y-36081685D01*
X35918000Y-36073000D01*
X23091000Y-36073000D01*
X23091000Y-34549000D01*
X35918000Y-34549000D01*
X35967410Y-34538994D01*
X36009035Y-34510553D01*
X36036315Y-34468159D01*
X36045000Y-34422000D01*
X36045000Y-15626000D01*
X91745394Y-15626000D01*
X94024221Y-17904827D01*
G36*
X1755000Y-87381000D02*
X231000Y-87381000D01*
X231000Y-75189000D01*
X1755000Y-75189000D01*
X1755000Y-87381000D01*
X1755000Y-87381000D01*
G37*
X1755000Y-87381000D02*
X231000Y-87381000D01*
X231000Y-75189000D01*
X1755000Y-75189000D01*
X1755000Y-87381000D01*
M02*
