%FSLAX45Y45*%
G04 Gerber Fmt 4.5, Leading zero omitted, Abs format (unit mm)*
G04 Created by KiCad (PCBNEW 4.0.7) date 02/08/18 06:23:07*
%MOMM*%
%LPD*%
G01*
G04 APERTURE LIST*
%ADD10C,0.127000*%
%ADD11C,0.150000*%
%ADD12C,0.200000*%
%ADD13C,0.300000*%
G04 APERTURE END LIST*
D10*
D11*
X0Y0D02*
X9995000Y0D01*
X0Y-10000000D02*
X9995000Y-10000000D01*
X9995000Y0D02*
X9995000Y-10000000D01*
X0Y0D02*
X0Y-10000000D01*
D12*
X97000Y-150600D02*
X127000Y-180600D01*
X127000Y-150600D02*
X97000Y-180600D01*
X97000Y-569700D02*
X127000Y-599700D01*
X127000Y-569700D02*
X97000Y-599700D01*
X97000Y-1077700D02*
X127000Y-1107700D01*
X127000Y-1077700D02*
X97000Y-1107700D01*
X97000Y-1585700D02*
X127000Y-1615700D01*
X127000Y-1585700D02*
X97000Y-1615700D01*
X97000Y-2093700D02*
X127000Y-2123700D01*
X127000Y-2093700D02*
X97000Y-2123700D01*
X97000Y-2601700D02*
X127000Y-2631700D01*
X127000Y-2601700D02*
X97000Y-2631700D01*
X97000Y-3109700D02*
X127000Y-3139700D01*
X127000Y-3109700D02*
X97000Y-3139700D01*
X97000Y-3528800D02*
X127000Y-3558800D01*
X127000Y-3528800D02*
X97000Y-3558800D01*
X97000Y-4036800D02*
X127000Y-4066800D01*
X127000Y-4036800D02*
X97000Y-4066800D01*
X97000Y-4544800D02*
X127000Y-4574800D01*
X127000Y-4544800D02*
X97000Y-4574800D01*
X97000Y-5052800D02*
X127000Y-5082800D01*
X127000Y-5052800D02*
X97000Y-5082800D01*
X97000Y-5560800D02*
X127000Y-5590800D01*
X127000Y-5560800D02*
X97000Y-5590800D01*
X97000Y-6068800D02*
X127000Y-6098800D01*
X127000Y-6068800D02*
X97000Y-6098800D01*
X147800Y-6602200D02*
X177800Y-6632200D01*
X177800Y-6602200D02*
X147800Y-6632200D01*
X147800Y-7008600D02*
X177800Y-7038600D01*
X177800Y-7008600D02*
X147800Y-7038600D01*
X198600Y-9650200D02*
X228600Y-9680200D01*
X228600Y-9650200D02*
X198600Y-9680200D01*
X224000Y-7923000D02*
X254000Y-7953000D01*
X254000Y-7923000D02*
X224000Y-7953000D01*
X224000Y-8431000D02*
X254000Y-8461000D01*
X254000Y-8431000D02*
X224000Y-8461000D01*
X224000Y-8939000D02*
X254000Y-8969000D01*
X254000Y-8939000D02*
X224000Y-8969000D01*
X224000Y-9218400D02*
X254000Y-9248400D01*
X254000Y-9218400D02*
X224000Y-9248400D01*
X249400Y-6399000D02*
X279400Y-6429000D01*
X279400Y-6399000D02*
X249400Y-6429000D01*
X274800Y-3287500D02*
X304800Y-3317500D01*
X304800Y-3287500D02*
X274800Y-3317500D01*
X287500Y-341100D02*
X317500Y-371100D01*
X317500Y-341100D02*
X287500Y-371100D01*
X300200Y-6805400D02*
X330200Y-6835400D01*
X330200Y-6805400D02*
X300200Y-6835400D01*
X376400Y-6602200D02*
X406400Y-6632200D01*
X406400Y-6602200D02*
X376400Y-6632200D01*
X401800Y-7465800D02*
X431800Y-7495800D01*
X431800Y-7465800D02*
X401800Y-7495800D01*
X401800Y-7719800D02*
X431800Y-7749800D01*
X431800Y-7719800D02*
X401800Y-7749800D01*
X452600Y-3528800D02*
X482600Y-3558800D01*
X482600Y-3528800D02*
X452600Y-3558800D01*
X605000Y-9802600D02*
X635000Y-9832600D01*
X635000Y-9802600D02*
X605000Y-9832600D01*
X681200Y-7059400D02*
X711200Y-7089400D01*
X711200Y-7059400D02*
X681200Y-7089400D01*
X681200Y-7719800D02*
X711200Y-7749800D01*
X711200Y-7719800D02*
X681200Y-7749800D01*
X681200Y-8253200D02*
X711200Y-8283200D01*
X711200Y-8253200D02*
X681200Y-8283200D01*
X693900Y-3287500D02*
X723900Y-3317500D01*
X723900Y-3287500D02*
X693900Y-3317500D01*
X757400Y-3897100D02*
X787400Y-3927100D01*
X787400Y-3897100D02*
X757400Y-3927100D01*
X770100Y-1979400D02*
X800100Y-2009400D01*
X800100Y-1979400D02*
X770100Y-2009400D01*
X795500Y-341100D02*
X825500Y-371100D01*
X825500Y-341100D02*
X795500Y-371100D01*
X808200Y-4798800D02*
X838200Y-4828800D01*
X838200Y-4798800D02*
X808200Y-4828800D01*
X808200Y-5789400D02*
X838200Y-5819400D01*
X838200Y-5789400D02*
X808200Y-5819400D01*
X833600Y-3706600D02*
X863600Y-3736600D01*
X863600Y-3706600D02*
X833600Y-3736600D01*
X846300Y-6411700D02*
X876300Y-6441700D01*
X876300Y-6411700D02*
X846300Y-6441700D01*
X859000Y-5002000D02*
X889000Y-5032000D01*
X889000Y-5002000D02*
X859000Y-5032000D01*
X859000Y-6754600D02*
X889000Y-6784600D01*
X889000Y-6754600D02*
X859000Y-6784600D01*
X859000Y-7059400D02*
X889000Y-7089400D01*
X889000Y-7059400D02*
X859000Y-7089400D01*
X859000Y-7719800D02*
X889000Y-7749800D01*
X889000Y-7719800D02*
X859000Y-7749800D01*
X884400Y-684000D02*
X914400Y-714000D01*
X914400Y-684000D02*
X884400Y-714000D01*
X884400Y-5941800D02*
X914400Y-5971800D01*
X914400Y-5941800D02*
X884400Y-5971800D01*
X947900Y-1560300D02*
X977900Y-1590300D01*
X977900Y-1560300D02*
X947900Y-1590300D01*
X947900Y-1738100D02*
X977900Y-1768100D01*
X977900Y-1738100D02*
X947900Y-1768100D01*
X960600Y-3528800D02*
X990600Y-3558800D01*
X990600Y-3528800D02*
X960600Y-3558800D01*
X1005050Y-5414750D02*
X1035050Y-5444750D01*
X1035050Y-5414750D02*
X1005050Y-5444750D01*
X1005050Y-5598900D02*
X1035050Y-5628900D01*
X1035050Y-5598900D02*
X1005050Y-5628900D01*
X1011400Y-1369800D02*
X1041400Y-1399800D01*
X1041400Y-1369800D02*
X1011400Y-1399800D01*
X1011400Y-6500600D02*
X1041400Y-6530600D01*
X1041400Y-6500600D02*
X1011400Y-6530600D01*
X1011400Y-6754600D02*
X1041400Y-6784600D01*
X1041400Y-6754600D02*
X1011400Y-6784600D01*
X1036800Y-7059400D02*
X1066800Y-7089400D01*
X1066800Y-7059400D02*
X1036800Y-7089400D01*
X1036800Y-8253200D02*
X1066800Y-8283200D01*
X1066800Y-8253200D02*
X1036800Y-8283200D01*
X1062200Y-3897100D02*
X1092200Y-3927100D01*
X1092200Y-3897100D02*
X1062200Y-3927100D01*
X1062200Y-4138400D02*
X1092200Y-4168400D01*
X1092200Y-4138400D02*
X1062200Y-4168400D01*
X1062200Y-4290800D02*
X1092200Y-4320800D01*
X1092200Y-4290800D02*
X1062200Y-4320800D01*
X1062200Y-4417800D02*
X1092200Y-4447800D01*
X1092200Y-4417800D02*
X1062200Y-4447800D01*
X1074900Y-2665200D02*
X1104900Y-2695200D01*
X1104900Y-2665200D02*
X1074900Y-2695200D01*
X1113000Y-2131800D02*
X1143000Y-2161800D01*
X1143000Y-2131800D02*
X1113000Y-2161800D01*
X1113000Y-9802600D02*
X1143000Y-9832600D01*
X1143000Y-9802600D02*
X1113000Y-9832600D01*
X1163800Y-1763500D02*
X1193800Y-1793500D01*
X1193800Y-1763500D02*
X1163800Y-1793500D01*
X1189200Y-5154400D02*
X1219200Y-5184400D01*
X1219200Y-5154400D02*
X1189200Y-5184400D01*
X1201900Y-3287500D02*
X1231900Y-3317500D01*
X1231900Y-3287500D02*
X1201900Y-3317500D01*
X1201900Y-3884400D02*
X1231900Y-3914400D01*
X1231900Y-3884400D02*
X1201900Y-3914400D01*
X1214600Y-5433800D02*
X1244600Y-5463800D01*
X1244600Y-5433800D02*
X1214600Y-5463800D01*
X1240000Y-4138400D02*
X1270000Y-4168400D01*
X1270000Y-4138400D02*
X1240000Y-4168400D01*
X1265400Y-7821400D02*
X1295400Y-7851400D01*
X1295400Y-7821400D02*
X1265400Y-7851400D01*
X1290800Y-5814800D02*
X1320800Y-5844800D01*
X1320800Y-5814800D02*
X1290800Y-5844800D01*
X1303500Y-341100D02*
X1333500Y-371100D01*
X1333500Y-341100D02*
X1303500Y-371100D01*
X1316200Y-6500600D02*
X1346200Y-6530600D01*
X1346200Y-6500600D02*
X1316200Y-6530600D01*
X1392400Y-7008600D02*
X1422400Y-7038600D01*
X1422400Y-7008600D02*
X1392400Y-7038600D01*
X1443200Y-1522200D02*
X1473200Y-1552200D01*
X1473200Y-1522200D02*
X1443200Y-1552200D01*
X1443200Y-3528800D02*
X1473200Y-3558800D01*
X1473200Y-3528800D02*
X1443200Y-3558800D01*
X1519400Y-6373600D02*
X1549400Y-6403600D01*
X1549400Y-6373600D02*
X1519400Y-6403600D01*
X1557500Y-2817600D02*
X1587500Y-2847600D01*
X1587500Y-2817600D02*
X1557500Y-2847600D01*
X1570200Y-6119600D02*
X1600200Y-6149600D01*
X1600200Y-6119600D02*
X1570200Y-6149600D01*
X1570200Y-9802600D02*
X1600200Y-9832600D01*
X1600200Y-9802600D02*
X1570200Y-9832600D01*
X1595600Y-4138400D02*
X1625600Y-4168400D01*
X1625600Y-4138400D02*
X1595600Y-4168400D01*
X1595600Y-7338800D02*
X1625600Y-7368800D01*
X1625600Y-7338800D02*
X1595600Y-7368800D01*
X1646400Y-6576800D02*
X1676400Y-6606800D01*
X1676400Y-6576800D02*
X1646400Y-6606800D01*
X1646400Y-6983200D02*
X1676400Y-7013200D01*
X1676400Y-6983200D02*
X1646400Y-7013200D01*
X1697200Y-5433800D02*
X1727200Y-5463800D01*
X1727200Y-5433800D02*
X1697200Y-5463800D01*
X1709900Y-3287500D02*
X1739900Y-3317500D01*
X1739900Y-3287500D02*
X1709900Y-3317500D01*
X1709900Y-3884400D02*
X1739900Y-3914400D01*
X1739900Y-3884400D02*
X1709900Y-3914400D01*
X1722600Y-4265400D02*
X1752600Y-4295400D01*
X1752600Y-4265400D02*
X1722600Y-4295400D01*
X1722600Y-4557500D02*
X1752600Y-4587500D01*
X1752600Y-4557500D02*
X1722600Y-4587500D01*
X1773400Y-5008350D02*
X1803400Y-5038350D01*
X1803400Y-5008350D02*
X1773400Y-5038350D01*
X1773400Y-5687800D02*
X1803400Y-5717800D01*
X1803400Y-5687800D02*
X1773400Y-5717800D01*
X1824200Y-1522200D02*
X1854200Y-1552200D01*
X1854200Y-1522200D02*
X1824200Y-1552200D01*
X1824200Y-6830800D02*
X1854200Y-6860800D01*
X1854200Y-6830800D02*
X1824200Y-6860800D01*
X1875000Y-4138400D02*
X1905000Y-4168400D01*
X1905000Y-4138400D02*
X1875000Y-4168400D01*
X1875000Y-5332200D02*
X1905000Y-5362200D01*
X1905000Y-5332200D02*
X1875000Y-5362200D01*
X1875000Y-7084800D02*
X1905000Y-7114800D01*
X1905000Y-7084800D02*
X1875000Y-7114800D01*
X1900400Y-4367000D02*
X1930400Y-4397000D01*
X1930400Y-4367000D02*
X1900400Y-4397000D01*
X1951200Y-3084300D02*
X1981200Y-3114300D01*
X1981200Y-3084300D02*
X1951200Y-3114300D01*
X1951200Y-6119600D02*
X1981200Y-6149600D01*
X1981200Y-6119600D02*
X1951200Y-6149600D01*
X1976600Y-2157200D02*
X2006600Y-2187200D01*
X2006600Y-2157200D02*
X1976600Y-2187200D01*
X1976600Y-3287500D02*
X2006600Y-3317500D01*
X2006600Y-3287500D02*
X1976600Y-3317500D01*
X1976600Y-3528800D02*
X2006600Y-3558800D01*
X2006600Y-3528800D02*
X1976600Y-3558800D01*
X1976600Y-5129000D02*
X2006600Y-5159000D01*
X2006600Y-5129000D02*
X1976600Y-5159000D01*
X2027400Y-5332200D02*
X2057400Y-5362200D01*
X2057400Y-5332200D02*
X2027400Y-5362200D01*
X2027400Y-7415000D02*
X2057400Y-7445000D01*
X2057400Y-7415000D02*
X2027400Y-7445000D01*
X2103600Y-988800D02*
X2133600Y-1018800D01*
X2133600Y-988800D02*
X2103600Y-1018800D01*
X2154400Y-1242800D02*
X2184400Y-1272800D01*
X2184400Y-1242800D02*
X2154400Y-1272800D01*
X2154400Y-1420600D02*
X2184400Y-1450600D01*
X2184400Y-1420600D02*
X2154400Y-1450600D01*
X2154400Y-5840200D02*
X2184400Y-5870200D01*
X2184400Y-5840200D02*
X2154400Y-5870200D01*
X2154400Y-5967200D02*
X2184400Y-5997200D01*
X2184400Y-5967200D02*
X2154400Y-5997200D01*
X2154400Y-6856200D02*
X2184400Y-6886200D01*
X2184400Y-6856200D02*
X2154400Y-6886200D01*
X2205200Y-2233400D02*
X2235200Y-2263400D01*
X2235200Y-2233400D02*
X2205200Y-2263400D01*
X2205200Y-3033500D02*
X2235200Y-3063500D01*
X2235200Y-3033500D02*
X2205200Y-3063500D01*
X2205200Y-4189200D02*
X2235200Y-4219200D01*
X2235200Y-4189200D02*
X2205200Y-4219200D01*
X2230600Y-5332200D02*
X2260600Y-5362200D01*
X2260600Y-5332200D02*
X2230600Y-5362200D01*
X2281400Y-1674600D02*
X2311400Y-1704600D01*
X2311400Y-1674600D02*
X2281400Y-1704600D01*
X2281400Y-3655800D02*
X2311400Y-3685800D01*
X2311400Y-3655800D02*
X2281400Y-3685800D01*
X2319500Y-5840200D02*
X2349500Y-5870200D01*
X2349500Y-5840200D02*
X2319500Y-5870200D01*
X2319500Y-5967200D02*
X2349500Y-5997200D01*
X2349500Y-5967200D02*
X2319500Y-5997200D01*
X2332200Y-5408400D02*
X2362200Y-5438400D01*
X2362200Y-5408400D02*
X2332200Y-5438400D01*
X2344900Y-3287500D02*
X2374900Y-3317500D01*
X2374900Y-3287500D02*
X2344900Y-3317500D01*
X2357600Y-2182600D02*
X2387600Y-2212600D01*
X2387600Y-2182600D02*
X2357600Y-2212600D01*
X2357600Y-2512800D02*
X2387600Y-2542800D01*
X2387600Y-2512800D02*
X2357600Y-2542800D01*
X2357600Y-2741400D02*
X2387600Y-2771400D01*
X2387600Y-2741400D02*
X2357600Y-2771400D01*
X2357600Y-6678400D02*
X2387600Y-6708400D01*
X2387600Y-6678400D02*
X2357600Y-6708400D01*
X2357600Y-7135600D02*
X2387600Y-7165600D01*
X2387600Y-7135600D02*
X2357600Y-7165600D01*
X2357600Y-7516600D02*
X2387600Y-7546600D01*
X2387600Y-7516600D02*
X2357600Y-7546600D01*
X2383000Y-3884400D02*
X2413000Y-3914400D01*
X2413000Y-3884400D02*
X2383000Y-3914400D01*
X2383000Y-9091400D02*
X2413000Y-9121400D01*
X2413000Y-9091400D02*
X2383000Y-9121400D01*
X2383000Y-9294600D02*
X2413000Y-9324600D01*
X2413000Y-9294600D02*
X2383000Y-9324600D01*
X2383000Y-9548600D02*
X2413000Y-9578600D01*
X2413000Y-9548600D02*
X2383000Y-9578600D01*
X2383000Y-9828000D02*
X2413000Y-9858000D01*
X2413000Y-9828000D02*
X2383000Y-9858000D01*
X2395700Y-4608300D02*
X2425700Y-4638300D01*
X2425700Y-4608300D02*
X2395700Y-4638300D01*
X2408400Y-6322800D02*
X2438400Y-6352800D01*
X2438400Y-6322800D02*
X2408400Y-6352800D01*
X2459200Y-1014200D02*
X2489200Y-1044200D01*
X2489200Y-1014200D02*
X2459200Y-1044200D01*
X2459200Y-5179800D02*
X2489200Y-5209800D01*
X2489200Y-5179800D02*
X2459200Y-5209800D01*
X2459200Y-7364200D02*
X2489200Y-7394200D01*
X2489200Y-7364200D02*
X2459200Y-7394200D01*
X2484600Y-4138400D02*
X2514600Y-4168400D01*
X2514600Y-4138400D02*
X2484600Y-4168400D01*
X2484600Y-4379700D02*
X2514600Y-4409700D01*
X2514600Y-4379700D02*
X2484600Y-4409700D01*
X2484600Y-5052800D02*
X2514600Y-5082800D01*
X2514600Y-5052800D02*
X2484600Y-5082800D01*
X2484600Y-6856200D02*
X2514600Y-6886200D01*
X2514600Y-6856200D02*
X2484600Y-6886200D01*
X2535400Y-4824200D02*
X2565400Y-4854200D01*
X2565400Y-4824200D02*
X2535400Y-4854200D01*
X2535400Y-7770600D02*
X2565400Y-7800600D01*
X2565400Y-7770600D02*
X2535400Y-7800600D01*
X2560800Y-341100D02*
X2590800Y-371100D01*
X2590800Y-341100D02*
X2560800Y-371100D01*
X2573500Y-4582900D02*
X2603500Y-4612900D01*
X2603500Y-4582900D02*
X2573500Y-4612900D01*
X2586200Y-1808600D02*
X2616200Y-1838600D01*
X2616200Y-1808600D02*
X2586200Y-1838600D01*
X2586200Y-1908600D02*
X2616200Y-1938600D01*
X2616200Y-1908600D02*
X2586200Y-1938600D01*
X2586200Y-4722600D02*
X2616200Y-4752600D01*
X2616200Y-4722600D02*
X2586200Y-4752600D01*
X2586200Y-8786600D02*
X2616200Y-8816600D01*
X2616200Y-8786600D02*
X2586200Y-8816600D01*
X2611600Y-6627600D02*
X2641600Y-6657600D01*
X2641600Y-6627600D02*
X2611600Y-6657600D01*
X2611600Y-8431000D02*
X2641600Y-8461000D01*
X2641600Y-8431000D02*
X2611600Y-8461000D01*
X2611600Y-8634200D02*
X2641600Y-8664200D01*
X2641600Y-8634200D02*
X2611600Y-8664200D01*
X2637000Y-3655800D02*
X2667000Y-3685800D01*
X2667000Y-3655800D02*
X2637000Y-3685800D01*
X2637000Y-7618200D02*
X2667000Y-7648200D01*
X2667000Y-7618200D02*
X2637000Y-7648200D01*
X2675100Y-2804900D02*
X2705100Y-2834900D01*
X2705100Y-2804900D02*
X2675100Y-2834900D01*
X2687800Y-8253200D02*
X2717800Y-8283200D01*
X2717800Y-8253200D02*
X2687800Y-8283200D01*
X2700500Y-3287500D02*
X2730500Y-3317500D01*
X2730500Y-3287500D02*
X2700500Y-3317500D01*
X2713200Y-6780000D02*
X2743200Y-6810000D01*
X2743200Y-6780000D02*
X2713200Y-6810000D01*
X2713200Y-7135600D02*
X2743200Y-7165600D01*
X2743200Y-7135600D02*
X2713200Y-7165600D01*
X2738600Y-1141200D02*
X2768600Y-1171200D01*
X2768600Y-1141200D02*
X2738600Y-1171200D01*
X2738600Y-5306800D02*
X2768600Y-5336800D01*
X2768600Y-5306800D02*
X2738600Y-5336800D01*
X2764000Y-4849600D02*
X2794000Y-4879600D01*
X2794000Y-4849600D02*
X2764000Y-4879600D01*
X2789400Y-8050000D02*
X2819400Y-8080000D01*
X2819400Y-8050000D02*
X2789400Y-8080000D01*
X2814800Y-4138400D02*
X2844800Y-4168400D01*
X2844800Y-4138400D02*
X2814800Y-4168400D01*
X2814800Y-4417800D02*
X2844800Y-4447800D01*
X2844800Y-4417800D02*
X2814800Y-4447800D01*
X2814800Y-6386300D02*
X2844800Y-6416300D01*
X2844800Y-6386300D02*
X2814800Y-6416300D01*
X2814800Y-6602200D02*
X2844800Y-6632200D01*
X2844800Y-6602200D02*
X2814800Y-6632200D01*
X2865600Y-1674600D02*
X2895600Y-1704600D01*
X2895600Y-1674600D02*
X2865600Y-1704600D01*
X2865600Y-7262600D02*
X2895600Y-7292600D01*
X2895600Y-7262600D02*
X2865600Y-7292600D01*
X2865600Y-7465800D02*
X2895600Y-7495800D01*
X2895600Y-7465800D02*
X2865600Y-7495800D01*
X2865600Y-7897600D02*
X2895600Y-7927600D01*
X2895600Y-7897600D02*
X2865600Y-7927600D01*
X2891000Y-861800D02*
X2921000Y-891800D01*
X2921000Y-861800D02*
X2891000Y-891800D01*
X2891000Y-3884400D02*
X2921000Y-3914400D01*
X2921000Y-3884400D02*
X2891000Y-3914400D01*
X2891000Y-8532600D02*
X2921000Y-8562600D01*
X2921000Y-8532600D02*
X2891000Y-8562600D01*
X2891000Y-9040600D02*
X2921000Y-9070600D01*
X2921000Y-9040600D02*
X2891000Y-9070600D01*
X2891000Y-9548600D02*
X2921000Y-9578600D01*
X2921000Y-9548600D02*
X2891000Y-9578600D01*
X2891000Y-9828000D02*
X2921000Y-9858000D01*
X2921000Y-9828000D02*
X2891000Y-9858000D01*
X2903700Y-6386300D02*
X2933700Y-6416300D01*
X2933700Y-6386300D02*
X2903700Y-6416300D01*
X2903700Y-6602200D02*
X2933700Y-6632200D01*
X2933700Y-6602200D02*
X2903700Y-6632200D01*
X2941800Y-4824200D02*
X2971800Y-4854200D01*
X2971800Y-4824200D02*
X2941800Y-4854200D01*
X2941800Y-5408400D02*
X2971800Y-5438400D01*
X2971800Y-5408400D02*
X2941800Y-5438400D01*
X2967200Y-1776200D02*
X2997200Y-1806200D01*
X2997200Y-1776200D02*
X2967200Y-1806200D01*
X2967200Y-2081000D02*
X2997200Y-2111000D01*
X2997200Y-2081000D02*
X2967200Y-2111000D01*
X3018000Y-2589000D02*
X3048000Y-2619000D01*
X3048000Y-2589000D02*
X3018000Y-2619000D01*
X3018000Y-2779500D02*
X3048000Y-2809500D01*
X3048000Y-2779500D02*
X3018000Y-2809500D01*
X3018000Y-5306800D02*
X3048000Y-5336800D01*
X3048000Y-5306800D02*
X3018000Y-5336800D01*
X3018000Y-5865600D02*
X3048000Y-5895600D01*
X3048000Y-5865600D02*
X3018000Y-5895600D01*
X3018000Y-6373600D02*
X3048000Y-6403600D01*
X3048000Y-6373600D02*
X3018000Y-6403600D01*
X3043400Y-1420600D02*
X3073400Y-1450600D01*
X3073400Y-1420600D02*
X3043400Y-1450600D01*
X3043400Y-1979400D02*
X3073400Y-2009400D01*
X3073400Y-1979400D02*
X3043400Y-2009400D01*
X3043400Y-2157200D02*
X3073400Y-2187200D01*
X3073400Y-2157200D02*
X3043400Y-2187200D01*
X3043400Y-4417800D02*
X3073400Y-4447800D01*
X3073400Y-4417800D02*
X3043400Y-4447800D01*
X3068800Y-341100D02*
X3098800Y-371100D01*
X3098800Y-341100D02*
X3068800Y-371100D01*
X3081500Y-3287500D02*
X3111500Y-3317500D01*
X3111500Y-3287500D02*
X3081500Y-3317500D01*
X3094200Y-4544800D02*
X3124200Y-4574800D01*
X3124200Y-4544800D02*
X3094200Y-4574800D01*
X3119600Y-861800D02*
X3149600Y-891800D01*
X3149600Y-861800D02*
X3119600Y-891800D01*
X3119600Y-1649200D02*
X3149600Y-1679200D01*
X3149600Y-1649200D02*
X3119600Y-1679200D01*
X3119600Y-4875000D02*
X3149600Y-4905000D01*
X3149600Y-4875000D02*
X3119600Y-4905000D01*
X3145000Y-6780000D02*
X3175000Y-6810000D01*
X3175000Y-6780000D02*
X3145000Y-6810000D01*
X3145000Y-7288000D02*
X3175000Y-7318000D01*
X3175000Y-7288000D02*
X3145000Y-7318000D01*
X3145000Y-7796000D02*
X3175000Y-7826000D01*
X3175000Y-7796000D02*
X3145000Y-7826000D01*
X3145000Y-8253200D02*
X3175000Y-8283200D01*
X3175000Y-8253200D02*
X3145000Y-8283200D01*
X3145000Y-8786600D02*
X3175000Y-8816600D01*
X3175000Y-8786600D02*
X3145000Y-8816600D01*
X3145000Y-9294600D02*
X3175000Y-9324600D01*
X3175000Y-9294600D02*
X3145000Y-9324600D01*
X3170400Y-3655800D02*
X3200400Y-3685800D01*
X3200400Y-3655800D02*
X3170400Y-3685800D01*
X3221200Y-5230600D02*
X3251200Y-5260600D01*
X3251200Y-5230600D02*
X3221200Y-5260600D01*
X3221200Y-5738600D02*
X3251200Y-5768600D01*
X3251200Y-5738600D02*
X3221200Y-5768600D01*
X3221200Y-6246600D02*
X3251200Y-6276600D01*
X3251200Y-6246600D02*
X3221200Y-6276600D01*
X3272000Y-4316200D02*
X3302000Y-4346200D01*
X3302000Y-4316200D02*
X3272000Y-4346200D01*
X3335500Y-1280900D02*
X3365500Y-1310900D01*
X3365500Y-1280900D02*
X3335500Y-1310900D01*
X3399000Y-1141200D02*
X3429000Y-1171200D01*
X3429000Y-1141200D02*
X3399000Y-1171200D01*
X3399000Y-3884400D02*
X3429000Y-3914400D01*
X3429000Y-3884400D02*
X3399000Y-3914400D01*
X3399000Y-4925800D02*
X3429000Y-4955800D01*
X3429000Y-4925800D02*
X3399000Y-4955800D01*
X3399000Y-5484600D02*
X3429000Y-5514600D01*
X3429000Y-5484600D02*
X3399000Y-5514600D01*
X3399000Y-5992600D02*
X3429000Y-6022600D01*
X3429000Y-5992600D02*
X3399000Y-6022600D01*
X3399000Y-6500600D02*
X3429000Y-6530600D01*
X3429000Y-6500600D02*
X3399000Y-6530600D01*
X3399000Y-7008600D02*
X3429000Y-7038600D01*
X3429000Y-7008600D02*
X3399000Y-7038600D01*
X3399000Y-7516600D02*
X3429000Y-7546600D01*
X3429000Y-7516600D02*
X3399000Y-7546600D01*
X3399000Y-8024600D02*
X3429000Y-8054600D01*
X3429000Y-8024600D02*
X3399000Y-8054600D01*
X3399000Y-8532600D02*
X3429000Y-8562600D01*
X3429000Y-8532600D02*
X3399000Y-8562600D01*
X3399000Y-9040600D02*
X3429000Y-9070600D01*
X3429000Y-9040600D02*
X3399000Y-9070600D01*
X3399000Y-9548600D02*
X3429000Y-9578600D01*
X3429000Y-9548600D02*
X3399000Y-9578600D01*
X3399000Y-9828000D02*
X3429000Y-9858000D01*
X3429000Y-9828000D02*
X3399000Y-9858000D01*
X3449800Y-874500D02*
X3479800Y-904500D01*
X3479800Y-874500D02*
X3449800Y-904500D01*
X3462500Y-3224000D02*
X3492500Y-3254000D01*
X3492500Y-3224000D02*
X3462500Y-3254000D01*
X3576800Y-341100D02*
X3606800Y-371100D01*
X3606800Y-341100D02*
X3576800Y-371100D01*
X3589500Y-1573000D02*
X3619500Y-1603000D01*
X3619500Y-1573000D02*
X3589500Y-1603000D01*
X3589500Y-1954000D02*
X3619500Y-1984000D01*
X3619500Y-1954000D02*
X3589500Y-1984000D01*
X3589500Y-2335000D02*
X3619500Y-2365000D01*
X3619500Y-2335000D02*
X3589500Y-2365000D01*
X3589500Y-2716000D02*
X3619500Y-2746000D01*
X3619500Y-2716000D02*
X3589500Y-2746000D01*
X3716500Y-1446000D02*
X3746500Y-1476000D01*
X3746500Y-1446000D02*
X3716500Y-1476000D01*
X3805400Y-1090400D02*
X3835400Y-1120400D01*
X3835400Y-1090400D02*
X3805400Y-1120400D01*
X4034000Y-1446000D02*
X4064000Y-1476000D01*
X4064000Y-1446000D02*
X4034000Y-1476000D01*
X4034000Y-1700000D02*
X4064000Y-1730000D01*
X4064000Y-1700000D02*
X4034000Y-1730000D01*
X4034000Y-2462000D02*
X4064000Y-2492000D01*
X4064000Y-2462000D02*
X4034000Y-2492000D01*
X4034000Y-3224000D02*
X4064000Y-3254000D01*
X4064000Y-3224000D02*
X4034000Y-3254000D01*
X4034000Y-3986000D02*
X4064000Y-4016000D01*
X4064000Y-3986000D02*
X4034000Y-4016000D01*
X4034000Y-4748000D02*
X4064000Y-4778000D01*
X4064000Y-4748000D02*
X4034000Y-4778000D01*
X4034000Y-5510000D02*
X4064000Y-5540000D01*
X4064000Y-5510000D02*
X4034000Y-5540000D01*
X4034000Y-6272000D02*
X4064000Y-6302000D01*
X4064000Y-6272000D02*
X4034000Y-6302000D01*
X4034000Y-7034000D02*
X4064000Y-7064000D01*
X4064000Y-7034000D02*
X4034000Y-7064000D01*
X4034000Y-7796000D02*
X4064000Y-7826000D01*
X4064000Y-7796000D02*
X4034000Y-7826000D01*
X4034000Y-8558000D02*
X4064000Y-8588000D01*
X4064000Y-8558000D02*
X4034000Y-8588000D01*
X4034000Y-9320000D02*
X4064000Y-9350000D01*
X4064000Y-9320000D02*
X4034000Y-9350000D01*
X4034000Y-9828000D02*
X4064000Y-9858000D01*
X4064000Y-9828000D02*
X4034000Y-9858000D01*
X4084800Y-341100D02*
X4114800Y-371100D01*
X4114800Y-341100D02*
X4084800Y-371100D01*
X4211800Y-1090400D02*
X4241800Y-1120400D01*
X4241800Y-1090400D02*
X4211800Y-1120400D01*
X4288000Y-3605000D02*
X4318000Y-3635000D01*
X4318000Y-3605000D02*
X4288000Y-3635000D01*
X4288000Y-4697200D02*
X4318000Y-4727200D01*
X4318000Y-4697200D02*
X4288000Y-4727200D01*
X4288000Y-5789400D02*
X4318000Y-5819400D01*
X4318000Y-5789400D02*
X4288000Y-5819400D01*
X4288000Y-6881600D02*
X4318000Y-6911600D01*
X4318000Y-6881600D02*
X4288000Y-6911600D01*
X4288000Y-7973800D02*
X4318000Y-8003800D01*
X4318000Y-7973800D02*
X4288000Y-8003800D01*
X4288000Y-9066000D02*
X4318000Y-9096000D01*
X4318000Y-9066000D02*
X4288000Y-9096000D01*
X4288000Y-9574000D02*
X4318000Y-9604000D01*
X4318000Y-9574000D02*
X4288000Y-9604000D01*
X4415000Y-1446000D02*
X4445000Y-1476000D01*
X4445000Y-1446000D02*
X4415000Y-1476000D01*
X4415000Y-2081000D02*
X4445000Y-2111000D01*
X4445000Y-2081000D02*
X4415000Y-2111000D01*
X4415000Y-2843000D02*
X4445000Y-2873000D01*
X4445000Y-2843000D02*
X4415000Y-2873000D01*
X4542000Y-1700000D02*
X4572000Y-1730000D01*
X4572000Y-1700000D02*
X4542000Y-1730000D01*
X4542000Y-3173200D02*
X4572000Y-3203200D01*
X4572000Y-3173200D02*
X4542000Y-3203200D01*
X4542000Y-4265400D02*
X4572000Y-4295400D01*
X4572000Y-4265400D02*
X4542000Y-4295400D01*
X4542000Y-5357600D02*
X4572000Y-5387600D01*
X4572000Y-5357600D02*
X4542000Y-5387600D01*
X4542000Y-6449800D02*
X4572000Y-6479800D01*
X4572000Y-6449800D02*
X4542000Y-6479800D01*
X4542000Y-7542000D02*
X4572000Y-7572000D01*
X4572000Y-7542000D02*
X4542000Y-7572000D01*
X4542000Y-8634200D02*
X4572000Y-8664200D01*
X4572000Y-8634200D02*
X4542000Y-8664200D01*
X4542000Y-9828000D02*
X4572000Y-9858000D01*
X4572000Y-9828000D02*
X4542000Y-9858000D01*
X4592800Y-341100D02*
X4622800Y-371100D01*
X4622800Y-341100D02*
X4592800Y-371100D01*
X4592800Y-1090400D02*
X4622800Y-1120400D01*
X4622800Y-1090400D02*
X4592800Y-1120400D01*
X4796000Y-1446000D02*
X4826000Y-1476000D01*
X4826000Y-1446000D02*
X4796000Y-1476000D01*
X4821400Y-3605000D02*
X4851400Y-3635000D01*
X4851400Y-3605000D02*
X4821400Y-3635000D01*
X4821400Y-4697200D02*
X4851400Y-4727200D01*
X4851400Y-4697200D02*
X4821400Y-4727200D01*
X4821400Y-5789400D02*
X4851400Y-5819400D01*
X4851400Y-5789400D02*
X4821400Y-5819400D01*
X4821400Y-6881600D02*
X4851400Y-6911600D01*
X4851400Y-6881600D02*
X4821400Y-6911600D01*
X4821400Y-7973800D02*
X4851400Y-8003800D01*
X4851400Y-7973800D02*
X4821400Y-8003800D01*
X4821400Y-9066000D02*
X4851400Y-9096000D01*
X4851400Y-9066000D02*
X4821400Y-9096000D01*
X4897600Y-9574000D02*
X4927600Y-9604000D01*
X4927600Y-9574000D02*
X4897600Y-9604000D01*
X4973800Y-1090400D02*
X5003800Y-1120400D01*
X5003800Y-1090400D02*
X4973800Y-1120400D01*
X4986500Y-2081000D02*
X5016500Y-2111000D01*
X5016500Y-2081000D02*
X4986500Y-2111000D01*
X4986500Y-2843000D02*
X5016500Y-2873000D01*
X5016500Y-2843000D02*
X4986500Y-2873000D01*
X5100800Y-341100D02*
X5130800Y-371100D01*
X5130800Y-341100D02*
X5100800Y-371100D01*
X5151600Y-506200D02*
X5181600Y-536200D01*
X5181600Y-506200D02*
X5151600Y-536200D01*
X5177000Y-1446000D02*
X5207000Y-1476000D01*
X5207000Y-1446000D02*
X5177000Y-1476000D01*
X5304000Y-1700000D02*
X5334000Y-1730000D01*
X5334000Y-1700000D02*
X5304000Y-1730000D01*
X5304000Y-3173200D02*
X5334000Y-3203200D01*
X5334000Y-3173200D02*
X5304000Y-3203200D01*
X5304000Y-4265400D02*
X5334000Y-4295400D01*
X5334000Y-4265400D02*
X5304000Y-4295400D01*
X5304000Y-5357600D02*
X5334000Y-5387600D01*
X5334000Y-5357600D02*
X5304000Y-5387600D01*
X5304000Y-6449800D02*
X5334000Y-6479800D01*
X5334000Y-6449800D02*
X5304000Y-6479800D01*
X5304000Y-7542000D02*
X5334000Y-7572000D01*
X5334000Y-7542000D02*
X5304000Y-7572000D01*
X5304000Y-8634200D02*
X5334000Y-8664200D01*
X5334000Y-8634200D02*
X5304000Y-8664200D01*
X5304000Y-9828000D02*
X5334000Y-9858000D01*
X5334000Y-9828000D02*
X5304000Y-9858000D01*
X5329400Y-3605000D02*
X5359400Y-3635000D01*
X5359400Y-3605000D02*
X5329400Y-3635000D01*
X5329400Y-4697200D02*
X5359400Y-4727200D01*
X5359400Y-4697200D02*
X5329400Y-4727200D01*
X5329400Y-5789400D02*
X5359400Y-5819400D01*
X5359400Y-5789400D02*
X5329400Y-5819400D01*
X5329400Y-6881600D02*
X5359400Y-6911600D01*
X5359400Y-6881600D02*
X5329400Y-6911600D01*
X5329400Y-7973800D02*
X5359400Y-8003800D01*
X5359400Y-7973800D02*
X5329400Y-8003800D01*
X5329400Y-9066000D02*
X5359400Y-9096000D01*
X5359400Y-9066000D02*
X5329400Y-9096000D01*
X5354800Y-1090400D02*
X5384800Y-1120400D01*
X5384800Y-1090400D02*
X5354800Y-1120400D01*
X5456400Y-9574000D02*
X5486400Y-9604000D01*
X5486400Y-9574000D02*
X5456400Y-9604000D01*
X5558000Y-1446000D02*
X5588000Y-1476000D01*
X5588000Y-1446000D02*
X5558000Y-1476000D01*
X5608800Y-341100D02*
X5638800Y-371100D01*
X5638800Y-341100D02*
X5608800Y-371100D01*
X5659600Y-3706600D02*
X5689600Y-3736600D01*
X5689600Y-3706600D02*
X5659600Y-3736600D01*
X5659600Y-4798800D02*
X5689600Y-4828800D01*
X5689600Y-4798800D02*
X5659600Y-4828800D01*
X5659600Y-5891000D02*
X5689600Y-5921000D01*
X5689600Y-5891000D02*
X5659600Y-5921000D01*
X5659600Y-6983200D02*
X5689600Y-7013200D01*
X5689600Y-6983200D02*
X5659600Y-7013200D01*
X5659600Y-8075400D02*
X5689600Y-8105400D01*
X5689600Y-8075400D02*
X5659600Y-8105400D01*
X5659600Y-9167600D02*
X5689600Y-9197600D01*
X5689600Y-9167600D02*
X5659600Y-9197600D01*
X5685000Y-2271500D02*
X5715000Y-2301500D01*
X5715000Y-2271500D02*
X5685000Y-2301500D01*
X5685000Y-2589000D02*
X5715000Y-2619000D01*
X5715000Y-2589000D02*
X5685000Y-2619000D01*
X5735800Y-1090400D02*
X5765800Y-1120400D01*
X5765800Y-1090400D02*
X5735800Y-1120400D01*
X5888200Y-3605000D02*
X5918200Y-3635000D01*
X5918200Y-3605000D02*
X5888200Y-3635000D01*
X5888200Y-4671800D02*
X5918200Y-4701800D01*
X5918200Y-4671800D02*
X5888200Y-4701800D01*
X5888200Y-5764000D02*
X5918200Y-5794000D01*
X5918200Y-5764000D02*
X5888200Y-5794000D01*
X5888200Y-6856200D02*
X5918200Y-6886200D01*
X5918200Y-6856200D02*
X5888200Y-6886200D01*
X5888200Y-7973800D02*
X5918200Y-8003800D01*
X5918200Y-7973800D02*
X5888200Y-8003800D01*
X5888200Y-9040600D02*
X5918200Y-9070600D01*
X5918200Y-9040600D02*
X5888200Y-9070600D01*
X5939000Y-1446000D02*
X5969000Y-1476000D01*
X5969000Y-1446000D02*
X5939000Y-1476000D01*
X6066000Y-1700000D02*
X6096000Y-1730000D01*
X6096000Y-1700000D02*
X6066000Y-1730000D01*
X6066000Y-2271500D02*
X6096000Y-2301500D01*
X6096000Y-2271500D02*
X6066000Y-2301500D01*
X6066000Y-2589000D02*
X6096000Y-2619000D01*
X6096000Y-2589000D02*
X6066000Y-2619000D01*
X6066000Y-3173200D02*
X6096000Y-3203200D01*
X6096000Y-3173200D02*
X6066000Y-3203200D01*
X6066000Y-9828000D02*
X6096000Y-9858000D01*
X6096000Y-9828000D02*
X6066000Y-9858000D01*
X6091400Y-4265400D02*
X6121400Y-4295400D01*
X6121400Y-4265400D02*
X6091400Y-4295400D01*
X6091400Y-5357600D02*
X6121400Y-5387600D01*
X6121400Y-5357600D02*
X6091400Y-5387600D01*
X6091400Y-6449800D02*
X6121400Y-6479800D01*
X6121400Y-6449800D02*
X6091400Y-6479800D01*
X6091400Y-7542000D02*
X6121400Y-7572000D01*
X6121400Y-7542000D02*
X6091400Y-7572000D01*
X6116800Y-341100D02*
X6146800Y-371100D01*
X6146800Y-341100D02*
X6116800Y-371100D01*
X6116800Y-1090400D02*
X6146800Y-1120400D01*
X6146800Y-1090400D02*
X6116800Y-1120400D01*
X6116800Y-8634200D02*
X6146800Y-8664200D01*
X6146800Y-8634200D02*
X6116800Y-8664200D01*
X6193000Y-684000D02*
X6223000Y-714000D01*
X6223000Y-684000D02*
X6193000Y-714000D01*
X6320000Y-1446000D02*
X6350000Y-1476000D01*
X6350000Y-1446000D02*
X6320000Y-1476000D01*
X6472400Y-3681200D02*
X6502400Y-3711200D01*
X6502400Y-3681200D02*
X6472400Y-3711200D01*
X6472400Y-4773400D02*
X6502400Y-4803400D01*
X6502400Y-4773400D02*
X6472400Y-4803400D01*
X6472400Y-5865600D02*
X6502400Y-5895600D01*
X6502400Y-5865600D02*
X6472400Y-5895600D01*
X6472400Y-6957800D02*
X6502400Y-6987800D01*
X6502400Y-6957800D02*
X6472400Y-6987800D01*
X6472400Y-8050000D02*
X6502400Y-8080000D01*
X6502400Y-8050000D02*
X6472400Y-8080000D01*
X6472400Y-9116800D02*
X6502400Y-9146800D01*
X6502400Y-9116800D02*
X6472400Y-9146800D01*
X6548600Y-1166600D02*
X6578600Y-1196600D01*
X6578600Y-1166600D02*
X6548600Y-1196600D01*
X6574000Y-3173200D02*
X6604000Y-3203200D01*
X6604000Y-3173200D02*
X6574000Y-3203200D01*
X6574000Y-4265400D02*
X6604000Y-4295400D01*
X6604000Y-4265400D02*
X6574000Y-4295400D01*
X6574000Y-5357600D02*
X6604000Y-5387600D01*
X6604000Y-5357600D02*
X6574000Y-5387600D01*
X6574000Y-6449800D02*
X6604000Y-6479800D01*
X6604000Y-6449800D02*
X6574000Y-6479800D01*
X6574000Y-7542000D02*
X6604000Y-7572000D01*
X6604000Y-7542000D02*
X6574000Y-7572000D01*
X6574000Y-8634200D02*
X6604000Y-8664200D01*
X6604000Y-8634200D02*
X6574000Y-8664200D01*
X6599400Y-938000D02*
X6629400Y-968000D01*
X6629400Y-938000D02*
X6599400Y-968000D01*
X6624800Y-341100D02*
X6654800Y-371100D01*
X6654800Y-341100D02*
X6624800Y-371100D01*
X6637500Y-2589000D02*
X6667500Y-2619000D01*
X6667500Y-2589000D02*
X6637500Y-2619000D01*
X6701000Y-1446000D02*
X6731000Y-1476000D01*
X6731000Y-1446000D02*
X6701000Y-1476000D01*
X6828000Y-1700000D02*
X6858000Y-1730000D01*
X6858000Y-1700000D02*
X6828000Y-1730000D01*
X6828000Y-9828000D02*
X6858000Y-9858000D01*
X6858000Y-9828000D02*
X6828000Y-9858000D01*
X6891500Y-2208000D02*
X6921500Y-2238000D01*
X6921500Y-2208000D02*
X6891500Y-2238000D01*
X6891500Y-2589000D02*
X6921500Y-2619000D01*
X6921500Y-2589000D02*
X6891500Y-2619000D01*
X6980400Y-836400D02*
X7010400Y-866400D01*
X7010400Y-836400D02*
X6980400Y-866400D01*
X6980400Y-1217400D02*
X7010400Y-1247400D01*
X7010400Y-1217400D02*
X6980400Y-1247400D01*
X6980400Y-9116800D02*
X7010400Y-9146800D01*
X7010400Y-9116800D02*
X6980400Y-9146800D01*
X7005800Y-1293600D02*
X7035800Y-1323600D01*
X7035800Y-1293600D02*
X7005800Y-1323600D01*
X7005800Y-6957800D02*
X7035800Y-6987800D01*
X7035800Y-6957800D02*
X7005800Y-6987800D01*
X7031200Y-3681200D02*
X7061200Y-3711200D01*
X7061200Y-3681200D02*
X7031200Y-3711200D01*
X7031200Y-4773400D02*
X7061200Y-4803400D01*
X7061200Y-4773400D02*
X7031200Y-4803400D01*
X7031200Y-5865600D02*
X7061200Y-5895600D01*
X7061200Y-5865600D02*
X7031200Y-5895600D01*
X7031200Y-8050000D02*
X7061200Y-8080000D01*
X7061200Y-8050000D02*
X7031200Y-8080000D01*
X7082000Y-684000D02*
X7112000Y-714000D01*
X7112000Y-684000D02*
X7082000Y-714000D01*
X7082000Y-1446000D02*
X7112000Y-1476000D01*
X7112000Y-1446000D02*
X7082000Y-1476000D01*
X7132800Y-341100D02*
X7162800Y-371100D01*
X7162800Y-341100D02*
X7132800Y-371100D01*
X7412200Y-2538200D02*
X7442200Y-2568200D01*
X7442200Y-2538200D02*
X7412200Y-2568200D01*
X7412200Y-3681200D02*
X7442200Y-3711200D01*
X7442200Y-3681200D02*
X7412200Y-3711200D01*
X7412200Y-4773400D02*
X7442200Y-4803400D01*
X7442200Y-4773400D02*
X7412200Y-4803400D01*
X7412200Y-5865600D02*
X7442200Y-5895600D01*
X7442200Y-5865600D02*
X7412200Y-5895600D01*
X7412200Y-6957800D02*
X7442200Y-6987800D01*
X7442200Y-6957800D02*
X7412200Y-6987800D01*
X7412200Y-8050000D02*
X7442200Y-8080000D01*
X7442200Y-8050000D02*
X7412200Y-8080000D01*
X7412200Y-9116800D02*
X7442200Y-9146800D01*
X7442200Y-9116800D02*
X7412200Y-9146800D01*
X7437600Y-1115800D02*
X7467600Y-1145800D01*
X7467600Y-1115800D02*
X7437600Y-1145800D01*
X7463000Y-1446000D02*
X7493000Y-1476000D01*
X7493000Y-1446000D02*
X7463000Y-1476000D01*
X7488400Y-1776200D02*
X7518400Y-1806200D01*
X7518400Y-1776200D02*
X7488400Y-1806200D01*
X7590000Y-1700000D02*
X7620000Y-1730000D01*
X7620000Y-1700000D02*
X7590000Y-1730000D01*
X7590000Y-9828000D02*
X7620000Y-9858000D01*
X7620000Y-9828000D02*
X7590000Y-9858000D01*
X7640800Y-341100D02*
X7670800Y-371100D01*
X7670800Y-341100D02*
X7640800Y-371100D01*
X7666200Y-2970000D02*
X7696200Y-3000000D01*
X7696200Y-2970000D02*
X7666200Y-3000000D01*
X7666200Y-4087600D02*
X7696200Y-4117600D01*
X7696200Y-4087600D02*
X7666200Y-4117600D01*
X7666200Y-5179800D02*
X7696200Y-5209800D01*
X7696200Y-5179800D02*
X7666200Y-5209800D01*
X7666200Y-6272000D02*
X7696200Y-6302000D01*
X7696200Y-6272000D02*
X7666200Y-6302000D01*
X7666200Y-7364200D02*
X7696200Y-7394200D01*
X7696200Y-7364200D02*
X7666200Y-7394200D01*
X7666200Y-8456400D02*
X7696200Y-8486400D01*
X7696200Y-8456400D02*
X7666200Y-8486400D01*
X7742400Y-3732000D02*
X7772400Y-3762000D01*
X7772400Y-3732000D02*
X7742400Y-3762000D01*
X7742400Y-4824200D02*
X7772400Y-4854200D01*
X7772400Y-4824200D02*
X7742400Y-4854200D01*
X7742400Y-5916400D02*
X7772400Y-5946400D01*
X7772400Y-5916400D02*
X7742400Y-5946400D01*
X7742400Y-7008600D02*
X7772400Y-7038600D01*
X7772400Y-7008600D02*
X7742400Y-7038600D01*
X7742400Y-8100800D02*
X7772400Y-8130800D01*
X7772400Y-8100800D02*
X7742400Y-8130800D01*
X7742400Y-9193000D02*
X7772400Y-9223000D01*
X7772400Y-9193000D02*
X7742400Y-9223000D01*
X7844000Y-1446000D02*
X7874000Y-1476000D01*
X7874000Y-1446000D02*
X7844000Y-1476000D01*
X7856700Y-1179300D02*
X7886700Y-1209300D01*
X7886700Y-1179300D02*
X7856700Y-1209300D01*
X7869400Y-912600D02*
X7899400Y-942600D01*
X7899400Y-912600D02*
X7869400Y-942600D01*
X7894800Y-7008600D02*
X7924800Y-7038600D01*
X7924800Y-7008600D02*
X7894800Y-7038600D01*
X8021800Y-557000D02*
X8051800Y-587000D01*
X8051800Y-557000D02*
X8021800Y-587000D01*
X8021800Y-5332200D02*
X8051800Y-5362200D01*
X8051800Y-5332200D02*
X8021800Y-5362200D01*
X8047200Y-4316200D02*
X8077200Y-4346200D01*
X8077200Y-4316200D02*
X8047200Y-4346200D01*
X8098000Y-5027400D02*
X8128000Y-5057400D01*
X8128000Y-5027400D02*
X8098000Y-5057400D01*
X8123400Y-3935200D02*
X8153400Y-3965200D01*
X8153400Y-3935200D02*
X8123400Y-3965200D01*
X8148800Y-341100D02*
X8178800Y-371100D01*
X8178800Y-341100D02*
X8148800Y-371100D01*
X8148800Y-6145000D02*
X8178800Y-6175000D01*
X8178800Y-6145000D02*
X8148800Y-6175000D01*
X8148800Y-8177000D02*
X8178800Y-8207000D01*
X8178800Y-8177000D02*
X8148800Y-8207000D01*
X8200000Y-6782000D02*
X8230000Y-6812000D01*
X8230000Y-6782000D02*
X8200000Y-6812000D01*
X8212300Y-8646900D02*
X8242300Y-8676900D01*
X8242300Y-8646900D02*
X8212300Y-8676900D01*
X8225000Y-1446000D02*
X8255000Y-1476000D01*
X8255000Y-1446000D02*
X8225000Y-1476000D01*
X8225000Y-3427200D02*
X8255000Y-3457200D01*
X8255000Y-3427200D02*
X8225000Y-3457200D01*
X8275800Y-4671800D02*
X8305800Y-4701800D01*
X8305800Y-4671800D02*
X8275800Y-4701800D01*
X8326600Y-7186400D02*
X8356600Y-7216400D01*
X8356600Y-7186400D02*
X8326600Y-7216400D01*
X8331000Y-5426000D02*
X8361000Y-5456000D01*
X8361000Y-5426000D02*
X8331000Y-5456000D01*
X8352000Y-1700000D02*
X8382000Y-1730000D01*
X8382000Y-1700000D02*
X8352000Y-1730000D01*
X8352000Y-6195800D02*
X8382000Y-6225800D01*
X8382000Y-6195800D02*
X8352000Y-6225800D01*
X8352000Y-7923000D02*
X8382000Y-7953000D01*
X8382000Y-7923000D02*
X8352000Y-7953000D01*
X8352000Y-8304000D02*
X8382000Y-8334000D01*
X8382000Y-8304000D02*
X8352000Y-8334000D01*
X8352000Y-8939000D02*
X8382000Y-8969000D01*
X8382000Y-8939000D02*
X8352000Y-8969000D01*
X8352000Y-9447000D02*
X8382000Y-9477000D01*
X8382000Y-9447000D02*
X8352000Y-9477000D01*
X8352000Y-9828000D02*
X8382000Y-9858000D01*
X8382000Y-9828000D02*
X8352000Y-9858000D01*
X8377400Y-3452600D02*
X8407400Y-3482600D01*
X8407400Y-3452600D02*
X8377400Y-3482600D01*
X8377400Y-5789400D02*
X8407400Y-5819400D01*
X8407400Y-5789400D02*
X8377400Y-5819400D01*
X8377400Y-7034000D02*
X8407400Y-7064000D01*
X8407400Y-7034000D02*
X8377400Y-7064000D01*
X8390100Y-1153900D02*
X8420100Y-1183900D01*
X8420100Y-1153900D02*
X8390100Y-1183900D01*
X8390100Y-1446000D02*
X8420100Y-1476000D01*
X8420100Y-1446000D02*
X8390100Y-1476000D01*
X8402800Y-7351500D02*
X8432800Y-7381500D01*
X8432800Y-7351500D02*
X8402800Y-7381500D01*
X8428200Y-6145000D02*
X8458200Y-6175000D01*
X8458200Y-6145000D02*
X8428200Y-6175000D01*
X8453600Y-709400D02*
X8483600Y-739400D01*
X8483600Y-709400D02*
X8453600Y-739400D01*
X8453600Y-7440400D02*
X8483600Y-7470400D01*
X8483600Y-7440400D02*
X8453600Y-7470400D01*
X8479000Y-7542000D02*
X8509000Y-7572000D01*
X8509000Y-7542000D02*
X8479000Y-7572000D01*
X8501000Y-6089000D02*
X8531000Y-6119000D01*
X8531000Y-6089000D02*
X8501000Y-6119000D01*
X8554000Y-6310000D02*
X8584000Y-6340000D01*
X8584000Y-6310000D02*
X8554000Y-6340000D01*
X8631400Y-1141200D02*
X8661400Y-1171200D01*
X8661400Y-1141200D02*
X8631400Y-1171200D01*
X8644100Y-5103600D02*
X8674100Y-5133600D01*
X8674100Y-5103600D02*
X8644100Y-5133600D01*
X8656800Y-341100D02*
X8686800Y-371100D01*
X8686800Y-341100D02*
X8656800Y-371100D01*
X8656800Y-6043400D02*
X8686800Y-6073400D01*
X8686800Y-6043400D02*
X8656800Y-6073400D01*
X8733000Y-8050000D02*
X8763000Y-8080000D01*
X8763000Y-8050000D02*
X8733000Y-8080000D01*
X8733000Y-8558000D02*
X8763000Y-8588000D01*
X8763000Y-8558000D02*
X8733000Y-8588000D01*
X8733000Y-9193000D02*
X8763000Y-9223000D01*
X8763000Y-9193000D02*
X8733000Y-9223000D01*
X8821900Y-5154400D02*
X8851900Y-5184400D01*
X8851900Y-5154400D02*
X8821900Y-5184400D01*
X8866000Y-5796000D02*
X8896000Y-5826000D01*
X8896000Y-5796000D02*
X8866000Y-5826000D01*
X8872700Y-5459200D02*
X8902700Y-5489200D01*
X8902700Y-5459200D02*
X8872700Y-5489200D01*
X8936200Y-3986000D02*
X8966200Y-4016000D01*
X8966200Y-3986000D02*
X8936200Y-4016000D01*
X8936200Y-7059400D02*
X8966200Y-7089400D01*
X8966200Y-7059400D02*
X8936200Y-7089400D01*
X8948900Y-5573500D02*
X8978900Y-5603500D01*
X8978900Y-5573500D02*
X8948900Y-5603500D01*
X8961600Y-6348200D02*
X8991600Y-6378200D01*
X8991600Y-6348200D02*
X8961600Y-6378200D01*
X8999700Y-5154400D02*
X9029700Y-5184400D01*
X9029700Y-5154400D02*
X8999700Y-5184400D01*
X8999700Y-5459200D02*
X9029700Y-5489200D01*
X9029700Y-5459200D02*
X8999700Y-5489200D01*
X9025100Y-7059400D02*
X9055100Y-7089400D01*
X9055100Y-7059400D02*
X9025100Y-7089400D01*
X9025100Y-7224500D02*
X9055100Y-7254500D01*
X9055100Y-7224500D02*
X9025100Y-7254500D01*
X9037800Y-6272000D02*
X9067800Y-6302000D01*
X9067800Y-6272000D02*
X9037800Y-6302000D01*
X9037800Y-6627600D02*
X9067800Y-6657600D01*
X9067800Y-6627600D02*
X9037800Y-6657600D01*
X9037800Y-6932400D02*
X9067800Y-6962400D01*
X9067800Y-6932400D02*
X9037800Y-6962400D01*
X9042000Y-7675000D02*
X9072000Y-7705000D01*
X9072000Y-7675000D02*
X9042000Y-7705000D01*
X9103700Y-6988200D02*
X9133700Y-7018200D01*
X9133700Y-6988200D02*
X9103700Y-7018200D01*
X9114000Y-1700000D02*
X9144000Y-1730000D01*
X9144000Y-1700000D02*
X9114000Y-1730000D01*
X9114000Y-3452600D02*
X9144000Y-3482600D01*
X9144000Y-3452600D02*
X9114000Y-3482600D01*
X9114000Y-8050000D02*
X9144000Y-8080000D01*
X9144000Y-8050000D02*
X9114000Y-8080000D01*
X9114000Y-8812000D02*
X9144000Y-8842000D01*
X9144000Y-8812000D02*
X9114000Y-8842000D01*
X9114000Y-9320000D02*
X9144000Y-9350000D01*
X9144000Y-9320000D02*
X9114000Y-9350000D01*
X9114000Y-9828000D02*
X9144000Y-9858000D01*
X9144000Y-9828000D02*
X9114000Y-9858000D01*
X9126700Y-7224500D02*
X9156700Y-7254500D01*
X9156700Y-7224500D02*
X9126700Y-7254500D01*
X9164800Y-341100D02*
X9194800Y-371100D01*
X9194800Y-341100D02*
X9164800Y-371100D01*
X9215600Y-3351000D02*
X9245600Y-3381000D01*
X9245600Y-3351000D02*
X9215600Y-3381000D01*
X9285000Y-7974000D02*
X9315000Y-8004000D01*
X9315000Y-7974000D02*
X9285000Y-8004000D01*
X9291800Y-6373600D02*
X9321800Y-6403600D01*
X9321800Y-6373600D02*
X9291800Y-6403600D01*
X9304500Y-1573000D02*
X9334500Y-1603000D01*
X9334500Y-1573000D02*
X9304500Y-1603000D01*
X9317200Y-6602200D02*
X9347200Y-6632200D01*
X9347200Y-6602200D02*
X9317200Y-6632200D01*
X9317200Y-7084800D02*
X9347200Y-7114800D01*
X9347200Y-7084800D02*
X9317200Y-7114800D01*
X9340000Y-5598000D02*
X9370000Y-5628000D01*
X9370000Y-5598000D02*
X9340000Y-5628000D01*
X9347000Y-2624000D02*
X9377000Y-2654000D01*
X9377000Y-2624000D02*
X9347000Y-2654000D01*
X9347680Y-2304520D02*
X9377680Y-2334520D01*
X9377680Y-2304520D02*
X9347680Y-2334520D01*
X9368000Y-6246600D02*
X9398000Y-6276600D01*
X9398000Y-6246600D02*
X9368000Y-6276600D01*
X9418800Y-7846800D02*
X9448800Y-7876800D01*
X9448800Y-7846800D02*
X9418800Y-7876800D01*
X9422000Y-5352000D02*
X9452000Y-5382000D01*
X9452000Y-5352000D02*
X9422000Y-5382000D01*
X9431500Y-1382500D02*
X9461500Y-1412500D01*
X9461500Y-1382500D02*
X9431500Y-1412500D01*
X9444200Y-6449800D02*
X9474200Y-6479800D01*
X9474200Y-6449800D02*
X9444200Y-6479800D01*
X9453000Y-7586000D02*
X9483000Y-7616000D01*
X9483000Y-7586000D02*
X9453000Y-7616000D01*
X9482300Y-6564100D02*
X9512300Y-6594100D01*
X9512300Y-6564100D02*
X9482300Y-6594100D01*
X9482300Y-6691100D02*
X9512300Y-6721100D01*
X9512300Y-6691100D02*
X9482300Y-6721100D01*
X9482300Y-6818100D02*
X9512300Y-6848100D01*
X9512300Y-6818100D02*
X9482300Y-6848100D01*
X9482300Y-6945100D02*
X9512300Y-6975100D01*
X9512300Y-6945100D02*
X9482300Y-6975100D01*
X9482300Y-7072100D02*
X9512300Y-7102100D01*
X9512300Y-7072100D02*
X9482300Y-7102100D01*
X9482300Y-7199100D02*
X9512300Y-7229100D01*
X9512300Y-7199100D02*
X9482300Y-7229100D01*
X9495000Y-3122400D02*
X9525000Y-3152400D01*
X9525000Y-3122400D02*
X9495000Y-3152400D01*
X9520400Y-3884400D02*
X9550400Y-3914400D01*
X9550400Y-3884400D02*
X9520400Y-3914400D01*
X9545800Y-4849600D02*
X9575800Y-4879600D01*
X9575800Y-4849600D02*
X9545800Y-4879600D01*
X9545800Y-6246600D02*
X9575800Y-6276600D01*
X9575800Y-6246600D02*
X9545800Y-6276600D01*
X9571200Y-3630400D02*
X9601200Y-3660400D01*
X9601200Y-3630400D02*
X9571200Y-3660400D01*
X9571200Y-5814800D02*
X9601200Y-5844800D01*
X9601200Y-5814800D02*
X9571200Y-5844800D01*
X9596600Y-4367000D02*
X9626600Y-4397000D01*
X9626600Y-4367000D02*
X9596600Y-4397000D01*
X9622000Y-4062200D02*
X9652000Y-4092200D01*
X9652000Y-4062200D02*
X9622000Y-4092200D01*
X9733760Y-3792960D02*
X9763760Y-3822960D01*
X9763760Y-3792960D02*
X9733760Y-3822960D01*
X9799800Y-3020800D02*
X9829800Y-3050800D01*
X9829800Y-3020800D02*
X9799800Y-3050800D01*
X9799800Y-3503400D02*
X9829800Y-3533400D01*
X9829800Y-3503400D02*
X9799800Y-3533400D01*
X9876000Y-6526000D02*
X9906000Y-6556000D01*
X9906000Y-6526000D02*
X9876000Y-6556000D01*
X9876000Y-7288000D02*
X9906000Y-7318000D01*
X9906000Y-7288000D02*
X9876000Y-7318000D01*
X9876000Y-8050000D02*
X9906000Y-8080000D01*
X9906000Y-8050000D02*
X9876000Y-8080000D01*
X6832840Y-2070600D02*
G75*
G03X6832840Y-2070600I-40640J0D01*
G01*
X6832840Y-2832600D02*
G75*
G03X6832840Y-2832600I-40640J0D01*
G01*
X6832840Y-3188200D02*
G75*
G03X6832840Y-3188200I-40640J0D01*
G01*
X6832840Y-3950200D02*
G75*
G03X6832840Y-3950200I-40640J0D01*
G01*
X6832840Y-4280400D02*
G75*
G03X6832840Y-4280400I-40640J0D01*
G01*
X6832840Y-5042400D02*
G75*
G03X6832840Y-5042400I-40640J0D01*
G01*
X6832840Y-5372600D02*
G75*
G03X6832840Y-5372600I-40640J0D01*
G01*
X6832840Y-6134600D02*
G75*
G03X6832840Y-6134600I-40640J0D01*
G01*
X6832840Y-6464800D02*
G75*
G03X6832840Y-6464800I-40640J0D01*
G01*
X6832840Y-7226800D02*
G75*
G03X6832840Y-7226800I-40640J0D01*
G01*
X6832840Y-7557000D02*
G75*
G03X6832840Y-7557000I-40640J0D01*
G01*
X6832840Y-8319000D02*
G75*
G03X6832840Y-8319000I-40640J0D01*
G01*
X6832840Y-8649200D02*
G75*
G03X6832840Y-8649200I-40640J0D01*
G01*
X6832840Y-9411200D02*
G75*
G03X6832840Y-9411200I-40640J0D01*
G01*
X7086840Y-2070600D02*
G75*
G03X7086840Y-2070600I-40640J0D01*
G01*
X7086840Y-2832600D02*
G75*
G03X7086840Y-2832600I-40640J0D01*
G01*
X7086840Y-3188200D02*
G75*
G03X7086840Y-3188200I-40640J0D01*
G01*
X7086840Y-3950200D02*
G75*
G03X7086840Y-3950200I-40640J0D01*
G01*
X7086840Y-4280400D02*
G75*
G03X7086840Y-4280400I-40640J0D01*
G01*
X7086840Y-5042400D02*
G75*
G03X7086840Y-5042400I-40640J0D01*
G01*
X7086840Y-5372600D02*
G75*
G03X7086840Y-5372600I-40640J0D01*
G01*
X7086840Y-6134600D02*
G75*
G03X7086840Y-6134600I-40640J0D01*
G01*
X7086840Y-6464800D02*
G75*
G03X7086840Y-6464800I-40640J0D01*
G01*
X7086840Y-7226800D02*
G75*
G03X7086840Y-7226800I-40640J0D01*
G01*
X7086840Y-7557000D02*
G75*
G03X7086840Y-7557000I-40640J0D01*
G01*
X7086840Y-8319000D02*
G75*
G03X7086840Y-8319000I-40640J0D01*
G01*
X7086840Y-8649200D02*
G75*
G03X7086840Y-8649200I-40640J0D01*
G01*
X7086840Y-9411200D02*
G75*
G03X7086840Y-9411200I-40640J0D01*
G01*
X7340840Y-2070600D02*
G75*
G03X7340840Y-2070600I-40640J0D01*
G01*
X7340840Y-2832600D02*
G75*
G03X7340840Y-2832600I-40640J0D01*
G01*
X7340840Y-3188200D02*
G75*
G03X7340840Y-3188200I-40640J0D01*
G01*
X7340840Y-3950200D02*
G75*
G03X7340840Y-3950200I-40640J0D01*
G01*
X7340840Y-4280400D02*
G75*
G03X7340840Y-4280400I-40640J0D01*
G01*
X7340840Y-5042400D02*
G75*
G03X7340840Y-5042400I-40640J0D01*
G01*
X7340840Y-5372600D02*
G75*
G03X7340840Y-5372600I-40640J0D01*
G01*
X7340840Y-6134600D02*
G75*
G03X7340840Y-6134600I-40640J0D01*
G01*
X7340840Y-6464800D02*
G75*
G03X7340840Y-6464800I-40640J0D01*
G01*
X7340840Y-7226800D02*
G75*
G03X7340840Y-7226800I-40640J0D01*
G01*
X7340840Y-7557000D02*
G75*
G03X7340840Y-7557000I-40640J0D01*
G01*
X7340840Y-8319000D02*
G75*
G03X7340840Y-8319000I-40640J0D01*
G01*
X7340840Y-8649200D02*
G75*
G03X7340840Y-8649200I-40640J0D01*
G01*
X7340840Y-9411200D02*
G75*
G03X7340840Y-9411200I-40640J0D01*
G01*
X7594840Y-2070600D02*
G75*
G03X7594840Y-2070600I-40640J0D01*
G01*
X7594840Y-2832600D02*
G75*
G03X7594840Y-2832600I-40640J0D01*
G01*
X7594840Y-3188200D02*
G75*
G03X7594840Y-3188200I-40640J0D01*
G01*
X7594840Y-3950200D02*
G75*
G03X7594840Y-3950200I-40640J0D01*
G01*
X7594840Y-4280400D02*
G75*
G03X7594840Y-4280400I-40640J0D01*
G01*
X7594840Y-5042400D02*
G75*
G03X7594840Y-5042400I-40640J0D01*
G01*
X7594840Y-5372600D02*
G75*
G03X7594840Y-5372600I-40640J0D01*
G01*
X7594840Y-6134600D02*
G75*
G03X7594840Y-6134600I-40640J0D01*
G01*
X7594840Y-6464800D02*
G75*
G03X7594840Y-6464800I-40640J0D01*
G01*
X7594840Y-7226800D02*
G75*
G03X7594840Y-7226800I-40640J0D01*
G01*
X7594840Y-7557000D02*
G75*
G03X7594840Y-7557000I-40640J0D01*
G01*
X7594840Y-8319000D02*
G75*
G03X7594840Y-8319000I-40640J0D01*
G01*
X7594840Y-8649200D02*
G75*
G03X7594840Y-8649200I-40640J0D01*
G01*
X7594840Y-9411200D02*
G75*
G03X7594840Y-9411200I-40640J0D01*
G01*
X7848840Y-2070600D02*
G75*
G03X7848840Y-2070600I-40640J0D01*
G01*
X7848840Y-2832600D02*
G75*
G03X7848840Y-2832600I-40640J0D01*
G01*
X7848840Y-3188200D02*
G75*
G03X7848840Y-3188200I-40640J0D01*
G01*
X7848840Y-3950200D02*
G75*
G03X7848840Y-3950200I-40640J0D01*
G01*
X7848840Y-4280400D02*
G75*
G03X7848840Y-4280400I-40640J0D01*
G01*
X7848840Y-5042400D02*
G75*
G03X7848840Y-5042400I-40640J0D01*
G01*
X7848840Y-5372600D02*
G75*
G03X7848840Y-5372600I-40640J0D01*
G01*
X7848840Y-6134600D02*
G75*
G03X7848840Y-6134600I-40640J0D01*
G01*
X7848840Y-6464800D02*
G75*
G03X7848840Y-6464800I-40640J0D01*
G01*
X7848840Y-7226800D02*
G75*
G03X7848840Y-7226800I-40640J0D01*
G01*
X7848840Y-7557000D02*
G75*
G03X7848840Y-7557000I-40640J0D01*
G01*
X7848840Y-8319000D02*
G75*
G03X7848840Y-8319000I-40640J0D01*
G01*
X7848840Y-8649200D02*
G75*
G03X7848840Y-8649200I-40640J0D01*
G01*
X7848840Y-9411200D02*
G75*
G03X7848840Y-9411200I-40640J0D01*
G01*
X639000Y-2168089D02*
X639000Y-2267911D01*
X589089Y-2218000D02*
X688911Y-2218000D01*
X639000Y-2422089D02*
X639000Y-2521911D01*
X589089Y-2472000D02*
X688911Y-2472000D01*
X639000Y-2795389D02*
X639000Y-2895211D01*
X589089Y-2845300D02*
X688911Y-2845300D01*
X639000Y-3049389D02*
X639000Y-3149211D01*
X589089Y-3099300D02*
X688911Y-3099300D01*
X439456Y-3830616D02*
X439456Y-3759904D01*
X368744Y-3759904D01*
X368744Y-3830616D01*
X439456Y-3830616D01*
X439456Y-4084616D02*
X439456Y-4013904D01*
X368744Y-4013904D01*
X368744Y-4084616D01*
X439456Y-4084616D01*
X439456Y-4338616D02*
X439456Y-4267904D01*
X368744Y-4267904D01*
X368744Y-4338616D01*
X439456Y-4338616D01*
X439456Y-4592616D02*
X439456Y-4521904D01*
X368744Y-4521904D01*
X368744Y-4592616D01*
X439456Y-4592616D01*
X439456Y-4846616D02*
X439456Y-4775904D01*
X368744Y-4775904D01*
X368744Y-4846616D01*
X439456Y-4846616D01*
X439456Y-5100616D02*
X439456Y-5029904D01*
X368744Y-5029904D01*
X368744Y-5100616D01*
X439456Y-5100616D01*
X439456Y-5354616D02*
X439456Y-5283904D01*
X368744Y-5283904D01*
X368744Y-5354616D01*
X439456Y-5354616D01*
X439456Y-5608616D02*
X439456Y-5537904D01*
X368744Y-5537904D01*
X368744Y-5608616D01*
X439456Y-5608616D01*
X439456Y-5862616D02*
X439456Y-5791904D01*
X368744Y-5791904D01*
X368744Y-5862616D01*
X439456Y-5862616D01*
X439456Y-6116616D02*
X439456Y-6045904D01*
X368744Y-6045904D01*
X368744Y-6116616D01*
X439456Y-6116616D01*
X494574Y-632502D02*
X494574Y-561790D01*
X423862Y-561790D01*
X423862Y-632502D01*
X494574Y-632502D01*
X494574Y-886502D02*
X494574Y-815790D01*
X423862Y-815790D01*
X423862Y-886502D01*
X494574Y-886502D01*
X494574Y-1140502D02*
X494574Y-1069790D01*
X423862Y-1069790D01*
X423862Y-1140502D01*
X494574Y-1140502D01*
X494574Y-1394502D02*
X494574Y-1323790D01*
X423862Y-1323790D01*
X423862Y-1394502D01*
X494574Y-1394502D01*
X494574Y-1648502D02*
X494574Y-1577790D01*
X423862Y-1577790D01*
X423862Y-1648502D01*
X494574Y-1648502D01*
X494574Y-1902502D02*
X494574Y-1831790D01*
X423862Y-1831790D01*
X423862Y-1902502D01*
X494574Y-1902502D01*
X693456Y-3830616D02*
X693456Y-3759904D01*
X622744Y-3759904D01*
X622744Y-3830616D01*
X693456Y-3830616D01*
X693456Y-4084616D02*
X693456Y-4013904D01*
X622744Y-4013904D01*
X622744Y-4084616D01*
X693456Y-4084616D01*
X693456Y-4338616D02*
X693456Y-4267904D01*
X622744Y-4267904D01*
X622744Y-4338616D01*
X693456Y-4338616D01*
X693456Y-4592616D02*
X693456Y-4521904D01*
X622744Y-4521904D01*
X622744Y-4592616D01*
X693456Y-4592616D01*
X693456Y-4846616D02*
X693456Y-4775904D01*
X622744Y-4775904D01*
X622744Y-4846616D01*
X693456Y-4846616D01*
X693456Y-5100616D02*
X693456Y-5029904D01*
X622744Y-5029904D01*
X622744Y-5100616D01*
X693456Y-5100616D01*
X693456Y-5354616D02*
X693456Y-5283904D01*
X622744Y-5283904D01*
X622744Y-5354616D01*
X693456Y-5354616D01*
X693456Y-5608616D02*
X693456Y-5537904D01*
X622744Y-5537904D01*
X622744Y-5608616D01*
X693456Y-5608616D01*
X693456Y-5862616D02*
X693456Y-5791904D01*
X622744Y-5791904D01*
X622744Y-5862616D01*
X693456Y-5862616D01*
X693456Y-6116616D02*
X693456Y-6045904D01*
X622744Y-6045904D01*
X622744Y-6116616D01*
X693456Y-6116616D01*
X1188756Y-632756D02*
X1188756Y-562044D01*
X1118044Y-562044D01*
X1118044Y-632756D01*
X1188756Y-632756D01*
X1384336Y-4780576D02*
X1384336Y-4709864D01*
X1313624Y-4709864D01*
X1313624Y-4780576D01*
X1384336Y-4780576D01*
X1384336Y-5034576D02*
X1384336Y-4963864D01*
X1313624Y-4963864D01*
X1313624Y-5034576D01*
X1384336Y-5034576D01*
X1384336Y-5288576D02*
X1384336Y-5217864D01*
X1313624Y-5217864D01*
X1313624Y-5288576D01*
X1384336Y-5288576D01*
X1442756Y-632756D02*
X1442756Y-562044D01*
X1372044Y-562044D01*
X1372044Y-632756D01*
X1442756Y-632756D01*
X1638336Y-4780576D02*
X1638336Y-4709864D01*
X1567624Y-4709864D01*
X1567624Y-4780576D01*
X1638336Y-4780576D01*
X1638336Y-5034576D02*
X1638336Y-4963864D01*
X1567624Y-4963864D01*
X1567624Y-5034576D01*
X1638336Y-5034576D01*
X1638336Y-5288576D02*
X1638336Y-5217864D01*
X1567624Y-5217864D01*
X1567624Y-5288576D01*
X1638336Y-5288576D01*
X1899956Y-7338356D02*
X1899956Y-7267644D01*
X1829244Y-7267644D01*
X1829244Y-7338356D01*
X1899956Y-7338356D01*
X1899956Y-7592356D02*
X1899956Y-7521644D01*
X1829244Y-7521644D01*
X1829244Y-7592356D01*
X1899956Y-7592356D01*
X1899956Y-7846356D02*
X1899956Y-7775644D01*
X1829244Y-7775644D01*
X1829244Y-7846356D01*
X1899956Y-7846356D01*
X1899956Y-8100356D02*
X1899956Y-8029644D01*
X1829244Y-8029644D01*
X1829244Y-8100356D01*
X1899956Y-8100356D01*
X1899956Y-8481356D02*
X1899956Y-8410644D01*
X1829244Y-8410644D01*
X1829244Y-8481356D01*
X1899956Y-8481356D01*
X1899956Y-8735356D02*
X1899956Y-8664644D01*
X1829244Y-8664644D01*
X1829244Y-8735356D01*
X1899956Y-8735356D01*
X1899956Y-8989356D02*
X1899956Y-8918644D01*
X1829244Y-8918644D01*
X1829244Y-8989356D01*
X1899956Y-8989356D01*
X1899956Y-9243356D02*
X1899956Y-9172644D01*
X1829244Y-9172644D01*
X1829244Y-9243356D01*
X1899956Y-9243356D01*
X2661956Y-6093756D02*
X2661956Y-6023044D01*
X2591244Y-6023044D01*
X2591244Y-6093756D01*
X2661956Y-6093756D01*
X2661956Y-6347756D02*
X2661956Y-6277044D01*
X2591244Y-6277044D01*
X2591244Y-6347756D01*
X2661956Y-6347756D01*
X4196116Y-815636D02*
X4196116Y-744924D01*
X4125404Y-744924D01*
X4125404Y-815636D01*
X4196116Y-815636D01*
X4450116Y-815636D02*
X4450116Y-744924D01*
X4379404Y-744924D01*
X4379404Y-815636D01*
X4450116Y-815636D01*
X4704116Y-815636D02*
X4704116Y-744924D01*
X4633404Y-744924D01*
X4633404Y-815636D01*
X4704116Y-815636D01*
X4958116Y-815636D02*
X4958116Y-744924D01*
X4887404Y-744924D01*
X4887404Y-815636D01*
X4958116Y-815636D01*
X5212116Y-815636D02*
X5212116Y-744924D01*
X5141404Y-744924D01*
X5141404Y-815636D01*
X5212116Y-815636D01*
X5466116Y-815636D02*
X5466116Y-744924D01*
X5395404Y-744924D01*
X5395404Y-815636D01*
X5466116Y-815636D01*
X9634356Y-2500356D02*
X9634356Y-2429644D01*
X9563644Y-2429644D01*
X9563644Y-2500356D01*
X9634356Y-2500356D01*
X9651356Y-730356D02*
X9651356Y-659644D01*
X9580644Y-659644D01*
X9580644Y-730356D01*
X9651356Y-730356D01*
X9651356Y-984356D02*
X9651356Y-913644D01*
X9580644Y-913644D01*
X9580644Y-984356D01*
X9651356Y-984356D01*
X9651356Y-984356D02*
X9651356Y-913644D01*
X9580644Y-913644D01*
X9580644Y-984356D01*
X9651356Y-984356D01*
X9651356Y-984356D02*
X9651356Y-913644D01*
X9580644Y-913644D01*
X9580644Y-984356D01*
X9651356Y-984356D01*
X9651356Y-984356D02*
X9651356Y-913644D01*
X9580644Y-913644D01*
X9580644Y-984356D01*
X9651356Y-984356D01*
X9651356Y-1238356D02*
X9651356Y-1167644D01*
X9580644Y-1167644D01*
X9580644Y-1238356D01*
X9651356Y-1238356D01*
X9651356Y-1492356D02*
X9651356Y-1421644D01*
X9580644Y-1421644D01*
X9580644Y-1492356D01*
X9651356Y-1492356D01*
X9651356Y-1746356D02*
X9651356Y-1675644D01*
X9580644Y-1675644D01*
X9580644Y-1746356D01*
X9651356Y-1746356D01*
X9651356Y-8855356D02*
X9651356Y-8784644D01*
X9580644Y-8784644D01*
X9580644Y-8855356D01*
X9651356Y-8855356D01*
X9888356Y-1992356D02*
X9888356Y-1921644D01*
X9817644Y-1921644D01*
X9817644Y-1992356D01*
X9888356Y-1992356D01*
X9888356Y-2246356D02*
X9888356Y-2175644D01*
X9817644Y-2175644D01*
X9817644Y-2246356D01*
X9888356Y-2246356D01*
X9888356Y-2754356D02*
X9888356Y-2683644D01*
X9817644Y-2683644D01*
X9817644Y-2754356D01*
X9888356Y-2754356D01*
X9905356Y-730356D02*
X9905356Y-659644D01*
X9834644Y-659644D01*
X9834644Y-730356D01*
X9905356Y-730356D01*
X9905356Y-984356D02*
X9905356Y-913644D01*
X9834644Y-913644D01*
X9834644Y-984356D01*
X9905356Y-984356D01*
X9905356Y-984356D02*
X9905356Y-913644D01*
X9834644Y-913644D01*
X9834644Y-984356D01*
X9905356Y-984356D01*
X9905356Y-984356D02*
X9905356Y-913644D01*
X9834644Y-913644D01*
X9834644Y-984356D01*
X9905356Y-984356D01*
X9905356Y-984356D02*
X9905356Y-913644D01*
X9834644Y-913644D01*
X9834644Y-984356D01*
X9905356Y-984356D01*
X9905356Y-1238356D02*
X9905356Y-1167644D01*
X9834644Y-1167644D01*
X9834644Y-1238356D01*
X9905356Y-1238356D01*
X9905356Y-1492356D02*
X9905356Y-1421644D01*
X9834644Y-1421644D01*
X9834644Y-1492356D01*
X9905356Y-1492356D01*
X9905356Y-1746356D02*
X9905356Y-1675644D01*
X9834644Y-1675644D01*
X9834644Y-1746356D01*
X9905356Y-1746356D01*
X9905356Y-8347356D02*
X9905356Y-8276644D01*
X9834644Y-8276644D01*
X9834644Y-8347356D01*
X9905356Y-8347356D01*
X9905356Y-8601356D02*
X9905356Y-8530644D01*
X9834644Y-8530644D01*
X9834644Y-8601356D01*
X9905356Y-8601356D01*
X9905356Y-9109356D02*
X9905356Y-9038644D01*
X9834644Y-9038644D01*
X9834644Y-9109356D01*
X9905356Y-9109356D01*
X9909356Y-4031356D02*
X9909356Y-3960644D01*
X9838644Y-3960644D01*
X9838644Y-4031356D01*
X9909356Y-4031356D01*
X9909356Y-4285356D02*
X9909356Y-4214644D01*
X9838644Y-4214644D01*
X9838644Y-4285356D01*
X9909356Y-4285356D01*
X9909356Y-4539356D02*
X9909356Y-4468644D01*
X9838644Y-4468644D01*
X9838644Y-4539356D01*
X9909356Y-4539356D01*
X9909356Y-4793356D02*
X9909356Y-4722644D01*
X9838644Y-4722644D01*
X9838644Y-4793356D01*
X9909356Y-4793356D01*
X9909356Y-5047356D02*
X9909356Y-4976644D01*
X9838644Y-4976644D01*
X9838644Y-5047356D01*
X9909356Y-5047356D01*
X9909356Y-5301356D02*
X9909356Y-5230644D01*
X9838644Y-5230644D01*
X9838644Y-5301356D01*
X9909356Y-5301356D01*
X9909356Y-5555356D02*
X9909356Y-5484644D01*
X9838644Y-5484644D01*
X9838644Y-5555356D01*
X9909356Y-5555356D01*
X9909356Y-5809356D02*
X9909356Y-5738644D01*
X9838644Y-5738644D01*
X9838644Y-5809356D01*
X9909356Y-5809356D01*
X9909356Y-6063356D02*
X9909356Y-5992644D01*
X9838644Y-5992644D01*
X9838644Y-6063356D01*
X9909356Y-6063356D01*
X5217400Y-2333800D02*
X5277400Y-2273800D01*
X5217400Y-2213800D01*
X5157400Y-2273800D01*
X5217400Y-2333800D01*
X5217400Y-2841800D02*
X5277400Y-2781800D01*
X5217400Y-2721800D01*
X5157400Y-2781800D01*
X5217400Y-2841800D01*
X5217400Y-3426000D02*
X5277400Y-3366000D01*
X5217400Y-3306000D01*
X5157400Y-3366000D01*
X5217400Y-3426000D01*
X5217400Y-3934000D02*
X5277400Y-3874000D01*
X5217400Y-3814000D01*
X5157400Y-3874000D01*
X5217400Y-3934000D01*
X5217400Y-4518200D02*
X5277400Y-4458200D01*
X5217400Y-4398200D01*
X5157400Y-4458200D01*
X5217400Y-4518200D01*
X5217400Y-5026200D02*
X5277400Y-4966200D01*
X5217400Y-4906200D01*
X5157400Y-4966200D01*
X5217400Y-5026200D01*
X5217400Y-5610400D02*
X5277400Y-5550400D01*
X5217400Y-5490400D01*
X5157400Y-5550400D01*
X5217400Y-5610400D01*
X5217400Y-6118400D02*
X5277400Y-6058400D01*
X5217400Y-5998400D01*
X5157400Y-6058400D01*
X5217400Y-6118400D01*
X5217400Y-6702600D02*
X5277400Y-6642600D01*
X5217400Y-6582600D01*
X5157400Y-6642600D01*
X5217400Y-6702600D01*
X5217400Y-7210600D02*
X5277400Y-7150600D01*
X5217400Y-7090600D01*
X5157400Y-7150600D01*
X5217400Y-7210600D01*
X5217400Y-7794800D02*
X5277400Y-7734800D01*
X5217400Y-7674800D01*
X5157400Y-7734800D01*
X5217400Y-7794800D01*
X5217400Y-8302800D02*
X5277400Y-8242800D01*
X5217400Y-8182800D01*
X5157400Y-8242800D01*
X5217400Y-8302800D01*
X5217400Y-8887000D02*
X5277400Y-8827000D01*
X5217400Y-8767000D01*
X5157400Y-8827000D01*
X5217400Y-8887000D01*
X5217400Y-9395000D02*
X5277400Y-9335000D01*
X5217400Y-9275000D01*
X5157400Y-9335000D01*
X5217400Y-9395000D01*
X5674600Y-4162600D02*
X5734600Y-4102600D01*
X5674600Y-4042600D01*
X5614600Y-4102600D01*
X5674600Y-4162600D01*
X5674600Y-5254800D02*
X5734600Y-5194800D01*
X5674600Y-5134800D01*
X5614600Y-5194800D01*
X5674600Y-5254800D01*
X5674600Y-6347000D02*
X5734600Y-6287000D01*
X5674600Y-6227000D01*
X5614600Y-6287000D01*
X5674600Y-6347000D01*
X5674600Y-7439200D02*
X5734600Y-7379200D01*
X5674600Y-7319200D01*
X5614600Y-7379200D01*
X5674600Y-7439200D01*
X5674600Y-8531400D02*
X5734600Y-8471400D01*
X5674600Y-8411400D01*
X5614600Y-8471400D01*
X5674600Y-8531400D01*
X5674600Y-9623600D02*
X5734600Y-9563600D01*
X5674600Y-9503600D01*
X5614600Y-9563600D01*
X5674600Y-9623600D01*
X6182600Y-4162600D02*
X6242600Y-4102600D01*
X6182600Y-4042600D01*
X6122600Y-4102600D01*
X6182600Y-4162600D01*
X6182600Y-5254800D02*
X6242600Y-5194800D01*
X6182600Y-5134800D01*
X6122600Y-5194800D01*
X6182600Y-5254800D01*
X6182600Y-6347000D02*
X6242600Y-6287000D01*
X6182600Y-6227000D01*
X6122600Y-6287000D01*
X6182600Y-6347000D01*
X6182600Y-7439200D02*
X6242600Y-7379200D01*
X6182600Y-7319200D01*
X6122600Y-7379200D01*
X6182600Y-7439200D01*
X6182600Y-8531400D02*
X6242600Y-8471400D01*
X6182600Y-8411400D01*
X6122600Y-8471400D01*
X6182600Y-8531400D01*
X6182600Y-9623600D02*
X6242600Y-9563600D01*
X6182600Y-9503600D01*
X6122600Y-9563600D01*
X6182600Y-9623600D01*
X6462000Y-2333800D02*
X6522000Y-2273800D01*
X6462000Y-2213800D01*
X6402000Y-2273800D01*
X6462000Y-2333800D01*
X6462000Y-2841800D02*
X6522000Y-2781800D01*
X6462000Y-2721800D01*
X6402000Y-2781800D01*
X6462000Y-2841800D01*
X8169000Y-2183000D02*
X8229000Y-2123000D01*
X8169000Y-2063000D01*
X8109000Y-2123000D01*
X8169000Y-2183000D01*
X8232500Y-1865500D02*
X8292500Y-1805500D01*
X8232500Y-1745500D01*
X8172500Y-1805500D01*
X8232500Y-1865500D01*
X8550000Y-2818000D02*
X8610000Y-2758000D01*
X8550000Y-2698000D01*
X8490000Y-2758000D01*
X8550000Y-2818000D01*
X8804000Y-2183000D02*
X8864000Y-2123000D01*
X8804000Y-2063000D01*
X8744000Y-2123000D01*
X8804000Y-2183000D01*
X9058000Y-2818000D02*
X9118000Y-2758000D01*
X9058000Y-2698000D01*
X8998000Y-2758000D01*
X9058000Y-2818000D01*
X8876500Y-1006500D02*
X9003500Y-1133500D01*
X9003500Y-1006500D02*
X8876500Y-1133500D01*
X9003500Y-1070000D02*
G75*
G03X9003500Y-1070000I-63500J0D01*
G01*
X2119800Y-4815000D02*
X2269800Y-4965000D01*
X2269800Y-4815000D02*
X2119800Y-4965000D01*
X2194800Y-4815000D02*
X2194800Y-4965000D01*
X2119800Y-4890000D02*
X2269800Y-4890000D01*
X2526200Y-2048600D02*
X2676200Y-2198600D01*
X2676200Y-2048600D02*
X2526200Y-2198600D01*
X2601200Y-2048600D02*
X2601200Y-2198600D01*
X2526200Y-2123600D02*
X2676200Y-2123600D01*
X9505000Y-2132500D02*
X9662000Y-2289500D01*
X9662000Y-2132500D02*
X9505000Y-2289500D01*
X9639008Y-2266508D02*
X9639008Y-2155492D01*
X9527992Y-2155492D01*
X9527992Y-2266508D01*
X9639008Y-2266508D01*
X9505000Y-2640500D02*
X9662000Y-2797500D01*
X9662000Y-2640500D02*
X9505000Y-2797500D01*
X9639008Y-2774508D02*
X9639008Y-2663492D01*
X9527992Y-2663492D01*
X9527992Y-2774508D01*
X9639008Y-2774508D01*
X9522000Y-8487500D02*
X9679000Y-8644500D01*
X9679000Y-8487500D02*
X9522000Y-8644500D01*
X9656008Y-8621508D02*
X9656008Y-8510492D01*
X9544992Y-8510492D01*
X9544992Y-8621508D01*
X9656008Y-8621508D01*
X9522000Y-8995500D02*
X9679000Y-9152500D01*
X9679000Y-8995500D02*
X9522000Y-9152500D01*
X9656008Y-9129508D02*
X9656008Y-9018492D01*
X9544992Y-9018492D01*
X9544992Y-9129508D01*
X9656008Y-9129508D01*
X9746000Y-2386500D02*
X9903000Y-2543500D01*
X9903000Y-2386500D02*
X9746000Y-2543500D01*
X9880008Y-2520508D02*
X9880008Y-2409492D01*
X9768992Y-2409492D01*
X9768992Y-2520508D01*
X9880008Y-2520508D01*
X9763000Y-8741500D02*
X9920000Y-8898500D01*
X9920000Y-8741500D02*
X9763000Y-8898500D01*
X9897008Y-8875508D02*
X9897008Y-8764492D01*
X9785992Y-8764492D01*
X9785992Y-8875508D01*
X9897008Y-8875508D01*
X9165000Y-990000D02*
X9325000Y-1150000D01*
X9325000Y-990000D02*
X9165000Y-1150000D01*
X9245000Y-1150000D02*
X9325000Y-1070000D01*
X9245000Y-990000D01*
X9165000Y-1070000D01*
X9245000Y-1150000D01*
X2000000Y-135000D02*
X2000000Y-465000D01*
X1835000Y-300000D02*
X2165000Y-300000D01*
X2165000Y-300000D02*
G75*
G03X2165000Y-300000I-165000J0D01*
G01*
X2000000Y-9535000D02*
X2000000Y-9865000D01*
X1835000Y-9700000D02*
X2165000Y-9700000D01*
X2165000Y-9700000D02*
G75*
G03X2165000Y-9700000I-165000J0D01*
G01*
X9700000Y-135000D02*
X9700000Y-465000D01*
X9535000Y-300000D02*
X9865000Y-300000D01*
X9865000Y-300000D02*
G75*
G03X9865000Y-300000I-165000J0D01*
G01*
X9700000Y-9535000D02*
X9700000Y-9865000D01*
X9535000Y-9700000D02*
X9865000Y-9700000D01*
X9865000Y-9700000D02*
G75*
G03X9865000Y-9700000I-165000J0D01*
G01*
D13*
X263929Y-10473214D02*
X263929Y-10173214D01*
X335357Y-10173214D01*
X378214Y-10187500D01*
X406786Y-10216072D01*
X421071Y-10244643D01*
X435357Y-10301786D01*
X435357Y-10344643D01*
X421071Y-10401786D01*
X406786Y-10430357D01*
X378214Y-10458929D01*
X335357Y-10473214D01*
X263929Y-10473214D01*
X563929Y-10473214D02*
X563929Y-10273214D01*
X563929Y-10330357D02*
X578214Y-10301786D01*
X592500Y-10287500D01*
X621071Y-10273214D01*
X649643Y-10273214D01*
X749643Y-10473214D02*
X749643Y-10273214D01*
X749643Y-10173214D02*
X735357Y-10187500D01*
X749643Y-10201786D01*
X763928Y-10187500D01*
X749643Y-10173214D01*
X749643Y-10201786D01*
X935357Y-10473214D02*
X906786Y-10458929D01*
X892500Y-10430357D01*
X892500Y-10173214D01*
X1092500Y-10473214D02*
X1063929Y-10458929D01*
X1049643Y-10430357D01*
X1049643Y-10173214D01*
X1435357Y-10473214D02*
X1435357Y-10173214D01*
X1535357Y-10387500D01*
X1635357Y-10173214D01*
X1635357Y-10473214D01*
X1906786Y-10473214D02*
X1906786Y-10316072D01*
X1892500Y-10287500D01*
X1863928Y-10273214D01*
X1806786Y-10273214D01*
X1778214Y-10287500D01*
X1906786Y-10458929D02*
X1878214Y-10473214D01*
X1806786Y-10473214D01*
X1778214Y-10458929D01*
X1763928Y-10430357D01*
X1763928Y-10401786D01*
X1778214Y-10373214D01*
X1806786Y-10358929D01*
X1878214Y-10358929D01*
X1906786Y-10344643D01*
X2049643Y-10273214D02*
X2049643Y-10573214D01*
X2049643Y-10287500D02*
X2078214Y-10273214D01*
X2135357Y-10273214D01*
X2163929Y-10287500D01*
X2178214Y-10301786D01*
X2192500Y-10330357D01*
X2192500Y-10416072D01*
X2178214Y-10444643D01*
X2163929Y-10458929D01*
X2135357Y-10473214D01*
X2078214Y-10473214D01*
X2049643Y-10458929D01*
X2321071Y-10444643D02*
X2335357Y-10458929D01*
X2321071Y-10473214D01*
X2306786Y-10458929D01*
X2321071Y-10444643D01*
X2321071Y-10473214D01*
X2321071Y-10287500D02*
X2335357Y-10301786D01*
X2321071Y-10316072D01*
X2306786Y-10301786D01*
X2321071Y-10287500D01*
X2321071Y-10316072D01*
X-37500Y-10952500D02*
X-7500Y-10982500D01*
X-7500Y-10952500D02*
X-37500Y-10982500D01*
X321071Y-10803214D02*
X349643Y-10803214D01*
X378214Y-10817500D01*
X392500Y-10831786D01*
X406786Y-10860357D01*
X421071Y-10917500D01*
X421071Y-10988929D01*
X406786Y-11046072D01*
X392500Y-11074643D01*
X378214Y-11088929D01*
X349643Y-11103214D01*
X321071Y-11103214D01*
X292500Y-11088929D01*
X278214Y-11074643D01*
X263929Y-11046072D01*
X249643Y-10988929D01*
X249643Y-10917500D01*
X263929Y-10860357D01*
X278214Y-10831786D01*
X292500Y-10817500D01*
X321071Y-10803214D01*
X549643Y-11074643D02*
X563929Y-11088929D01*
X549643Y-11103214D01*
X535357Y-11088929D01*
X549643Y-11074643D01*
X549643Y-11103214D01*
X663928Y-10803214D02*
X849643Y-10803214D01*
X749643Y-10917500D01*
X792500Y-10917500D01*
X821071Y-10931786D01*
X835357Y-10946072D01*
X849643Y-10974643D01*
X849643Y-11046072D01*
X835357Y-11074643D01*
X821071Y-11088929D01*
X792500Y-11103214D01*
X706786Y-11103214D01*
X678214Y-11088929D01*
X663928Y-11074643D01*
X1035357Y-10803214D02*
X1063929Y-10803214D01*
X1092500Y-10817500D01*
X1106786Y-10831786D01*
X1121071Y-10860357D01*
X1135357Y-10917500D01*
X1135357Y-10988929D01*
X1121071Y-11046072D01*
X1106786Y-11074643D01*
X1092500Y-11088929D01*
X1063929Y-11103214D01*
X1035357Y-11103214D01*
X1006786Y-11088929D01*
X992500Y-11074643D01*
X978214Y-11046072D01*
X963928Y-10988929D01*
X963928Y-10917500D01*
X978214Y-10860357D01*
X992500Y-10831786D01*
X1006786Y-10817500D01*
X1035357Y-10803214D01*
X1263929Y-11103214D02*
X1263929Y-10903214D01*
X1263929Y-10931786D02*
X1278214Y-10917500D01*
X1306786Y-10903214D01*
X1349643Y-10903214D01*
X1378214Y-10917500D01*
X1392500Y-10946072D01*
X1392500Y-11103214D01*
X1392500Y-10946072D02*
X1406786Y-10917500D01*
X1435357Y-10903214D01*
X1478214Y-10903214D01*
X1506786Y-10917500D01*
X1521071Y-10946072D01*
X1521071Y-11103214D01*
X1663928Y-11103214D02*
X1663928Y-10903214D01*
X1663928Y-10931786D02*
X1678214Y-10917500D01*
X1706786Y-10903214D01*
X1749643Y-10903214D01*
X1778214Y-10917500D01*
X1792500Y-10946072D01*
X1792500Y-11103214D01*
X1792500Y-10946072D02*
X1806786Y-10917500D01*
X1835357Y-10903214D01*
X1878214Y-10903214D01*
X1906786Y-10917500D01*
X1921071Y-10946072D01*
X1921071Y-11103214D01*
X2506786Y-10788929D02*
X2249643Y-11174643D01*
X2892500Y-10803214D02*
X2921071Y-10803214D01*
X2949643Y-10817500D01*
X2963928Y-10831786D01*
X2978214Y-10860357D01*
X2992500Y-10917500D01*
X2992500Y-10988929D01*
X2978214Y-11046072D01*
X2963928Y-11074643D01*
X2949643Y-11088929D01*
X2921071Y-11103214D01*
X2892500Y-11103214D01*
X2863928Y-11088929D01*
X2849643Y-11074643D01*
X2835357Y-11046072D01*
X2821071Y-10988929D01*
X2821071Y-10917500D01*
X2835357Y-10860357D01*
X2849643Y-10831786D01*
X2863928Y-10817500D01*
X2892500Y-10803214D01*
X3121071Y-11074643D02*
X3135357Y-11088929D01*
X3121071Y-11103214D01*
X3106786Y-11088929D01*
X3121071Y-11074643D01*
X3121071Y-11103214D01*
X3321071Y-10803214D02*
X3349643Y-10803214D01*
X3378214Y-10817500D01*
X3392500Y-10831786D01*
X3406785Y-10860357D01*
X3421071Y-10917500D01*
X3421071Y-10988929D01*
X3406785Y-11046072D01*
X3392500Y-11074643D01*
X3378214Y-11088929D01*
X3349643Y-11103214D01*
X3321071Y-11103214D01*
X3292500Y-11088929D01*
X3278214Y-11074643D01*
X3263928Y-11046072D01*
X3249643Y-10988929D01*
X3249643Y-10917500D01*
X3263928Y-10860357D01*
X3278214Y-10831786D01*
X3292500Y-10817500D01*
X3321071Y-10803214D01*
X3706785Y-11103214D02*
X3535357Y-11103214D01*
X3621071Y-11103214D02*
X3621071Y-10803214D01*
X3592500Y-10846072D01*
X3563928Y-10874643D01*
X3535357Y-10888929D01*
X3821071Y-10831786D02*
X3835357Y-10817500D01*
X3863928Y-10803214D01*
X3935357Y-10803214D01*
X3963928Y-10817500D01*
X3978214Y-10831786D01*
X3992500Y-10860357D01*
X3992500Y-10888929D01*
X3978214Y-10931786D01*
X3806785Y-11103214D01*
X3992500Y-11103214D01*
X4106786Y-10803214D02*
X4106786Y-10860357D01*
X4221071Y-10803214D02*
X4221071Y-10860357D01*
X4663928Y-11217500D02*
X4649643Y-11203214D01*
X4621071Y-11160357D01*
X4606786Y-11131786D01*
X4592500Y-11088929D01*
X4578214Y-11017500D01*
X4578214Y-10960357D01*
X4592500Y-10888929D01*
X4606786Y-10846072D01*
X4621071Y-10817500D01*
X4649643Y-10774643D01*
X4663928Y-10760357D01*
X4906786Y-10903214D02*
X4906786Y-11103214D01*
X4835357Y-10788929D02*
X4763928Y-11003214D01*
X4949643Y-11003214D01*
X5078214Y-11103214D02*
X5135357Y-11103214D01*
X5163928Y-11088929D01*
X5178214Y-11074643D01*
X5206786Y-11031786D01*
X5221071Y-10974643D01*
X5221071Y-10860357D01*
X5206786Y-10831786D01*
X5192500Y-10817500D01*
X5163928Y-10803214D01*
X5106786Y-10803214D01*
X5078214Y-10817500D01*
X5063928Y-10831786D01*
X5049643Y-10860357D01*
X5049643Y-10931786D01*
X5063928Y-10960357D01*
X5078214Y-10974643D01*
X5106786Y-10988929D01*
X5163928Y-10988929D01*
X5192500Y-10974643D01*
X5206786Y-10960357D01*
X5221071Y-10931786D01*
X5506786Y-11103214D02*
X5335357Y-11103214D01*
X5421071Y-11103214D02*
X5421071Y-10803214D01*
X5392500Y-10846072D01*
X5363928Y-10874643D01*
X5335357Y-10888929D01*
X5863928Y-11103214D02*
X5863928Y-10803214D01*
X5992500Y-11103214D02*
X5992500Y-10946072D01*
X5978214Y-10917500D01*
X5949643Y-10903214D01*
X5906785Y-10903214D01*
X5878214Y-10917500D01*
X5863928Y-10931786D01*
X6178214Y-11103214D02*
X6149643Y-11088929D01*
X6135357Y-11074643D01*
X6121071Y-11046072D01*
X6121071Y-10960357D01*
X6135357Y-10931786D01*
X6149643Y-10917500D01*
X6178214Y-10903214D01*
X6221071Y-10903214D01*
X6249643Y-10917500D01*
X6263928Y-10931786D01*
X6278214Y-10960357D01*
X6278214Y-11046072D01*
X6263928Y-11074643D01*
X6249643Y-11088929D01*
X6221071Y-11103214D01*
X6178214Y-11103214D01*
X6449643Y-11103214D02*
X6421071Y-11088929D01*
X6406786Y-11060357D01*
X6406786Y-10803214D01*
X6678214Y-11088929D02*
X6649643Y-11103214D01*
X6592500Y-11103214D01*
X6563928Y-11088929D01*
X6549643Y-11060357D01*
X6549643Y-10946072D01*
X6563928Y-10917500D01*
X6592500Y-10903214D01*
X6649643Y-10903214D01*
X6678214Y-10917500D01*
X6692500Y-10946072D01*
X6692500Y-10974643D01*
X6549643Y-11003214D01*
X6806786Y-11088929D02*
X6835357Y-11103214D01*
X6892500Y-11103214D01*
X6921071Y-11088929D01*
X6935357Y-11060357D01*
X6935357Y-11046072D01*
X6921071Y-11017500D01*
X6892500Y-11003214D01*
X6849643Y-11003214D01*
X6821071Y-10988929D01*
X6806786Y-10960357D01*
X6806786Y-10946072D01*
X6821071Y-10917500D01*
X6849643Y-10903214D01*
X6892500Y-10903214D01*
X6921071Y-10917500D01*
X7035357Y-11217500D02*
X7049643Y-11203214D01*
X7078214Y-11160357D01*
X7092500Y-11131786D01*
X7106786Y-11088929D01*
X7121071Y-11017500D01*
X7121071Y-10960357D01*
X7106786Y-10888929D01*
X7092500Y-10846072D01*
X7078214Y-10817500D01*
X7049643Y-10774643D01*
X7035357Y-10760357D01*
X-7500Y-11363500D02*
G75*
G03X-7500Y-11363500I-40640J0D01*
G01*
X321071Y-11199214D02*
X349643Y-11199214D01*
X378214Y-11213500D01*
X392500Y-11227786D01*
X406786Y-11256357D01*
X421071Y-11313500D01*
X421071Y-11384929D01*
X406786Y-11442071D01*
X392500Y-11470643D01*
X378214Y-11484929D01*
X349643Y-11499214D01*
X321071Y-11499214D01*
X292500Y-11484929D01*
X278214Y-11470643D01*
X263929Y-11442071D01*
X249643Y-11384929D01*
X249643Y-11313500D01*
X263929Y-11256357D01*
X278214Y-11227786D01*
X292500Y-11213500D01*
X321071Y-11199214D01*
X549643Y-11470643D02*
X563929Y-11484929D01*
X549643Y-11499214D01*
X535357Y-11484929D01*
X549643Y-11470643D01*
X549643Y-11499214D01*
X735357Y-11327786D02*
X706786Y-11313500D01*
X692500Y-11299214D01*
X678214Y-11270643D01*
X678214Y-11256357D01*
X692500Y-11227786D01*
X706786Y-11213500D01*
X735357Y-11199214D01*
X792500Y-11199214D01*
X821071Y-11213500D01*
X835357Y-11227786D01*
X849643Y-11256357D01*
X849643Y-11270643D01*
X835357Y-11299214D01*
X821071Y-11313500D01*
X792500Y-11327786D01*
X735357Y-11327786D01*
X706786Y-11342071D01*
X692500Y-11356357D01*
X678214Y-11384929D01*
X678214Y-11442071D01*
X692500Y-11470643D01*
X706786Y-11484929D01*
X735357Y-11499214D01*
X792500Y-11499214D01*
X821071Y-11484929D01*
X835357Y-11470643D01*
X849643Y-11442071D01*
X849643Y-11384929D01*
X835357Y-11356357D01*
X821071Y-11342071D01*
X792500Y-11327786D01*
X1135357Y-11499214D02*
X963928Y-11499214D01*
X1049643Y-11499214D02*
X1049643Y-11199214D01*
X1021071Y-11242071D01*
X992500Y-11270643D01*
X963928Y-11284929D01*
X1263929Y-11499214D02*
X1263929Y-11299214D01*
X1263929Y-11327786D02*
X1278214Y-11313500D01*
X1306786Y-11299214D01*
X1349643Y-11299214D01*
X1378214Y-11313500D01*
X1392500Y-11342071D01*
X1392500Y-11499214D01*
X1392500Y-11342071D02*
X1406786Y-11313500D01*
X1435357Y-11299214D01*
X1478214Y-11299214D01*
X1506786Y-11313500D01*
X1521071Y-11342071D01*
X1521071Y-11499214D01*
X1663928Y-11499214D02*
X1663928Y-11299214D01*
X1663928Y-11327786D02*
X1678214Y-11313500D01*
X1706786Y-11299214D01*
X1749643Y-11299214D01*
X1778214Y-11313500D01*
X1792500Y-11342071D01*
X1792500Y-11499214D01*
X1792500Y-11342071D02*
X1806786Y-11313500D01*
X1835357Y-11299214D01*
X1878214Y-11299214D01*
X1906786Y-11313500D01*
X1921071Y-11342071D01*
X1921071Y-11499214D01*
X2506786Y-11184929D02*
X2249643Y-11570643D01*
X2892500Y-11199214D02*
X2921071Y-11199214D01*
X2949643Y-11213500D01*
X2963928Y-11227786D01*
X2978214Y-11256357D01*
X2992500Y-11313500D01*
X2992500Y-11384929D01*
X2978214Y-11442071D01*
X2963928Y-11470643D01*
X2949643Y-11484929D01*
X2921071Y-11499214D01*
X2892500Y-11499214D01*
X2863928Y-11484929D01*
X2849643Y-11470643D01*
X2835357Y-11442071D01*
X2821071Y-11384929D01*
X2821071Y-11313500D01*
X2835357Y-11256357D01*
X2849643Y-11227786D01*
X2863928Y-11213500D01*
X2892500Y-11199214D01*
X3121071Y-11470643D02*
X3135357Y-11484929D01*
X3121071Y-11499214D01*
X3106786Y-11484929D01*
X3121071Y-11470643D01*
X3121071Y-11499214D01*
X3321071Y-11199214D02*
X3349643Y-11199214D01*
X3378214Y-11213500D01*
X3392500Y-11227786D01*
X3406785Y-11256357D01*
X3421071Y-11313500D01*
X3421071Y-11384929D01*
X3406785Y-11442071D01*
X3392500Y-11470643D01*
X3378214Y-11484929D01*
X3349643Y-11499214D01*
X3321071Y-11499214D01*
X3292500Y-11484929D01*
X3278214Y-11470643D01*
X3263928Y-11442071D01*
X3249643Y-11384929D01*
X3249643Y-11313500D01*
X3263928Y-11256357D01*
X3278214Y-11227786D01*
X3292500Y-11213500D01*
X3321071Y-11199214D01*
X3521071Y-11199214D02*
X3706785Y-11199214D01*
X3606785Y-11313500D01*
X3649643Y-11313500D01*
X3678214Y-11327786D01*
X3692500Y-11342071D01*
X3706785Y-11370643D01*
X3706785Y-11442071D01*
X3692500Y-11470643D01*
X3678214Y-11484929D01*
X3649643Y-11499214D01*
X3563928Y-11499214D01*
X3535357Y-11484929D01*
X3521071Y-11470643D01*
X3821071Y-11227786D02*
X3835357Y-11213500D01*
X3863928Y-11199214D01*
X3935357Y-11199214D01*
X3963928Y-11213500D01*
X3978214Y-11227786D01*
X3992500Y-11256357D01*
X3992500Y-11284929D01*
X3978214Y-11327786D01*
X3806785Y-11499214D01*
X3992500Y-11499214D01*
X4106786Y-11199214D02*
X4106786Y-11256357D01*
X4221071Y-11199214D02*
X4221071Y-11256357D01*
X4663928Y-11613500D02*
X4649643Y-11599214D01*
X4621071Y-11556357D01*
X4606786Y-11527786D01*
X4592500Y-11484929D01*
X4578214Y-11413500D01*
X4578214Y-11356357D01*
X4592500Y-11284929D01*
X4606786Y-11242071D01*
X4621071Y-11213500D01*
X4649643Y-11170643D01*
X4663928Y-11156357D01*
X4749643Y-11199214D02*
X4949643Y-11199214D01*
X4821071Y-11499214D01*
X5121071Y-11199214D02*
X5149643Y-11199214D01*
X5178214Y-11213500D01*
X5192500Y-11227786D01*
X5206786Y-11256357D01*
X5221071Y-11313500D01*
X5221071Y-11384929D01*
X5206786Y-11442071D01*
X5192500Y-11470643D01*
X5178214Y-11484929D01*
X5149643Y-11499214D01*
X5121071Y-11499214D01*
X5092500Y-11484929D01*
X5078214Y-11470643D01*
X5063928Y-11442071D01*
X5049643Y-11384929D01*
X5049643Y-11313500D01*
X5063928Y-11256357D01*
X5078214Y-11227786D01*
X5092500Y-11213500D01*
X5121071Y-11199214D01*
X5578214Y-11499214D02*
X5578214Y-11199214D01*
X5706785Y-11499214D02*
X5706785Y-11342071D01*
X5692500Y-11313500D01*
X5663928Y-11299214D01*
X5621071Y-11299214D01*
X5592500Y-11313500D01*
X5578214Y-11327786D01*
X5892500Y-11499214D02*
X5863928Y-11484929D01*
X5849643Y-11470643D01*
X5835357Y-11442071D01*
X5835357Y-11356357D01*
X5849643Y-11327786D01*
X5863928Y-11313500D01*
X5892500Y-11299214D01*
X5935357Y-11299214D01*
X5963928Y-11313500D01*
X5978214Y-11327786D01*
X5992500Y-11356357D01*
X5992500Y-11442071D01*
X5978214Y-11470643D01*
X5963928Y-11484929D01*
X5935357Y-11499214D01*
X5892500Y-11499214D01*
X6163928Y-11499214D02*
X6135357Y-11484929D01*
X6121071Y-11456357D01*
X6121071Y-11199214D01*
X6392500Y-11484929D02*
X6363928Y-11499214D01*
X6306786Y-11499214D01*
X6278214Y-11484929D01*
X6263928Y-11456357D01*
X6263928Y-11342071D01*
X6278214Y-11313500D01*
X6306786Y-11299214D01*
X6363928Y-11299214D01*
X6392500Y-11313500D01*
X6406786Y-11342071D01*
X6406786Y-11370643D01*
X6263928Y-11399214D01*
X6521071Y-11484929D02*
X6549643Y-11499214D01*
X6606786Y-11499214D01*
X6635357Y-11484929D01*
X6649643Y-11456357D01*
X6649643Y-11442071D01*
X6635357Y-11413500D01*
X6606786Y-11399214D01*
X6563928Y-11399214D01*
X6535357Y-11384929D01*
X6521071Y-11356357D01*
X6521071Y-11342071D01*
X6535357Y-11313500D01*
X6563928Y-11299214D01*
X6606786Y-11299214D01*
X6635357Y-11313500D01*
X6749643Y-11613500D02*
X6763928Y-11599214D01*
X6792500Y-11556357D01*
X6806786Y-11527786D01*
X6821071Y-11484929D01*
X6835357Y-11413500D01*
X6835357Y-11356357D01*
X6821071Y-11284929D01*
X6806786Y-11242071D01*
X6792500Y-11213500D01*
X6763928Y-11170643D01*
X6749643Y-11156357D01*
X-57411Y-11709589D02*
X-57411Y-11809411D01*
X-107322Y-11759500D02*
X-7500Y-11759500D01*
X421071Y-11895214D02*
X249643Y-11895214D01*
X335357Y-11895214D02*
X335357Y-11595214D01*
X306786Y-11638071D01*
X278214Y-11666643D01*
X249643Y-11680929D01*
X549643Y-11866643D02*
X563929Y-11880929D01*
X549643Y-11895214D01*
X535357Y-11880929D01*
X549643Y-11866643D01*
X549643Y-11895214D01*
X749643Y-11595214D02*
X778214Y-11595214D01*
X806786Y-11609500D01*
X821071Y-11623786D01*
X835357Y-11652357D01*
X849643Y-11709500D01*
X849643Y-11780929D01*
X835357Y-11838071D01*
X821071Y-11866643D01*
X806786Y-11880929D01*
X778214Y-11895214D01*
X749643Y-11895214D01*
X721071Y-11880929D01*
X706786Y-11866643D01*
X692500Y-11838071D01*
X678214Y-11780929D01*
X678214Y-11709500D01*
X692500Y-11652357D01*
X706786Y-11623786D01*
X721071Y-11609500D01*
X749643Y-11595214D01*
X1035357Y-11595214D02*
X1063929Y-11595214D01*
X1092500Y-11609500D01*
X1106786Y-11623786D01*
X1121071Y-11652357D01*
X1135357Y-11709500D01*
X1135357Y-11780929D01*
X1121071Y-11838071D01*
X1106786Y-11866643D01*
X1092500Y-11880929D01*
X1063929Y-11895214D01*
X1035357Y-11895214D01*
X1006786Y-11880929D01*
X992500Y-11866643D01*
X978214Y-11838071D01*
X963928Y-11780929D01*
X963928Y-11709500D01*
X978214Y-11652357D01*
X992500Y-11623786D01*
X1006786Y-11609500D01*
X1035357Y-11595214D01*
X1263929Y-11895214D02*
X1263929Y-11695214D01*
X1263929Y-11723786D02*
X1278214Y-11709500D01*
X1306786Y-11695214D01*
X1349643Y-11695214D01*
X1378214Y-11709500D01*
X1392500Y-11738071D01*
X1392500Y-11895214D01*
X1392500Y-11738071D02*
X1406786Y-11709500D01*
X1435357Y-11695214D01*
X1478214Y-11695214D01*
X1506786Y-11709500D01*
X1521071Y-11738071D01*
X1521071Y-11895214D01*
X1663928Y-11895214D02*
X1663928Y-11695214D01*
X1663928Y-11723786D02*
X1678214Y-11709500D01*
X1706786Y-11695214D01*
X1749643Y-11695214D01*
X1778214Y-11709500D01*
X1792500Y-11738071D01*
X1792500Y-11895214D01*
X1792500Y-11738071D02*
X1806786Y-11709500D01*
X1835357Y-11695214D01*
X1878214Y-11695214D01*
X1906786Y-11709500D01*
X1921071Y-11738071D01*
X1921071Y-11895214D01*
X2506786Y-11580929D02*
X2249643Y-11966643D01*
X2892500Y-11595214D02*
X2921071Y-11595214D01*
X2949643Y-11609500D01*
X2963928Y-11623786D01*
X2978214Y-11652357D01*
X2992500Y-11709500D01*
X2992500Y-11780929D01*
X2978214Y-11838071D01*
X2963928Y-11866643D01*
X2949643Y-11880929D01*
X2921071Y-11895214D01*
X2892500Y-11895214D01*
X2863928Y-11880929D01*
X2849643Y-11866643D01*
X2835357Y-11838071D01*
X2821071Y-11780929D01*
X2821071Y-11709500D01*
X2835357Y-11652357D01*
X2849643Y-11623786D01*
X2863928Y-11609500D01*
X2892500Y-11595214D01*
X3121071Y-11866643D02*
X3135357Y-11880929D01*
X3121071Y-11895214D01*
X3106786Y-11880929D01*
X3121071Y-11866643D01*
X3121071Y-11895214D01*
X3321071Y-11595214D02*
X3349643Y-11595214D01*
X3378214Y-11609500D01*
X3392500Y-11623786D01*
X3406785Y-11652357D01*
X3421071Y-11709500D01*
X3421071Y-11780929D01*
X3406785Y-11838071D01*
X3392500Y-11866643D01*
X3378214Y-11880929D01*
X3349643Y-11895214D01*
X3321071Y-11895214D01*
X3292500Y-11880929D01*
X3278214Y-11866643D01*
X3263928Y-11838071D01*
X3249643Y-11780929D01*
X3249643Y-11709500D01*
X3263928Y-11652357D01*
X3278214Y-11623786D01*
X3292500Y-11609500D01*
X3321071Y-11595214D01*
X3521071Y-11595214D02*
X3706785Y-11595214D01*
X3606785Y-11709500D01*
X3649643Y-11709500D01*
X3678214Y-11723786D01*
X3692500Y-11738071D01*
X3706785Y-11766643D01*
X3706785Y-11838071D01*
X3692500Y-11866643D01*
X3678214Y-11880929D01*
X3649643Y-11895214D01*
X3563928Y-11895214D01*
X3535357Y-11880929D01*
X3521071Y-11866643D01*
X3849643Y-11895214D02*
X3906785Y-11895214D01*
X3935357Y-11880929D01*
X3949643Y-11866643D01*
X3978214Y-11823786D01*
X3992500Y-11766643D01*
X3992500Y-11652357D01*
X3978214Y-11623786D01*
X3963928Y-11609500D01*
X3935357Y-11595214D01*
X3878214Y-11595214D01*
X3849643Y-11609500D01*
X3835357Y-11623786D01*
X3821071Y-11652357D01*
X3821071Y-11723786D01*
X3835357Y-11752357D01*
X3849643Y-11766643D01*
X3878214Y-11780929D01*
X3935357Y-11780929D01*
X3963928Y-11766643D01*
X3978214Y-11752357D01*
X3992500Y-11723786D01*
X4106786Y-11595214D02*
X4106786Y-11652357D01*
X4221071Y-11595214D02*
X4221071Y-11652357D01*
X4663928Y-12009500D02*
X4649643Y-11995214D01*
X4621071Y-11952357D01*
X4606786Y-11923786D01*
X4592500Y-11880929D01*
X4578214Y-11809500D01*
X4578214Y-11752357D01*
X4592500Y-11680929D01*
X4606786Y-11638071D01*
X4621071Y-11609500D01*
X4649643Y-11566643D01*
X4663928Y-11552357D01*
X4906786Y-11695214D02*
X4906786Y-11895214D01*
X4835357Y-11580929D02*
X4763928Y-11795214D01*
X4949643Y-11795214D01*
X5292500Y-11895214D02*
X5292500Y-11595214D01*
X5421071Y-11895214D02*
X5421071Y-11738071D01*
X5406786Y-11709500D01*
X5378214Y-11695214D01*
X5335357Y-11695214D01*
X5306786Y-11709500D01*
X5292500Y-11723786D01*
X5606785Y-11895214D02*
X5578214Y-11880929D01*
X5563928Y-11866643D01*
X5549643Y-11838071D01*
X5549643Y-11752357D01*
X5563928Y-11723786D01*
X5578214Y-11709500D01*
X5606785Y-11695214D01*
X5649643Y-11695214D01*
X5678214Y-11709500D01*
X5692500Y-11723786D01*
X5706785Y-11752357D01*
X5706785Y-11838071D01*
X5692500Y-11866643D01*
X5678214Y-11880929D01*
X5649643Y-11895214D01*
X5606785Y-11895214D01*
X5878214Y-11895214D02*
X5849643Y-11880929D01*
X5835357Y-11852357D01*
X5835357Y-11595214D01*
X6106786Y-11880929D02*
X6078214Y-11895214D01*
X6021071Y-11895214D01*
X5992500Y-11880929D01*
X5978214Y-11852357D01*
X5978214Y-11738071D01*
X5992500Y-11709500D01*
X6021071Y-11695214D01*
X6078214Y-11695214D01*
X6106786Y-11709500D01*
X6121071Y-11738071D01*
X6121071Y-11766643D01*
X5978214Y-11795214D01*
X6235357Y-11880929D02*
X6263928Y-11895214D01*
X6321071Y-11895214D01*
X6349643Y-11880929D01*
X6363928Y-11852357D01*
X6363928Y-11838071D01*
X6349643Y-11809500D01*
X6321071Y-11795214D01*
X6278214Y-11795214D01*
X6249643Y-11780929D01*
X6235357Y-11752357D01*
X6235357Y-11738071D01*
X6249643Y-11709500D01*
X6278214Y-11695214D01*
X6321071Y-11695214D01*
X6349643Y-11709500D01*
X6463928Y-12009500D02*
X6478214Y-11995214D01*
X6506786Y-11952357D01*
X6521071Y-11923786D01*
X6535357Y-11880929D01*
X6549643Y-11809500D01*
X6549643Y-11752357D01*
X6535357Y-11680929D01*
X6521071Y-11638071D01*
X6506786Y-11609500D01*
X6478214Y-11566643D01*
X6463928Y-11552357D01*
X-22144Y-12190856D02*
X-22144Y-12120144D01*
X-92856Y-12120144D01*
X-92856Y-12190856D01*
X-22144Y-12190856D01*
X421071Y-12291214D02*
X249643Y-12291214D01*
X335357Y-12291214D02*
X335357Y-11991214D01*
X306786Y-12034071D01*
X278214Y-12062643D01*
X249643Y-12076929D01*
X549643Y-12262643D02*
X563929Y-12276929D01*
X549643Y-12291214D01*
X535357Y-12276929D01*
X549643Y-12262643D01*
X549643Y-12291214D01*
X749643Y-11991214D02*
X778214Y-11991214D01*
X806786Y-12005500D01*
X821071Y-12019786D01*
X835357Y-12048357D01*
X849643Y-12105500D01*
X849643Y-12176929D01*
X835357Y-12234071D01*
X821071Y-12262643D01*
X806786Y-12276929D01*
X778214Y-12291214D01*
X749643Y-12291214D01*
X721071Y-12276929D01*
X706786Y-12262643D01*
X692500Y-12234071D01*
X678214Y-12176929D01*
X678214Y-12105500D01*
X692500Y-12048357D01*
X706786Y-12019786D01*
X721071Y-12005500D01*
X749643Y-11991214D01*
X1035357Y-11991214D02*
X1063929Y-11991214D01*
X1092500Y-12005500D01*
X1106786Y-12019786D01*
X1121071Y-12048357D01*
X1135357Y-12105500D01*
X1135357Y-12176929D01*
X1121071Y-12234071D01*
X1106786Y-12262643D01*
X1092500Y-12276929D01*
X1063929Y-12291214D01*
X1035357Y-12291214D01*
X1006786Y-12276929D01*
X992500Y-12262643D01*
X978214Y-12234071D01*
X963928Y-12176929D01*
X963928Y-12105500D01*
X978214Y-12048357D01*
X992500Y-12019786D01*
X1006786Y-12005500D01*
X1035357Y-11991214D01*
X1263929Y-12291214D02*
X1263929Y-12091214D01*
X1263929Y-12119786D02*
X1278214Y-12105500D01*
X1306786Y-12091214D01*
X1349643Y-12091214D01*
X1378214Y-12105500D01*
X1392500Y-12134071D01*
X1392500Y-12291214D01*
X1392500Y-12134071D02*
X1406786Y-12105500D01*
X1435357Y-12091214D01*
X1478214Y-12091214D01*
X1506786Y-12105500D01*
X1521071Y-12134071D01*
X1521071Y-12291214D01*
X1663928Y-12291214D02*
X1663928Y-12091214D01*
X1663928Y-12119786D02*
X1678214Y-12105500D01*
X1706786Y-12091214D01*
X1749643Y-12091214D01*
X1778214Y-12105500D01*
X1792500Y-12134071D01*
X1792500Y-12291214D01*
X1792500Y-12134071D02*
X1806786Y-12105500D01*
X1835357Y-12091214D01*
X1878214Y-12091214D01*
X1906786Y-12105500D01*
X1921071Y-12134071D01*
X1921071Y-12291214D01*
X2506786Y-11976929D02*
X2249643Y-12362643D01*
X2892500Y-11991214D02*
X2921071Y-11991214D01*
X2949643Y-12005500D01*
X2963928Y-12019786D01*
X2978214Y-12048357D01*
X2992500Y-12105500D01*
X2992500Y-12176929D01*
X2978214Y-12234071D01*
X2963928Y-12262643D01*
X2949643Y-12276929D01*
X2921071Y-12291214D01*
X2892500Y-12291214D01*
X2863928Y-12276929D01*
X2849643Y-12262643D01*
X2835357Y-12234071D01*
X2821071Y-12176929D01*
X2821071Y-12105500D01*
X2835357Y-12048357D01*
X2849643Y-12019786D01*
X2863928Y-12005500D01*
X2892500Y-11991214D01*
X3121071Y-12262643D02*
X3135357Y-12276929D01*
X3121071Y-12291214D01*
X3106786Y-12276929D01*
X3121071Y-12262643D01*
X3121071Y-12291214D01*
X3321071Y-11991214D02*
X3349643Y-11991214D01*
X3378214Y-12005500D01*
X3392500Y-12019786D01*
X3406785Y-12048357D01*
X3421071Y-12105500D01*
X3421071Y-12176929D01*
X3406785Y-12234071D01*
X3392500Y-12262643D01*
X3378214Y-12276929D01*
X3349643Y-12291214D01*
X3321071Y-12291214D01*
X3292500Y-12276929D01*
X3278214Y-12262643D01*
X3263928Y-12234071D01*
X3249643Y-12176929D01*
X3249643Y-12105500D01*
X3263928Y-12048357D01*
X3278214Y-12019786D01*
X3292500Y-12005500D01*
X3321071Y-11991214D01*
X3521071Y-11991214D02*
X3706785Y-11991214D01*
X3606785Y-12105500D01*
X3649643Y-12105500D01*
X3678214Y-12119786D01*
X3692500Y-12134071D01*
X3706785Y-12162643D01*
X3706785Y-12234071D01*
X3692500Y-12262643D01*
X3678214Y-12276929D01*
X3649643Y-12291214D01*
X3563928Y-12291214D01*
X3535357Y-12276929D01*
X3521071Y-12262643D01*
X3849643Y-12291214D02*
X3906785Y-12291214D01*
X3935357Y-12276929D01*
X3949643Y-12262643D01*
X3978214Y-12219786D01*
X3992500Y-12162643D01*
X3992500Y-12048357D01*
X3978214Y-12019786D01*
X3963928Y-12005500D01*
X3935357Y-11991214D01*
X3878214Y-11991214D01*
X3849643Y-12005500D01*
X3835357Y-12019786D01*
X3821071Y-12048357D01*
X3821071Y-12119786D01*
X3835357Y-12148357D01*
X3849643Y-12162643D01*
X3878214Y-12176929D01*
X3935357Y-12176929D01*
X3963928Y-12162643D01*
X3978214Y-12148357D01*
X3992500Y-12119786D01*
X4106786Y-11991214D02*
X4106786Y-12048357D01*
X4221071Y-11991214D02*
X4221071Y-12048357D01*
X4663928Y-12405500D02*
X4649643Y-12391214D01*
X4621071Y-12348357D01*
X4606786Y-12319786D01*
X4592500Y-12276929D01*
X4578214Y-12205500D01*
X4578214Y-12148357D01*
X4592500Y-12076929D01*
X4606786Y-12034071D01*
X4621071Y-12005500D01*
X4649643Y-11962643D01*
X4663928Y-11948357D01*
X4821071Y-12119786D02*
X4792500Y-12105500D01*
X4778214Y-12091214D01*
X4763928Y-12062643D01*
X4763928Y-12048357D01*
X4778214Y-12019786D01*
X4792500Y-12005500D01*
X4821071Y-11991214D01*
X4878214Y-11991214D01*
X4906786Y-12005500D01*
X4921071Y-12019786D01*
X4935357Y-12048357D01*
X4935357Y-12062643D01*
X4921071Y-12091214D01*
X4906786Y-12105500D01*
X4878214Y-12119786D01*
X4821071Y-12119786D01*
X4792500Y-12134071D01*
X4778214Y-12148357D01*
X4763928Y-12176929D01*
X4763928Y-12234071D01*
X4778214Y-12262643D01*
X4792500Y-12276929D01*
X4821071Y-12291214D01*
X4878214Y-12291214D01*
X4906786Y-12276929D01*
X4921071Y-12262643D01*
X4935357Y-12234071D01*
X4935357Y-12176929D01*
X4921071Y-12148357D01*
X4906786Y-12134071D01*
X4878214Y-12119786D01*
X5035357Y-11991214D02*
X5221071Y-11991214D01*
X5121071Y-12105500D01*
X5163928Y-12105500D01*
X5192500Y-12119786D01*
X5206786Y-12134071D01*
X5221071Y-12162643D01*
X5221071Y-12234071D01*
X5206786Y-12262643D01*
X5192500Y-12276929D01*
X5163928Y-12291214D01*
X5078214Y-12291214D01*
X5049643Y-12276929D01*
X5035357Y-12262643D01*
X5578214Y-12291214D02*
X5578214Y-11991214D01*
X5706785Y-12291214D02*
X5706785Y-12134071D01*
X5692500Y-12105500D01*
X5663928Y-12091214D01*
X5621071Y-12091214D01*
X5592500Y-12105500D01*
X5578214Y-12119786D01*
X5892500Y-12291214D02*
X5863928Y-12276929D01*
X5849643Y-12262643D01*
X5835357Y-12234071D01*
X5835357Y-12148357D01*
X5849643Y-12119786D01*
X5863928Y-12105500D01*
X5892500Y-12091214D01*
X5935357Y-12091214D01*
X5963928Y-12105500D01*
X5978214Y-12119786D01*
X5992500Y-12148357D01*
X5992500Y-12234071D01*
X5978214Y-12262643D01*
X5963928Y-12276929D01*
X5935357Y-12291214D01*
X5892500Y-12291214D01*
X6163928Y-12291214D02*
X6135357Y-12276929D01*
X6121071Y-12248357D01*
X6121071Y-11991214D01*
X6392500Y-12276929D02*
X6363928Y-12291214D01*
X6306786Y-12291214D01*
X6278214Y-12276929D01*
X6263928Y-12248357D01*
X6263928Y-12134071D01*
X6278214Y-12105500D01*
X6306786Y-12091214D01*
X6363928Y-12091214D01*
X6392500Y-12105500D01*
X6406786Y-12134071D01*
X6406786Y-12162643D01*
X6263928Y-12191214D01*
X6521071Y-12276929D02*
X6549643Y-12291214D01*
X6606786Y-12291214D01*
X6635357Y-12276929D01*
X6649643Y-12248357D01*
X6649643Y-12234071D01*
X6635357Y-12205500D01*
X6606786Y-12191214D01*
X6563928Y-12191214D01*
X6535357Y-12176929D01*
X6521071Y-12148357D01*
X6521071Y-12134071D01*
X6535357Y-12105500D01*
X6563928Y-12091214D01*
X6606786Y-12091214D01*
X6635357Y-12105500D01*
X6749643Y-12405500D02*
X6763928Y-12391214D01*
X6792500Y-12348357D01*
X6806786Y-12319786D01*
X6821071Y-12276929D01*
X6835357Y-12205500D01*
X6835357Y-12148357D01*
X6821071Y-12076929D01*
X6806786Y-12034071D01*
X6792500Y-12005500D01*
X6763928Y-11962643D01*
X6749643Y-11948357D01*
X-67500Y-12611500D02*
X-7500Y-12551500D01*
X-67500Y-12491500D01*
X-127500Y-12551500D01*
X-67500Y-12611500D01*
X421071Y-12687214D02*
X249643Y-12687214D01*
X335357Y-12687214D02*
X335357Y-12387214D01*
X306786Y-12430071D01*
X278214Y-12458643D01*
X249643Y-12472929D01*
X549643Y-12658643D02*
X563929Y-12672929D01*
X549643Y-12687214D01*
X535357Y-12672929D01*
X549643Y-12658643D01*
X549643Y-12687214D01*
X678214Y-12415786D02*
X692500Y-12401500D01*
X721071Y-12387214D01*
X792500Y-12387214D01*
X821071Y-12401500D01*
X835357Y-12415786D01*
X849643Y-12444357D01*
X849643Y-12472929D01*
X835357Y-12515786D01*
X663928Y-12687214D01*
X849643Y-12687214D01*
X1035357Y-12387214D02*
X1063929Y-12387214D01*
X1092500Y-12401500D01*
X1106786Y-12415786D01*
X1121071Y-12444357D01*
X1135357Y-12501500D01*
X1135357Y-12572929D01*
X1121071Y-12630071D01*
X1106786Y-12658643D01*
X1092500Y-12672929D01*
X1063929Y-12687214D01*
X1035357Y-12687214D01*
X1006786Y-12672929D01*
X992500Y-12658643D01*
X978214Y-12630071D01*
X963928Y-12572929D01*
X963928Y-12501500D01*
X978214Y-12444357D01*
X992500Y-12415786D01*
X1006786Y-12401500D01*
X1035357Y-12387214D01*
X1263929Y-12687214D02*
X1263929Y-12487214D01*
X1263929Y-12515786D02*
X1278214Y-12501500D01*
X1306786Y-12487214D01*
X1349643Y-12487214D01*
X1378214Y-12501500D01*
X1392500Y-12530071D01*
X1392500Y-12687214D01*
X1392500Y-12530071D02*
X1406786Y-12501500D01*
X1435357Y-12487214D01*
X1478214Y-12487214D01*
X1506786Y-12501500D01*
X1521071Y-12530071D01*
X1521071Y-12687214D01*
X1663928Y-12687214D02*
X1663928Y-12487214D01*
X1663928Y-12515786D02*
X1678214Y-12501500D01*
X1706786Y-12487214D01*
X1749643Y-12487214D01*
X1778214Y-12501500D01*
X1792500Y-12530071D01*
X1792500Y-12687214D01*
X1792500Y-12530071D02*
X1806786Y-12501500D01*
X1835357Y-12487214D01*
X1878214Y-12487214D01*
X1906786Y-12501500D01*
X1921071Y-12530071D01*
X1921071Y-12687214D01*
X2506786Y-12372929D02*
X2249643Y-12758643D01*
X2892500Y-12387214D02*
X2921071Y-12387214D01*
X2949643Y-12401500D01*
X2963928Y-12415786D01*
X2978214Y-12444357D01*
X2992500Y-12501500D01*
X2992500Y-12572929D01*
X2978214Y-12630071D01*
X2963928Y-12658643D01*
X2949643Y-12672929D01*
X2921071Y-12687214D01*
X2892500Y-12687214D01*
X2863928Y-12672929D01*
X2849643Y-12658643D01*
X2835357Y-12630071D01*
X2821071Y-12572929D01*
X2821071Y-12501500D01*
X2835357Y-12444357D01*
X2849643Y-12415786D01*
X2863928Y-12401500D01*
X2892500Y-12387214D01*
X3121071Y-12658643D02*
X3135357Y-12672929D01*
X3121071Y-12687214D01*
X3106786Y-12672929D01*
X3121071Y-12658643D01*
X3121071Y-12687214D01*
X3321071Y-12387214D02*
X3349643Y-12387214D01*
X3378214Y-12401500D01*
X3392500Y-12415786D01*
X3406785Y-12444357D01*
X3421071Y-12501500D01*
X3421071Y-12572929D01*
X3406785Y-12630071D01*
X3392500Y-12658643D01*
X3378214Y-12672929D01*
X3349643Y-12687214D01*
X3321071Y-12687214D01*
X3292500Y-12672929D01*
X3278214Y-12658643D01*
X3263928Y-12630071D01*
X3249643Y-12572929D01*
X3249643Y-12501500D01*
X3263928Y-12444357D01*
X3278214Y-12415786D01*
X3292500Y-12401500D01*
X3321071Y-12387214D01*
X3678214Y-12487214D02*
X3678214Y-12687214D01*
X3606785Y-12372929D02*
X3535357Y-12587214D01*
X3721071Y-12587214D01*
X3806785Y-12387214D02*
X4006785Y-12387214D01*
X3878214Y-12687214D01*
X4106786Y-12387214D02*
X4106786Y-12444357D01*
X4221071Y-12387214D02*
X4221071Y-12444357D01*
X4663928Y-12801500D02*
X4649643Y-12787214D01*
X4621071Y-12744357D01*
X4606786Y-12715786D01*
X4592500Y-12672929D01*
X4578214Y-12601500D01*
X4578214Y-12544357D01*
X4592500Y-12472929D01*
X4606786Y-12430071D01*
X4621071Y-12401500D01*
X4649643Y-12358643D01*
X4663928Y-12344357D01*
X4749643Y-12387214D02*
X4935357Y-12387214D01*
X4835357Y-12501500D01*
X4878214Y-12501500D01*
X4906786Y-12515786D01*
X4921071Y-12530071D01*
X4935357Y-12558643D01*
X4935357Y-12630071D01*
X4921071Y-12658643D01*
X4906786Y-12672929D01*
X4878214Y-12687214D01*
X4792500Y-12687214D01*
X4763928Y-12672929D01*
X4749643Y-12658643D01*
X5035357Y-12387214D02*
X5221071Y-12387214D01*
X5121071Y-12501500D01*
X5163928Y-12501500D01*
X5192500Y-12515786D01*
X5206786Y-12530071D01*
X5221071Y-12558643D01*
X5221071Y-12630071D01*
X5206786Y-12658643D01*
X5192500Y-12672929D01*
X5163928Y-12687214D01*
X5078214Y-12687214D01*
X5049643Y-12672929D01*
X5035357Y-12658643D01*
X5578214Y-12687214D02*
X5578214Y-12387214D01*
X5706785Y-12687214D02*
X5706785Y-12530071D01*
X5692500Y-12501500D01*
X5663928Y-12487214D01*
X5621071Y-12487214D01*
X5592500Y-12501500D01*
X5578214Y-12515786D01*
X5892500Y-12687214D02*
X5863928Y-12672929D01*
X5849643Y-12658643D01*
X5835357Y-12630071D01*
X5835357Y-12544357D01*
X5849643Y-12515786D01*
X5863928Y-12501500D01*
X5892500Y-12487214D01*
X5935357Y-12487214D01*
X5963928Y-12501500D01*
X5978214Y-12515786D01*
X5992500Y-12544357D01*
X5992500Y-12630071D01*
X5978214Y-12658643D01*
X5963928Y-12672929D01*
X5935357Y-12687214D01*
X5892500Y-12687214D01*
X6163928Y-12687214D02*
X6135357Y-12672929D01*
X6121071Y-12644357D01*
X6121071Y-12387214D01*
X6392500Y-12672929D02*
X6363928Y-12687214D01*
X6306786Y-12687214D01*
X6278214Y-12672929D01*
X6263928Y-12644357D01*
X6263928Y-12530071D01*
X6278214Y-12501500D01*
X6306786Y-12487214D01*
X6363928Y-12487214D01*
X6392500Y-12501500D01*
X6406786Y-12530071D01*
X6406786Y-12558643D01*
X6263928Y-12587214D01*
X6521071Y-12672929D02*
X6549643Y-12687214D01*
X6606786Y-12687214D01*
X6635357Y-12672929D01*
X6649643Y-12644357D01*
X6649643Y-12630071D01*
X6635357Y-12601500D01*
X6606786Y-12587214D01*
X6563928Y-12587214D01*
X6535357Y-12572929D01*
X6521071Y-12544357D01*
X6521071Y-12530071D01*
X6535357Y-12501500D01*
X6563928Y-12487214D01*
X6606786Y-12487214D01*
X6635357Y-12501500D01*
X6749643Y-12801500D02*
X6763928Y-12787214D01*
X6792500Y-12744357D01*
X6806786Y-12715786D01*
X6821071Y-12672929D01*
X6835357Y-12601500D01*
X6835357Y-12544357D01*
X6821071Y-12472929D01*
X6806786Y-12430071D01*
X6792500Y-12401500D01*
X6763928Y-12358643D01*
X6749643Y-12344357D01*
X-134500Y-12884000D02*
X-7500Y-13011000D01*
X-7500Y-12884000D02*
X-134500Y-13011000D01*
X-7500Y-12947500D02*
G75*
G03X-7500Y-12947500I-63500J0D01*
G01*
X421071Y-13083214D02*
X249643Y-13083214D01*
X335357Y-13083214D02*
X335357Y-12783214D01*
X306786Y-12826071D01*
X278214Y-12854643D01*
X249643Y-12868929D01*
X549643Y-13054643D02*
X563929Y-13068929D01*
X549643Y-13083214D01*
X535357Y-13068929D01*
X549643Y-13054643D01*
X549643Y-13083214D01*
X678214Y-12811786D02*
X692500Y-12797500D01*
X721071Y-12783214D01*
X792500Y-12783214D01*
X821071Y-12797500D01*
X835357Y-12811786D01*
X849643Y-12840357D01*
X849643Y-12868929D01*
X835357Y-12911786D01*
X663928Y-13083214D01*
X849643Y-13083214D01*
X949643Y-12783214D02*
X1149643Y-12783214D01*
X1021071Y-13083214D01*
X1263929Y-13083214D02*
X1263929Y-12883214D01*
X1263929Y-12911786D02*
X1278214Y-12897500D01*
X1306786Y-12883214D01*
X1349643Y-12883214D01*
X1378214Y-12897500D01*
X1392500Y-12926071D01*
X1392500Y-13083214D01*
X1392500Y-12926071D02*
X1406786Y-12897500D01*
X1435357Y-12883214D01*
X1478214Y-12883214D01*
X1506786Y-12897500D01*
X1521071Y-12926071D01*
X1521071Y-13083214D01*
X1663928Y-13083214D02*
X1663928Y-12883214D01*
X1663928Y-12911786D02*
X1678214Y-12897500D01*
X1706786Y-12883214D01*
X1749643Y-12883214D01*
X1778214Y-12897500D01*
X1792500Y-12926071D01*
X1792500Y-13083214D01*
X1792500Y-12926071D02*
X1806786Y-12897500D01*
X1835357Y-12883214D01*
X1878214Y-12883214D01*
X1906786Y-12897500D01*
X1921071Y-12926071D01*
X1921071Y-13083214D01*
X2506786Y-12768929D02*
X2249643Y-13154643D01*
X2892500Y-12783214D02*
X2921071Y-12783214D01*
X2949643Y-12797500D01*
X2963928Y-12811786D01*
X2978214Y-12840357D01*
X2992500Y-12897500D01*
X2992500Y-12968929D01*
X2978214Y-13026071D01*
X2963928Y-13054643D01*
X2949643Y-13068929D01*
X2921071Y-13083214D01*
X2892500Y-13083214D01*
X2863928Y-13068929D01*
X2849643Y-13054643D01*
X2835357Y-13026071D01*
X2821071Y-12968929D01*
X2821071Y-12897500D01*
X2835357Y-12840357D01*
X2849643Y-12811786D01*
X2863928Y-12797500D01*
X2892500Y-12783214D01*
X3121071Y-13054643D02*
X3135357Y-13068929D01*
X3121071Y-13083214D01*
X3106786Y-13068929D01*
X3121071Y-13054643D01*
X3121071Y-13083214D01*
X3321071Y-12783214D02*
X3349643Y-12783214D01*
X3378214Y-12797500D01*
X3392500Y-12811786D01*
X3406785Y-12840357D01*
X3421071Y-12897500D01*
X3421071Y-12968929D01*
X3406785Y-13026071D01*
X3392500Y-13054643D01*
X3378214Y-13068929D01*
X3349643Y-13083214D01*
X3321071Y-13083214D01*
X3292500Y-13068929D01*
X3278214Y-13054643D01*
X3263928Y-13026071D01*
X3249643Y-12968929D01*
X3249643Y-12897500D01*
X3263928Y-12840357D01*
X3278214Y-12811786D01*
X3292500Y-12797500D01*
X3321071Y-12783214D01*
X3692500Y-12783214D02*
X3549643Y-12783214D01*
X3535357Y-12926071D01*
X3549643Y-12911786D01*
X3578214Y-12897500D01*
X3649643Y-12897500D01*
X3678214Y-12911786D01*
X3692500Y-12926071D01*
X3706785Y-12954643D01*
X3706785Y-13026071D01*
X3692500Y-13054643D01*
X3678214Y-13068929D01*
X3649643Y-13083214D01*
X3578214Y-13083214D01*
X3549643Y-13068929D01*
X3535357Y-13054643D01*
X3892500Y-12783214D02*
X3921071Y-12783214D01*
X3949643Y-12797500D01*
X3963928Y-12811786D01*
X3978214Y-12840357D01*
X3992500Y-12897500D01*
X3992500Y-12968929D01*
X3978214Y-13026071D01*
X3963928Y-13054643D01*
X3949643Y-13068929D01*
X3921071Y-13083214D01*
X3892500Y-13083214D01*
X3863928Y-13068929D01*
X3849643Y-13054643D01*
X3835357Y-13026071D01*
X3821071Y-12968929D01*
X3821071Y-12897500D01*
X3835357Y-12840357D01*
X3849643Y-12811786D01*
X3863928Y-12797500D01*
X3892500Y-12783214D01*
X4106786Y-12783214D02*
X4106786Y-12840357D01*
X4221071Y-12783214D02*
X4221071Y-12840357D01*
X4663928Y-13197500D02*
X4649643Y-13183214D01*
X4621071Y-13140357D01*
X4606786Y-13111786D01*
X4592500Y-13068929D01*
X4578214Y-12997500D01*
X4578214Y-12940357D01*
X4592500Y-12868929D01*
X4606786Y-12826071D01*
X4621071Y-12797500D01*
X4649643Y-12754643D01*
X4663928Y-12740357D01*
X4935357Y-13083214D02*
X4763928Y-13083214D01*
X4849643Y-13083214D02*
X4849643Y-12783214D01*
X4821071Y-12826071D01*
X4792500Y-12854643D01*
X4763928Y-12868929D01*
X5292500Y-13083214D02*
X5292500Y-12783214D01*
X5421071Y-13083214D02*
X5421071Y-12926071D01*
X5406786Y-12897500D01*
X5378214Y-12883214D01*
X5335357Y-12883214D01*
X5306786Y-12897500D01*
X5292500Y-12911786D01*
X5606785Y-13083214D02*
X5578214Y-13068929D01*
X5563928Y-13054643D01*
X5549643Y-13026071D01*
X5549643Y-12940357D01*
X5563928Y-12911786D01*
X5578214Y-12897500D01*
X5606785Y-12883214D01*
X5649643Y-12883214D01*
X5678214Y-12897500D01*
X5692500Y-12911786D01*
X5706785Y-12940357D01*
X5706785Y-13026071D01*
X5692500Y-13054643D01*
X5678214Y-13068929D01*
X5649643Y-13083214D01*
X5606785Y-13083214D01*
X5878214Y-13083214D02*
X5849643Y-13068929D01*
X5835357Y-13040357D01*
X5835357Y-12783214D01*
X6106786Y-13068929D02*
X6078214Y-13083214D01*
X6021071Y-13083214D01*
X5992500Y-13068929D01*
X5978214Y-13040357D01*
X5978214Y-12926071D01*
X5992500Y-12897500D01*
X6021071Y-12883214D01*
X6078214Y-12883214D01*
X6106786Y-12897500D01*
X6121071Y-12926071D01*
X6121071Y-12954643D01*
X5978214Y-12983214D01*
X6221071Y-13197500D02*
X6235357Y-13183214D01*
X6263928Y-13140357D01*
X6278214Y-13111786D01*
X6292500Y-13068929D01*
X6306786Y-12997500D01*
X6306786Y-12940357D01*
X6292500Y-12868929D01*
X6278214Y-12826071D01*
X6263928Y-12797500D01*
X6235357Y-12754643D01*
X6221071Y-12740357D01*
X-157500Y-13268500D02*
X-7500Y-13418500D01*
X-7500Y-13268500D02*
X-157500Y-13418500D01*
X-82500Y-13268500D02*
X-82500Y-13418500D01*
X-157500Y-13343500D02*
X-7500Y-13343500D01*
X421071Y-13479214D02*
X249643Y-13479214D01*
X335357Y-13479214D02*
X335357Y-13179214D01*
X306786Y-13222071D01*
X278214Y-13250643D01*
X249643Y-13264929D01*
X549643Y-13450643D02*
X563929Y-13464929D01*
X549643Y-13479214D01*
X535357Y-13464929D01*
X549643Y-13450643D01*
X549643Y-13479214D01*
X835357Y-13179214D02*
X692500Y-13179214D01*
X678214Y-13322071D01*
X692500Y-13307786D01*
X721071Y-13293500D01*
X792500Y-13293500D01*
X821071Y-13307786D01*
X835357Y-13322071D01*
X849643Y-13350643D01*
X849643Y-13422071D01*
X835357Y-13450643D01*
X821071Y-13464929D01*
X792500Y-13479214D01*
X721071Y-13479214D01*
X692500Y-13464929D01*
X678214Y-13450643D01*
X1035357Y-13179214D02*
X1063929Y-13179214D01*
X1092500Y-13193500D01*
X1106786Y-13207786D01*
X1121071Y-13236357D01*
X1135357Y-13293500D01*
X1135357Y-13364929D01*
X1121071Y-13422071D01*
X1106786Y-13450643D01*
X1092500Y-13464929D01*
X1063929Y-13479214D01*
X1035357Y-13479214D01*
X1006786Y-13464929D01*
X992500Y-13450643D01*
X978214Y-13422071D01*
X963928Y-13364929D01*
X963928Y-13293500D01*
X978214Y-13236357D01*
X992500Y-13207786D01*
X1006786Y-13193500D01*
X1035357Y-13179214D01*
X1263929Y-13479214D02*
X1263929Y-13279214D01*
X1263929Y-13307786D02*
X1278214Y-13293500D01*
X1306786Y-13279214D01*
X1349643Y-13279214D01*
X1378214Y-13293500D01*
X1392500Y-13322071D01*
X1392500Y-13479214D01*
X1392500Y-13322071D02*
X1406786Y-13293500D01*
X1435357Y-13279214D01*
X1478214Y-13279214D01*
X1506786Y-13293500D01*
X1521071Y-13322071D01*
X1521071Y-13479214D01*
X1663928Y-13479214D02*
X1663928Y-13279214D01*
X1663928Y-13307786D02*
X1678214Y-13293500D01*
X1706786Y-13279214D01*
X1749643Y-13279214D01*
X1778214Y-13293500D01*
X1792500Y-13322071D01*
X1792500Y-13479214D01*
X1792500Y-13322071D02*
X1806786Y-13293500D01*
X1835357Y-13279214D01*
X1878214Y-13279214D01*
X1906786Y-13293500D01*
X1921071Y-13322071D01*
X1921071Y-13479214D01*
X2506786Y-13164929D02*
X2249643Y-13550643D01*
X2892500Y-13179214D02*
X2921071Y-13179214D01*
X2949643Y-13193500D01*
X2963928Y-13207786D01*
X2978214Y-13236357D01*
X2992500Y-13293500D01*
X2992500Y-13364929D01*
X2978214Y-13422071D01*
X2963928Y-13450643D01*
X2949643Y-13464929D01*
X2921071Y-13479214D01*
X2892500Y-13479214D01*
X2863928Y-13464929D01*
X2849643Y-13450643D01*
X2835357Y-13422071D01*
X2821071Y-13364929D01*
X2821071Y-13293500D01*
X2835357Y-13236357D01*
X2849643Y-13207786D01*
X2863928Y-13193500D01*
X2892500Y-13179214D01*
X3121071Y-13450643D02*
X3135357Y-13464929D01*
X3121071Y-13479214D01*
X3106786Y-13464929D01*
X3121071Y-13450643D01*
X3121071Y-13479214D01*
X3321071Y-13179214D02*
X3349643Y-13179214D01*
X3378214Y-13193500D01*
X3392500Y-13207786D01*
X3406785Y-13236357D01*
X3421071Y-13293500D01*
X3421071Y-13364929D01*
X3406785Y-13422071D01*
X3392500Y-13450643D01*
X3378214Y-13464929D01*
X3349643Y-13479214D01*
X3321071Y-13479214D01*
X3292500Y-13464929D01*
X3278214Y-13450643D01*
X3263928Y-13422071D01*
X3249643Y-13364929D01*
X3249643Y-13293500D01*
X3263928Y-13236357D01*
X3278214Y-13207786D01*
X3292500Y-13193500D01*
X3321071Y-13179214D01*
X3692500Y-13179214D02*
X3549643Y-13179214D01*
X3535357Y-13322071D01*
X3549643Y-13307786D01*
X3578214Y-13293500D01*
X3649643Y-13293500D01*
X3678214Y-13307786D01*
X3692500Y-13322071D01*
X3706785Y-13350643D01*
X3706785Y-13422071D01*
X3692500Y-13450643D01*
X3678214Y-13464929D01*
X3649643Y-13479214D01*
X3578214Y-13479214D01*
X3549643Y-13464929D01*
X3535357Y-13450643D01*
X3849643Y-13479214D02*
X3906785Y-13479214D01*
X3935357Y-13464929D01*
X3949643Y-13450643D01*
X3978214Y-13407786D01*
X3992500Y-13350643D01*
X3992500Y-13236357D01*
X3978214Y-13207786D01*
X3963928Y-13193500D01*
X3935357Y-13179214D01*
X3878214Y-13179214D01*
X3849643Y-13193500D01*
X3835357Y-13207786D01*
X3821071Y-13236357D01*
X3821071Y-13307786D01*
X3835357Y-13336357D01*
X3849643Y-13350643D01*
X3878214Y-13364929D01*
X3935357Y-13364929D01*
X3963928Y-13350643D01*
X3978214Y-13336357D01*
X3992500Y-13307786D01*
X4106786Y-13179214D02*
X4106786Y-13236357D01*
X4221071Y-13179214D02*
X4221071Y-13236357D01*
X4663928Y-13593500D02*
X4649643Y-13579214D01*
X4621071Y-13536357D01*
X4606786Y-13507786D01*
X4592500Y-13464929D01*
X4578214Y-13393500D01*
X4578214Y-13336357D01*
X4592500Y-13264929D01*
X4606786Y-13222071D01*
X4621071Y-13193500D01*
X4649643Y-13150643D01*
X4663928Y-13136357D01*
X4763928Y-13207786D02*
X4778214Y-13193500D01*
X4806786Y-13179214D01*
X4878214Y-13179214D01*
X4906786Y-13193500D01*
X4921071Y-13207786D01*
X4935357Y-13236357D01*
X4935357Y-13264929D01*
X4921071Y-13307786D01*
X4749643Y-13479214D01*
X4935357Y-13479214D01*
X5292500Y-13479214D02*
X5292500Y-13179214D01*
X5421071Y-13479214D02*
X5421071Y-13322071D01*
X5406786Y-13293500D01*
X5378214Y-13279214D01*
X5335357Y-13279214D01*
X5306786Y-13293500D01*
X5292500Y-13307786D01*
X5606785Y-13479214D02*
X5578214Y-13464929D01*
X5563928Y-13450643D01*
X5549643Y-13422071D01*
X5549643Y-13336357D01*
X5563928Y-13307786D01*
X5578214Y-13293500D01*
X5606785Y-13279214D01*
X5649643Y-13279214D01*
X5678214Y-13293500D01*
X5692500Y-13307786D01*
X5706785Y-13336357D01*
X5706785Y-13422071D01*
X5692500Y-13450643D01*
X5678214Y-13464929D01*
X5649643Y-13479214D01*
X5606785Y-13479214D01*
X5878214Y-13479214D02*
X5849643Y-13464929D01*
X5835357Y-13436357D01*
X5835357Y-13179214D01*
X6106786Y-13464929D02*
X6078214Y-13479214D01*
X6021071Y-13479214D01*
X5992500Y-13464929D01*
X5978214Y-13436357D01*
X5978214Y-13322071D01*
X5992500Y-13293500D01*
X6021071Y-13279214D01*
X6078214Y-13279214D01*
X6106786Y-13293500D01*
X6121071Y-13322071D01*
X6121071Y-13350643D01*
X5978214Y-13379214D01*
X6235357Y-13464929D02*
X6263928Y-13479214D01*
X6321071Y-13479214D01*
X6349643Y-13464929D01*
X6363928Y-13436357D01*
X6363928Y-13422071D01*
X6349643Y-13393500D01*
X6321071Y-13379214D01*
X6278214Y-13379214D01*
X6249643Y-13364929D01*
X6235357Y-13336357D01*
X6235357Y-13322071D01*
X6249643Y-13293500D01*
X6278214Y-13279214D01*
X6321071Y-13279214D01*
X6349643Y-13293500D01*
X6463928Y-13593500D02*
X6478214Y-13579214D01*
X6506786Y-13536357D01*
X6521071Y-13507786D01*
X6535357Y-13464929D01*
X6549643Y-13393500D01*
X6549643Y-13336357D01*
X6535357Y-13264929D01*
X6521071Y-13222071D01*
X6506786Y-13193500D01*
X6478214Y-13150643D01*
X6463928Y-13136357D01*
X-164500Y-13661000D02*
X-7500Y-13818000D01*
X-7500Y-13661000D02*
X-164500Y-13818000D01*
X-30492Y-13795008D02*
X-30492Y-13683992D01*
X-141509Y-13683992D01*
X-141509Y-13795008D01*
X-30492Y-13795008D01*
X421071Y-13875214D02*
X249643Y-13875214D01*
X335357Y-13875214D02*
X335357Y-13575214D01*
X306786Y-13618071D01*
X278214Y-13646643D01*
X249643Y-13660929D01*
X549643Y-13846643D02*
X563929Y-13860929D01*
X549643Y-13875214D01*
X535357Y-13860929D01*
X549643Y-13846643D01*
X549643Y-13875214D01*
X835357Y-13575214D02*
X692500Y-13575214D01*
X678214Y-13718071D01*
X692500Y-13703786D01*
X721071Y-13689500D01*
X792500Y-13689500D01*
X821071Y-13703786D01*
X835357Y-13718071D01*
X849643Y-13746643D01*
X849643Y-13818071D01*
X835357Y-13846643D01*
X821071Y-13860929D01*
X792500Y-13875214D01*
X721071Y-13875214D01*
X692500Y-13860929D01*
X678214Y-13846643D01*
X949643Y-13575214D02*
X1149643Y-13575214D01*
X1021071Y-13875214D01*
X1263929Y-13875214D02*
X1263929Y-13675214D01*
X1263929Y-13703786D02*
X1278214Y-13689500D01*
X1306786Y-13675214D01*
X1349643Y-13675214D01*
X1378214Y-13689500D01*
X1392500Y-13718071D01*
X1392500Y-13875214D01*
X1392500Y-13718071D02*
X1406786Y-13689500D01*
X1435357Y-13675214D01*
X1478214Y-13675214D01*
X1506786Y-13689500D01*
X1521071Y-13718071D01*
X1521071Y-13875214D01*
X1663928Y-13875214D02*
X1663928Y-13675214D01*
X1663928Y-13703786D02*
X1678214Y-13689500D01*
X1706786Y-13675214D01*
X1749643Y-13675214D01*
X1778214Y-13689500D01*
X1792500Y-13718071D01*
X1792500Y-13875214D01*
X1792500Y-13718071D02*
X1806786Y-13689500D01*
X1835357Y-13675214D01*
X1878214Y-13675214D01*
X1906786Y-13689500D01*
X1921071Y-13718071D01*
X1921071Y-13875214D01*
X2506786Y-13560929D02*
X2249643Y-13946643D01*
X2892500Y-13575214D02*
X2921071Y-13575214D01*
X2949643Y-13589500D01*
X2963928Y-13603786D01*
X2978214Y-13632357D01*
X2992500Y-13689500D01*
X2992500Y-13760929D01*
X2978214Y-13818071D01*
X2963928Y-13846643D01*
X2949643Y-13860929D01*
X2921071Y-13875214D01*
X2892500Y-13875214D01*
X2863928Y-13860929D01*
X2849643Y-13846643D01*
X2835357Y-13818071D01*
X2821071Y-13760929D01*
X2821071Y-13689500D01*
X2835357Y-13632357D01*
X2849643Y-13603786D01*
X2863928Y-13589500D01*
X2892500Y-13575214D01*
X3121071Y-13846643D02*
X3135357Y-13860929D01*
X3121071Y-13875214D01*
X3106786Y-13860929D01*
X3121071Y-13846643D01*
X3121071Y-13875214D01*
X3321071Y-13575214D02*
X3349643Y-13575214D01*
X3378214Y-13589500D01*
X3392500Y-13603786D01*
X3406785Y-13632357D01*
X3421071Y-13689500D01*
X3421071Y-13760929D01*
X3406785Y-13818071D01*
X3392500Y-13846643D01*
X3378214Y-13860929D01*
X3349643Y-13875214D01*
X3321071Y-13875214D01*
X3292500Y-13860929D01*
X3278214Y-13846643D01*
X3263928Y-13818071D01*
X3249643Y-13760929D01*
X3249643Y-13689500D01*
X3263928Y-13632357D01*
X3278214Y-13603786D01*
X3292500Y-13589500D01*
X3321071Y-13575214D01*
X3678214Y-13575214D02*
X3621071Y-13575214D01*
X3592500Y-13589500D01*
X3578214Y-13603786D01*
X3549643Y-13646643D01*
X3535357Y-13703786D01*
X3535357Y-13818071D01*
X3549643Y-13846643D01*
X3563928Y-13860929D01*
X3592500Y-13875214D01*
X3649643Y-13875214D01*
X3678214Y-13860929D01*
X3692500Y-13846643D01*
X3706785Y-13818071D01*
X3706785Y-13746643D01*
X3692500Y-13718071D01*
X3678214Y-13703786D01*
X3649643Y-13689500D01*
X3592500Y-13689500D01*
X3563928Y-13703786D01*
X3549643Y-13718071D01*
X3535357Y-13746643D01*
X3821071Y-13603786D02*
X3835357Y-13589500D01*
X3863928Y-13575214D01*
X3935357Y-13575214D01*
X3963928Y-13589500D01*
X3978214Y-13603786D01*
X3992500Y-13632357D01*
X3992500Y-13660929D01*
X3978214Y-13703786D01*
X3806785Y-13875214D01*
X3992500Y-13875214D01*
X4106786Y-13575214D02*
X4106786Y-13632357D01*
X4221071Y-13575214D02*
X4221071Y-13632357D01*
X4663928Y-13989500D02*
X4649643Y-13975214D01*
X4621071Y-13932357D01*
X4606786Y-13903786D01*
X4592500Y-13860929D01*
X4578214Y-13789500D01*
X4578214Y-13732357D01*
X4592500Y-13660929D01*
X4606786Y-13618071D01*
X4621071Y-13589500D01*
X4649643Y-13546643D01*
X4663928Y-13532357D01*
X4906786Y-13575214D02*
X4849643Y-13575214D01*
X4821071Y-13589500D01*
X4806786Y-13603786D01*
X4778214Y-13646643D01*
X4763928Y-13703786D01*
X4763928Y-13818071D01*
X4778214Y-13846643D01*
X4792500Y-13860929D01*
X4821071Y-13875214D01*
X4878214Y-13875214D01*
X4906786Y-13860929D01*
X4921071Y-13846643D01*
X4935357Y-13818071D01*
X4935357Y-13746643D01*
X4921071Y-13718071D01*
X4906786Y-13703786D01*
X4878214Y-13689500D01*
X4821071Y-13689500D01*
X4792500Y-13703786D01*
X4778214Y-13718071D01*
X4763928Y-13746643D01*
X5292500Y-13875214D02*
X5292500Y-13575214D01*
X5421071Y-13875214D02*
X5421071Y-13718071D01*
X5406786Y-13689500D01*
X5378214Y-13675214D01*
X5335357Y-13675214D01*
X5306786Y-13689500D01*
X5292500Y-13703786D01*
X5606785Y-13875214D02*
X5578214Y-13860929D01*
X5563928Y-13846643D01*
X5549643Y-13818071D01*
X5549643Y-13732357D01*
X5563928Y-13703786D01*
X5578214Y-13689500D01*
X5606785Y-13675214D01*
X5649643Y-13675214D01*
X5678214Y-13689500D01*
X5692500Y-13703786D01*
X5706785Y-13732357D01*
X5706785Y-13818071D01*
X5692500Y-13846643D01*
X5678214Y-13860929D01*
X5649643Y-13875214D01*
X5606785Y-13875214D01*
X5878214Y-13875214D02*
X5849643Y-13860929D01*
X5835357Y-13832357D01*
X5835357Y-13575214D01*
X6106786Y-13860929D02*
X6078214Y-13875214D01*
X6021071Y-13875214D01*
X5992500Y-13860929D01*
X5978214Y-13832357D01*
X5978214Y-13718071D01*
X5992500Y-13689500D01*
X6021071Y-13675214D01*
X6078214Y-13675214D01*
X6106786Y-13689500D01*
X6121071Y-13718071D01*
X6121071Y-13746643D01*
X5978214Y-13775214D01*
X6235357Y-13860929D02*
X6263928Y-13875214D01*
X6321071Y-13875214D01*
X6349643Y-13860929D01*
X6363928Y-13832357D01*
X6363928Y-13818071D01*
X6349643Y-13789500D01*
X6321071Y-13775214D01*
X6278214Y-13775214D01*
X6249643Y-13760929D01*
X6235357Y-13732357D01*
X6235357Y-13718071D01*
X6249643Y-13689500D01*
X6278214Y-13675214D01*
X6321071Y-13675214D01*
X6349643Y-13689500D01*
X6463928Y-13989500D02*
X6478214Y-13975214D01*
X6506786Y-13932357D01*
X6521071Y-13903786D01*
X6535357Y-13860929D01*
X6549643Y-13789500D01*
X6549643Y-13732357D01*
X6535357Y-13660929D01*
X6521071Y-13618071D01*
X6506786Y-13589500D01*
X6478214Y-13546643D01*
X6463928Y-13532357D01*
X-167500Y-14055500D02*
X-7500Y-14215500D01*
X-7500Y-14055500D02*
X-167500Y-14215500D01*
X-87500Y-14215500D02*
X-7500Y-14135500D01*
X-87500Y-14055500D01*
X-167500Y-14135500D01*
X-87500Y-14215500D01*
X421071Y-14271214D02*
X249643Y-14271214D01*
X335357Y-14271214D02*
X335357Y-13971214D01*
X306786Y-14014071D01*
X278214Y-14042643D01*
X249643Y-14056929D01*
X549643Y-14242643D02*
X563929Y-14256929D01*
X549643Y-14271214D01*
X535357Y-14256929D01*
X549643Y-14242643D01*
X549643Y-14271214D01*
X821071Y-13971214D02*
X763928Y-13971214D01*
X735357Y-13985500D01*
X721071Y-13999786D01*
X692500Y-14042643D01*
X678214Y-14099786D01*
X678214Y-14214071D01*
X692500Y-14242643D01*
X706786Y-14256929D01*
X735357Y-14271214D01*
X792500Y-14271214D01*
X821071Y-14256929D01*
X835357Y-14242643D01*
X849643Y-14214071D01*
X849643Y-14142643D01*
X835357Y-14114071D01*
X821071Y-14099786D01*
X792500Y-14085500D01*
X735357Y-14085500D01*
X706786Y-14099786D01*
X692500Y-14114071D01*
X678214Y-14142643D01*
X1035357Y-13971214D02*
X1063929Y-13971214D01*
X1092500Y-13985500D01*
X1106786Y-13999786D01*
X1121071Y-14028357D01*
X1135357Y-14085500D01*
X1135357Y-14156929D01*
X1121071Y-14214071D01*
X1106786Y-14242643D01*
X1092500Y-14256929D01*
X1063929Y-14271214D01*
X1035357Y-14271214D01*
X1006786Y-14256929D01*
X992500Y-14242643D01*
X978214Y-14214071D01*
X963928Y-14156929D01*
X963928Y-14085500D01*
X978214Y-14028357D01*
X992500Y-13999786D01*
X1006786Y-13985500D01*
X1035357Y-13971214D01*
X1263929Y-14271214D02*
X1263929Y-14071214D01*
X1263929Y-14099786D02*
X1278214Y-14085500D01*
X1306786Y-14071214D01*
X1349643Y-14071214D01*
X1378214Y-14085500D01*
X1392500Y-14114071D01*
X1392500Y-14271214D01*
X1392500Y-14114071D02*
X1406786Y-14085500D01*
X1435357Y-14071214D01*
X1478214Y-14071214D01*
X1506786Y-14085500D01*
X1521071Y-14114071D01*
X1521071Y-14271214D01*
X1663928Y-14271214D02*
X1663928Y-14071214D01*
X1663928Y-14099786D02*
X1678214Y-14085500D01*
X1706786Y-14071214D01*
X1749643Y-14071214D01*
X1778214Y-14085500D01*
X1792500Y-14114071D01*
X1792500Y-14271214D01*
X1792500Y-14114071D02*
X1806786Y-14085500D01*
X1835357Y-14071214D01*
X1878214Y-14071214D01*
X1906786Y-14085500D01*
X1921071Y-14114071D01*
X1921071Y-14271214D01*
X2506786Y-13956929D02*
X2249643Y-14342643D01*
X2892500Y-13971214D02*
X2921071Y-13971214D01*
X2949643Y-13985500D01*
X2963928Y-13999786D01*
X2978214Y-14028357D01*
X2992500Y-14085500D01*
X2992500Y-14156929D01*
X2978214Y-14214071D01*
X2963928Y-14242643D01*
X2949643Y-14256929D01*
X2921071Y-14271214D01*
X2892500Y-14271214D01*
X2863928Y-14256929D01*
X2849643Y-14242643D01*
X2835357Y-14214071D01*
X2821071Y-14156929D01*
X2821071Y-14085500D01*
X2835357Y-14028357D01*
X2849643Y-13999786D01*
X2863928Y-13985500D01*
X2892500Y-13971214D01*
X3121071Y-14242643D02*
X3135357Y-14256929D01*
X3121071Y-14271214D01*
X3106786Y-14256929D01*
X3121071Y-14242643D01*
X3121071Y-14271214D01*
X3321071Y-13971214D02*
X3349643Y-13971214D01*
X3378214Y-13985500D01*
X3392500Y-13999786D01*
X3406785Y-14028357D01*
X3421071Y-14085500D01*
X3421071Y-14156929D01*
X3406785Y-14214071D01*
X3392500Y-14242643D01*
X3378214Y-14256929D01*
X3349643Y-14271214D01*
X3321071Y-14271214D01*
X3292500Y-14256929D01*
X3278214Y-14242643D01*
X3263928Y-14214071D01*
X3249643Y-14156929D01*
X3249643Y-14085500D01*
X3263928Y-14028357D01*
X3278214Y-13999786D01*
X3292500Y-13985500D01*
X3321071Y-13971214D01*
X3678214Y-13971214D02*
X3621071Y-13971214D01*
X3592500Y-13985500D01*
X3578214Y-13999786D01*
X3549643Y-14042643D01*
X3535357Y-14099786D01*
X3535357Y-14214071D01*
X3549643Y-14242643D01*
X3563928Y-14256929D01*
X3592500Y-14271214D01*
X3649643Y-14271214D01*
X3678214Y-14256929D01*
X3692500Y-14242643D01*
X3706785Y-14214071D01*
X3706785Y-14142643D01*
X3692500Y-14114071D01*
X3678214Y-14099786D01*
X3649643Y-14085500D01*
X3592500Y-14085500D01*
X3563928Y-14099786D01*
X3549643Y-14114071D01*
X3535357Y-14142643D01*
X3806785Y-13971214D02*
X3992500Y-13971214D01*
X3892500Y-14085500D01*
X3935357Y-14085500D01*
X3963928Y-14099786D01*
X3978214Y-14114071D01*
X3992500Y-14142643D01*
X3992500Y-14214071D01*
X3978214Y-14242643D01*
X3963928Y-14256929D01*
X3935357Y-14271214D01*
X3849643Y-14271214D01*
X3821071Y-14256929D01*
X3806785Y-14242643D01*
X4106786Y-13971214D02*
X4106786Y-14028357D01*
X4221071Y-13971214D02*
X4221071Y-14028357D01*
X4663928Y-14385500D02*
X4649643Y-14371214D01*
X4621071Y-14328357D01*
X4606786Y-14299786D01*
X4592500Y-14256929D01*
X4578214Y-14185500D01*
X4578214Y-14128357D01*
X4592500Y-14056929D01*
X4606786Y-14014071D01*
X4621071Y-13985500D01*
X4649643Y-13942643D01*
X4663928Y-13928357D01*
X4935357Y-14271214D02*
X4763928Y-14271214D01*
X4849643Y-14271214D02*
X4849643Y-13971214D01*
X4821071Y-14014071D01*
X4792500Y-14042643D01*
X4763928Y-14056929D01*
X5292500Y-14271214D02*
X5292500Y-13971214D01*
X5421071Y-14271214D02*
X5421071Y-14114071D01*
X5406786Y-14085500D01*
X5378214Y-14071214D01*
X5335357Y-14071214D01*
X5306786Y-14085500D01*
X5292500Y-14099786D01*
X5606785Y-14271214D02*
X5578214Y-14256929D01*
X5563928Y-14242643D01*
X5549643Y-14214071D01*
X5549643Y-14128357D01*
X5563928Y-14099786D01*
X5578214Y-14085500D01*
X5606785Y-14071214D01*
X5649643Y-14071214D01*
X5678214Y-14085500D01*
X5692500Y-14099786D01*
X5706785Y-14128357D01*
X5706785Y-14214071D01*
X5692500Y-14242643D01*
X5678214Y-14256929D01*
X5649643Y-14271214D01*
X5606785Y-14271214D01*
X5878214Y-14271214D02*
X5849643Y-14256929D01*
X5835357Y-14228357D01*
X5835357Y-13971214D01*
X6106786Y-14256929D02*
X6078214Y-14271214D01*
X6021071Y-14271214D01*
X5992500Y-14256929D01*
X5978214Y-14228357D01*
X5978214Y-14114071D01*
X5992500Y-14085500D01*
X6021071Y-14071214D01*
X6078214Y-14071214D01*
X6106786Y-14085500D01*
X6121071Y-14114071D01*
X6121071Y-14142643D01*
X5978214Y-14171214D01*
X6221071Y-14385500D02*
X6235357Y-14371214D01*
X6263928Y-14328357D01*
X6278214Y-14299786D01*
X6292500Y-14256929D01*
X6306786Y-14185500D01*
X6306786Y-14128357D01*
X6292500Y-14056929D01*
X6278214Y-14014071D01*
X6263928Y-13985500D01*
X6235357Y-13942643D01*
X6221071Y-13928357D01*
X-172500Y-14366500D02*
X-172500Y-14696500D01*
X-337500Y-14531500D02*
X-7500Y-14531500D01*
X-7500Y-14531500D02*
G75*
G03X-7500Y-14531500I-165000J0D01*
G01*
X235357Y-14367214D02*
X421071Y-14367214D01*
X321071Y-14481500D01*
X363928Y-14481500D01*
X392500Y-14495786D01*
X406786Y-14510071D01*
X421071Y-14538643D01*
X421071Y-14610071D01*
X406786Y-14638643D01*
X392500Y-14652929D01*
X363928Y-14667214D01*
X278214Y-14667214D01*
X249643Y-14652929D01*
X235357Y-14638643D01*
X549643Y-14638643D02*
X563929Y-14652929D01*
X549643Y-14667214D01*
X535357Y-14652929D01*
X549643Y-14638643D01*
X549643Y-14667214D01*
X663928Y-14367214D02*
X849643Y-14367214D01*
X749643Y-14481500D01*
X792500Y-14481500D01*
X821071Y-14495786D01*
X835357Y-14510071D01*
X849643Y-14538643D01*
X849643Y-14610071D01*
X835357Y-14638643D01*
X821071Y-14652929D01*
X792500Y-14667214D01*
X706786Y-14667214D01*
X678214Y-14652929D01*
X663928Y-14638643D01*
X1035357Y-14367214D02*
X1063929Y-14367214D01*
X1092500Y-14381500D01*
X1106786Y-14395786D01*
X1121071Y-14424357D01*
X1135357Y-14481500D01*
X1135357Y-14552929D01*
X1121071Y-14610071D01*
X1106786Y-14638643D01*
X1092500Y-14652929D01*
X1063929Y-14667214D01*
X1035357Y-14667214D01*
X1006786Y-14652929D01*
X992500Y-14638643D01*
X978214Y-14610071D01*
X963928Y-14552929D01*
X963928Y-14481500D01*
X978214Y-14424357D01*
X992500Y-14395786D01*
X1006786Y-14381500D01*
X1035357Y-14367214D01*
X1263929Y-14667214D02*
X1263929Y-14467214D01*
X1263929Y-14495786D02*
X1278214Y-14481500D01*
X1306786Y-14467214D01*
X1349643Y-14467214D01*
X1378214Y-14481500D01*
X1392500Y-14510071D01*
X1392500Y-14667214D01*
X1392500Y-14510071D02*
X1406786Y-14481500D01*
X1435357Y-14467214D01*
X1478214Y-14467214D01*
X1506786Y-14481500D01*
X1521071Y-14510071D01*
X1521071Y-14667214D01*
X1663928Y-14667214D02*
X1663928Y-14467214D01*
X1663928Y-14495786D02*
X1678214Y-14481500D01*
X1706786Y-14467214D01*
X1749643Y-14467214D01*
X1778214Y-14481500D01*
X1792500Y-14510071D01*
X1792500Y-14667214D01*
X1792500Y-14510071D02*
X1806786Y-14481500D01*
X1835357Y-14467214D01*
X1878214Y-14467214D01*
X1906786Y-14481500D01*
X1921071Y-14510071D01*
X1921071Y-14667214D01*
X2506786Y-14352929D02*
X2249643Y-14738643D01*
X2892500Y-14367214D02*
X2921071Y-14367214D01*
X2949643Y-14381500D01*
X2963928Y-14395786D01*
X2978214Y-14424357D01*
X2992500Y-14481500D01*
X2992500Y-14552929D01*
X2978214Y-14610071D01*
X2963928Y-14638643D01*
X2949643Y-14652929D01*
X2921071Y-14667214D01*
X2892500Y-14667214D01*
X2863928Y-14652929D01*
X2849643Y-14638643D01*
X2835357Y-14610071D01*
X2821071Y-14552929D01*
X2821071Y-14481500D01*
X2835357Y-14424357D01*
X2849643Y-14395786D01*
X2863928Y-14381500D01*
X2892500Y-14367214D01*
X3121071Y-14638643D02*
X3135357Y-14652929D01*
X3121071Y-14667214D01*
X3106786Y-14652929D01*
X3121071Y-14638643D01*
X3121071Y-14667214D01*
X3421071Y-14667214D02*
X3249643Y-14667214D01*
X3335357Y-14667214D02*
X3335357Y-14367214D01*
X3306785Y-14410071D01*
X3278214Y-14438643D01*
X3249643Y-14452929D01*
X3521071Y-14367214D02*
X3706785Y-14367214D01*
X3606785Y-14481500D01*
X3649643Y-14481500D01*
X3678214Y-14495786D01*
X3692500Y-14510071D01*
X3706785Y-14538643D01*
X3706785Y-14610071D01*
X3692500Y-14638643D01*
X3678214Y-14652929D01*
X3649643Y-14667214D01*
X3563928Y-14667214D01*
X3535357Y-14652929D01*
X3521071Y-14638643D01*
X3892500Y-14367214D02*
X3921071Y-14367214D01*
X3949643Y-14381500D01*
X3963928Y-14395786D01*
X3978214Y-14424357D01*
X3992500Y-14481500D01*
X3992500Y-14552929D01*
X3978214Y-14610071D01*
X3963928Y-14638643D01*
X3949643Y-14652929D01*
X3921071Y-14667214D01*
X3892500Y-14667214D01*
X3863928Y-14652929D01*
X3849643Y-14638643D01*
X3835357Y-14610071D01*
X3821071Y-14552929D01*
X3821071Y-14481500D01*
X3835357Y-14424357D01*
X3849643Y-14395786D01*
X3863928Y-14381500D01*
X3892500Y-14367214D01*
X4106786Y-14367214D02*
X4106786Y-14424357D01*
X4221071Y-14367214D02*
X4221071Y-14424357D01*
X4663928Y-14781500D02*
X4649643Y-14767214D01*
X4621071Y-14724357D01*
X4606786Y-14695786D01*
X4592500Y-14652929D01*
X4578214Y-14581500D01*
X4578214Y-14524357D01*
X4592500Y-14452929D01*
X4606786Y-14410071D01*
X4621071Y-14381500D01*
X4649643Y-14338643D01*
X4663928Y-14324357D01*
X4906786Y-14467214D02*
X4906786Y-14667214D01*
X4835357Y-14352929D02*
X4763928Y-14567214D01*
X4949643Y-14567214D01*
X5292500Y-14667214D02*
X5292500Y-14367214D01*
X5421071Y-14667214D02*
X5421071Y-14510071D01*
X5406786Y-14481500D01*
X5378214Y-14467214D01*
X5335357Y-14467214D01*
X5306786Y-14481500D01*
X5292500Y-14495786D01*
X5606785Y-14667214D02*
X5578214Y-14652929D01*
X5563928Y-14638643D01*
X5549643Y-14610071D01*
X5549643Y-14524357D01*
X5563928Y-14495786D01*
X5578214Y-14481500D01*
X5606785Y-14467214D01*
X5649643Y-14467214D01*
X5678214Y-14481500D01*
X5692500Y-14495786D01*
X5706785Y-14524357D01*
X5706785Y-14610071D01*
X5692500Y-14638643D01*
X5678214Y-14652929D01*
X5649643Y-14667214D01*
X5606785Y-14667214D01*
X5878214Y-14667214D02*
X5849643Y-14652929D01*
X5835357Y-14624357D01*
X5835357Y-14367214D01*
X6106786Y-14652929D02*
X6078214Y-14667214D01*
X6021071Y-14667214D01*
X5992500Y-14652929D01*
X5978214Y-14624357D01*
X5978214Y-14510071D01*
X5992500Y-14481500D01*
X6021071Y-14467214D01*
X6078214Y-14467214D01*
X6106786Y-14481500D01*
X6121071Y-14510071D01*
X6121071Y-14538643D01*
X5978214Y-14567214D01*
X6235357Y-14652929D02*
X6263928Y-14667214D01*
X6321071Y-14667214D01*
X6349643Y-14652929D01*
X6363928Y-14624357D01*
X6363928Y-14610071D01*
X6349643Y-14581500D01*
X6321071Y-14567214D01*
X6278214Y-14567214D01*
X6249643Y-14552929D01*
X6235357Y-14524357D01*
X6235357Y-14510071D01*
X6249643Y-14481500D01*
X6278214Y-14467214D01*
X6321071Y-14467214D01*
X6349643Y-14481500D01*
X6463928Y-14781500D02*
X6478214Y-14767214D01*
X6506786Y-14724357D01*
X6521071Y-14695786D01*
X6535357Y-14652929D01*
X6549643Y-14581500D01*
X6549643Y-14524357D01*
X6535357Y-14452929D01*
X6521071Y-14410071D01*
X6506786Y-14381500D01*
X6478214Y-14338643D01*
X6463928Y-14324357D01*
M02*
