M48
;DRILL file {KiCad 4.0.7} date 02/08/18 06:23:05
;FORMAT={-:-/ absolute / metric / decimal}
FMAT,2
METRIC,TZ
T1C0.300
T2C0.813
T3C0.998
T4C1.000
T5C1.200
T6C1.270
T7C1.500
T8C1.570
T9C1.600
T10C3.300
%
G90
G05
M71
T1
X1.12Y-1.656
X1.12Y-5.847
X1.12Y-10.927
X1.12Y-16.007
X1.12Y-21.087
X1.12Y-26.167
X1.12Y-31.247
X1.12Y-35.438
X1.12Y-40.518
X1.12Y-45.598
X1.12Y-50.678
X1.12Y-55.758
X1.12Y-60.838
X1.628Y-66.172
X1.628Y-70.236
X2.136Y-96.652
X2.39Y-79.38
X2.39Y-84.46
X2.39Y-89.54
X2.39Y-92.334
X2.644Y-64.14
X2.898Y-33.025
X3.025Y-3.561
X3.152Y-68.204
X3.914Y-66.172
X4.168Y-74.808
X4.168Y-77.348
X4.676Y-35.438
X6.2Y-98.176
X6.962Y-70.744
X6.962Y-77.348
X6.962Y-82.682
X7.089Y-33.025
X7.724Y-39.121
X7.851Y-19.944
X8.105Y-3.561
X8.232Y-48.138
X8.232Y-58.044
X8.486Y-37.216
X8.613Y-64.267
X8.74Y-50.17
X8.74Y-67.696
X8.74Y-70.744
X8.74Y-77.348
X8.994Y-6.99
X8.994Y-59.568
X9.629Y-15.753
X9.629Y-17.531
X9.756Y-35.438
X10.2Y-54.297
X10.2Y-56.139
X10.264Y-13.848
X10.264Y-65.156
X10.264Y-67.696
X10.518Y-70.744
X10.518Y-82.682
X10.772Y-39.121
X10.772Y-41.534
X10.772Y-43.058
X10.772Y-44.328
X10.899Y-26.802
X11.28Y-21.468
X11.28Y-98.176
X11.788Y-17.785
X12.042Y-51.694
X12.169Y-33.025
X12.169Y-38.994
X12.296Y-54.488
X12.55Y-41.534
X12.804Y-78.364
X13.058Y-58.298
X13.185Y-3.561
X13.312Y-65.156
X14.074Y-70.236
X14.582Y-15.372
X14.582Y-35.438
X15.344Y-63.886
X15.725Y-28.326
X15.852Y-61.346
X15.852Y-98.176
X16.106Y-41.534
X16.106Y-73.538
X16.614Y-65.918
X16.614Y-69.982
X17.122Y-54.488
X17.249Y-33.025
X17.249Y-38.994
X17.376Y-42.804
X17.376Y-45.725
X17.884Y-50.233
X17.884Y-57.028
X18.392Y-15.372
X18.392Y-68.458
X18.9Y-41.534
X18.9Y-53.472
X18.9Y-70.998
X19.154Y-43.82
X19.662Y-30.993
X19.662Y-61.346
X19.916Y-21.722
X19.916Y-33.025
X19.916Y-35.438
X19.916Y-51.44
X20.424Y-53.472
X20.424Y-74.3
X21.186Y-10.038
X21.694Y-12.578
X21.694Y-14.356
X21.694Y-58.552
X21.694Y-59.822
X21.694Y-68.712
X22.202Y-22.484
X22.202Y-30.485
X22.202Y-42.042
X22.456Y-53.472
X22.964Y-16.896
X22.964Y-36.708
X23.345Y-58.552
X23.345Y-59.822
X23.472Y-54.234
X23.599Y-33.025
X23.726Y-21.976
X23.726Y-25.278
X23.726Y-27.564
X23.726Y-66.934
X23.726Y-71.506
X23.726Y-75.316
X23.98Y-38.994
X23.98Y-91.064
X23.98Y-93.096
X23.98Y-95.636
X23.98Y-98.43
X24.107Y-46.233
X24.234Y-63.378
X24.742Y-10.292
X24.742Y-51.948
X24.742Y-73.792
X24.996Y-41.534
X24.996Y-43.947
X24.996Y-50.678
X24.996Y-68.712
X25.504Y-48.392
X25.504Y-77.856
X25.758Y-3.561
X25.885Y-45.979
X26.012Y-18.236
X26.012Y-19.236
X26.012Y-47.376
X26.012Y-88.016
X26.266Y-66.426
X26.266Y-84.46
X26.266Y-86.492
X26.52Y-36.708
X26.52Y-76.332
X26.901Y-28.199
X27.028Y-82.682
X27.155Y-33.025
X27.282Y-67.95
X27.282Y-71.506
X27.536Y-11.562
X27.536Y-53.218
X27.79Y-48.646
X28.044Y-80.65
X28.298Y-41.534
X28.298Y-44.328
X28.298Y-64.013
X28.298Y-66.172
X28.806Y-16.896
X28.806Y-72.776
X28.806Y-74.808
X28.806Y-79.126
X29.06Y-8.768
X29.06Y-38.994
X29.06Y-85.476
X29.06Y-90.556
X29.06Y-95.636
X29.06Y-98.43
X29.187Y-64.013
X29.187Y-66.172
X29.568Y-48.392
X29.568Y-54.234
X29.822Y-17.912
X29.822Y-20.96
X30.33Y-26.04
X30.33Y-27.945
X30.33Y-53.218
X30.33Y-58.806
X30.33Y-63.886
X30.584Y-14.356
X30.584Y-19.944
X30.584Y-21.722
X30.584Y-44.328
X30.838Y-3.561
X30.965Y-33.025
X31.092Y-45.598
X31.346Y-8.768
X31.346Y-16.642
X31.346Y-48.9
X31.6Y-67.95
X31.6Y-73.03
X31.6Y-78.11
X31.6Y-82.682
X31.6Y-88.016
X31.6Y-93.096
X31.854Y-36.708
X32.362Y-52.456
X32.362Y-57.536
X32.362Y-62.616
X32.87Y-43.312
X33.505Y-12.959
X34.14Y-11.562
X34.14Y-38.994
X34.14Y-49.408
X34.14Y-54.996
X34.14Y-60.076
X34.14Y-65.156
X34.14Y-70.236
X34.14Y-75.316
X34.14Y-80.396
X34.14Y-85.476
X34.14Y-90.556
X34.14Y-95.636
X34.14Y-98.43
X34.648Y-8.895
X34.775Y-32.39
X35.918Y-3.561
X36.045Y-15.88
X36.045Y-19.69
X36.045Y-23.5
X36.045Y-27.31
X37.315Y-14.61
X38.204Y-11.054
X40.49Y-14.61
X40.49Y-17.15
X40.49Y-24.77
X40.49Y-32.39
X40.49Y-40.01
X40.49Y-47.63
X40.49Y-55.25
X40.49Y-62.87
X40.49Y-70.49
X40.49Y-78.11
X40.49Y-85.73
X40.49Y-93.35
X40.49Y-98.43
X40.998Y-3.561
X42.268Y-11.054
X43.03Y-36.2
X43.03Y-47.122
X43.03Y-58.044
X43.03Y-68.966
X43.03Y-79.888
X43.03Y-90.81
X43.03Y-95.89
X44.3Y-14.61
X44.3Y-20.96
X44.3Y-28.58
X45.57Y-17.15
X45.57Y-31.882
X45.57Y-42.804
X45.57Y-53.726
X45.57Y-64.648
X45.57Y-75.57
X45.57Y-86.492
X45.57Y-98.43
X46.078Y-3.561
X46.078Y-11.054
X48.11Y-14.61
X48.364Y-36.2
X48.364Y-47.122
X48.364Y-58.044
X48.364Y-68.966
X48.364Y-79.888
X48.364Y-90.81
X49.126Y-95.89
X49.888Y-11.054
X50.015Y-20.96
X50.015Y-28.58
X51.158Y-3.561
X51.666Y-5.212
X51.92Y-14.61
X53.19Y-17.15
X53.19Y-31.882
X53.19Y-42.804
X53.19Y-53.726
X53.19Y-64.648
X53.19Y-75.57
X53.19Y-86.492
X53.19Y-98.43
X53.444Y-36.2
X53.444Y-47.122
X53.444Y-58.044
X53.444Y-68.966
X53.444Y-79.888
X53.444Y-90.81
X53.698Y-11.054
X54.714Y-95.89
X55.73Y-14.61
X56.238Y-3.561
X56.746Y-37.216
X56.746Y-48.138
X56.746Y-59.06
X56.746Y-69.982
X56.746Y-80.904
X56.746Y-91.826
X57.Y-22.865
X57.Y-26.04
X57.508Y-11.054
X59.032Y-36.2
X59.032Y-46.868
X59.032Y-57.79
X59.032Y-68.712
X59.032Y-79.888
X59.032Y-90.556
X59.54Y-14.61
X60.81Y-17.15
X60.81Y-22.865
X60.81Y-26.04
X60.81Y-31.882
X60.81Y-98.43
X61.064Y-42.804
X61.064Y-53.726
X61.064Y-64.648
X61.064Y-75.57
X61.318Y-3.561
X61.318Y-11.054
X61.318Y-86.492
X62.08Y-6.99
X63.35Y-14.61
X64.874Y-36.962
X64.874Y-47.884
X64.874Y-58.806
X64.874Y-69.728
X64.874Y-80.65
X64.874Y-91.318
X65.636Y-11.816
X65.89Y-31.882
X65.89Y-42.804
X65.89Y-53.726
X65.89Y-64.648
X65.89Y-75.57
X65.89Y-86.492
X66.144Y-9.53
X66.398Y-3.561
X66.525Y-26.04
X67.16Y-14.61
X68.43Y-17.15
X68.43Y-98.43
X69.065Y-22.23
X69.065Y-26.04
X69.954Y-8.514
X69.954Y-12.324
X69.954Y-91.318
X70.208Y-13.086
X70.208Y-69.728
X70.462Y-36.962
X70.462Y-47.884
X70.462Y-58.806
X70.462Y-80.65
X70.97Y-6.99
X70.97Y-14.61
X71.478Y-3.561
X74.272Y-25.532
X74.272Y-36.962
X74.272Y-47.884
X74.272Y-58.806
X74.272Y-69.728
X74.272Y-80.65
X74.272Y-91.318
X74.526Y-11.308
X74.78Y-14.61
X75.034Y-17.912
X76.05Y-17.15
X76.05Y-98.43
X76.558Y-3.561
X76.812Y-29.85
X76.812Y-41.026
X76.812Y-51.948
X76.812Y-62.87
X76.812Y-73.792
X76.812Y-84.714
X77.574Y-37.47
X77.574Y-48.392
X77.574Y-59.314
X77.574Y-70.236
X77.574Y-81.158
X77.574Y-92.08
X78.59Y-14.61
X78.717Y-11.943
X78.844Y-9.276
X79.098Y-70.236
X80.368Y-5.72
X80.368Y-53.472
X80.622Y-43.312
X81.13Y-50.424
X81.384Y-39.502
X81.638Y-3.561
X81.638Y-61.6
X81.638Y-81.92
X82.15Y-67.97
X82.273Y-86.619
X82.4Y-14.61
X82.4Y-34.422
X82.908Y-46.868
X83.416Y-72.014
X83.46Y-54.41
X83.67Y-17.15
X83.67Y-62.108
X83.67Y-79.38
X83.67Y-83.19
X83.67Y-89.54
X83.67Y-94.62
X83.67Y-98.43
X83.924Y-34.676
X83.924Y-58.044
X83.924Y-70.49
X84.051Y-11.689
X84.051Y-14.61
X84.178Y-73.665
X84.432Y-61.6
X84.686Y-7.244
X84.686Y-74.554
X84.94Y-75.57
X85.16Y-61.04
X85.69Y-63.25
X86.464Y-11.562
X86.591Y-51.186
X86.718Y-3.561
X86.718Y-60.584
X87.48Y-80.65
X87.48Y-85.73
X87.48Y-92.08
X88.369Y-51.694
X88.81Y-58.11
X88.877Y-54.742
X89.512Y-40.01
X89.512Y-70.744
X89.639Y-55.885
X89.766Y-63.632
X90.147Y-51.694
X90.147Y-54.742
X90.401Y-70.744
X90.401Y-72.395
X90.528Y-62.87
X90.528Y-66.426
X90.528Y-69.474
X90.57Y-76.9
X91.187Y-70.032
X91.29Y-17.15
X91.29Y-34.676
X91.29Y-80.65
X91.29Y-88.27
X91.29Y-93.35
X91.29Y-98.43
X91.417Y-72.395
X91.798Y-3.561
X92.306Y-33.66
X93.Y-79.89
X93.068Y-63.886
X93.195Y-15.88
X93.322Y-66.172
X93.322Y-70.998
X93.55Y-56.13
X93.62Y-26.39
X93.627Y-23.195
X93.83Y-62.616
X94.338Y-78.618
X94.37Y-53.67
X94.465Y-13.975
X94.592Y-64.648
X94.68Y-76.01
X94.973Y-65.791
X94.973Y-67.061
X94.973Y-68.331
X94.973Y-69.601
X94.973Y-70.871
X94.973Y-72.141
X95.1Y-31.374
X95.354Y-38.994
X95.608Y-48.646
X95.608Y-62.616
X95.862Y-36.454
X95.862Y-58.298
X96.116Y-43.82
X96.37Y-40.772
X97.488Y-38.08
X98.148Y-30.358
X98.148Y-35.184
X98.91Y-65.41
X98.91Y-73.03
X98.91Y-80.65
T2
X67.922Y-20.706
X67.922Y-28.326
X67.922Y-31.882
X67.922Y-39.502
X67.922Y-42.804
X67.922Y-50.424
X67.922Y-53.726
X67.922Y-61.346
X67.922Y-64.648
X67.922Y-72.268
X67.922Y-75.57
X67.922Y-83.19
X67.922Y-86.492
X67.922Y-94.112
X70.462Y-20.706
X70.462Y-28.326
X70.462Y-31.882
X70.462Y-39.502
X70.462Y-42.804
X70.462Y-50.424
X70.462Y-53.726
X70.462Y-61.346
X70.462Y-64.648
X70.462Y-72.268
X70.462Y-75.57
X70.462Y-83.19
X70.462Y-86.492
X70.462Y-94.112
X73.002Y-20.706
X73.002Y-28.326
X73.002Y-31.882
X73.002Y-39.502
X73.002Y-42.804
X73.002Y-50.424
X73.002Y-53.726
X73.002Y-61.346
X73.002Y-64.648
X73.002Y-72.268
X73.002Y-75.57
X73.002Y-83.19
X73.002Y-86.492
X73.002Y-94.112
X75.542Y-20.706
X75.542Y-28.326
X75.542Y-31.882
X75.542Y-39.502
X75.542Y-42.804
X75.542Y-50.424
X75.542Y-53.726
X75.542Y-61.346
X75.542Y-64.648
X75.542Y-72.268
X75.542Y-75.57
X75.542Y-83.19
X75.542Y-86.492
X75.542Y-94.112
X78.082Y-20.706
X78.082Y-28.326
X78.082Y-31.882
X78.082Y-39.502
X78.082Y-42.804
X78.082Y-50.424
X78.082Y-53.726
X78.082Y-61.346
X78.082Y-64.648
X78.082Y-72.268
X78.082Y-75.57
X78.082Y-83.19
X78.082Y-86.492
X78.082Y-94.112
T3
X6.39Y-22.18
X6.39Y-24.72
X6.39Y-28.453
X6.39Y-30.993
T4
X4.041Y-37.953
X4.041Y-40.493
X4.041Y-43.033
X4.041Y-45.573
X4.041Y-48.113
X4.041Y-50.653
X4.041Y-53.193
X4.041Y-55.733
X4.041Y-58.273
X4.041Y-60.813
X4.592Y-5.971
X4.592Y-8.511
X4.592Y-11.051
X4.592Y-13.591
X4.592Y-16.131
X4.592Y-18.671
X6.581Y-37.953
X6.581Y-40.493
X6.581Y-43.033
X6.581Y-45.573
X6.581Y-48.113
X6.581Y-50.653
X6.581Y-53.193
X6.581Y-55.733
X6.581Y-58.273
X6.581Y-60.813
X11.534Y-5.974
X13.49Y-47.452
X13.49Y-49.992
X13.49Y-52.532
X14.074Y-5.974
X16.03Y-47.452
X16.03Y-49.992
X16.03Y-52.532
X18.646Y-73.03
X18.646Y-75.57
X18.646Y-78.11
X18.646Y-80.65
X18.646Y-84.46
X18.646Y-87.
X18.646Y-89.54
X18.646Y-92.08
X26.266Y-60.584
X26.266Y-63.124
X41.608Y-7.803
X44.148Y-7.803
X46.688Y-7.803
X49.228Y-7.803
X51.768Y-7.803
X54.308Y-7.803
X95.99Y-24.65
X96.16Y-6.95
X96.16Y-9.49
X96.16Y-9.49
X96.16Y-9.49
X96.16Y-9.49
X96.16Y-12.03
X96.16Y-14.57
X96.16Y-17.11
X96.16Y-88.2
X98.53Y-19.57
X98.53Y-22.11
X98.53Y-27.19
X98.7Y-6.95
X98.7Y-9.49
X98.7Y-9.49
X98.7Y-9.49
X98.7Y-9.49
X98.7Y-12.03
X98.7Y-14.57
X98.7Y-17.11
X98.7Y-83.12
X98.7Y-85.66
X98.7Y-90.74
X98.74Y-39.96
X98.74Y-42.5
X98.74Y-45.04
X98.74Y-47.58
X98.74Y-50.12
X98.74Y-52.66
X98.74Y-55.2
X98.74Y-57.74
X98.74Y-60.28
T5
X52.174Y-22.738
X52.174Y-27.818
X52.174Y-33.66
X52.174Y-38.74
X52.174Y-44.582
X52.174Y-49.662
X52.174Y-55.504
X52.174Y-60.584
X52.174Y-66.426
X52.174Y-71.506
X52.174Y-77.348
X52.174Y-82.428
X52.174Y-88.27
X52.174Y-93.35
X56.746Y-41.026
X56.746Y-51.948
X56.746Y-62.87
X56.746Y-73.792
X56.746Y-84.714
X56.746Y-95.636
X61.826Y-41.026
X61.826Y-51.948
X61.826Y-62.87
X61.826Y-73.792
X61.826Y-84.714
X61.826Y-95.636
X64.62Y-22.738
X64.62Y-27.818
X81.69Y-21.23
X82.325Y-18.055
X85.5Y-27.58
X88.04Y-21.23
X90.58Y-27.58
T6
X89.4Y-10.7
T7
X21.948Y-48.9
X26.012Y-21.236
T8
X95.835Y-22.11
X95.835Y-27.19
X96.005Y-85.66
X96.005Y-90.74
X98.245Y-24.65
X98.415Y-88.2
T9
X92.45Y-10.7
T10
X20.Y-3.
X20.Y-97.
X97.Y-3.
X97.Y-97.
T0
M30
